<svg width="20" height="20" viewBox="0 0 20 20" fill="none" xmlns="http://www.w3.org/2000/svg">
<path d="M0 10C0 4.47715 4.47715 0 10 0C15.5228 0 20 4.47715 20 10C20 15.5228 15.5228 20 10 20C4.47715 20 0 15.5228 0 10Z" fill="#030235"/>
<path fill-rule="evenodd" clip-rule="evenodd" d="M10.6667 5.4289C10.6667 5.00811 10.3683 4.66699 10.0001 4.66699C9.63189 4.66699 9.33342 5.00811 9.33342 5.4289V9.33366H5.42865C5.00786 9.33366 4.66675 9.63214 4.66675 10.0003C4.66675 10.3685 5.00786 10.667 5.42865 10.667H9.33342V14.5718C9.33342 14.9925 9.63189 15.3337 10.0001 15.3337C10.3683 15.3337 10.6667 14.9925 10.6667 14.5718V10.667H14.5715C14.9923 10.667 15.3334 10.3685 15.3334 10.0003C15.3334 9.63214 14.9923 9.33366 14.5715 9.33366H10.6667V5.4289Z" fill="white"/>
</svg>
