<svg width="20" height="20" viewBox="0 0 20 20" fill="none" xmlns="http://www.w3.org/2000/svg">
<path fill-rule="evenodd" clip-rule="evenodd" d="M3.95841 16.0415V3.95817H16.0417V16.0415H3.95841ZM3.75008 2.2915C2.94467 2.2915 2.29175 2.94442 2.29175 3.74984V16.2498C2.29175 17.0553 2.94467 17.7082 3.75008 17.7082H16.2501C17.0555 17.7082 17.7084 17.0553 17.7084 16.2498V3.74984C17.7084 2.94442 17.0555 2.2915 16.2501 2.2915H3.75008ZM14.013 8.72764C14.3459 8.40985 14.3582 7.88236 14.0404 7.54944C13.7226 7.21653 13.1951 7.20426 12.8622 7.52204L8.85423 11.3478L7.13798 9.70955C6.80507 9.39176 6.27757 9.40403 5.95979 9.73694C5.64201 10.0699 5.65427 10.5973 5.98718 10.9151L8.27882 13.1026C8.60084 13.41 9.1076 13.41 9.42962 13.1026L14.013 8.72764Z" fill="#030235"/>
</svg>
