<svg width="32" height="32" viewBox="0 0 32 32" fill="none" xmlns="http://www.w3.org/2000/svg">
<path d="M16 7C14.9 7 14 7.93333 14 9.07407C14 10.2148 14.9 11.1481 16 11.1481C17.1 11.1481 18 10.2148 18 9.07407C18 7.93333 17.1 7 16 7ZM16 21.5185C14.9 21.5185 14 22.4519 14 23.5926C14 24.7333 14.9 25.6667 16 25.6667C17.1 25.6667 18 24.7333 18 23.5926C18 22.4519 17.1 21.5185 16 21.5185ZM16 14.2593C14.9 14.2593 14 15.1926 14 16.3333C14 17.4741 14.9 18.4074 16 18.4074C17.1 18.4074 18 17.4741 18 16.3333C18 15.1926 17.1 14.2593 16 14.2593Z" fill="#6B6E85"/>
</svg>
