<svg width="32" height="32" viewBox="0 0 32 32" fill="none" xmlns="http://www.w3.org/2000/svg">
<path d="M0 16C0 7.16344 7.16344 0 16 0V0C24.8366 0 32 7.16344 32 16V16C32 24.8366 24.8366 32 16 32V32C7.16344 32 0 24.8366 0 16V16Z" fill="#6B6E85"/>
<path d="M5.48708 10.0909H7.4846L10.9576 18.571H11.0854L14.5585 10.0909H16.556V21H14.9899V13.1058H14.8887L11.6714 20.984H10.3717L7.15434 13.1005H7.05313V21H5.48708V10.0909ZM18.949 21V10.0909H20.5949V15.3004H20.7281L25.3038 10.0909H27.3758L22.976 15.0021L27.3918 21H25.4103L21.884 16.1261L20.5949 17.6069V21H18.949Z" fill="white"/>
</svg>
