<svg width="20" height="20" viewBox="0 0 20 20" fill="none" xmlns="http://www.w3.org/2000/svg">
<path fill-rule="evenodd" clip-rule="evenodd" d="M8.20292 3.59462C8.78502 3.36348 9.40835 3.24646 10.037 3.25019C12.6455 3.26929 14.7626 5.37993 14.7626 7.95844V8.49021C14.7626 11.0741 15.2792 12.7175 15.825 13.7304H4.17502C4.72119 12.7174 5.238 11.074 5.238 8.49022L5.23801 7.89071L5.23801 7.88965C5.23713 7.27769 5.36107 6.6717 5.60259 6.10666C5.84411 5.54163 6.19836 5.02885 6.64471 4.59776C7.09106 4.16668 7.62068 3.82582 8.20292 3.59462ZM10.0472 1.74035C9.21076 1.73531 8.38164 1.89099 7.60768 2.19832C6.83374 2.50564 6.13041 2.95846 5.53813 3.53049C4.94585 4.1025 4.47632 4.78239 4.1564 5.53086C3.83655 6.27916 3.6725 7.08134 3.67359 7.89121L3.67359 8.49021C3.67359 11.0671 3.11868 12.4885 2.69033 13.204C2.5669 13.409 2.50137 13.6416 2.50002 13.8784C2.49867 14.1158 2.56184 14.3496 2.68347 14.5562C2.80512 14.7628 2.98108 14.9352 3.19403 15.0555C3.40701 15.1758 3.64925 15.2396 3.89629 15.2402L3.89831 15.2402H7.00589C7.05141 15.9674 7.36047 16.6557 7.8787 17.174C8.44131 17.7366 9.20437 18.0527 10 18.0527C10.7957 18.0527 11.5587 17.7366 12.1213 17.174C12.6396 16.6557 12.9486 15.9674 12.9942 15.2402H16.1017L16.1037 15.2402C16.3507 15.2396 16.5929 15.1758 16.8059 15.0555C17.0188 14.9352 17.1948 14.7629 17.3164 14.5563C17.4381 14.3497 17.5013 14.116 17.5 13.8786C17.4987 13.6419 17.4333 13.4095 17.31 13.2046C16.8818 12.4891 16.327 11.0676 16.327 8.49021V7.95844C16.327 4.58691 13.5538 1.76565 10.0482 1.74036L10.0472 1.74035ZM11.4883 15.2402H8.51179C8.55321 15.5689 8.70264 15.8766 8.93936 16.1133C9.22066 16.3946 9.6022 16.5527 10 16.5527C10.3978 16.5527 10.7794 16.3946 11.0607 16.1133C11.2974 15.8766 11.4468 15.5689 11.4883 15.2402Z" fill="#030235"/>
<circle cx="16.25" cy="4.58301" r="3.33333" fill="#D44333" stroke="white" stroke-width="0.833333"/>
</svg>
