<svg width="20" height="20" viewBox="0 0 20 20" fill="none" xmlns="http://www.w3.org/2000/svg">
<path fill-rule="evenodd" clip-rule="evenodd" d="M5.24878 1.6665C4.14421 1.6665 3.24878 2.56193 3.24878 3.6665V16.3332C3.24878 17.4377 4.14421 18.3332 5.24878 18.3332H14.7488C15.8533 18.3332 16.7488 17.4377 16.7488 16.3332V3.6665C16.7488 3.66244 16.7488 3.65839 16.7487 3.65434V5.83334L12.5821 1.66668H14.7752C14.7664 1.66656 14.7576 1.6665 14.7488 1.6665H5.24878Z" fill="#FA4E4E"/>
<path d="M12.7068 12.8914C12.1444 12.8497 11.6029 12.6408 11.1655 12.2649C10.3116 12.4528 9.49917 12.7243 8.68687 13.0585C8.04125 14.2072 7.43719 14.792 6.91646 14.792C6.81229 14.792 6.6874 14.7711 6.60406 14.7084C6.3749 14.604 6.25 14.3743 6.25 14.1446C6.25 13.9565 6.29167 13.4345 8.27031 12.5781C8.72865 11.7427 9.0826 10.8864 9.37427 9.98842C9.12427 9.48717 8.58281 8.25488 8.9576 7.62842C9.0826 7.39863 9.3326 7.27332 9.60344 7.29426C9.81167 7.29426 10.0199 7.39863 10.1449 7.56571C10.4157 7.94165 10.3949 8.7353 10.0407 9.90488C10.3741 10.5305 10.8107 11.0954 11.3321 11.5757C11.7696 11.4921 12.2069 11.4295 12.6443 11.4295C13.6232 11.4503 13.7691 11.9098 13.7482 12.1813C13.7482 12.8914 13.0608 12.8914 12.7068 12.8914V12.8914ZM6.8749 14.1862L6.9374 14.1654C7.22896 14.061 7.45802 13.8522 7.62469 13.5806C7.31219 13.7059 7.06229 13.9148 6.8749 14.1863V14.1862ZM9.645 7.92082H9.5825C9.56167 7.92082 9.52 7.92082 9.49917 7.94165C9.41583 8.29665 9.47833 8.67259 9.62417 9.00675C9.74917 8.65176 9.74917 8.27582 9.645 7.92082V7.92082ZM9.79083 10.9492L9.77 10.9908L9.74917 10.97C9.56167 11.4504 9.35333 11.9307 9.12427 12.3902L9.16594 12.3694V12.411C9.62911 12.2431 10.1021 12.1036 10.5823 11.9933L10.5615 11.9725H10.624C10.3115 11.6592 10.0199 11.3042 9.79083 10.9492V10.9492ZM12.6234 12.056C12.4359 12.056 12.2694 12.056 12.0819 12.0977C12.2902 12.2022 12.4985 12.2439 12.7068 12.2649C12.8526 12.2857 12.9984 12.2649 13.1233 12.2231C13.1233 12.1604 13.04 12.056 12.6234 12.056Z" fill="white"/>
<path d="M16.3605 5.44287H12.9753L16.7514 9.21891V5.8335L16.3605 5.44287Z" fill="#D44333"/>
<path d="M13.5846 5.8335L16.7512 5.8335L12.5846 1.66683L12.5846 4.8335C12.5846 5.38578 13.0323 5.8335 13.5846 5.8335Z" fill="#FDB8B8"/>
</svg>
