<svg width="16" height="16" viewBox="0 0 16 16" fill="none" xmlns="http://www.w3.org/2000/svg">
<path fill-rule="evenodd" clip-rule="evenodd" d="M8.66675 3.4289C8.66675 3.00811 8.36827 2.66699 8.00008 2.66699C7.63189 2.66699 7.33341 3.00811 7.33341 3.4289V7.33366H3.42865C3.00786 7.33366 2.66675 7.63214 2.66675 8.00033C2.66675 8.36852 3.00786 8.66699 3.42865 8.66699H7.33341V12.5718C7.33341 12.9925 7.63189 13.3337 8.00008 13.3337C8.36827 13.3337 8.66675 12.9925 8.66675 12.5718V8.66699H12.5715C12.9923 8.66699 13.3334 8.36852 13.3334 8.00033C13.3334 7.63214 12.9923 7.33366 12.5715 7.33366H8.66675V3.4289Z" fill="#030235"/>
</svg>
