<svg width="20" height="20" viewBox="0 0 20 20" fill="none" xmlns="http://www.w3.org/2000/svg">
<path fill-rule="evenodd" clip-rule="evenodd" d="M10.0001 3.33317C7.6989 3.33317 5.83341 5.19865 5.83341 7.49984C5.83341 9.80102 7.6989 11.6665 10.0001 11.6665C12.3013 11.6665 14.1667 9.80102 14.1667 7.49984C14.1667 5.19865 12.3013 3.33317 10.0001 3.33317ZM4.16675 7.49984C4.16675 4.27818 6.77842 1.6665 10.0001 1.6665C13.2217 1.6665 15.8334 4.27818 15.8334 7.49984C15.8334 10.7215 13.2217 13.3332 10.0001 13.3332C6.77842 13.3332 4.16675 10.7215 4.16675 7.49984Z" fill="#030235"/>
<path fill-rule="evenodd" clip-rule="evenodd" d="M10.0002 13.3332C8.61038 13.3332 7.24505 13.6989 6.04134 14.3936C4.83763 15.0883 3.83794 16.0876 3.14269 17.291C2.91245 17.6895 2.40275 17.8259 2.00424 17.5957C1.60573 17.3654 1.46932 16.8557 1.69955 16.4572C2.54111 15.0006 3.75119 13.791 5.20822 12.9501C6.66525 12.1092 8.31791 11.6665 10.0002 11.6665C11.6825 11.6665 13.3351 12.1092 14.7922 12.9502C16.2492 13.7912 17.4592 15.0007 18.3007 16.4574C18.531 16.8559 18.3945 17.3656 17.996 17.5958C17.5975 17.8261 17.0878 17.6896 16.8576 17.2911C16.1624 16.0877 15.1627 15.0884 13.959 14.3937C12.7553 13.6989 11.39 13.3332 10.0002 13.3332Z" fill="#030235"/>
</svg>
