<svg width="20" height="20" viewBox="0 0 20 20" fill="none" xmlns="http://www.w3.org/2000/svg">
<path fill-rule="evenodd" clip-rule="evenodd" d="M5.24878 1.6665C4.14421 1.6665 3.24878 2.56193 3.24878 3.6665V16.3332C3.24878 17.4377 4.14421 18.3332 5.24878 18.3332H14.7488C15.8533 18.3332 16.7488 17.4377 16.7488 16.3332V5.83331L12.5821 1.66668H14.7752C14.7664 1.66656 14.7576 1.6665 14.7488 1.6665H5.24878Z" fill="#17A468"/>
<path d="M8.12909 14.1665L9.99523 11.488L11.8711 14.1665H12.7603L10.4267 10.919L12.5923 7.9165H11.703L9.99523 10.3499L8.29575 7.9165H7.40679L9.55502 10.919L7.2395 14.1665H8.12909Z" fill="white"/>
<path d="M16.3605 5.44287H12.9753L16.7514 9.21891V5.8335L16.3605 5.44287Z" fill="url(#paint0_linear_3060_16581)"/>
<path d="M13.5846 5.8335L16.7512 5.8335L12.5846 1.66683L12.5846 4.8335C12.5846 5.38578 13.0323 5.8335 13.5846 5.8335Z" fill="#EBFFEC"/>
<defs>
<linearGradient id="paint0_linear_3060_16581" x1="13.8217" y1="4.59652" x2="17.5977" y2="8.37256" gradientUnits="userSpaceOnUse">
<stop stop-opacity="0.2"/>
<stop offset="1" stop-opacity="0"/>
</linearGradient>
</defs>
</svg>
