<svg xmlns="http://www.w3.org/2000/svg" xmlns:xlink="http://www.w3.org/1999/xlink">
<symbol viewBox="0 0 20 20" id="attach">
<path d="M6.34063 10.2166L11.1415 5.30187L11.8539 6.03115L7.04298 10.957C6.92059 11.0788 6.82339 11.2236 6.75655 11.3828C6.68923 11.5433 6.65392 11.7155 6.65244 11.8896C6.65096 12.0636 6.68334 12.2364 6.74792 12.398C6.8125 12.5596 6.90811 12.707 7.02964 12.8314C7.15118 12.9558 7.29623 13.0548 7.45659 13.1219C7.61698 13.1891 7.78916 13.223 7.96301 13.2215C8.13686 13.2199 8.30841 13.183 8.46758 13.113C8.62557 13.0435 8.76795 12.943 8.88679 12.8177L13.9716 7.61327L13.9716 7.61325C14.5515 7.01959 14.8757 6.21636 14.8757 5.38074C14.8757 4.54513 14.5515 3.7419 13.9716 3.14824C13.3914 2.55426 12.6024 2.21879 11.7777 2.21879C10.953 2.21879 10.1641 2.55426 9.58385 3.14824L4.49855 8.35414C4.03575 8.81661 3.66762 9.36792 3.415 9.97596C3.16207 10.5848 3.02986 11.2386 3.02582 11.8996C3.02177 12.5606 3.14597 13.2161 3.39142 13.8281C3.63687 14.44 3.99883 14.9967 4.45674 15.4654C4.91468 15.9341 5.4595 16.3056 6.05984 16.5578C6.6602 16.8101 7.30386 16.9379 7.95338 16.9337C8.6029 16.9294 9.24488 16.7931 9.84201 16.533C10.4383 16.2733 10.9778 15.8954 11.4294 15.4216L16.2285 10.5095L16.9409 11.2388L12.1269 16.167C11.5791 16.7278 10.9292 17.1722 10.2146 17.4752C9.50011 17.7782 8.73462 17.934 7.96179 17.934C7.18896 17.934 6.42347 17.7782 5.70893 17.4752C4.99438 17.1722 4.34451 16.7278 3.79666 16.167C3.24879 15.6061 2.81372 14.9398 2.51673 14.2058C2.21973 13.4717 2.06675 12.6847 2.06675 11.8897C2.06675 11.0946 2.21973 10.3076 2.51673 9.57354C2.81372 8.83953 3.24879 8.17318 3.79666 7.61233L8.88208 2.40814C9.65504 1.64512 10.6877 1.22462 11.7575 1.23414C12.8285 1.24367 13.855 1.68338 14.6152 2.46164C15.3757 3.24021 15.8087 4.29533 15.8181 5.40024C15.8275 6.50404 15.4133 7.56576 14.6675 8.35759L9.58388 13.5645C9.37 13.7834 9.11661 13.9565 8.83842 14.0744C8.56025 14.1923 8.26246 14.2529 7.96197 14.2528C7.66147 14.2528 7.3637 14.1922 7.08556 14.0742C6.80739 13.9562 6.55404 13.783 6.34021 13.5641C6.12636 13.3451 5.95625 13.0847 5.84004 12.7974C5.72383 12.51 5.66392 12.2018 5.66395 11.8903C5.66399 11.5788 5.72397 11.2706 5.84025 10.9833C5.95652 10.696 6.12669 10.4356 6.34059 10.2167L6.34063 10.2166Z" stroke-width="0.8"/>
</symbol>
</svg>
