<svg xmlns="http://www.w3.org/2000/svg" xmlns:xlink="http://www.w3.org/1999/xlink">
<symbol viewBox="0 0 20 20" id="company">
<path fill-rule="evenodd" clip-rule="evenodd" d="M3.12467 1.66602C2.7379 1.66602 2.36697 1.81966 2.09348 2.09315C1.81999 2.36664 1.66634 2.73758 1.66634 3.12435V16.041H1.25008C0.789844 16.041 0.416748 16.4141 0.416748 16.8743C0.416748 17.3346 0.789844 17.7077 1.25008 17.7077H2.49967H11.2497H18.7501C19.2103 17.7077 19.5834 17.3346 19.5834 16.8743C19.5834 16.4141 19.2103 16.041 18.7501 16.041H18.333V8.12435C18.333 7.73758 18.1794 7.36664 17.9059 7.09315C17.6324 6.81966 17.2614 6.66602 16.8747 6.66602H12.083V3.12435C12.083 2.73758 11.9294 2.36664 11.6559 2.09315C11.3824 1.81966 11.0114 1.66602 10.6247 1.66602H3.12467ZM16.6663 8.33268V16.041H12.083V8.33268H16.6663ZM10.4163 3.33268L10.4163 7.49935L10.4163 16.041H3.33301V3.33268H10.4163ZM4.99967 4.79102C4.53944 4.79102 4.16634 5.16411 4.16634 5.62435C4.16634 6.08459 4.53944 6.45768 4.99967 6.45768H7.49967C7.95991 6.45768 8.33301 6.08459 8.33301 5.62435C8.33301 5.16411 7.95991 4.79102 7.49967 4.79102H4.99967ZM5.41634 10.6243C5.41634 10.1641 5.78944 9.79102 6.24967 9.79102H8.74968C9.20991 9.79102 9.58301 10.1641 9.58301 10.6243C9.58301 11.0846 9.20991 11.4577 8.74968 11.4577H6.24967C5.78944 11.4577 5.41634 11.0846 5.41634 10.6243ZM4.99967 12.916C4.53944 12.916 4.16634 13.2891 4.16634 13.7493C4.16634 14.2096 4.53944 14.5827 4.99967 14.5827H7.49967C7.95991 14.5827 8.33301 14.2096 8.33301 13.7493C8.33301 13.2891 7.95991 12.916 7.49967 12.916H4.99967ZM12.9163 13.7493C12.9163 13.2891 13.2894 12.916 13.7497 12.916H14.9997C15.4599 12.916 15.833 13.2891 15.833 13.7493C15.833 14.2096 15.4599 14.5827 14.9997 14.5827H13.7497C13.2894 14.5827 12.9163 14.2096 12.9163 13.7493ZM13.7497 9.79102C13.2894 9.79102 12.9163 10.1641 12.9163 10.6243C12.9163 11.0846 13.2894 11.4577 13.7497 11.4577H14.9997C15.4599 11.4577 15.833 11.0846 15.833 10.6243C15.833 10.1641 15.4599 9.79102 14.9997 9.79102H13.7497Z" stroke="none"/>
</symbol>
</svg>
