<svg xmlns="http://www.w3.org/2000/svg" xmlns:xlink="http://www.w3.org/1999/xlink">
<symbol viewBox="0 0 20 20" id="location">
<path d="M9.71716 17.7007L10 17.9836L10.2828 17.7007L14.4078 13.5757L14.4079 13.5757C15.2795 12.704 15.8731 11.5933 16.1136 10.3842C16.3541 9.17502 16.2306 7.92174 15.7588 6.78278C15.287 5.64383 14.488 4.67035 13.463 3.98545C12.4379 3.30055 11.2328 2.93499 10 2.93499C8.76719 2.93499 7.56207 3.30055 6.53701 3.98545C5.51196 4.67035 4.71302 5.64383 4.24122 6.78278C3.76941 7.92174 3.64593 9.17502 3.8864 10.3842C4.12686 11.5933 4.72046 12.704 5.59215 13.5757L5.59216 13.5757L9.71716 17.7007ZM10 19.2089L4.97951 14.1884C3.98657 13.1954 3.31037 11.9303 3.03642 10.5531C2.76247 9.17581 2.90308 7.74825 3.44047 6.4509C3.97785 5.15355 4.88788 4.04468 6.05546 3.26453C7.22305 2.48437 8.59576 2.06797 10 2.06797C11.4042 2.06797 12.777 2.48437 13.9445 3.26453C15.1121 4.04468 16.0222 5.15355 16.5595 6.4509C17.0969 7.74825 17.2375 9.17581 16.9636 10.5531C16.6896 11.9303 16.0134 13.1954 15.0205 14.1884L10 19.2089ZM10 11.2346C10.5481 11.2346 11.0738 11.0168 11.4614 10.6293C11.8489 10.2417 12.0667 9.71602 12.0667 9.1679C12.0667 8.61979 11.8489 8.09412 11.4614 7.70655C11.0738 7.31897 10.5481 7.10124 10 7.10124C9.45189 7.10124 8.92622 7.31897 8.53865 7.70655C8.15107 8.09412 7.93334 8.61979 7.93334 9.1679C7.93334 9.71602 8.15107 10.2417 8.53865 10.6293C8.92622 11.0168 9.45189 11.2346 10 11.2346ZM10 12.1012C9.22203 12.1012 8.47593 11.7922 7.92582 11.2421C7.37572 10.692 7.06667 9.94587 7.06667 9.1679C7.06667 8.38994 7.37572 7.64383 7.92582 7.09372C8.47593 6.54362 9.22203 6.23457 10 6.23457C10.778 6.23457 11.5241 6.54362 12.0742 7.09372C12.6243 7.64383 12.9333 8.38994 12.9333 9.1679C12.9333 9.94587 12.6243 10.692 12.0742 11.2421C11.5241 11.7922 10.778 12.1012 10 12.1012Z" stroke-width="0.8"/>
</symbol>
</svg>
