<svg xmlns="http://www.w3.org/2000/svg" xmlns:xlink="http://www.w3.org/1999/xlink">
<symbol viewBox="0 0 20 20" id="reminder">
<path d="M17.4998 15.3993H17.9332V16.266H2.0665V15.3993H2.49984H2.89984V14.9993V9.19185C2.89984 5.25482 6.08036 2.06602 9.99984 2.06602C13.9193 2.06602 17.0998 5.25482 17.0998 9.19185V14.9993V15.3993H17.4998ZM3.7665 14.9993V15.3993H4.1665H15.8332H16.2332V14.9993V9.19185C16.2332 5.73677 13.4441 2.93268 9.99984 2.93268C6.55559 2.93268 3.7665 5.73677 3.7665 9.19185V14.9993ZM11.635 17.8993C11.5624 18.1961 11.4097 18.4701 11.1901 18.6896C10.8744 19.0053 10.4463 19.1827 9.99984 19.1827C9.55339 19.1827 9.12523 19.0053 8.80954 18.6896C8.58996 18.4701 8.43731 18.1961 8.36471 17.8993H11.635Z" stroke-width="0.8"/>
</symbol>
</svg>
