<svg xmlns="http://www.w3.org/2000/svg" xmlns:xlink="http://www.w3.org/1999/xlink">
<symbol viewBox="0 0 20 20" id="repeat">
<path d="M4.59992 3.33398V3.73398H4.99992H17.4999C17.6148 3.73398 17.7251 3.77964 17.8063 3.8609C17.8876 3.94217 17.9333 4.05239 17.9333 4.16732V9.60065H17.0666V5.00065V4.60065H16.6666H4.99992H4.59992V5.00065V6.6684L1.47356 4.16732L4.59992 1.66623V3.33398ZM15.3999 16.6673V16.2673H14.9999H2.49992C2.38499 16.2673 2.27477 16.2217 2.19351 16.1404C2.11224 16.0591 2.06659 15.9489 2.06659 15.834V10.4007H2.93325V15.0006V15.4007H3.33325H14.9999H15.3999V15.0006V13.3329L18.5263 15.834L15.3999 18.3351V16.6673Z" stroke-width="0.8"/>
</symbol>
</svg>
