<svg xmlns="http://www.w3.org/2000/svg" xmlns:xlink="http://www.w3.org/1999/xlink">
<symbol viewBox="0 0 20 20" id="tag">
<path d="M9.2247 2.17428L1.70534 9.69363C1.6241 9.7749 1.57847 9.8851 1.57847 10C1.57847 10.1149 1.62409 10.2251 1.7053 10.3063L9.2247 2.17428ZM9.2247 2.17428L16.9789 3.28269L18.0865 11.0377L10.568 18.5563C10.568 18.5563 10.568 18.5563 10.5679 18.5563C10.4867 18.6375 10.3765 18.6832 10.2616 18.6832C10.1467 18.6832 10.0366 18.6375 9.9553 18.5563C9.95529 18.5563 9.95527 18.5563 9.95526 18.5563L1.70534 10.3064L9.2247 2.17428ZM2.90713 9.71714L2.62424 10L2.90713 10.2829L9.9788 17.3537L10.2616 17.6365L10.5445 17.3537L17.0261 10.872L17.1675 10.7306L17.1393 10.5326L16.2559 4.34514L16.2135 4.04809L15.9165 4.00568L9.72899 3.12235L9.67246 3.51833L9.38963 3.23547L2.90713 9.71714ZM11.722 8.53887C11.4844 8.30117 11.3509 7.9788 11.351 7.64269C11.351 7.47627 11.3838 7.31148 11.4475 7.15774C11.5113 7.00399 11.6046 6.8643 11.7223 6.74664C11.84 6.62898 11.9798 6.53566 12.1335 6.472C12.2873 6.40834 12.4521 6.37559 12.6185 6.37562C12.9546 6.37568 13.2769 6.50925 13.5146 6.74696C13.7522 6.98467 13.8856 7.30703 13.8856 7.64314C13.8855 7.97925 13.752 8.30157 13.5142 8.53919C13.2765 8.77681 12.9542 8.91028 12.6181 8.91022C12.282 8.91016 11.9596 8.77658 11.722 8.53887Z" stroke-width="0.8"/>
</symbol>
</svg>
