<svg width="24" height="24" viewBox="0 0 24 24" fill="none" xmlns="http://www.w3.org/2000/svg">
<path d="M14.8959 7.23657L8.79257 13.4858C8.68951 13.5877 8.6073 13.7096 8.55075 13.8444C8.49419 13.9791 8.46442 14.1241 8.46318 14.2708C8.46193 14.4175 8.48924 14.5629 8.54349 14.6987C8.59775 14.8344 8.67788 14.9578 8.7792 15.0615C8.88052 15.1652 9.001 15.2473 9.13362 15.3028C9.26623 15.3583 9.40833 15.3863 9.55161 15.385C9.69489 15.3837 9.83649 15.3533 9.96814 15.2954C10.0998 15.2375 10.2189 15.1533 10.3184 15.0478L16.4228 8.79971C17.03 8.17815 17.3711 7.33513 17.3711 6.45611C17.3711 5.57709 17.03 4.73408 16.4228 4.11252C15.8157 3.49096 14.9922 3.14177 14.1335 3.14177C13.2749 3.14177 12.4514 3.49096 11.8443 4.11252L5.73981 10.3617C5.2284 10.8722 4.8211 11.4816 4.54154 12.1545C4.26198 12.8274 4.11572 13.5505 4.11124 14.2817C4.10677 15.0129 4.24417 15.7378 4.51547 16.4142C4.78677 17.0906 5.18658 17.7052 5.6917 18.2222C6.19682 18.7393 6.7972 19.1485 7.45801 19.4261C8.11881 19.7037 8.8269 19.8443 9.54118 19.8396C10.2555 19.8349 10.9617 19.6851 11.619 19.3988C12.2763 19.1125 12.8715 18.6955 13.3701 18.1719L19.4745 11.9238L21.0004 13.4858L14.8959 19.735C14.1945 20.4531 13.3617 21.0227 12.4452 21.4113C11.5287 21.8 10.5464 22 9.55441 22C8.5624 22 7.5801 21.8 6.6636 21.4113C5.7471 21.0227 4.91435 20.4531 4.2129 19.735C3.51144 19.0169 2.95501 18.1644 2.57538 17.2262C2.19576 16.2879 2.00037 15.2823 2.00037 14.2668C2.00037 13.2513 2.19576 12.2457 2.57538 11.3074C2.95501 10.3692 3.51144 9.51669 4.2129 8.7986L10.3184 2.55049C11.336 1.54436 12.6989 0.987624 14.1136 1.00021C15.5283 1.01279 16.8815 1.59369 17.8819 2.61778C18.8822 3.64187 19.4497 5.02721 19.462 6.47544C19.4743 7.92366 18.9304 9.3189 17.9476 10.3606L11.8443 16.612C11.5435 16.9198 11.1866 17.1639 10.7937 17.3305C10.4008 17.497 9.97978 17.5827 9.55457 17.5826C9.12936 17.5826 8.70832 17.4968 8.31549 17.3302C7.92267 17.1635 7.56575 16.9193 7.26511 16.6115C6.96448 16.3037 6.72602 15.9382 6.56334 15.536C6.40066 15.1339 6.31696 14.7028 6.31701 14.2675C6.31706 13.8322 6.40086 13.4012 6.56363 12.9991C6.7264 12.5969 6.96495 12.2315 7.26565 11.9238L13.3701 5.67455L14.8959 7.23657Z" fill="#98A0AD"/>
</svg>
