<svg width="20" height="20" viewBox="0 0 20 20" fill="none" xmlns="http://www.w3.org/2000/svg">
<path d="M6.3405 10.2166L11.1414 5.30187L11.8538 6.03115L7.04286 10.957C6.92046 11.0788 6.82327 11.2236 6.75643 11.3828C6.68911 11.5433 6.65379 11.7155 6.65232 11.8896C6.65084 12.0636 6.68322 12.2364 6.7478 12.398C6.81238 12.5596 6.90799 12.707 7.02951 12.8314C7.15106 12.9558 7.29611 13.0548 7.45647 13.1219C7.61685 13.1891 7.78904 13.223 7.96289 13.2215C8.13673 13.2199 8.30829 13.183 8.46746 13.113C8.62545 13.0435 8.76783 12.943 8.88667 12.8177L13.9715 7.61327L13.9715 7.61325C14.5514 7.01959 14.8756 6.21636 14.8756 5.38074C14.8756 4.54513 14.5514 3.7419 13.9715 3.14824C13.3913 2.55426 12.6023 2.21879 11.7776 2.21879C10.9529 2.21879 10.1639 2.55426 9.58373 3.14824L4.49843 8.35414C4.03563 8.81661 3.66749 9.36792 3.41488 9.97596C3.16195 10.5848 3.02974 11.2386 3.0257 11.8996C3.02165 12.5606 3.14584 13.2161 3.39129 13.8281C3.63675 14.44 3.9987 14.9967 4.45662 15.4654C4.91456 15.9341 5.45937 16.3056 6.05972 16.5578C6.66008 16.8101 7.30374 16.9379 7.95326 16.9337C8.60278 16.9294 9.24476 16.7931 9.84189 16.533C10.4382 16.2733 10.9776 15.8954 11.4293 15.4216L16.2284 10.5095L16.9408 11.2388L12.1268 16.167C11.5789 16.7278 10.9291 17.1722 10.2145 17.4752C9.49998 17.7782 8.73449 17.934 7.96166 17.934C7.18884 17.934 6.42334 17.7782 5.70881 17.4752C4.99426 17.1722 4.34438 16.7278 3.79654 16.167C3.24867 15.6061 2.8136 14.9398 2.5166 14.2058C2.2196 13.4717 2.06663 12.6847 2.06663 11.8897C2.06663 11.0946 2.2196 10.3076 2.5166 9.57354C2.8136 8.83953 3.24867 8.17318 3.79654 7.61233L8.88196 2.40814C9.65492 1.64512 10.6875 1.22462 11.7574 1.23414C12.8284 1.24367 13.8549 1.68338 14.6151 2.46164C15.3756 3.24021 15.8086 4.29533 15.818 5.40024C15.8274 6.50404 15.4132 7.56576 14.6673 8.35759L9.58376 13.5645C9.36988 13.7834 9.11648 13.9565 8.8383 14.0744C8.56013 14.1923 8.26234 14.2529 7.96184 14.2528C7.66135 14.2528 7.36357 14.1922 7.08543 14.0742C6.80727 13.9562 6.55392 13.783 6.34009 13.5641C6.12624 13.3451 5.95613 13.0847 5.83992 12.7974C5.7237 12.51 5.6638 12.2018 5.66383 11.8903C5.66387 11.5788 5.72385 11.2706 5.84013 10.9833C5.9564 10.696 6.12657 10.4356 6.34047 10.2167L6.3405 10.2166Z" fill="#98A0AD" stroke="#98A0AD" stroke-width="0.8"/>
</svg>
