<svg width="32" height="32" viewBox="0 0 32 32" fill="none" xmlns="http://www.w3.org/2000/svg">
<path fill-rule="evenodd" clip-rule="evenodd" d="M17.3334 6.85779C17.3334 6.01622 16.7364 5.33398 16 5.33398C15.2637 5.33398 14.6667 6.01622 14.6667 6.85779V14.6673H6.85718C6.01561 14.6673 5.33337 15.2643 5.33337 16.0007C5.33337 16.737 6.01561 17.334 6.85718 17.334H14.6667V25.1435C14.6667 25.9851 15.2637 26.6673 16 26.6673C16.7364 26.6673 17.3334 25.9851 17.3334 25.1435V17.334H25.1429C25.9845 17.334 26.6667 16.737 26.6667 16.0007C26.6667 15.2643 25.9845 14.6673 25.1429 14.6673H17.3334V6.85779Z" fill="#030235"/>
</svg>
