<svg width="16" height="16" viewBox="0 0 16 16" fill="none" xmlns="http://www.w3.org/2000/svg">
<path fill-rule="evenodd" clip-rule="evenodd" d="M8.66663 3.42792C8.66663 3.00713 8.36815 2.66602 7.99996 2.66602C7.63177 2.66602 7.33329 3.00713 7.33329 3.42792V7.33268H3.42853C3.00774 7.33268 2.66663 7.63116 2.66663 7.99935C2.66663 8.36754 3.00774 8.66602 3.42853 8.66602H7.33329V12.5708C7.33329 12.9916 7.63177 13.3327 7.99996 13.3327C8.36815 13.3327 8.66663 12.9916 8.66663 12.5708V8.66602H12.5714C12.9922 8.66602 13.3333 8.36754 13.3333 7.99935C13.3333 7.63116 12.9922 7.33268 12.5714 7.33268H8.66663V3.42792Z" fill="#030235"/>
</svg>
