<svg width="20" height="20" viewBox="0 0 20 20" fill="none" xmlns="http://www.w3.org/2000/svg">
<path d="M13.6666 3.00065H14.1666H17.5C17.5884 3.00065 17.6732 3.03577 17.7357 3.09828C17.7982 3.16079 17.8333 3.24558 17.8333 3.33398V16.6673C17.8333 16.7557 17.7982 16.8405 17.7357 16.903C17.6732 16.9655 17.5884 17.0007 17.5 17.0007H2.49996C2.41155 17.0007 2.32677 16.9655 2.26426 16.903C2.20175 16.8405 2.16663 16.7557 2.16663 16.6673V3.33398C2.16663 3.24558 2.20175 3.16079 2.26426 3.09828L1.9107 2.74473L2.26426 3.09828C2.32677 3.03577 2.41155 3.00065 2.49996 3.00065H5.83329H6.33329V2.50065V1.33398H6.99996V2.50065V3.00065H7.49996H12.5H13V2.50065V1.33398H13.6666V2.50065V3.00065ZM13 4.16732V3.66732H12.5H7.49996H6.99996V4.16732V5.33398H6.33329V4.16732V3.66732H5.83329H3.33329H2.83329V4.16732V7.50065V8.00065H3.33329H16.6666H17.1666V7.50065V4.16732V3.66732H16.6666H14.1666H13.6666V4.16732V5.33398H13V4.16732ZM17.1666 9.16732V8.66732H16.6666H3.33329H2.83329V9.16732V15.834V16.334H3.33329H16.6666H17.1666V15.834V9.16732Z" fill="#030235" stroke="#6B6E85"/>
</svg>
