<svg width="24" height="24" viewBox="0 0 24 24" fill="none" xmlns="http://www.w3.org/2000/svg">
<path d="M21.9999 20H1.99988V18H2.99988V11.031C2.99988 6.043 7.02988 2 11.9999 2C16.9699 2 20.9999 6.043 20.9999 11.031V18H21.9999V20ZM4.99988 18H18.9999V11.031C18.9999 7.148 15.8659 4 11.9999 4C8.13388 4 4.99988 7.148 4.99988 11.031V18ZM9.49988 21H14.4999C14.4999 21.663 14.2365 22.2989 13.7676 22.7678C13.2988 23.2366 12.6629 23.5 11.9999 23.5C11.3368 23.5 10.701 23.2366 10.2321 22.7678C9.76327 22.2989 9.49988 21.663 9.49988 21V21Z" fill="#98A0AD"/>
</svg>
