<svg width="24" height="24" viewBox="0 0 24 24" fill="none" xmlns="http://www.w3.org/2000/svg">
<path fill-rule="evenodd" clip-rule="evenodd" d="M0.785645 2.57227V13.5723C0.785645 16.7282 3.34402 19.2866 6.49993 19.2866H15.5695C16.2197 20.5586 17.543 21.4294 19.0697 21.4294C21.2394 21.4294 22.9983 19.6705 22.9983 17.5008C22.9983 15.3311 21.2394 13.5723 19.0697 13.5723C16.9719 13.5723 15.2581 15.2165 15.1469 17.2866H6.49993C4.44859 17.2866 2.78564 15.6236 2.78564 13.5723V9.28515L15.3323 9.28516C15.8437 10.8607 17.3237 11.9997 19.0697 11.9997C21.2394 11.9997 22.9983 10.2408 22.9983 8.07115C22.9983 5.90146 21.2394 4.14258 19.0697 4.14258C17.1692 4.14258 15.5839 5.49211 15.2198 7.28516L2.78564 7.28515V2.57227H0.785645ZM19.0697 9.99972C20.1348 9.99972 20.9983 9.13627 20.9983 8.07115C20.9983 7.00603 20.1348 6.14258 19.0697 6.14258C18.0046 6.14258 17.1411 7.00603 17.1411 8.07115C17.1411 9.13627 18.0046 9.99972 19.0697 9.99972ZM20.9983 17.5008C20.9983 18.566 20.1348 19.4294 19.0697 19.4294C18.0046 19.4294 17.1411 18.566 17.1411 17.5008C17.1411 16.4357 18.0046 15.5723 19.0697 15.5723C20.1348 15.5723 20.9983 16.4357 20.9983 17.5008Z" fill="#98A0AD"/>
</svg>
