<svg width="20" height="20" viewBox="0 0 20 20" fill="none" xmlns="http://www.w3.org/2000/svg">
<path fill-rule="evenodd" clip-rule="evenodd" d="M0.654785 2.14453V11.3112C0.654785 13.9411 2.78676 16.0731 5.41669 16.0731H12.9746C13.5165 17.1331 14.6193 17.8588 15.8915 17.8588C17.6996 17.8588 19.1653 16.3931 19.1653 14.585C19.1653 12.7769 17.6996 11.3112 15.8915 11.3112C14.1433 11.3112 12.7152 12.6814 12.6225 14.4064H5.41669C3.70724 14.4064 2.32145 13.0207 2.32145 11.3112V7.73861L12.777 7.73861C13.2032 9.05155 14.4365 10.0007 15.8915 10.0007C17.6996 10.0007 19.1653 8.53501 19.1653 6.72693C19.1653 4.91886 17.6996 3.45312 15.8915 3.45312C14.3077 3.45312 12.9866 4.57773 12.6832 6.07194L2.32145 6.07194V2.14453H0.654785ZM15.8915 8.33408C16.7791 8.33408 17.4986 7.61453 17.4986 6.72693C17.4986 5.83933 16.7791 5.11979 15.8915 5.11979C15.0039 5.11979 14.2843 5.83933 14.2843 6.72693C14.2843 7.61453 15.0039 8.33408 15.8915 8.33408ZM17.4986 14.585C17.4986 15.4726 16.7791 16.1921 15.8915 16.1921C15.0039 16.1921 14.2843 15.4726 14.2843 14.585C14.2843 13.6974 15.0039 12.9779 15.8915 12.9779C16.7791 12.9779 17.4986 13.6974 17.4986 14.585Z" fill="#98A0AD"/>
</svg>
