<svg width="20" height="20" viewBox="0 0 20 20" fill="none" xmlns="http://www.w3.org/2000/svg">
<path fill-rule="evenodd" clip-rule="evenodd" d="M3.33317 9.99935C3.33317 6.31745 6.31794 3.33268 9.99984 3.33268C13.6817 3.33268 16.6665 6.31745 16.6665 9.99935C16.6665 13.6812 13.6817 16.666 9.99984 16.666C6.31794 16.666 3.33317 13.6812 3.33317 9.99935ZM9.99984 1.66602C5.39746 1.66602 1.6665 5.39698 1.6665 9.99935C1.6665 14.6017 5.39746 18.3327 9.99984 18.3327C14.6022 18.3327 18.3332 14.6017 18.3332 9.99935C18.3332 5.39698 14.6022 1.66602 9.99984 1.66602ZM10.8332 5.62435C10.8332 5.16411 10.4601 4.79102 9.99984 4.79102C9.5396 4.79102 9.1665 5.16411 9.1665 5.62435V9.99935C9.1665 10.4596 9.5396 10.8327 9.99984 10.8327H14.3748C14.8351 10.8327 15.2082 10.4596 15.2082 9.99935C15.2082 9.53911 14.8351 9.16602 14.3748 9.16602H10.8332V5.62435Z" fill="#030235"/>
</svg>
