<svg width="20" height="20" viewBox="0 0 20 20" fill="none" xmlns="http://www.w3.org/2000/svg">
<path fill-rule="evenodd" clip-rule="evenodd" d="M9.99996 3.33268C7.69877 3.33268 5.83329 5.19816 5.83329 7.49935C5.83329 9.80054 7.69877 11.666 9.99996 11.666C12.3011 11.666 14.1666 9.80054 14.1666 7.49935C14.1666 5.19816 12.3011 3.33268 9.99996 3.33268ZM4.16663 7.49935C4.16663 4.27769 6.7783 1.66602 9.99996 1.66602C13.2216 1.66602 15.8333 4.27769 15.8333 7.49935C15.8333 10.721 13.2216 13.3327 9.99996 13.3327C6.7783 13.3327 4.16663 10.721 4.16663 7.49935Z" fill="#6B6E85"/>
<path fill-rule="evenodd" clip-rule="evenodd" d="M10.0003 13.3327C8.6105 13.3327 7.24517 13.6984 6.04146 14.3931C4.83775 15.0878 3.83806 16.0871 3.14281 17.2905C2.91258 17.689 2.40288 17.8254 2.00437 17.5952C1.60586 17.365 1.46944 16.8553 1.69967 16.4567C2.54124 15.0001 3.75131 13.7905 5.20834 12.9496C6.66537 12.1087 8.31804 11.666 10.0003 11.666C11.6826 11.666 13.3353 12.1088 14.7923 12.9497C16.2493 13.7907 17.4593 15.0002 18.3009 16.4569C18.5311 16.8554 18.3947 17.3651 17.9962 17.5954C17.5976 17.8256 17.0879 17.6892 16.8577 17.2906C16.1625 16.0872 15.1628 15.0879 13.9591 14.3932C12.7554 13.6984 11.3901 13.3327 10.0003 13.3327Z" fill="#6B6E85"/>
</svg>
