<svg width="16" height="16" viewBox="0 0 16 16" fill="none" xmlns="http://www.w3.org/2000/svg">
<path fill-rule="evenodd" clip-rule="evenodd" d="M6.5 0.833984C6.05797 0.833984 5.63405 1.00958 5.32149 1.32214C5.00893 1.6347 4.83333 2.05862 4.83333 2.50065V2.834L3.50554 2.83401L3.5 2.83398L3.49446 2.83401L2.49967 2.83401C2.13148 2.83401 1.83301 3.13249 1.83301 3.50068C1.83301 3.86887 2.13149 4.16734 2.49968 4.16734L2.83333 4.16734V13.0007C2.83333 13.3101 2.95625 13.6068 3.17504 13.8256C3.39384 14.0444 3.69058 14.1673 4 14.1673H12C12.3094 14.1673 12.6062 14.0444 12.825 13.8256C13.0438 13.6068 13.1667 13.3101 13.1667 13.0007V4.16732L13.4997 4.16732C13.8679 4.16732 14.1663 3.86884 14.1663 3.50065C14.1663 3.13246 13.8679 2.83398 13.4997 2.83398L12.5018 2.83399L12.5 2.83398L12.4982 2.83399L11.1667 2.83399V2.50065C11.1667 2.05862 10.9911 1.6347 10.6785 1.32214C10.366 1.00958 9.94203 0.833984 9.5 0.833984H6.5ZM9.83333 2.83399V2.50065C9.83333 2.41225 9.79821 2.32746 9.7357 2.26495C9.67319 2.20244 9.58841 2.16732 9.5 2.16732H6.5C6.41159 2.16732 6.32681 2.20244 6.2643 2.26495C6.20179 2.32746 6.16667 2.41225 6.16667 2.50065V2.834L9.83333 2.83399ZM4.16667 12.834V4.16734L11.8333 4.16732V12.834H4.16667ZM6.5 5.83398C6.86819 5.83398 7.16667 6.13246 7.16667 6.50065V10.5007C7.16667 10.8688 6.86819 11.1673 6.5 11.1673C6.13181 11.1673 5.83333 10.8688 5.83333 10.5007V6.50065C5.83333 6.13246 6.13181 5.83398 6.5 5.83398ZM10.1667 6.50065C10.1667 6.13246 9.86819 5.83398 9.5 5.83398C9.13181 5.83398 8.83333 6.13246 8.83333 6.50065V10.5007C8.83333 10.8688 9.13181 11.1673 9.5 11.1673C9.86819 11.1673 10.1667 10.8688 10.1667 10.5007V6.50065Z" fill="#98A0AD"/>
</svg>
