<svg width="16" height="16" viewBox="0 0 16 16" fill="none" xmlns="http://www.w3.org/2000/svg">
<path d="M5.16683 1.99935V1.16602H5.50016V1.99935V2.49935H6.00016H10.0002H10.5002V1.99935V1.16602H10.8335V1.99935V2.49935H11.3335H14.0002C14.0444 2.49935 14.0868 2.51691 14.118 2.54816C14.1493 2.57942 14.1668 2.62181 14.1668 2.66602V13.3327C14.1668 13.3769 14.1493 13.4193 14.118 13.4505C14.0868 13.4818 14.0444 13.4993 14.0002 13.4993H2.00016C1.95596 13.4993 1.91357 13.4818 1.88231 13.4505C1.85106 13.4193 1.8335 13.3769 1.8335 13.3327V2.66602C1.8335 2.62181 1.85106 2.57942 1.88231 2.54816C1.91357 2.51691 1.95596 2.49935 2.00016 2.49935H4.66683H5.16683V1.99935ZM13.8335 5.33268V4.83268H13.3335H2.66683H2.16683V5.33268V12.666V13.166H2.66683H13.3335H13.8335V12.666V5.33268ZM8.02105 9.46757L10.0245 7.46412L10.2597 7.69935L7.66683 10.2922L6.01685 8.64226L6.25316 8.40629L7.31386 9.46748L7.66741 9.8212L8.02105 9.46757Z" fill="#98A0AD" stroke="#98A0AD"/>
</svg>
