<svg width="16" height="16" viewBox="0 0 16 16" fill="none" xmlns="http://www.w3.org/2000/svg">
<path fill-rule="evenodd" clip-rule="evenodd" d="M8.00016 2.66732C6.15921 2.66732 4.66683 4.1597 4.66683 6.00065C4.66683 7.8416 6.15921 9.33398 8.00016 9.33398C9.84111 9.33398 11.3335 7.8416 11.3335 6.00065C11.3335 4.1597 9.84111 2.66732 8.00016 2.66732ZM3.3335 6.00065C3.3335 3.42332 5.42283 1.33398 8.00016 1.33398C10.5775 1.33398 12.6668 3.42332 12.6668 6.00065C12.6668 8.57798 10.5775 10.6673 8.00016 10.6673C5.42283 10.6673 3.3335 8.57798 3.3335 6.00065Z" fill="#98A0AD"/>
<path fill-rule="evenodd" clip-rule="evenodd" d="M8.00005 10.6673C6.88821 10.6673 5.79594 10.9599 4.83297 11.5157C3.87001 12.0714 3.07025 12.8708 2.51405 13.8336C2.32986 14.1524 1.92211 14.2615 1.6033 14.0773C1.28449 13.8931 1.17536 13.4854 1.35954 13.1666C2.03279 12.0012 3.00085 11.0336 4.16648 10.3609C5.3321 9.68812 6.65423 9.33397 8.00006 9.33398C9.34589 9.334 10.668 9.68818 11.8336 10.3609C12.9992 11.0337 13.9673 12.0014 14.6405 13.1667C14.8247 13.4855 14.7155 13.8933 14.3967 14.0775C14.0779 14.2616 13.6702 14.1525 13.486 13.8337C12.9298 12.8709 12.1301 12.0715 11.1671 11.5157C10.2042 10.9599 9.11189 10.6673 8.00005 10.6673Z" fill="#98A0AD"/>
</svg>
