<svg width="24" height="24" viewBox="0 0 24 24" fill="none" xmlns="http://www.w3.org/2000/svg">
<path d="M0 12C0 5.37258 5.37258 0 12 0V0C18.6274 0 24 5.37258 24 12V12C24 18.6274 18.6274 24 12 24V24C5.37258 24 0 18.6274 0 12V12Z" fill="#030235"/>
<path d="M6.68972 16H5.52495L8.14213 8.72727H9.40989L12.0271 16H10.8623L8.8062 10.0483H8.74938L6.68972 16ZM6.88503 13.152H10.6634V14.0753H6.88503V13.152ZM13.0773 16V8.72727H15.6697C16.2331 8.72727 16.7007 8.82434 17.0724 9.01847C17.4464 9.21259 17.7258 9.4813 17.9104 9.82457C18.0951 10.1655 18.1874 10.5597 18.1874 11.0071C18.1874 11.4522 18.0939 11.844 17.9069 12.1825C17.7222 12.5187 17.4429 12.7803 17.0688 12.9673C16.6971 13.1544 16.2296 13.2479 15.6661 13.2479H13.7023V12.3033H15.5667C15.9218 12.3033 16.2106 12.2524 16.4331 12.1506C16.6581 12.0488 16.8226 11.9008 16.9268 11.7067C17.0309 11.5125 17.083 11.2794 17.083 11.0071C17.083 10.7325 17.0297 10.4946 16.9232 10.2933C16.819 10.0921 16.6545 9.93821 16.4296 9.83168C16.2071 9.72277 15.9147 9.66832 15.5525 9.66832H14.1746V16H13.0773ZM16.6675 12.7188L18.4644 16H17.2144L15.453 12.7188H16.6675Z" fill="white"/>
</svg>
