<svg width="20" height="20" viewBox="0 0 20 20" fill="none" xmlns="http://www.w3.org/2000/svg">
<path fill-rule="evenodd" clip-rule="evenodd" d="M12.1517 7.1511C12.4772 6.82567 12.4772 6.29803 12.1517 5.97259C11.8263 5.64716 11.2986 5.64716 10.9732 5.97259L4.68745 12.2584L1.8392 9.41024C1.51376 9.08481 0.98612 9.08482 0.66069 9.41026C0.335261 9.73571 0.335273 10.2633 0.660717 10.5888L4.09822 14.0261C4.42366 14.3515 4.95128 14.3515 5.27672 14.0261L12.1517 7.1511ZM19.3391 7.1511C19.6645 6.82567 19.6645 6.29803 19.3391 5.97259C19.0136 5.64716 18.486 5.64716 18.1605 5.97259L11.8748 12.2584L10.638 11.0216C10.3126 10.6962 9.78495 10.6962 9.45952 11.0217C9.13409 11.3471 9.1341 11.8748 9.45954 12.2002L11.2856 14.0261C11.611 14.3515 12.1386 14.3515 12.4641 14.0261L19.3391 7.1511Z" fill="#98A0AD"/>
</svg>
