<svg width="20" height="20" viewBox="0 0 20 20" fill="none" xmlns="http://www.w3.org/2000/svg">
<path fill-rule="evenodd" clip-rule="evenodd" d="M4.51667 6.04082C3.09252 6.69812 2.5 7.4802 2.5 8.125C2.5 8.7698 3.09252 9.55188 4.51667 10.2092C5.88772 10.842 7.82574 11.25 10 11.25C12.1743 11.25 14.1123 10.842 15.4833 10.2092C16.9075 9.55188 17.5 8.7698 17.5 8.125C17.5 7.4802 16.9075 6.69812 15.4833 6.04082C14.1123 5.40803 12.1743 5 10 5C7.82574 5 5.88772 5.40803 4.51667 6.04082ZM17.5 10.4287C17.0706 10.7838 16.558 11.0899 16.0072 11.3441C15.8832 11.4013 15.7557 11.4567 15.625 11.5102V13.9105L15.658 13.8941C16.9969 13.2247 17.5 12.4489 17.5 11.875V10.4287ZM10.625 12.4894C11.9793 12.4435 13.255 12.2492 14.375 11.9358V14.403C13.3447 14.7244 12.084 14.9413 10.625 14.9897V12.4894ZM10 16.25C12.041 16.25 13.8056 15.9469 15.2037 15.4432L15.221 15.4369C15.5775 15.3078 15.91 15.1657 16.217 15.0121C17.6906 14.2753 18.75 13.1761 18.75 11.875V8.125C18.75 6.69873 17.5237 5.60581 16.0072 4.90587C14.4375 4.18144 12.3131 3.75 10 3.75C7.68695 3.75 5.56247 4.18144 3.99285 4.90587C2.47632 5.60581 1.25 6.69873 1.25 8.125V11.875C1.25 13.1761 2.30937 14.2753 3.78299 15.0121C4.09028 15.1658 4.42307 15.3081 4.77985 15.4373C4.78485 15.4391 4.78988 15.441 4.79494 15.4427C6.19327 15.9467 7.95836 16.25 10 16.25ZM5.625 14.403C6.65531 14.7244 7.91599 14.9413 9.375 14.9897V12.4894C8.02072 12.4435 6.74499 12.2492 5.625 11.9358V14.403ZM4.375 11.5102C4.24427 11.4567 4.11683 11.4013 3.99285 11.3441C3.44199 11.0899 2.92941 10.7838 2.5 10.4287V11.875C2.5 12.4489 3.00313 13.2247 4.34201 13.8941C4.35296 13.8996 4.36396 13.905 4.375 13.9105V11.5102Z" fill="#98A0AD"/>
</svg>
