<svg width="24" height="24" viewBox="0 0 24 24" fill="none" xmlns="http://www.w3.org/2000/svg">
<path d="M0 12C0 5.37258 5.37258 0 12 0V0C18.6274 0 24 5.37258 24 12V12C24 18.6274 18.6274 24 12 24V24C5.37258 24 0 18.6274 0 12V12Z" fill="#030235"/>
<path d="M4.99139 8.72727H6.32306L8.63841 14.3807H8.72363L11.039 8.72727H12.3707V16H11.3266V10.7372H11.2591L9.11426 15.9893H8.24778L6.10289 10.7337H6.03542V16H4.99139V8.72727ZM13.966 16V8.72727H15.0633V12.2003H15.1521L18.2025 8.72727H19.5839L16.6507 12.0014L19.5945 16H18.2735L15.9227 12.7507L15.0633 13.7379V16H13.966Z" fill="white"/>
<path d="M12 23.25C5.7868 23.25 0.75 18.2132 0.75 12H-0.75C-0.75 19.0416 4.95837 24.75 12 24.75V23.25ZM23.25 12C23.25 18.2132 18.2132 23.25 12 23.25V24.75C19.0416 24.75 24.75 19.0416 24.75 12H23.25ZM12 0.75C18.2132 0.75 23.25 5.7868 23.25 12H24.75C24.75 4.95837 19.0416 -0.75 12 -0.75V0.75ZM12 -0.75C4.95837 -0.75 -0.75 4.95837 -0.75 12H0.75C0.75 5.7868 5.7868 0.75 12 0.75V-0.75Z" fill="white"/>
</svg>
