<svg width="33" height="32" viewBox="0 0 33 32" fill="none" xmlns="http://www.w3.org/2000/svg">
<path d="M0.5 16C0.5 7.16344 7.66344 0 16.5 0V0C25.3366 0 32.5 7.16344 32.5 16V16C32.5 24.8366 25.3366 32 16.5 32V32C7.66344 32 0.5 24.8366 0.5 16V16Z" fill="#030235"/>
<path d="M5.98708 10.0909H7.9846L11.4576 18.571H11.5854L15.0585 10.0909H17.056V21H15.4899V13.1058H15.3887L12.1714 20.984H10.8717L7.65434 13.1005H7.55313V21H5.98708V10.0909ZM19.449 21V10.0909H21.0949V15.3004H21.2281L25.8038 10.0909H27.8758L23.476 15.0021L27.8918 21H25.9103L22.384 16.1261L21.0949 17.6069V21H19.449Z" fill="white"/>
</svg>
