<svg width="32" height="32" viewBox="0 0 32 32" fill="none" xmlns="http://www.w3.org/2000/svg">
<path fill-rule="evenodd" clip-rule="evenodd" d="M23.6977 9.76217C24.1008 9.35905 24.1008 8.70546 23.6977 8.30234C23.2945 7.89922 22.6409 7.89922 22.2378 8.30234L16 14.5402L9.76217 8.30234C9.35905 7.89922 8.70546 7.89922 8.30234 8.30234C7.89922 8.70546 7.89922 9.35905 8.30234 9.76217L14.5402 16L8.30234 22.2378C7.89922 22.6409 7.89922 23.2945 8.30234 23.6977C8.70546 24.1008 9.35905 24.1008 9.76217 23.6977L16 17.4598L22.2378 23.6977C22.6409 24.1008 23.2945 24.1008 23.6977 23.6977C24.1008 23.2945 24.1008 22.6409 23.6977 22.2378L17.4598 16L23.6977 9.76217Z" fill="#21A453"/>
</svg>
