<svg width="22" height="22" viewBox="0 0 22 22" fill="none" xmlns="http://www.w3.org/2000/svg">
<path fill-rule="evenodd" clip-rule="evenodd" d="M9.99017 0.564993C10.2874 0.35986 10.64 0.25 11.0012 0.25C11.3623 0.25 11.7149 0.35986 12.0121 0.564993C12.3068 0.768373 12.5333 1.05586 12.662 1.38983L14.6779 6.46651L20.077 6.81691C21.7417 6.92495 22.3134 9.0067 21.0982 10.0182L16.9488 13.4718L18.2876 18.7384C18.6705 20.2444 17.0422 21.6304 15.6078 20.7216L11.0012 17.803L6.72877 20.5098C5.17351 21.4951 3.39514 19.9953 3.81386 18.3482L5.05349 13.4718L0.904153 10.0182C-0.31111 9.00671 0.260631 6.92495 1.92533 6.81691L7.32438 6.46651L9.34033 1.38983C9.46904 1.05586 9.69548 0.768372 9.99017 0.564993ZM10.8795 17.7259L11.4146 16.8813L10.8777 17.7248C10.8783 17.7251 10.8789 17.7255 10.8795 17.7259ZM11.9505 16.0368C11.9509 16.0371 11.9513 16.0373 11.9517 16.0376L16.2259 18.7455L14.9838 13.8597C14.9837 13.8591 14.9835 13.8585 14.9834 13.8579C14.8985 13.5265 14.9088 13.1778 15.013 12.8519C15.1174 12.5254 15.3118 12.235 15.5739 12.0141L15.5786 12.01L19.4583 8.78096L14.4037 8.45292C14.0656 8.42876 13.7413 8.30903 13.4686 8.1077C13.1971 7.90727 12.9878 7.63416 12.8649 7.31993L11.0012 2.62653L9.13738 7.32001C9.01447 7.6342 8.80523 7.90728 8.53375 8.1077C8.26103 8.30903 7.93672 8.42874 7.5986 8.4529L7.5921 8.45336L2.54402 8.78096L6.42366 12.0101L6.42844 12.0141C6.69053 12.235 6.88494 12.5254 6.98932 12.8519C7.09354 13.1779 7.10378 13.5267 7.01887 13.8582C7.01874 13.8587 7.01861 13.8592 7.01848 13.8597L5.77646 18.7455L10.0506 16.0376C10.0509 16.0374 10.0504 16.0378 10.0506 16.0376C10.3345 15.8571 10.6647 15.7607 11.0012 15.7607C11.3374 15.7607 11.6667 15.8565 11.9505 16.0368Z" fill="#030235"/>
</svg>
