<svg width="324" height="256" viewBox="0 0 324 256" fill="none" xmlns="http://www.w3.org/2000/svg">
<path d="M7.76726 225.715C19.8691 226.259 31.9709 226.531 44.0728 226.506C44.5401 226.506 44.5401 225.765 44.0728 225.765C31.9709 225.789 19.8691 225.517 7.76726 224.973C7.29991 224.949 7.29991 225.69 7.76726 225.715Z" fill="#98A0AD"/>
<path d="M44.8113 207.317C46.7053 214.463 48.4763 221.659 50.0997 228.879C50.1981 229.349 50.9114 229.151 50.813 228.682C49.165 221.461 47.4186 214.265 45.5246 207.119C45.4016 206.674 44.6883 206.872 44.8113 207.317Z" fill="#98A0AD"/>
<path d="M77.77 207.861C77.0813 214.661 76.3925 221.486 75.7284 228.286C75.6792 228.756 76.4171 228.756 76.4663 228.286C77.1551 221.486 77.8438 214.661 78.5079 207.861C78.5325 207.391 77.7946 207.391 77.77 207.861Z" fill="#98A0AD"/>
<path d="M50.2948 229.55C54.5993 230.317 58.953 230.663 63.3313 230.539C67.5129 230.415 72.0879 230.094 76.0727 228.759C76.5154 228.61 76.3187 227.893 75.8759 228.042C71.9158 229.352 67.4637 229.674 63.3313 229.797C59.0268 229.921 54.7223 229.575 50.4916 228.833C50.0242 228.734 49.8275 229.451 50.2948 229.55Z" fill="#98A0AD"/>
<path d="M45.1037 207.565C50.1953 209 55.7296 209.024 60.9934 209.049C66.6508 209.098 72.3082 208.777 77.9163 208.134C78.3837 208.085 78.3837 207.343 77.9163 207.392C72.4557 208.035 66.9706 208.332 61.4854 208.307C56.1478 208.282 50.4904 208.282 45.3004 206.848C44.8331 206.725 44.6363 207.442 45.1037 207.565Z" fill="#98A0AD"/>
<path d="M42.9911 205.018C43.0403 205.488 43.0895 205.982 43.1387 206.452C43.1633 206.749 43.1633 207.12 43.2863 207.392C43.5815 208.035 44.5653 207.812 45.1311 207.812C45.5984 207.812 45.5984 207.07 45.1311 207.07C44.8605 207.07 44.5899 207.07 44.2948 207.07C43.9258 207.07 43.9258 206.996 43.9012 206.625C43.852 206.081 43.8028 205.562 43.7536 205.018C43.6798 204.548 42.9419 204.523 42.9911 205.018Z" fill="#98A0AD"/>
<path d="M43.4809 205.414C49.6302 206.131 55.8041 206.477 62.0026 206.527C65.0527 206.552 68.1027 206.502 71.1774 206.403C72.7024 206.354 74.2274 206.28 75.7525 206.205C76.4658 206.181 77.4497 205.933 78.163 206.082C79.0239 206.23 78.9747 206.972 79.0731 207.739C79.1469 207.59 79.2453 207.442 79.319 207.293C78.9993 207.293 78.6795 207.293 78.3598 207.293C77.8924 207.195 77.6956 207.912 78.163 208.011C78.6549 208.109 79.0239 208.109 79.4912 208.011C79.7126 207.961 79.7864 207.739 79.7372 207.565C79.6142 206.7 79.7126 205.612 78.6795 205.389C78.0646 205.241 77.3021 205.414 76.6626 205.439C75.8508 205.488 75.0637 205.513 74.252 205.562C70.8084 205.711 67.3402 205.81 63.872 205.81C57.034 205.81 50.2206 205.488 43.4317 204.672C43.0136 204.623 43.0136 205.365 43.4809 205.414Z" fill="#98A0AD"/>
<path d="M48.8203 223.393C50.7881 225.99 53.1002 228.24 55.7075 230.169C56.1011 230.441 56.47 229.798 56.0765 229.526C53.5676 227.671 51.3292 225.495 49.4352 222.998C49.1646 222.627 48.5251 222.998 48.8203 223.393Z" fill="#98A0AD"/>
<path d="M47.1704 215.847C51.0075 221.41 55.7302 226.282 61.1908 230.263C61.5843 230.535 61.9533 229.892 61.5597 229.62C56.2221 225.713 51.5733 220.916 47.8099 215.476C47.5393 215.08 46.8998 215.451 47.1704 215.847Z" fill="#98A0AD"/>
<path d="M45.6721 209.221C52.3134 217.134 59.6925 224.527 68.4983 230.017C68.8919 230.264 69.2854 229.621 68.8673 229.374C60.1107 223.934 52.7807 216.59 46.1887 208.702C45.8935 208.331 45.377 208.875 45.6721 209.221Z" fill="#98A0AD"/>
<path d="M52.7295 208.8C59.051 216.194 66.0612 223.216 73.8831 229.003C74.2767 229.275 74.6457 228.632 74.2521 228.36C66.4794 222.623 59.5184 215.6 53.2461 208.281C52.9263 207.91 52.4098 208.429 52.7295 208.8Z" fill="#98A0AD"/>
<path d="M60.7996 209.324C65.0795 214.591 69.9989 219.289 75.4595 223.319C75.8531 223.591 76.222 222.949 75.8285 222.677C70.4171 218.695 65.5468 214.022 61.3161 208.804C61.0209 208.433 60.5044 208.953 60.7996 209.324Z" fill="#98A0AD"/>
<path d="M67.3911 209.049C70.146 212.165 73.2945 214.835 76.7873 217.086C77.1808 217.333 77.5498 216.69 77.1562 216.443C73.7126 214.242 70.6134 211.571 67.9077 208.53C67.5879 208.159 67.0714 208.678 67.3911 209.049Z" fill="#98A0AD"/>
<path d="M33.3472 168.298C34.946 171.686 36.0283 175.247 36.6432 178.956C36.6678 179.129 36.84 179.228 36.9876 179.228C37.1352 179.228 37.9223 179.203 37.9715 179.451C37.9961 179.549 37.5041 180.118 37.4549 180.242C37.3073 180.637 37.3073 181.107 37.4549 181.503C37.6517 181.973 38.0207 182.294 38.4634 182.467C38.611 182.542 38.7832 182.566 38.9554 182.591C39.1029 182.616 39.2505 182.616 39.3981 182.591C39.5949 182.566 39.5703 182.591 39.3489 182.69C39.1029 183.061 38.7586 183.11 38.6602 183.654C38.5864 184.174 38.8324 184.668 39.0291 185.113C39.8409 186.844 40.3082 188.674 40.9723 190.479C43.2599 196.612 47.6382 201.681 52.5822 205.86C52.9512 206.156 53.4677 205.637 53.0988 205.34C48.0071 201.038 43.4812 195.771 41.3413 189.317C41.0707 188.476 40.8247 187.635 40.5296 186.819C40.2836 186.102 39.8163 185.36 39.5949 184.643C39.3489 184.248 39.3735 183.803 39.6933 183.358C39.7917 183.283 39.89 183.209 39.9884 183.135C40.0622 183.011 40.2098 182.937 40.2836 182.789C40.382 182.517 40.3082 182.27 40.1114 182.072C39.7917 181.75 39.2997 181.923 38.8816 181.8C37.2827 181.33 38.5864 180.242 38.7094 179.451C38.8816 178.412 37.6025 178.536 36.9138 178.486C37.0368 178.585 37.1598 178.659 37.2581 178.758C36.6432 175 35.5117 171.365 33.8883 167.927C33.7899 167.482 33.1504 167.853 33.3472 168.298Z" fill="#98A0AD"/>
<path d="M33.6175 168.124C41.6116 170.275 48.6218 175.74 53.7134 182.218C59.1248 189.093 62.4946 197.352 64.3148 205.883C64.4132 206.353 65.1265 206.155 65.0281 205.685C63.1833 197.03 59.7397 188.672 54.2546 181.699C49.0891 175.146 41.9559 169.607 33.8389 167.431C33.3469 167.283 33.1501 168 33.6175 168.124Z" fill="#98A0AD"/>
<path d="M36.52 171.191C46.3097 180.761 53.861 192.506 58.5099 205.439C58.6821 205.884 59.3954 205.686 59.2232 205.241C54.5251 192.21 46.9246 180.34 37.0365 170.672C36.7168 170.326 36.1756 170.845 36.52 171.191Z" fill="#98A0AD"/>
<path d="M40.8739 186.745C42.9401 186.968 44.9571 187.438 46.8756 188.204C48.745 188.946 50.7866 189.886 51.9673 191.592C52.2378 191.987 52.8774 191.617 52.6068 191.221C51.4261 189.515 49.5813 188.55 47.7119 187.759C45.5228 186.819 43.2352 186.251 40.8493 186.003C40.4066 185.954 40.4066 186.696 40.8739 186.745Z" fill="#98A0AD"/>
<path d="M44.5385 173.192C44.5139 176.036 44.9813 178.83 45.8914 181.525C46.0389 181.97 46.7523 181.773 46.6047 181.328C45.7192 178.706 45.2764 175.986 45.2764 173.192C45.2764 172.722 44.5385 172.722 44.5385 173.192Z" fill="#98A0AD"/>
<path d="M58.0432 186.643C59.2485 182.118 63.2578 179.423 66.6769 176.653C70.3172 173.711 73.8346 170.57 77.1799 167.306C76.9831 167.183 76.7617 167.059 76.5649 166.935C75.458 169.927 75.2367 173.068 75.2859 176.233C75.3351 179.398 76.0484 183.033 75.0399 186.099C75.1629 186 75.2859 185.926 75.3843 185.827C74.5971 185.877 73.81 185.951 73.0229 186C72.777 186.025 72.531 186.322 72.7032 186.569C73.2689 187.336 73.933 187.583 73.9084 188.72C73.9084 189.512 73.7116 190.427 73.4411 191.168C73.1705 191.935 72.4572 192.454 72.2112 193.171C72.0144 193.814 72.5064 194.358 72.5064 195.001C72.531 196.065 71.7685 196.955 71.2273 197.795C70.7108 198.587 70.2434 199.403 69.8253 200.243C68.989 201.9 68.3249 203.606 67.8329 205.387C67.7099 205.857 68.4233 206.054 68.5462 205.585C69.1612 203.384 70.0467 201.257 71.2027 199.279C71.9898 197.944 73.4657 196.386 73.2935 194.704C73.2197 194.037 72.8753 193.839 73.1705 193.072C73.1951 193.048 73.6379 192.454 73.6625 192.405C74.1298 191.638 74.3512 190.773 74.4988 189.907C74.5972 189.264 74.7939 188.473 74.6955 187.83C74.548 186.915 73.8592 186.841 73.3427 186.149C73.2443 186.347 73.1213 186.52 73.0229 186.717C73.81 186.668 74.5971 186.594 75.3843 186.544C75.5564 186.52 75.6794 186.445 75.7286 186.272C76.6633 183.404 76.0976 180.066 75.9992 177.098C75.9008 173.711 76.0238 170.298 77.229 167.084C77.3766 166.713 76.8601 166.49 76.6141 166.713C73.0475 170.199 69.3088 173.538 65.3978 176.653C62.0526 179.324 58.4368 182.044 57.2807 186.396C57.2069 186.915 57.9203 187.113 58.0432 186.643Z" fill="#98A0AD"/>
<path d="M74.4508 170.522C72.0403 174.75 69.5805 178.929 67.2684 183.207C65.1038 187.164 63.1853 191.268 62.2752 195.695C62.1768 196.164 62.8901 196.362 62.9885 195.892C63.9232 191.367 65.9155 187.213 68.1293 183.182C70.3922 179.053 72.7782 174.998 75.0903 170.893C75.3117 170.497 74.6722 170.101 74.4508 170.522Z" fill="#98A0AD"/>
<path d="M67.1929 177.397C67.5127 178.807 67.6603 180.216 67.6111 181.65C67.5865 182.12 68.3244 182.12 68.349 181.65C68.3982 180.142 68.2506 178.683 67.9062 177.199C67.7833 176.729 67.0945 176.927 67.1929 177.397Z" fill="#98A0AD"/>
<path d="M71.2036 172.675C71.4742 173.739 71.5234 174.777 71.4004 175.84C71.3512 176.31 72.0891 176.31 72.1383 175.84C72.2859 174.703 72.2121 173.59 71.917 172.477C71.794 172.032 71.0807 172.23 71.2036 172.675Z" fill="#98A0AD"/>
<path d="M71.3756 177.594C72.8268 176.729 74.3272 175.962 75.8769 175.319C76.3196 175.146 76.1228 174.429 75.6801 174.602C74.0567 175.27 72.5071 176.061 70.982 176.951C70.5885 177.198 70.9574 177.841 71.3756 177.594Z" fill="#98A0AD"/>
<path d="M65.0282 190.01C65.9629 189.219 66.8976 188.452 67.8569 187.71C68.8654 186.919 69.9723 185.856 71.2021 185.361C71.6449 185.188 71.4481 184.471 71.0054 184.644C69.8985 185.064 68.9884 185.88 68.0537 186.622C66.8484 187.562 65.6678 188.501 64.5117 189.491C64.1427 189.787 64.6593 190.307 65.0282 190.01Z" fill="#98A0AD"/>
<path d="M36.5461 176.136C38.2679 176.309 39.9897 176.482 41.7115 176.63C42.1788 176.68 42.1788 175.938 41.7115 175.889C39.9897 175.715 38.2679 175.542 36.5461 175.394C36.0787 175.345 36.0787 176.086 36.5461 176.136Z" fill="#98A0AD"/>
<path d="M81.6802 225.468C112.501 225.468 143.296 225.468 174.117 225.468C182.799 225.468 191.482 225.468 200.165 225.468C200.632 225.468 200.632 224.727 200.165 224.727C169.345 224.727 138.549 224.727 107.729 224.727C99.0459 224.727 90.3631 224.727 81.6802 224.727C81.1883 224.727 81.1883 225.468 81.6802 225.468Z" fill="#98A0AD"/>
<path d="M185.924 164.886C185.924 168.496 185.924 172.106 185.924 175.716C185.924 176.186 186.662 176.186 186.662 175.716C186.662 172.106 186.662 168.496 186.662 164.886C186.662 164.416 185.924 164.416 185.924 164.886Z" fill="#98A0AD"/>
<path d="M168.953 177.373C180.883 177.373 192.812 177.373 204.742 177.373C205.209 177.373 205.209 176.631 204.742 176.631C192.812 176.631 180.883 176.631 168.953 176.631C168.486 176.631 168.461 177.373 168.953 177.373Z" fill="#98A0AD"/>
<path d="M176.972 177.568C176.972 180.684 176.972 183.8 176.972 186.94C176.972 187.41 177.71 187.41 177.71 186.94C177.71 183.824 177.71 180.709 177.71 177.568C177.71 177.074 176.972 177.074 176.972 177.568Z" fill="#98A0AD"/>
<path d="M195.42 177.372C195.42 180.117 195.42 182.886 195.42 185.631C195.42 186.101 196.158 186.101 196.158 185.631C196.158 182.886 196.158 180.117 196.158 177.372C196.158 176.902 195.42 176.902 195.42 177.372Z" fill="#98A0AD"/>
<path d="M183.735 187.662C192.86 187.662 201.986 187.662 211.112 187.662C211.579 187.662 211.579 186.92 211.112 186.92C201.986 186.92 192.86 186.92 183.735 186.92C183.267 186.92 183.267 187.662 183.735 187.662Z" fill="#98A0AD"/>
<path d="M163.099 232.641C183.244 232.641 203.389 232.641 223.534 232.641C224.001 232.641 224.001 231.899 223.534 231.899C203.389 231.899 183.244 231.899 163.099 231.899C162.631 231.899 162.631 232.641 163.099 232.641Z" fill="#98A0AD"/>
<path d="M246.408 226.234C266.184 226.234 285.985 226.234 305.761 226.234C311.32 226.234 316.879 226.234 322.438 226.234C322.905 226.234 322.905 225.492 322.438 225.492C302.662 225.492 282.861 225.492 263.085 225.492C257.526 225.492 251.967 225.492 246.408 225.492C245.941 225.492 245.941 226.234 246.408 226.234Z" fill="#98A0AD"/>
<path d="M1.19963 238.894C21.4677 238.894 41.7604 238.894 62.0285 238.894C62.4959 238.894 62.4959 238.152 62.0285 238.152C41.7604 238.152 21.4677 238.152 1.19963 238.152C0.732284 238.152 0.732284 238.894 1.19963 238.894Z" fill="#98A0AD"/>
<path d="M42.0799 246.312C58.6338 246.312 75.1877 246.312 91.7417 246.312C92.209 246.312 92.209 245.57 91.7417 245.57C75.1877 245.57 58.6338 245.57 42.0799 245.57C41.588 245.57 41.588 246.312 42.0799 246.312Z" fill="#98A0AD"/>
<path d="M293.734 34.8918C293.734 27.9928 293.734 21.1186 293.734 14.2196C293.734 13.7497 292.996 13.7497 292.996 14.2196C292.996 21.1186 292.996 27.9928 292.996 34.8918C292.996 35.3617 293.734 35.3617 293.734 34.8918Z" fill="#98A0AD"/>
<path d="M293.612 14.0739C302.492 14.0739 311.371 14.0739 320.251 14.0739C320.718 14.0739 320.718 13.332 320.251 13.332C311.371 13.332 302.492 13.332 293.612 13.332C293.145 13.332 293.145 14.0739 293.612 14.0739Z" fill="#98A0AD"/>
<path d="M319.879 13.7508C319.83 20.7487 319.78 27.7466 319.707 34.7445C319.707 35.2144 320.444 35.2144 320.444 34.7445C320.494 27.7466 320.543 20.7487 320.617 13.7508C320.617 13.281 319.879 13.281 319.879 13.7508Z" fill="#98A0AD"/>
<path d="M293.733 35.2623C302.49 35.2623 311.247 35.2623 320.003 35.2623C320.47 35.2623 320.47 34.5205 320.003 34.5205C311.247 34.5205 302.49 34.5205 293.733 34.5205C293.266 34.5205 293.266 35.2623 293.733 35.2623Z" fill="#98A0AD"/>
<path d="M294.446 15.6541C294.446 21.4651 294.446 27.2514 294.446 33.0624C294.446 33.5322 295.184 33.5322 295.184 33.0624C295.184 27.2514 295.184 21.4651 295.184 15.6541C295.184 15.1843 294.446 15.1843 294.446 15.6541Z" fill="#98A0AD"/>
<path d="M294.987 16.0231C302.76 16.0231 310.508 16.0231 318.281 16.0231C318.748 16.0231 318.748 15.2812 318.281 15.2812C310.508 15.2812 302.76 15.2812 294.987 15.2812C294.495 15.2812 294.495 16.0231 294.987 16.0231Z" fill="#98A0AD"/>
<path d="M317.887 15.827C317.863 21.5143 317.838 27.2017 317.814 32.9138C317.814 33.3836 318.552 33.3836 318.552 32.9138C318.576 27.2264 318.601 21.5391 318.625 15.827C318.625 15.3572 317.887 15.3572 317.887 15.827Z" fill="#98A0AD"/>
<path d="M295.135 33.5319C302.785 33.5319 310.435 33.5319 318.085 33.5319C318.552 33.5319 318.552 32.79 318.085 32.79C310.435 32.79 302.785 32.79 295.135 32.79C294.668 32.79 294.668 33.5319 295.135 33.5319Z" fill="#98A0AD"/>
<path d="M294.988 28.4131C297.817 27.424 300.793 28.3142 303.548 29.1302C306.352 29.9462 309.107 30.9353 311.788 32.0728C312.231 32.2459 312.428 31.5288 311.985 31.3557C309.009 30.0946 305.959 29.0313 302.859 28.1659C300.228 27.4488 297.448 26.7564 294.792 27.696C294.349 27.8444 294.546 28.5615 294.988 28.4131Z" fill="#98A0AD"/>
<path d="M304.336 29.2546C308.985 28.9826 313.339 27.1033 317.939 26.584C318.406 26.5346 318.406 25.7928 317.939 25.8422C313.339 26.3615 308.985 28.2161 304.336 28.5128C303.845 28.5622 303.845 29.3041 304.336 29.2546Z" fill="#98A0AD"/>
<path d="M313.14 20.2035C312.107 19.61 313.041 17.6566 314.148 18.1264C314.738 18.3737 314.861 19.0908 314.542 19.61C314.197 20.1788 313.484 20.2777 312.894 20.1046C312.426 19.981 312.229 20.6981 312.697 20.8217C313.681 21.0937 314.788 20.797 315.28 19.8326C315.722 18.9671 315.378 17.8296 314.443 17.434C312.525 16.618 310.95 19.8326 312.771 20.8464C313.164 21.069 313.558 20.4261 313.14 20.2035Z" fill="#98A0AD"/>
<path d="M305.615 13.5777C305.64 13.1573 305.664 12.7369 305.787 12.3413C305.886 12.0198 306.132 11.2533 306.501 11.1049C307.165 10.8576 307.411 13.2068 307.46 13.6518C307.509 14.1217 308.247 14.1217 308.198 13.6518C308.124 12.7864 307.927 10.0663 306.55 10.2642C305.96 10.3383 305.541 11.006 305.32 11.5005C305.025 12.1435 304.927 12.8606 304.902 13.5529C304.877 14.0475 305.615 14.0475 305.615 13.5777Z" fill="#98A0AD"/>
<path d="M309.746 128.931C309.746 131.899 309.746 134.891 309.746 137.858C309.746 138.328 310.483 138.328 310.483 137.858C310.483 134.891 310.483 131.899 310.483 128.931C310.483 128.462 309.746 128.462 309.746 128.931Z" fill="#98A0AD"/>
<path d="M300.817 138.947C307.508 138.947 314.223 138.947 320.913 138.947C321.381 138.947 321.381 138.205 320.913 138.205C314.223 138.205 307.508 138.205 300.817 138.205C300.35 138.205 300.35 138.947 300.817 138.947Z" fill="#98A0AD"/>
<path d="M303.646 139.169C303.646 140.578 303.646 141.963 303.646 143.372C303.646 143.842 304.384 143.842 304.384 143.372C304.384 141.963 304.384 140.578 304.384 139.169C304.384 138.699 303.646 138.699 303.646 139.169Z" fill="#98A0AD"/>
<path d="M314.395 139.391C314.395 141.048 314.395 142.73 314.395 144.386C314.395 144.856 315.133 144.856 315.133 144.386C315.133 142.73 315.133 141.048 315.133 139.391C315.133 138.897 314.395 138.897 314.395 139.391Z" fill="#98A0AD"/>
<path d="M309.182 145.35C313.831 145.35 318.48 145.35 323.128 145.35C323.596 145.35 323.596 144.608 323.128 144.608C318.48 144.608 313.831 144.608 309.182 144.608C308.714 144.608 308.714 145.35 309.182 145.35Z" fill="#98A0AD"/>
<path d="M139.296 217.152C147.044 211.885 150.931 209.239 151.939 208.918C154.399 208.126 162.368 205.579 169.329 209.857C174.322 212.924 178.922 219.575 177.004 224.026C175.626 227.191 171.42 228.181 167.607 229.095C161.975 230.431 157.154 229.689 154.448 229.046C153.39 230.085 151.693 231.469 149.307 232.384C145.347 233.917 140.772 233.645 140.55 232.73C140.452 232.261 141.436 231.346 146.208 229.466C145.642 228.848 144.806 228.106 143.625 227.587C140.132 225.98 136.64 227.538 135.975 227.859C139.394 229.862 140.132 230.901 139.96 231.469C139.517 232.904 132.556 233.373 130.687 230.085C130.49 229.763 129.949 228.65 130.392 226.548C131.277 222.691 134.475 220.441 139.296 217.152Z" fill="#030235"/>
<path d="M172.742 223.142C173.529 221.51 177.071 221.905 178.449 222.054C180.22 222.252 181.794 222.425 183.221 223.686C184.303 224.626 185.877 226.678 185.311 228.335C184.795 229.917 182.852 229.794 179.088 231.648C178.449 231.97 172.299 235.011 172.718 237.014C172.89 237.83 173.997 237.805 177.514 239.314C180.564 240.6 182.36 241.391 183.86 243.122C184.598 243.987 186.074 245.693 185.68 247.424C184.942 250.614 178.35 251.158 178.178 250.664C178.031 250.243 182.655 249.081 182.704 246.905C182.753 245.248 180.171 243.913 178.547 243.048C173.775 240.55 170.553 241.44 169.299 239.042C168.585 237.682 168.979 236.223 169.053 235.951C169.422 234.615 170.455 233.478 175.497 230.931C180.097 228.607 182.138 228.063 182.114 227.024C182.089 226.06 180.318 225.268 179.236 224.996C176.186 224.18 173.947 226.109 172.914 225.021C172.472 224.527 172.496 223.686 172.742 223.142Z" fill="#030235"/>
<path d="M130.73 211.172C132.28 212.334 133.829 213.497 135.379 214.659C137.593 214.436 139.782 214.239 141.995 214.016C143.373 212.681 144.75 211.321 146.128 209.985C146.226 210.826 146.423 212.73 146.497 213.645C147.358 221.879 147.431 222.596 146.915 223.536C145.218 226.578 139.487 227.814 136.191 225.687C134.592 224.649 133.977 223.091 132.821 220.099C131.419 216.489 130.927 213.324 130.73 211.172Z" fill="#030235"/>
<path d="M136.976 219.728C136.607 220.495 135.796 220.965 134.959 220.816C134.738 220.767 134.639 221.138 134.861 221.162C135.869 221.335 136.878 220.841 137.296 219.901C137.394 219.703 137.099 219.506 136.976 219.728Z" fill="#98A0AD"/>
<path d="M140.398 219.483C141.209 220.274 142.292 220.62 143.399 220.447C143.644 220.422 143.522 220.052 143.3 220.101C142.316 220.249 141.357 219.928 140.644 219.236C140.471 219.062 140.225 219.31 140.398 219.483Z" fill="#98A0AD"/>
<path d="M139.093 221.831C139.019 221.831 138.97 221.807 138.896 221.807C138.921 221.782 138.921 221.732 138.945 221.708C138.994 221.757 139.068 221.807 139.117 221.856C139.117 221.807 139.093 221.782 139.093 221.732C139.019 221.51 138.675 221.609 138.748 221.831C138.871 222.375 139.068 223.216 138.404 223.488C138.183 223.587 138.281 223.933 138.502 223.834C139.388 223.463 139.29 222.499 139.117 221.708C138.994 221.732 138.871 221.782 138.773 221.807C138.773 221.856 138.798 221.881 138.798 221.93C138.822 222.004 138.896 222.079 138.97 222.079C139.609 222.029 139.093 221.139 138.798 221.658C138.675 221.831 138.97 222.029 139.093 221.831Z" fill="#98A0AD"/>
<path d="M138.845 222.006C138.968 222.426 138.993 222.896 139.264 223.267C139.485 223.563 139.829 223.712 140.198 223.638C140.42 223.588 140.321 223.242 140.1 223.291C139.411 223.44 139.313 222.352 139.19 221.907C139.141 221.684 138.796 221.783 138.845 222.006Z" fill="#98A0AD"/>
<path d="M137.667 222.348C136.953 222.026 136.215 221.878 135.428 221.927C135.182 221.952 135.182 222.323 135.428 222.298C136.142 222.249 136.83 222.372 137.47 222.669C137.691 222.768 137.888 222.447 137.667 222.348Z" fill="#98A0AD"/>
<path d="M137.025 222.844C136.41 222.893 135.869 223.141 135.451 223.561C135.279 223.734 135.549 223.981 135.721 223.833C136.09 223.487 136.533 223.264 137.05 223.215C137.246 223.19 137.246 222.819 137.025 222.844Z" fill="#98A0AD"/>
<path d="M140.544 222.176C141.257 221.904 141.97 221.805 142.733 221.879C142.979 221.904 142.979 221.533 142.733 221.509C141.946 221.434 141.183 221.558 140.445 221.83C140.224 221.904 140.298 222.275 140.544 222.176Z" fill="#98A0AD"/>
<path d="M141.037 222.844C141.578 222.77 142.094 222.819 142.611 223.017C142.832 223.091 142.931 222.745 142.709 222.671C142.168 222.473 141.603 222.423 141.037 222.498C140.791 222.498 140.791 222.893 141.037 222.844Z" fill="#98A0AD"/>
<path d="M135.232 218.643C135.601 218.42 136.044 218.42 136.413 218.643C136.609 218.766 136.806 218.445 136.609 218.321C136.117 218.049 135.552 218.049 135.06 218.321C134.838 218.445 135.035 218.766 135.232 218.643Z" fill="#98A0AD"/>
<path d="M140.396 218.146C140.765 217.948 141.184 217.898 141.626 217.948C141.848 217.973 141.971 217.626 141.725 217.602C141.208 217.527 140.692 217.602 140.224 217.849C139.978 217.923 140.175 218.245 140.396 218.146Z" fill="#98A0AD"/>
<path d="M134.517 210.381C135.28 210.06 136.042 209.738 136.78 209.392C136.633 209.293 136.51 209.194 136.362 209.071C136.067 210.011 135.624 210.851 135.034 211.643C134.886 211.84 135.132 212.137 135.354 212.063C136.19 211.741 137.026 211.445 137.863 211.123C138.182 211 138.059 210.456 137.715 210.579C136.879 210.901 136.042 211.197 135.206 211.519C135.305 211.667 135.403 211.791 135.526 211.939C136.165 211.123 136.608 210.233 136.928 209.244C137.002 208.997 136.731 208.848 136.51 208.922C135.747 209.244 134.985 209.565 134.247 209.912C133.902 210.06 134.198 210.53 134.517 210.381Z" fill="#030235"/>
<path d="M135.748 205.88C136.265 205.584 136.782 205.386 137.347 205.262C137.249 205.114 137.15 204.99 137.027 204.842C136.806 205.336 136.536 205.831 136.216 206.276C136.093 206.474 136.265 206.672 136.462 206.696C137.126 206.746 137.741 206.573 138.257 206.177C138.528 205.955 138.257 205.485 137.987 205.707C137.544 206.054 137.052 206.202 136.486 206.152C136.56 206.301 136.634 206.424 136.732 206.573C137.052 206.103 137.323 205.633 137.544 205.139C137.642 204.916 137.47 204.669 137.224 204.718C136.609 204.842 136.019 205.064 135.478 205.386C135.158 205.584 135.429 206.054 135.748 205.88Z" fill="#030235"/>
<path d="M139.805 211.865C138.993 211.049 140.395 210.579 140.543 209.862C140.69 209.021 139.706 208.23 140.813 207.587C141.133 207.414 140.838 206.919 140.543 207.117C140.149 207.34 139.829 207.686 139.731 208.156C139.583 208.947 140.272 209.417 139.682 210.134C139.411 210.48 139.091 210.579 138.993 211.049C138.895 211.519 139.091 211.914 139.411 212.261C139.682 212.508 140.075 212.112 139.805 211.865Z" fill="#030235"/>
<path d="M207.717 141.269C146.052 145.745 84.3868 150.196 22.7462 154.672C21.0735 109.717 19.4009 64.7622 17.7529 19.8074C79.6887 18.9666 141.624 18.1259 203.56 17.2852C204.938 58.605 206.315 99.9248 207.717 141.269Z" fill="white" stroke="#030235" stroke-width="1.03869" stroke-miterlimit="10"/>
<path d="M70.1457 41.6901C82.0999 41.6901 94.0788 41.6901 106.033 41.6901C106.5 41.6901 106.5 40.9482 106.033 40.9482C94.0788 40.9482 82.0999 40.9482 70.1457 40.9482C69.6783 40.9482 69.6783 41.6901 70.1457 41.6901Z" fill="#030235"/>
<path d="M83.576 44.7321C95.8992 44.7321 108.222 44.7321 120.546 44.7321C121.013 44.7321 121.013 43.9902 120.546 43.9902C108.222 43.9902 95.8992 43.9902 83.576 43.9902C83.084 43.9902 83.084 44.7321 83.576 44.7321Z" fill="#030235"/>
<path d="M25.2294 117.282C25.6721 127.618 26.1149 137.979 26.5576 148.315C26.5822 148.785 27.3201 148.785 27.2955 148.315C26.8528 137.979 26.41 127.618 25.9673 117.282C25.9427 116.812 25.2048 116.812 25.2294 117.282Z" fill="#030235"/>
<path d="M79.4191 111.25C80.4768 111.25 81.5345 111.25 82.6167 111.25C83.0841 111.25 83.0841 110.508 82.6167 110.508C81.5591 110.508 80.5014 110.508 79.4191 110.508C78.9518 110.508 78.9518 111.25 79.4191 111.25Z" fill="#030235"/>
<path d="M85.3942 111.25C88.1245 111.25 90.8302 111.25 93.5605 111.25C94.0278 111.25 94.0278 110.508 93.5605 110.508C90.8302 110.508 88.1245 110.508 85.3942 110.508C84.9269 110.508 84.9269 111.25 85.3942 111.25Z" fill="#030235"/>
<path d="M99.7343 110.853C102.981 110.853 106.228 110.853 109.499 110.853C109.967 110.853 109.967 110.111 109.499 110.111C106.253 110.111 103.006 110.111 99.7343 110.111C99.267 110.111 99.267 110.853 99.7343 110.853Z" fill="#030235"/>
<path d="M83.8218 116.442C87.8066 116.442 91.7914 116.442 95.7761 116.442C96.2435 116.442 96.2435 115.7 95.7761 115.7C91.7914 115.7 87.8066 115.7 83.8218 115.7C83.3299 115.7 83.3299 116.442 83.8218 116.442Z" fill="#030235"/>
<path d="M89.5783 113.646C94.2272 113.646 98.876 113.646 103.525 113.646C103.992 113.646 103.992 112.904 103.525 112.904C98.876 112.904 94.2272 112.904 89.5783 112.904C89.1109 112.904 89.1109 113.646 89.5783 113.646Z" fill="#030235"/>
<path d="M114.272 140.081C122.094 140.081 129.94 140.081 137.762 140.081C138.23 140.081 138.23 139.339 137.762 139.339C129.94 139.339 122.094 139.339 114.272 139.339C113.805 139.339 113.805 140.081 114.272 140.081Z" fill="#030235"/>
<path d="M133.58 142.084C137.688 142.084 141.82 142.084 145.928 142.084C146.395 142.084 146.395 141.342 145.928 141.342C141.82 141.342 137.688 141.342 133.58 141.342C133.113 141.342 133.113 142.084 133.58 142.084Z" fill="#030235"/>
<path d="M144.329 139.068C148.387 139.068 152.421 139.068 156.48 139.068C156.947 139.068 156.947 138.326 156.48 138.326C152.421 138.326 148.387 138.326 144.329 138.326C143.861 138.326 143.861 139.068 144.329 139.068Z" fill="#030235"/>
<path d="M165.042 72.0309C172.544 72.0309 180.046 72.0309 187.548 72.0309C188.015 72.0309 188.015 71.2891 187.548 71.2891C180.046 71.2891 172.544 71.2891 165.042 71.2891C164.574 71.2891 164.574 72.0309 165.042 72.0309Z" fill="#030235"/>
<path d="M158.081 73.2174C160.467 73.2174 162.853 73.2174 165.239 73.2174C165.706 73.2174 165.706 72.4756 165.239 72.4756C162.853 72.4756 160.467 72.4756 158.081 72.4756C157.589 72.4756 157.589 73.2174 158.081 73.2174Z" fill="#030235"/>
<path d="M159.458 75.2204C167.477 75.2204 175.52 75.2204 183.539 75.2204C184.006 75.2204 184.006 74.4785 183.539 74.4785C175.52 74.4785 167.477 74.4785 159.458 74.4785C158.991 74.4785 158.991 75.2204 159.458 75.2204Z" fill="#030235"/>
<path d="M189.147 73.4157C190.672 73.4157 192.197 73.4157 193.722 73.4157C194.19 73.4157 194.19 72.6738 193.722 72.6738C192.197 72.6738 190.672 72.6738 189.147 72.6738C188.655 72.6738 188.655 73.4157 189.147 73.4157Z" fill="#030235"/>
<path d="M183.17 103.632C185.433 103.632 187.671 103.632 189.934 103.632C190.401 103.632 190.401 102.891 189.934 102.891C187.671 102.891 185.433 102.891 183.17 102.891C182.678 102.891 182.678 103.632 183.17 103.632Z" fill="#030235"/>
<path d="M178.791 105.636C181.251 105.636 183.71 105.636 186.145 105.636C186.613 105.636 186.613 104.895 186.145 104.895C183.686 104.895 181.226 104.895 178.791 104.895C178.299 104.895 178.299 105.636 178.791 105.636Z" fill="#030235"/>
<path d="M182.358 107.639C187.204 107.639 192.05 107.639 196.895 107.639C197.363 107.639 197.363 106.897 196.895 106.897C192.05 106.897 187.204 106.897 182.358 106.897C181.891 106.897 181.891 107.639 182.358 107.639Z" fill="#030235"/>
<path d="M191.531 105.242C192.983 105.242 194.458 105.242 195.91 105.242C196.377 105.242 196.377 104.5 195.91 104.5C194.458 104.5 192.983 104.5 191.531 104.5C191.039 104.5 191.039 105.242 191.531 105.242Z" fill="#030235"/>
<path d="M90.2155 74.4049C93.6591 74.4049 97.0781 74.4049 100.522 74.4049C100.989 74.4049 100.989 73.6631 100.522 73.6631C97.0781 73.6631 93.6591 73.6631 90.2155 73.6631C89.7482 73.6631 89.7482 74.4049 90.2155 74.4049Z" fill="#030235"/>
<path d="M97.7182 76.5299C102.785 76.5299 107.877 76.5299 112.944 76.5299C113.411 76.5299 113.411 75.7881 112.944 75.7881C107.877 75.7881 102.785 75.7881 97.7182 75.7881C97.2508 75.7881 97.2262 76.5299 97.7182 76.5299Z" fill="#030235"/>
<path d="M111.075 73.6891C113.953 73.6891 116.855 73.6891 119.733 73.6891C120.201 73.6891 120.201 72.9473 119.733 72.9473C116.855 72.9473 113.953 72.9473 111.075 72.9473C110.608 72.9473 110.608 73.6891 111.075 73.6891Z" fill="#030235"/>
<path d="M23.0425 34.2215C23.5836 52.9898 24.1248 71.7828 24.6659 90.551C24.8135 95.8922 24.9611 101.209 25.1332 106.55C25.1578 107.02 25.8958 107.02 25.8712 106.55C25.33 87.7815 24.7889 68.9885 24.2477 50.2203C24.1002 44.8791 23.9526 39.5627 23.7804 34.2215C23.7804 33.7517 23.0425 33.7517 23.0425 34.2215Z" fill="#030235"/>
<path d="M201.838 95.5721C202.207 107.985 202.576 120.374 202.945 132.787C202.969 133.257 203.707 133.257 203.682 132.787C203.313 120.374 202.945 107.985 202.576 95.5721C202.576 95.1023 201.838 95.1023 201.838 95.5721Z" fill="#030235"/>
<path d="M150.898 89.8894C151.046 91.3978 151.194 92.9309 151.317 94.4393C152.743 94.0684 154.145 93.6728 155.572 93.3018C155.375 91.7935 155.203 90.2603 155.006 88.752C153.629 89.1229 152.276 89.5185 150.898 89.8894Z" fill="#5DC2CC"/>
<path d="M150.035 101.438C151.511 101.24 152.962 101.067 154.438 100.869C154.635 102.674 154.807 104.479 155.004 106.284C153.676 106.334 152.347 106.383 151.044 106.433C150.699 104.751 150.38 103.095 150.035 101.438Z" fill="#5DC2CC"/>
<path d="M155.424 112.39C155.891 113.948 156.358 115.531 156.85 117.089C158.178 116.47 159.507 115.852 160.81 115.234C160.392 113.849 159.949 112.489 159.531 111.104C158.178 111.55 156.801 111.97 155.424 112.39Z" fill="#5DC2CC"/>
<path d="M58.189 127.13C58.5087 131.927 58.8285 136.724 59.1483 141.497C67.5113 140.953 75.8744 140.434 84.2374 139.89C84.385 135.587 84.5572 131.26 84.7048 126.957C75.8744 127.031 67.0194 127.081 58.189 127.13Z" fill="#5DC2CC"/>
<path d="M162.164 29.5292C163.128 29.5292 163.91 28.876 163.91 28.0703C163.91 27.2645 163.128 26.6113 162.164 26.6113C161.199 26.6113 160.417 27.2645 160.417 28.0703C160.417 28.876 161.199 29.5292 162.164 29.5292Z" fill="#5DC2CC"/>
<path d="M43.4803 40.459C44.2818 40.459 44.9315 40.0273 44.9315 39.4946C44.9315 38.962 44.2818 38.5303 43.4803 38.5303C42.6788 38.5303 42.0291 38.962 42.0291 39.4946C42.0291 40.0273 42.6788 40.459 43.4803 40.459Z" fill="#2466C5"/>
<path d="M66.5795 68.4255C67.2044 68.4255 67.711 67.8276 67.711 67.0902C67.711 66.3527 67.2044 65.7549 66.5795 65.7549C65.9546 65.7549 65.448 66.3527 65.448 67.0902C65.448 67.8276 65.9546 68.4255 66.5795 68.4255Z" fill="#2466C5"/>
<path opacity="0.21" d="M56.1986 35.1172C56.6414 35.043 57.5023 39.1725 59.6177 46.665C62.3971 56.5313 65.152 64.4936 67.1444 69.9337C64.1189 71.813 57.3547 75.3985 48.1308 75.5221C41.6125 75.5963 36.4717 73.9148 33.4216 72.629C39.3988 73.2966 44.2198 73.1235 47.5896 72.8021C52.9272 72.3075 51.9925 71.7388 56.0265 71.541C57.6991 71.4668 59.8882 71.4668 62.1266 70.1068C62.9383 69.6122 63.5286 69.0682 63.9222 68.6726C62.3479 65.4085 60.331 60.6114 58.7076 54.6026C56.1249 44.8352 55.5591 35.2408 56.1986 35.1172Z" fill="#98A0AD"/>
<path opacity="0.25" d="M79.2466 61.9473C79.6402 65.0877 80.3535 68.599 81.5341 72.3576C84.904 83.0399 90.5859 90.656 94.8658 95.3543C92.3077 97.2583 89.1347 99.2365 85.3221 100.893C73.7614 105.913 62.9633 105.171 57.1829 104.281C56.9615 102.97 56.7402 101.66 56.5188 100.349C58.9785 100.423 61.5858 100.374 64.3161 100.226C74.0566 99.6074 82.4196 97.4067 89.0855 94.9586C86.9701 91.3484 85.4451 88.2327 84.3874 85.8836C81.8293 80.2704 79.9353 76.042 79.2712 70.3299C78.853 66.8433 79.0252 63.9007 79.2466 61.9473Z" fill="#98A0AD"/>
<path opacity="0.14" d="M157.441 78.3174C157.687 83.9553 158.278 88.6288 158.794 91.9917C159.999 99.7068 160.885 105.048 164.033 111.057C166.001 114.791 168.215 117.535 169.814 119.316C167.034 121.714 163.295 124.434 158.499 126.61C146.446 132.125 135.132 131.012 129.843 130.122C129.573 128.91 129.302 127.698 129.031 126.462C129.696 126.511 130.729 126.561 131.983 126.586C136.165 126.685 144.872 126.833 154.859 123.47C157.663 122.53 161.598 120.948 166.026 118.327C164.279 115.978 162.557 113.183 161.057 109.944C155.129 97.1598 156.31 84.7466 157.441 78.3174Z" fill="#98A0AD"/>
<path opacity="0.18" d="M176.282 22.8525C176.773 25.1522 177.487 28.6635 178.2 33.0403C179.528 41.4972 179.43 44.5634 180.98 49.5584C181.791 52.1548 183.243 55.8392 185.973 60.0429C183.685 61.9222 180.832 63.8757 177.315 65.5077C165.803 70.8736 154.784 69.3652 149.717 68.3019C149.766 67.3128 149.815 66.3237 149.864 65.3593C150.504 65.5324 151.463 65.755 152.644 65.9528C154.193 66.2001 159.924 67.0408 170.698 64.3208C173.674 63.5789 177.684 62.392 182.283 60.488C181.398 58.9054 180.094 56.4326 178.913 53.2675C175.47 44.0936 175.494 36.1313 175.544 32.0265C175.568 29.7763 175.716 26.6359 176.282 22.8525Z" fill="#98A0AD"/>
<path d="M29.2393 33.7069C26.8042 46.6642 29.2639 59.7699 31.7236 72.5293C31.822 72.9991 32.5353 72.8013 32.437 72.3315C30.0018 59.7204 27.5667 46.7384 29.9526 33.9048C30.0264 33.4597 29.3131 33.2371 29.2393 33.7069Z" fill="#030235"/>
<path d="M29.9285 33.6079C33.4459 35.9818 37.7012 36.4022 41.8582 36.1054C46.6054 35.7592 51.3035 34.7454 56.0016 33.9541C56.4689 33.8799 56.2721 33.1628 55.8048 33.237C51.3035 33.9788 46.8022 34.9432 42.2517 35.3141C38.0948 35.6603 33.8395 35.3389 30.2975 32.9403C29.9039 32.693 29.535 33.3359 29.9285 33.6079Z" fill="#030235"/>
<path d="M55.5096 34.4735C56.1984 46.2933 57.9694 58.3603 63.9219 68.7459C64.1679 69.1663 64.8074 68.7954 64.5614 68.375C58.6827 58.0883 56.9363 46.1449 56.2476 34.4735C56.223 34.0036 55.485 34.0036 55.5096 34.4735Z" fill="#030235"/>
<path d="M32.338 72.7295C37.9216 74.3615 43.9233 73.3724 49.6053 72.9025C54.6477 72.4822 60.0591 72.2844 64.3882 69.317C64.7817 69.045 64.4128 68.4021 64.0192 68.6741C59.6655 71.6662 54.2049 71.7651 49.1379 72.1854C43.6773 72.6305 37.9216 73.5455 32.5348 71.9876C32.0675 71.8887 31.8707 72.6058 32.338 72.7295Z" fill="#030235"/>
<path d="M41.7829 39.6443C41.291 39.4217 41.8321 38.9519 42.1273 38.8777C42.4962 38.7788 43.2095 38.7294 43.3817 39.1497C43.5047 39.4712 43.3079 39.8916 43.0128 40.0152C42.5454 40.2378 42.0289 39.9658 41.7091 39.6443C41.3647 39.2981 40.8482 39.8174 41.1926 40.1636C41.8075 40.7818 42.816 41.1032 43.5785 40.5345C44.1934 40.0894 44.4148 39.1003 43.8983 38.5068C43.3079 37.8392 42.0535 37.9134 41.3893 38.4079C40.799 38.853 40.676 39.9163 41.4385 40.2625C41.8567 40.485 42.2257 39.8421 41.7829 39.6443Z" fill="#5DC2CC"/>
<path d="M51.647 72.8272C49.876 81.8528 51.7699 90.9773 53.6885 99.8298C53.7869 100.3 54.5002 100.102 54.4018 99.632C52.5079 90.9279 50.6385 81.927 52.3603 73.0251C52.4587 72.5552 51.7453 72.3574 51.647 72.8272Z" fill="#030235"/>
<path d="M61.8065 63.3575C67.4885 62.2694 73.2442 61.8738 79 62.0964C78.877 61.9727 78.754 61.8491 78.631 61.7254C77.475 73.6442 82.542 84.9941 88.6913 94.8605C88.9373 95.2561 89.5768 94.8852 89.3308 94.4895C83.2553 84.7221 78.2129 73.5205 79.3689 61.7254C79.3935 61.5276 79.1722 61.3545 79 61.3545C73.1704 61.132 67.3409 61.5523 61.6098 62.6404C61.1424 62.7393 61.3392 63.4564 61.8065 63.3575Z" fill="#030235"/>
<path d="M54.0822 100.35C66.0364 101.759 78.1628 99.954 89.2316 95.2063C89.6743 95.0085 89.2808 94.3903 88.8626 94.5634C77.9415 99.2617 65.8889 100.993 54.0822 99.6079C53.6149 99.5584 53.6149 100.3 54.0822 100.35Z" fill="#030235"/>
<path d="M66.4311 66.395C66.4311 66.3702 66.5049 66.2466 66.5049 66.1971C66.5295 66.0982 66.6033 65.9993 66.6771 65.9251C66.8247 65.8015 66.9968 65.7026 67.1936 65.6779C67.5626 65.6284 67.9069 65.8262 68.0053 66.1971C68.0791 66.4939 67.9561 66.8895 67.6118 66.939C67.292 66.9884 66.9968 66.7659 66.9476 66.4444C66.8739 65.9746 66.1605 66.1724 66.2343 66.6422C66.3573 67.5077 67.4642 67.9281 68.1775 67.5077C68.9646 67.0379 68.9154 65.8262 68.2513 65.2575C67.5134 64.6393 66.2835 64.9608 65.8654 65.8015C65.6686 66.2219 65.6686 66.7906 66.1359 67.0379C66.5049 67.2357 67.046 67.0626 67.1444 66.5928C67.2182 66.123 66.5049 65.9251 66.4311 66.395Z" fill="#030235"/>
<path d="M31.6749 47.1593C38.2178 48.0742 44.7115 46.7142 50.9838 44.9091C51.4511 44.7855 51.2543 44.0684 50.787 44.192C44.6377 45.9477 38.267 47.3324 31.8717 46.4422C31.4044 46.368 31.2076 47.0851 31.6749 47.1593Z" fill="#030235"/>
<path d="M32.9032 52.0059C36.2977 52.3768 39.6921 52.0306 42.9635 50.9921C43.4063 50.8437 43.2341 50.1266 42.7667 50.275C39.5691 51.2888 36.2485 51.6103 32.9032 51.2641C32.4359 51.2146 32.4359 51.9564 32.9032 52.0059Z" fill="#030235"/>
<path d="M32.9032 57.9898C39.3969 58.7564 45.9398 58.2865 52.2367 56.6298C52.704 56.5062 52.5072 55.7891 52.0399 55.9127C45.7922 57.5695 39.3231 58.0145 32.9032 57.248C32.4359 57.1738 32.4359 57.9156 32.9032 57.9898Z" fill="#030235"/>
<path d="M57.2059 95.948C63.7241 96.2447 70.2424 95.4535 76.4901 93.5741C76.9328 93.4505 76.7607 92.7334 76.2933 92.857C70.0948 94.7116 63.6749 95.5029 57.2059 95.2062C56.7139 95.1815 56.7139 95.9233 57.2059 95.948Z" fill="#030235"/>
<path d="M58.4604 90.2855C61.3628 90.1866 64.2653 89.9641 67.1678 89.6426C67.6351 89.5932 67.6351 88.8513 67.1678 88.9008C64.2653 89.2223 61.3874 89.4448 58.4604 89.5437C57.993 89.5684 57.993 90.3103 58.4604 90.2855Z" fill="#030235"/>
<path d="M60.8215 80.0965C62.74 80.3437 64.7324 79.8492 66.6264 79.5772C68.7171 79.2557 70.7833 78.959 72.8741 78.6375C73.3414 78.5633 73.1446 77.8462 72.6773 77.9204C70.7587 78.2171 68.8155 78.5139 66.897 78.7859C64.9046 79.0826 62.8384 79.6266 60.8215 79.3546C60.3541 79.2804 60.3541 80.0223 60.8215 80.0965Z" fill="#030235"/>
<path d="M147.75 24.6573C145.069 37.8866 144.798 51.4868 146.938 64.815C147.012 65.2848 147.725 65.087 147.651 64.6171C145.536 51.4373 145.831 37.936 148.463 24.8551C148.561 24.3853 147.848 24.1875 147.75 24.6573Z" fill="#030235"/>
<path d="M148.586 24.8312C157.514 22.7788 166.738 22.3584 175.839 23.5948C176.307 23.669 176.503 22.9519 176.036 22.8777C166.812 21.6166 157.465 22.0369 148.389 24.1141C147.946 24.2377 148.143 24.9548 148.586 24.8312Z" fill="#030235"/>
<path d="M175.617 22.9256C175.346 35.6603 175.518 49.1122 181.938 60.5116C182.184 60.932 182.799 60.5611 182.578 60.1407C176.232 48.8649 176.084 35.5367 176.355 22.9256C176.379 22.4558 175.641 22.4558 175.617 22.9256Z" fill="#030235"/>
<path d="M147.503 65.2095C150.258 66.0502 153.209 66.0997 156.063 66.1244C159.137 66.1491 162.212 65.9513 165.287 65.5309C171.165 64.7397 176.897 63.1324 182.382 60.808C182.824 60.6349 182.431 59.992 182.013 60.165C176.528 62.4894 170.747 64.072 164.844 64.8386C162.089 65.1848 159.309 65.3826 156.53 65.3578C153.603 65.3578 150.528 65.3331 147.724 64.4677C147.232 64.3687 147.06 65.0858 147.503 65.2095Z" fill="#030235"/>
<path d="M162.556 25.6207C161.72 25.9175 161.351 26.8818 161.646 27.6978C161.99 28.6128 163.048 28.8353 163.835 28.2913C164.598 27.7473 164.844 26.6593 164.106 25.9669C163.466 25.3734 162.359 25.3487 161.769 25.9916C161.449 26.3378 161.966 26.8571 162.286 26.5109C163.024 25.7196 164.475 26.8324 163.466 27.6237C163.073 27.9204 162.507 27.9204 162.335 27.4011C162.212 27.0055 162.335 26.4615 162.753 26.3131C163.196 26.1647 162.999 25.4476 162.556 25.6207Z" fill="#030235"/>
<path d="M148.119 36.1547C154.834 36.3278 161.524 36.2041 168.215 35.759C168.682 35.7343 168.682 34.9925 168.215 35.0172C161.524 35.4623 154.809 35.6107 148.119 35.4129C147.627 35.4129 147.627 36.1547 148.119 36.1547Z" fill="#030235"/>
<path d="M148.782 39.9133C151.291 40.0122 153.8 40.1111 156.284 40.2101C156.752 40.2348 156.752 39.493 156.284 39.4682C153.775 39.3693 151.266 39.2704 148.782 39.1715C148.29 39.1468 148.29 39.8886 148.782 39.9133Z" fill="#030235"/>
<path d="M148.092 45.1587C154.414 45.5049 160.809 45.8016 167.032 44.4169C167.499 44.318 167.303 43.6009 166.835 43.6998C160.661 45.0598 154.34 44.7631 148.092 44.4169C147.625 44.3921 147.625 45.134 148.092 45.1587Z" fill="#030235"/>
<path d="M56.3933 125.545C55.8275 130.49 55.6308 135.461 55.8029 140.431C55.8275 140.901 56.5655 140.901 56.5409 140.431C56.3687 135.461 56.5655 130.49 57.1312 125.545C57.1804 125.075 56.4425 125.075 56.3933 125.545Z" fill="#030235"/>
<path d="M56.6408 125.843C65.3974 125.843 74.1786 125.72 82.9352 125.448C83.4026 125.423 83.4026 124.681 82.9352 124.706C74.1786 124.978 65.3974 125.101 56.6408 125.101C56.1734 125.101 56.1734 125.843 56.6408 125.843Z" fill="#030235"/>
<path d="M82.8604 125.1C82.9342 129.403 83.008 133.681 83.0818 137.984C83.0818 138.453 83.8197 138.453 83.8197 137.984C83.7459 133.681 83.6721 129.403 83.5984 125.1C83.5984 124.631 82.8358 124.631 82.8604 125.1Z" fill="#030235"/>
<path d="M55.7317 139.891C55.7809 141.498 58.5604 140.781 59.4705 140.732C62.0778 140.559 64.6851 140.386 67.2678 140.188C72.5562 139.817 77.8446 139.471 83.133 139.1C83.6003 139.075 83.6003 138.333 83.133 138.358C78.6317 138.655 74.155 138.976 69.6537 139.273C67.5138 139.421 65.3738 139.57 63.2338 139.718C62.5943 139.767 56.4696 140.361 56.445 139.891C56.4696 139.421 55.7317 139.421 55.7317 139.891Z" fill="#030235"/>
<path d="M58.6336 129.181C64.5369 128.909 70.4403 129.131 76.2944 129.873C76.7617 129.922 76.7617 129.181 76.2944 129.131C70.4403 128.389 64.5369 128.167 58.6336 128.439C58.1417 128.464 58.1417 129.205 58.6336 129.181Z" fill="#030235"/>
<path d="M58.8551 132.94C62.1512 132.692 65.4718 132.42 68.7678 132.173C69.2351 132.148 69.2351 131.407 68.7678 131.431C65.4718 131.679 62.1512 131.951 58.8551 132.198C58.3878 132.223 58.3878 132.964 58.8551 132.94Z" fill="#030235"/>
<path d="M59.961 136.723C64.7082 136.105 69.8736 134.844 74.6455 135.709C75.1128 135.783 75.3096 135.091 74.8423 134.992C69.972 134.102 64.8066 135.338 59.961 135.981C59.5182 136.055 59.4936 136.797 59.961 136.723Z" fill="#030235"/>
<path d="M123.938 83.4591C120.027 97.4549 120.519 112.44 125.316 126.164C125.463 126.609 126.177 126.411 126.029 125.966C121.282 112.366 120.79 97.5291 124.652 83.6569C124.775 83.1871 124.061 82.9892 123.938 83.4591Z" fill="#030235"/>
<path d="M124.43 83.7065C135.375 83.657 146.272 82.2229 156.873 79.4286C157.341 79.305 157.144 78.5879 156.676 78.7115C146.149 81.481 135.326 82.9152 124.43 82.9647C123.938 82.9647 123.938 83.7065 124.43 83.7065Z" fill="#030235"/>
<path d="M156.679 78.9862C156.236 85.8604 156.532 92.7842 157.761 99.5843C158.376 103.021 159.114 106.459 160.467 109.673C161.82 112.863 163.689 115.756 165.878 118.402C166.174 118.773 166.715 118.254 166.395 117.883C164.157 115.187 162.263 112.195 160.934 108.931C159.68 105.816 158.991 102.477 158.425 99.1886C157.245 92.5369 156.974 85.7368 157.392 78.9862C157.442 78.5163 156.704 78.5163 156.679 78.9862Z" fill="#030235"/>
<path d="M125.415 126.559C139.337 127.548 153.874 125.966 166.074 118.745C166.493 118.498 166.124 117.855 165.705 118.102C153.579 125.274 139.19 126.782 125.415 125.818C124.948 125.768 124.948 126.51 125.415 126.559Z" fill="#030235"/>
<path d="M140.221 85.9304C139.803 85.2133 140.639 84.3231 141.353 84.8919C142.115 85.5101 141.304 86.4992 140.492 86.1777C140.049 86.0046 139.852 86.7217 140.295 86.8948C140.959 87.1668 141.771 86.8701 142.164 86.2766C142.607 85.609 142.41 84.7682 141.795 84.2984C140.467 83.2351 138.795 84.8919 139.582 86.3014C139.828 86.7217 140.467 86.3508 140.221 85.9304Z" fill="#030235"/>
<path d="M124.676 94.4638C132.031 94.3402 139.386 93.8209 146.716 92.9307C147.183 92.8813 147.183 92.1394 146.716 92.1889C139.41 93.1038 132.056 93.5984 124.676 93.722C124.209 93.7467 124.209 94.4886 124.676 94.4638Z" fill="#030235"/>
<path d="M149.347 89.4919C149.568 90.6293 149.789 91.7915 150.011 92.929C150.109 93.3988 150.823 93.201 150.724 92.7312C150.503 91.5937 150.281 90.4315 150.06 89.294C149.986 88.8242 149.273 89.022 149.347 89.4919Z" fill="#030235"/>
<path d="M149.839 89.3944C151.192 89.1966 152.545 88.9987 153.923 88.7762C154.39 88.702 154.193 87.9849 153.726 88.0591C152.373 88.2569 151.02 88.4547 149.643 88.6773C149.175 88.7515 149.372 89.4686 149.839 89.3944Z" fill="#030235"/>
<path d="M153.703 88.5552C153.899 89.6185 154.072 90.6817 154.268 91.7203C154.342 92.1901 155.055 91.9923 154.982 91.5225C154.785 90.4592 154.613 89.3959 154.416 88.3573C154.342 87.9122 153.629 88.1101 153.703 88.5552Z" fill="#030235"/>
<path d="M150.626 93.4998C152.077 93.203 153.455 92.8074 154.832 92.2634C155.275 92.0903 155.078 91.3732 154.635 91.5463C153.258 92.0656 151.856 92.4859 150.429 92.7827C149.962 92.8816 150.159 93.5987 150.626 93.4998Z" fill="#030235"/>
<path d="M150.75 90.233C151.02 90.8512 151.389 91.3457 151.93 91.7661C152.127 91.9144 152.496 91.9144 152.545 91.593C152.742 90.2577 153.209 89.0708 153.996 87.958C154.267 87.5624 153.627 87.1915 153.357 87.5871C152.545 88.7246 152.029 90.0104 151.832 91.3952C152.029 91.3457 152.25 91.2963 152.447 91.2221C151.979 90.8512 151.635 90.4061 151.389 89.8373C151.192 89.417 150.553 89.7879 150.75 90.233Z" fill="#030235"/>
<path d="M151.02 100.843C150.627 102.623 150.799 104.354 151.512 106.011C151.709 106.456 152.324 106.06 152.152 105.64C151.512 104.181 151.389 102.599 151.734 101.041C151.832 100.571 151.119 100.373 151.02 100.843Z" fill="#030235"/>
<path d="M151.512 101.089C152.988 100.842 154.464 100.619 155.94 100.372C155.792 100.223 155.645 100.075 155.497 99.9267C155.251 101.509 155.423 103.018 156.038 104.501C156.21 104.946 156.924 104.749 156.751 104.304C156.186 102.968 155.989 101.559 156.21 100.125C156.26 99.8278 156.063 99.63 155.768 99.6794C154.292 99.902 152.816 100.149 151.34 100.397C150.848 100.446 151.045 101.163 151.512 101.089Z" fill="#030235"/>
<path d="M151.833 106.039C153.457 105.989 155.006 105.668 156.531 105.124C156.974 104.951 156.777 104.234 156.334 104.407C154.883 104.951 153.383 105.247 151.833 105.297C151.366 105.297 151.366 106.039 151.833 106.039Z" fill="#030235"/>
<path d="M152.053 102.598C152.274 103.241 152.643 103.686 153.233 104.032C153.504 104.18 153.75 103.982 153.799 103.71C153.947 102.4 154.291 101.139 154.832 99.9271C155.029 99.5068 154.389 99.1111 154.193 99.5562C153.602 100.892 153.233 102.276 153.061 103.71C153.258 103.612 153.43 103.488 153.627 103.389C153.209 103.142 152.963 102.845 152.791 102.375C152.618 101.955 151.905 102.153 152.053 102.598Z" fill="#030235"/>
<path d="M152.546 112.318C152.718 113.975 153.16 115.533 153.898 117.016C154.095 117.437 154.735 117.066 154.538 116.646C153.874 115.286 153.456 113.827 153.308 112.318C153.234 111.848 152.496 111.848 152.546 112.318Z" fill="#030235"/>
<path d="M152.891 112.242C154.785 112.415 156.556 112.069 158.253 111.228C158.081 111.154 157.885 111.08 157.712 111.005C158.032 112.514 158.696 113.824 159.729 114.987C160.049 115.333 160.566 114.813 160.246 114.467C159.311 113.404 158.721 112.217 158.426 110.832C158.376 110.585 158.081 110.511 157.885 110.61C156.31 111.376 154.638 111.673 152.891 111.525C152.424 111.475 152.424 112.217 152.891 112.242Z" fill="#030235"/>
<path d="M154.561 117.287C156.48 116.57 158.374 115.803 160.218 114.962C160.661 114.765 160.268 114.122 159.849 114.32C158.054 115.136 156.209 115.877 154.364 116.57C153.922 116.743 154.118 117.46 154.561 117.287Z" fill="#030235"/>
<path d="M154.169 113.554C154.76 114.074 156.112 115.854 156.801 114.543C157.121 113.95 157.047 113.134 157.244 112.466C157.539 111.527 158.031 110.661 158.671 109.919C158.966 109.548 158.449 109.029 158.154 109.4C157.465 110.216 156.924 111.106 156.604 112.145C156.457 112.615 156.334 113.109 156.26 113.604C156.162 114.222 155.989 114.074 155.522 113.777C155.227 113.579 154.956 113.282 154.686 113.035C154.341 112.714 153.825 113.233 154.169 113.554Z" fill="#030235"/>
<path d="M125.339 106.556C132.226 106.482 139.089 105.913 145.878 104.825C146.345 104.751 146.148 104.034 145.681 104.108C138.941 105.171 132.152 105.74 125.339 105.789C124.872 105.814 124.872 106.556 125.339 106.556Z" fill="#030235"/>
<path d="M124.552 96.5158C129.004 96.6394 133.432 96.4911 137.859 96.1202C138.326 96.0707 138.326 95.3289 137.859 95.3783C133.432 95.7492 128.979 95.8729 124.552 95.774C124.085 95.7492 124.085 96.4911 124.552 96.5158Z" fill="#030235"/>
<path d="M125.61 108.014C130.284 108.236 134.957 108.063 139.581 107.47C140.049 107.42 140.049 106.678 139.581 106.728C134.933 107.297 130.259 107.495 125.61 107.272C125.143 107.247 125.143 107.989 125.61 108.014Z" fill="#030235"/>
<path d="M141.158 107.123C142.486 107.148 143.79 106.975 145.069 106.555C145.511 106.406 145.315 105.689 144.872 105.837C143.667 106.233 142.437 106.406 141.158 106.381C140.69 106.381 140.69 107.123 141.158 107.123Z" fill="#030235"/>
<path d="M128.12 117.314C133.728 116.967 139.312 116.448 144.871 115.682C145.338 115.607 145.338 114.866 144.871 114.94C139.312 115.682 133.728 116.226 128.12 116.572C127.628 116.597 127.628 117.338 128.12 117.314Z" fill="#030235"/>
<path d="M128.758 119.041C130.603 119.041 132.448 119.041 134.293 119.041C134.76 119.041 134.76 118.299 134.293 118.299C132.448 118.299 130.603 118.299 128.758 118.299C128.291 118.299 128.291 119.041 128.758 119.041Z" fill="#030235"/>
<path d="M130.359 120.7C133.237 120.527 136.115 120.255 138.993 119.909C141.305 119.612 143.789 119.489 145.782 118.129C146.175 117.857 145.806 117.214 145.413 117.486C143.322 118.92 140.518 118.994 138.083 119.266C135.525 119.563 132.942 119.785 130.384 119.958C129.892 119.983 129.867 120.725 130.359 120.7Z" fill="#030235"/>
<path d="M158.447 100.719C162.924 100.497 167.376 99.9031 171.779 98.9635C171.632 98.8893 171.484 98.7904 171.336 98.7162C173.403 104.898 176.453 110.66 180.364 115.877C180.634 116.248 181.298 115.877 181.003 115.506C177.141 110.363 174.116 104.651 172.05 98.5431C171.976 98.3453 171.804 98.2464 171.607 98.2958C167.278 99.2355 162.9 99.8042 158.472 100.027C157.956 100.002 157.956 100.744 158.447 100.719Z" fill="#030235"/>
<path d="M159.211 121.59C159.875 122.53 160.416 123.519 160.883 124.582C160.932 124.731 161.154 124.805 161.301 124.755C164.917 123.544 168.484 122.208 171.977 120.7C173.748 119.933 175.494 119.142 177.24 118.301C178.077 117.906 178.913 117.485 179.725 117.065C180.217 116.818 180.782 116.669 180.955 116.125C181.004 115.977 180.93 115.779 180.782 115.705C180.561 115.581 180.438 115.581 180.217 115.705C180.069 115.779 179.995 115.977 180.044 116.125C180.044 116.15 180.069 116.175 180.069 116.2C180.192 116.669 180.905 116.472 180.782 116.002C180.782 115.977 180.758 115.952 180.758 115.928C180.709 116.076 180.635 116.2 180.586 116.348C180.536 116.348 180.463 116.348 180.413 116.348C180.364 116.2 180.29 116.076 180.241 115.928C180.094 116.373 178.544 116.843 178.126 117.065C177.437 117.411 176.748 117.733 176.035 118.079C174.387 118.87 172.714 119.612 171.017 120.329C167.77 121.714 164.45 122.95 161.105 124.063C161.252 124.112 161.375 124.187 161.523 124.236C161.08 123.173 160.514 122.184 159.85 121.244C159.58 120.824 158.94 121.195 159.211 121.59Z" fill="#030235"/>
<path d="M163.491 102.648C163.442 102.327 164.033 102.03 164.254 102.252C164.549 102.549 164.057 103.093 163.713 102.97C163.27 102.796 163.073 103.514 163.516 103.687C164.574 104.082 165.607 102.549 164.795 101.733C164.426 101.362 163.86 101.387 163.418 101.61C162.95 101.857 162.704 102.327 162.803 102.846C162.852 103.316 163.565 103.093 163.491 102.648Z" fill="#030235"/>
<path d="M54.4999 82.8659C57.2302 82.9153 59.9851 82.7917 62.6908 82.4208C65.5194 82.0251 68.3235 81.2091 71.2014 81.3328C71.6687 81.3575 71.6687 80.6157 71.2014 80.5909C68.5695 80.492 66.0114 81.1597 63.4287 81.5553C60.477 82.0251 57.4761 82.1982 54.4753 82.124C54.0325 82.124 54.0325 82.8659 54.4999 82.8659Z" fill="#030235"/>
<path d="M54.8942 74.683C59.0757 75.0044 63.2573 74.6335 67.3158 73.5702C67.7832 73.4466 67.5864 72.7295 67.119 72.8531C63.1097 73.8917 59.0265 74.2626 54.8942 73.9411C54.4269 73.9164 54.4269 74.6583 54.8942 74.683Z" fill="#030235"/>
<path d="M149.545 53.8604C149.127 56.5805 148.782 59.5231 150.479 61.8969C150.75 62.2926 151.39 61.9216 151.119 61.526C149.545 59.3252 149.889 56.5805 150.258 54.0583C150.332 53.5884 149.619 53.3906 149.545 53.8604Z" fill="#030235"/>
<path d="M149.765 53.8379C155.619 54.0605 161.473 53.4918 167.18 52.1317C167.032 52.0576 166.885 51.9586 166.737 51.8845C167.254 54.4314 168.238 56.8053 169.615 58.9813C169.861 59.3769 170.5 59.006 170.254 58.6104C168.902 56.4838 167.967 54.1594 167.45 51.6866C167.401 51.4888 167.18 51.3899 167.008 51.4394C161.375 52.7747 155.595 53.3434 149.79 53.1208C149.298 53.0714 149.298 53.8132 149.765 53.8379Z" fill="#030235"/>
<path d="M151.093 61.8745C157.439 61.6767 163.711 60.7371 169.811 59.0556C170.278 58.932 170.082 58.2148 169.614 58.3385C163.563 60.02 157.365 60.9596 151.093 61.1327C150.601 61.1574 150.601 61.8993 151.093 61.8745Z" fill="#030235"/>
<path d="M237.98 243.342L238.245 243.236V242.952V242.935V242.919V242.902V242.886V242.87V242.853V242.837V242.821V242.804V242.788V242.771V242.755V242.739V242.722V242.706V242.69V242.673V242.657V242.641V242.624V242.608V242.591V242.575V242.559V242.542V242.526V242.51V242.493V242.477V242.461V242.444V242.428V242.412V242.395V242.379V242.362V242.346V242.33V242.313V242.297V242.281V242.264V242.248V242.232V242.215V242.199V242.183V242.166V242.15V242.134V242.117V242.101V242.085V242.068V242.052V242.035V242.019V242.003V241.986V241.97V241.954V241.937V241.921V241.905V241.888V241.872V241.856V241.839V241.823V241.807V241.79V241.774V241.758V241.741V241.725V241.709V241.692V241.676V241.66V241.643V241.627V241.611V241.594V241.578V241.562V241.545V241.529V241.513V241.496V241.48V241.464V241.447V241.431V241.415V241.398V241.382V241.366V241.349V241.333V241.317V241.3V241.284V241.268V241.251V241.235V241.219V241.202V241.186V241.17V241.153V241.137V241.121V241.105V241.088V241.072V241.056V241.039V241.023V241.007V240.99V240.974V240.958V240.941V240.925V240.909V240.892V240.876V240.86V240.843V240.827V240.811V240.794V240.778V240.762V240.745V240.729V240.713V240.697V240.68V240.664V240.648V240.631V240.615V240.599V240.582V240.566V240.55V240.533V240.517V240.501V240.484V240.468V240.452V240.436V240.419V240.403V240.387V240.37V240.354V240.338V240.321V240.305V240.289V240.272V240.256V240.24V240.223V240.207V240.191V240.175V240.158V240.142V240.126V240.109V240.093V240.077V240.06V240.044V240.028V240.011V239.995V239.979V239.963V239.946V239.93V239.914V239.897V239.881V239.865V239.848V239.832V239.816V239.8V239.783V239.767V239.751V239.734V239.718V239.702V239.685V239.669V239.653V239.636V239.62V239.604V239.588V239.571V239.555V239.539V239.522V239.506V239.49V239.473V239.457V239.441V239.425V239.408V239.392V239.376V239.359V239.343V239.327V239.31V239.294V239.278V239.262V239.245V239.229V239.213V239.196V239.18V239.164V239.147V239.131V239.115V239.099V239.082V239.066V239.05V239.033V239.017V239.001V238.984V238.968V238.952V238.936V238.919V238.903V238.887V238.87V238.854V238.838V238.821V238.805V238.789V238.773V238.756V238.74V238.724V238.707V238.691V238.675V238.658V238.642V238.626V238.61V238.593V238.577V238.561V238.544V238.528V238.512V238.495V238.479V238.463V238.447V238.43V238.414V238.398V238.381V238.365V238.349V238.332V238.316V238.3V238.284V238.267V238.251V238.235V238.218V238.202V238.186V238.169V238.153V238.137V238.121V238.104V238.088V238.072V238.055V238.039V238.023V238.006V237.99V237.974V237.957V237.941V237.925V237.909V237.892V237.876V237.86V237.843V237.827V237.811V237.794V237.778V237.762V237.746V237.729V237.713V237.697V237.68V237.664V237.648V237.631V237.615V237.599V237.582V237.566V237.55V237.534V237.517V237.501V237.485V237.468V237.452V237.436V237.419V237.403V237.387V237.37V237.354V237.338V237.322V237.305V237.289V237.273V237.256V237.24V237.224V237.207V237.191V237.175V237.158V237.142V237.126V237.11V237.093V237.077V237.061V237.044V237.028V237.012V236.995V236.979V236.963V236.946V236.93V236.914V236.897V236.881V236.865V236.849V236.832V236.816V236.8V236.783V236.767V236.751V236.734V236.718V236.702V236.685V236.669V236.653V236.636V236.62V236.604V236.587V236.571V236.555V236.538V236.522V236.506V236.49V236.473V236.457V236.441V236.424V236.408V236.392V236.375V236.359V236.343V236.326V236.31V236.294V236.277V236.261V236.245V236.228V236.212V236.196V236.179V236.163V236.147V236.13V236.114V236.098V236.081V236.065V236.049V236.032V236.016V236V235.983V235.967V235.951V235.934V235.918V235.902V235.885V235.869V235.853V235.836V235.82V235.804V235.787V235.771V235.755V235.738V235.722V235.706V235.689V235.673V235.657V235.64V235.624V235.608V235.591V235.575V235.559V235.542V235.526V235.51V235.493V235.477V235.461V235.444V235.428V235.412V235.395V235.379V235.362V235.346V235.33V235.313V235.297V235.281V235.264V235.248V235.232V235.215V235.199V235.183V235.166V235.15V235.134V235.117V235.101V235.084V235.068V235.052V235.035V235.019V235.003V234.986V234.97V234.954V234.939C240.898 234.418 243.57 233.877 246.242 233.335C246.722 236.05 247.207 238.765 247.692 241.48C248.18 244.207 248.667 246.934 249.149 249.661C243.425 251.074 235.293 252.776 225.305 253.958C220.143 254.564 217.459 254.678 216.066 254.614C215.364 254.582 215.024 254.507 214.869 254.446C214.864 254.444 214.858 254.442 214.854 254.44C214.863 254.418 214.877 254.39 214.901 254.353C214.986 254.219 215.157 254.029 215.462 253.778C216.071 253.278 217.129 252.605 218.835 251.706C222.239 249.912 228.144 247.26 237.98 243.342ZM214.838 254.492C214.838 254.493 214.838 254.494 214.838 254.494C214.838 254.494 214.838 254.494 214.838 254.492Z" fill="#F9F8FA" stroke="#030235" stroke-width="0.840404"/>
<path d="M246.787 116.39L246.786 116.391C246.256 117.387 246.055 118.207 245.995 118.451C245.993 118.463 245.99 118.473 245.988 118.482C245.988 118.483 245.988 118.483 245.987 118.483L245.843 118.448C244.391 124.658 242.753 129.818 241.12 134.964C238.799 142.276 236.487 149.56 234.726 159.792L246.787 116.39ZM246.787 116.39C248.702 112.721 253.113 110.099 257.809 108.926C262.507 107.753 267.43 108.046 270.354 110.136L270.355 110.137C272.258 111.475 273.42 113.612 274.025 116.333C274.631 119.054 274.677 122.347 274.358 125.973C273.719 133.227 271.626 141.777 269.682 149.693L269.682 149.693M246.787 116.39L269.682 149.693M269.682 149.693C267.065 160.364 264.301 167.212 261.615 173.678C261.484 173.994 261.353 174.308 261.222 174.622C258.674 180.749 256.204 186.686 254.013 195.388C250.257 210.271 249.683 223.776 250.241 234.724L269.682 149.693Z" fill="#030235" stroke="#030235" stroke-width="0.296768"/>
<path opacity="0.2" d="M249.705 181.872L249.705 181.872C246.789 200.935 244.606 219.188 242.985 236.534C244.161 236.288 245.331 236.042 246.502 235.796L246.517 235.793C247.707 235.543 248.898 235.293 250.093 235.043C249.782 227.399 250.126 220.883 250.616 215.885C250.616 215.885 250.616 215.885 250.616 215.885L250.763 215.899C251.354 209.668 252.854 195.153 258.88 180.663L249.705 181.872ZM249.705 181.872C252.798 161.563 256.454 142.362 260.38 124.343C265.227 123.713 270.073 123.083 274.943 122.5M249.705 181.872L274.943 122.5M274.943 122.5C274.252 127.826 272.113 143.206 267.889 156.483L274.943 122.5Z" fill="#030235" stroke="#030235" stroke-width="0.296768"/>
<path opacity="0.19" d="M252.11 187.455L252.11 187.455C254.322 179.935 258.68 168.812 267.908 156.5C266.657 159.99 264.853 164.952 262.554 170.89C260.931 175.03 259.947 177.372 259.191 179.158C259.137 179.286 259.084 179.411 259.032 179.534C258.358 181.124 257.854 182.315 257.191 184.097C253.264 194.631 252.125 203.396 251.143 210.943L251.132 211.033L251.131 211.034C250.322 217.392 249.66 225.543 249.922 235.071C249.149 235.26 248.381 235.454 247.615 235.648L247.614 235.648L247.612 235.649C246.871 235.837 246.13 236.024 245.384 236.207C245.659 229.399 246.302 219.885 247.957 208.626C247.957 208.626 247.957 208.626 247.957 208.626L247.96 208.609C249.139 200.604 250.048 194.436 252.11 187.455Z" fill="#030235" stroke="#030235" stroke-width="0.296768"/>
<path d="M295.63 242.253L295.338 242.44C289.56 246.135 285.319 249.05 282.603 251.194C281.242 252.269 280.281 253.136 279.701 253.803C279.409 254.137 279.232 254.401 279.143 254.6C279.1 254.697 279.084 254.765 279.08 254.808C279.078 254.829 279.079 254.842 279.08 254.849L295.63 242.253ZM295.63 242.253L295.502 241.931M295.63 242.253L295.502 241.931M295.502 241.931C294.697 239.908 293.883 237.891 293.07 235.878M295.502 241.931L293.07 235.878M293.07 235.878C292.541 234.567 292.012 233.257 291.487 231.949M293.07 235.878L291.487 231.949M291.487 231.949L302.285 226.418C303.256 229.594 304.228 232.764 305.199 235.935L305.201 235.941L305.202 235.945C306.185 239.153 307.167 242.361 308.15 245.573C298.724 249.341 291.557 251.983 286.643 253.498C284.152 254.266 282.258 254.739 280.948 254.925C280.29 255.019 279.806 255.036 279.478 254.993C279.314 254.972 279.21 254.939 279.147 254.907C279.117 254.892 279.101 254.879 279.093 254.871L291.487 231.949Z" fill="#F9F8FA" stroke="#030235" stroke-width="0.840404"/>
<path d="M296.051 199.862L296.051 199.863C297.623 206.209 300.469 216.053 305.739 227.847C304.82 229.014 302.444 231.677 298.336 233.094C294.107 234.543 290.494 233.801 289.085 233.428C281.578 220.548 276.253 209.569 272.815 201.967L272.815 201.966C256.86 166.821 255.586 148.321 255.586 138.675C255.586 133.703 255.629 128.253 256.588 123.55C257.548 118.845 259.416 114.925 263.035 112.966C265.761 111.492 269.135 111.322 272.438 112.08C275.74 112.838 278.958 114.52 281.361 116.728C284.344 119.469 285.79 122.762 286.585 126.982C287.227 130.387 287.444 134.384 287.703 139.173C287.766 140.331 287.831 141.535 287.905 142.789L287.987 142.784C287.905 142.789 287.905 142.789 287.905 142.789L287.905 142.791L287.906 142.795L287.907 142.812L287.911 142.881C287.915 142.942 287.92 143.032 287.928 143.151C287.943 143.389 287.966 143.742 287.998 144.199C288.061 145.114 288.159 146.449 288.296 148.131C288.569 151.495 288.999 156.244 289.625 161.788C290.876 172.874 292.913 187.143 296.051 199.862Z" fill="#030235" stroke="#030235" stroke-width="0.296768"/>
<path opacity="0.15" d="M300.582 215.381L300.582 215.38C297.751 207.238 293.148 192.267 290.76 172.323L290.76 172.323L290.658 171.463C288.439 152.902 287.317 143.516 287.414 137.561M300.582 215.381L287.414 137.561M300.582 215.381C302.435 220.65 304.191 224.949 305.468 227.94C304.793 228.706 303.91 229.564 302.796 230.421C301.734 231.234 300.693 231.849 299.818 232.308C290.469 207.333 281.562 180.708 273.365 152.531C270.229 141.696 267.289 131.008 264.568 120.492C267.793 119.202 271.017 117.899 274.25 116.594C275.545 116.071 276.841 115.548 278.139 115.024C279.038 115.419 280.301 116.075 281.588 117.153M300.582 215.381L281.588 117.153M287.414 137.561C287.417 137.363 287.421 137.156 287.424 136.942C287.466 134.473 287.525 131.012 286.903 127.503C286.226 123.691 284.748 119.841 281.588 117.153M287.414 137.561L281.588 117.153" fill="#030235" stroke="#030235" stroke-width="0.296768"/>
<path opacity="0.22" d="M291.891 179.75L291.891 179.75C293.466 188.876 295.288 199.047 299.497 212.089L299.638 212.044L299.497 212.089C301.669 218.813 303.842 224.32 305.51 228.296C304.187 229.415 302.865 230.512 301.541 231.609C297.015 221.001 292.019 206.464 289.257 188.678C286.65 171.828 286.843 157.129 287.831 145.86C288.764 159.351 290.362 170.806 291.891 179.75Z" fill="#030235" stroke="#030235" stroke-width="0.296768"/>
<path d="M172.691 26.2881C171.707 26.7826 170.354 27.6481 169.297 29.1318C168.731 29.8983 168.042 30.9121 167.944 32.3463C167.919 32.9151 167.846 34.1515 168.633 34.9675C168.854 35.2147 169.444 35.6846 172.347 35.5857C174.929 35.4868 176.233 35.4373 176.897 34.7449C178.176 33.4096 177.709 30.8874 176.897 29.379C175.618 26.9805 173.109 26.387 172.691 26.2881Z" fill="white" stroke="#030235" stroke-width="0.593535" stroke-miterlimit="10"/>
<path d="M187.547 32.4951C191.015 36.4763 196.574 38.8501 206.782 43.0786C219.646 48.4197 226.091 51.0903 233.716 52.0299C241.956 53.0438 246.359 51.9805 247.884 54.6758C249.876 58.1624 245.203 64.6905 240.382 70.1553C236.791 69.364 233.076 68.3749 229.239 67.0891C208.209 60.0912 193.008 47.7768 183.021 37.5396C181.767 37.8116 179.627 38.0836 177.192 37.3417C175.101 36.7236 172.149 35.141 172.321 33.8799C172.543 32.3468 177.88 32.0748 178.2 32.05C176.577 31.3824 174.24 30.2449 171.706 28.3903C170.968 27.8463 166.738 24.7059 167.254 23.7168C167.697 22.8514 171.534 24.0383 175.15 25.151C178.446 26.1649 180.734 26.882 183.242 28.6129C185.653 30.2449 187.055 31.9264 187.547 32.4951Z" fill="white" stroke="#030235" stroke-width="0.593535" stroke-miterlimit="10"/>
<path d="M170.525 26.5612C171.115 27.2288 171.238 28.119 171.755 28.8114C172.197 29.4296 172.837 29.8747 173.501 30.2456C175.493 31.3583 177.609 32.2733 179.65 33.2871C179.995 33.4602 180.437 32.9904 180.093 32.6936C179.035 31.7787 177.904 30.9627 176.723 30.2209C176.33 29.9736 175.936 30.6165 176.354 30.8638C177.486 31.5809 178.568 32.3474 179.576 33.2129C179.724 33.0151 179.872 32.8173 180.019 32.6194C178.076 31.6798 176.133 30.7649 174.214 29.751C173.304 29.2812 172.492 28.7372 172.025 27.7976C171.705 27.1546 171.533 26.5365 171.041 25.9924C170.721 25.6957 170.205 26.215 170.525 26.5612Z" fill="white"/>
<path d="M172.444 29.1568C173.575 29.6514 174.658 30.2943 175.641 31.0609C176.01 31.3576 176.527 30.8383 176.158 30.5416C175.125 29.7256 174.018 29.0579 172.813 28.5139C172.37 28.3161 172.001 28.959 172.444 29.1568Z" fill="white"/>
<path d="M169.543 26.116C170.478 27.6244 171.707 28.8608 173.159 29.8499C173.552 30.1219 173.921 29.479 173.528 29.207C172.175 28.2921 171.043 27.1299 170.182 25.7204C169.936 25.3495 169.297 25.7204 169.543 26.116Z" fill="white"/>
<path d="M170.648 28.1454C171.14 28.8131 171.681 29.4313 172.296 29.9753C172.739 30.3709 174.682 31.7804 173.673 32.4975C173.477 32.6211 173.673 32.9426 173.87 32.819C174.559 32.3491 174.288 31.5084 173.87 30.9397C173.55 30.5193 173.108 30.1978 172.689 29.8269C172.05 29.2582 171.484 28.64 170.968 27.9723C170.82 27.7498 170.5 27.9476 170.648 28.1454Z" fill="#030235"/>
<path d="M170.132 30.7155C170.87 31.7294 172.272 33.1636 173.649 32.7432C173.871 32.669 173.772 32.3228 173.551 32.397C172.37 32.7679 171.067 31.4079 170.452 30.5424C170.304 30.3446 169.984 30.5177 170.132 30.7155Z" fill="#030235"/>
<path d="M169.048 32.4458C169.86 33.5585 171.041 34.2014 172.418 34.2756C172.664 34.3003 172.664 33.9294 172.418 33.9047C171.188 33.8305 170.106 33.2371 169.368 32.248C169.22 32.0501 168.901 32.248 169.048 32.4458Z" fill="#030235"/>
<path d="M168.262 34.6722C169.418 35.8838 171.336 35.9085 172.492 34.6722C172.665 34.4991 172.394 34.2271 172.222 34.4002C171.213 35.4882 169.541 35.4634 168.532 34.4002C168.36 34.2271 168.09 34.4991 168.262 34.6722Z" fill="#030235"/>
<path d="M168.51 26.0673C171.24 27.8724 173.208 30.9139 176.627 31.5074C176.848 31.5568 176.971 31.1859 176.725 31.1612C173.355 30.5925 171.388 27.551 168.707 25.7706C168.485 25.5975 168.313 25.9189 168.51 26.0673Z" fill="#030235"/>
<path opacity="0.2" d="M168.215 34.1526C167.33 32.9409 168.068 30.3445 170.208 27.8965C172.618 29.306 175.004 30.7402 177.415 32.1496C176.972 32.1496 173.086 32.1991 172.815 33.4107C172.766 33.6086 172.815 33.9053 173.184 34.3257C174.414 34.9191 176.48 35.7104 179.136 35.7846C180.514 35.8093 181.719 35.6362 182.654 35.4137C187.672 40.5076 196.502 48.1979 209.489 53.7863C220.902 58.6824 231.135 60.0918 237.899 60.4875C237.678 63.4053 237.456 66.2985 237.235 69.2163C226.093 66.249 210.99 60.6111 195.986 49.2859C190.869 45.4284 186.491 41.4472 182.752 37.6144C179.309 38.1832 177.169 37.5897 175.816 36.8973C174.66 36.3039 173.922 35.562 172.397 35.4384C171.388 35.3642 170.527 35.6115 169.421 35.0675C169.298 35.018 168.584 34.6471 168.215 34.1526Z" fill="#98A0AD"/>
<path opacity="0.14" d="M199.894 51.6113C203.338 53.4659 207.322 55.3452 211.873 56.9525C221.786 60.4885 230.764 61.6013 237.626 61.8486C237.528 64.3708 237.454 66.9177 237.356 69.4399C230.222 67.7585 221.269 64.8159 211.774 59.4747C207.224 56.9278 203.288 54.2325 199.894 51.6113Z" fill="#98A0AD"/>
<path d="M238.782 58.6567C237.38 61.8466 237.306 64.4924 237.183 69.2401C237.084 72.8256 237.33 76.6831 239.249 86.8214C241.586 99.0863 242.693 101.065 243.062 107.568C243.357 112.662 242.963 116.841 242.594 119.61C245.693 121.316 250.883 123.641 257.672 124.16C269.676 125.075 278.555 119.759 281.605 117.731C281.974 109.966 282.343 102.177 282.737 94.4128C281.384 87.7858 279.785 82.593 278.629 79.1806C274.989 68.4241 271.594 63.3302 273.759 57.9396C274.964 54.9476 277.35 53.1177 278.998 52.1039C277.842 51.2137 265.716 42.1881 252.482 46.8616C251.105 47.3315 242.397 50.4224 238.782 58.6567Z" fill="#2466C5" stroke="#030235" stroke-width="0.593535" stroke-miterlimit="10"/>
<path opacity="0.19" d="M252.433 46.836C256.122 52.7706 258.189 58.0128 259.369 61.6725C259.369 61.6725 265.15 79.328 260.919 103.017C260.009 108.062 258.385 115.233 255.188 123.442C256.418 123.714 257.893 123.937 259.566 124.011C259.566 124.011 262.149 124.134 265.051 123.764C268.593 123.294 274.669 121.39 281.827 117.73C281.95 109.446 282.072 101.187 282.195 92.9035C280.375 85.9056 278.53 80.2924 277.153 76.3607C273.832 66.989 271.496 62.5875 273.414 57.9387C274.669 54.8972 277.227 53.0179 279.219 51.9298C276.612 50.1989 271.791 47.5036 265.199 46.465C259.763 45.6243 255.286 46.2178 252.433 46.836Z" fill="#030235"/>
<path opacity="0.11" d="M255.804 46.2676C259.764 51.1636 264.389 58.3099 267.242 67.7311C275.334 94.6348 262.027 118.225 258.953 123.393C261.535 123.368 264.561 123.146 267.857 122.503C273.736 121.365 278.434 119.338 281.803 117.533C281.926 109.818 282.049 102.103 282.172 94.4123C280.082 87.266 278.114 80.4906 275.433 71.2919C273.613 64.9864 272.186 59.8183 274.867 55.6888C276.171 53.6859 277.991 52.5731 279.368 51.9302C271.522 50.0262 263.651 48.1469 255.804 46.2676Z" fill="#030235"/>
<path d="M253.984 96.786C253.91 91.4943 253.861 86.2273 253.787 80.9356C266.405 80.2927 279.024 79.6498 291.667 79.0068C292.11 83.9029 292.552 88.799 293.02 93.695C280.008 94.7336 266.996 95.7474 253.984 96.786Z" fill="white" stroke="#030235" stroke-width="0.593535" stroke-miterlimit="10"/>
<path d="M250.148 95.0543C250.148 93.1256 250.148 91.1968 250.148 89.2681C266.358 88.0564 282.567 86.8201 298.777 85.6084C298.9 87.9823 299.023 90.3808 299.17 92.7547C282.838 93.4965 266.48 94.2878 250.148 95.0543Z" fill="white" stroke="#030235" stroke-width="0.593535" stroke-miterlimit="10"/>
<path d="M251.499 86.3511C251.696 89.1948 251.893 92.0138 252.065 94.8575C267.069 93.6458 282.049 92.4094 297.053 91.1978C297.176 88.6261 297.299 86.0544 297.447 83.458C282.123 84.4224 266.799 85.3868 251.499 86.3511Z" fill="white" stroke="#030235" stroke-width="0.593535" stroke-miterlimit="10"/>
<path d="M247.834 92.7297C248.277 104.005 248.72 115.281 249.187 126.557C265.913 124.678 282.64 122.823 299.366 120.944C299.882 109.866 300.399 98.7879 300.915 87.71C283.205 89.3914 265.52 91.0482 247.834 92.7297Z" fill="white" stroke="#030235" stroke-width="0.593535" stroke-miterlimit="10"/>
<path d="M250.688 97.1324C258.289 96.1186 265.889 95.4015 273.539 94.9564C273.883 94.9317 273.883 94.3877 273.539 94.3877C265.889 94.8328 258.264 95.5499 250.688 96.5637C250.344 96.6132 250.344 97.1819 250.688 97.1324Z" fill="#030235"/>
<path d="M259.175 98.6391C265.004 97.8973 270.834 97.1307 276.688 96.3889C277.032 96.3394 277.032 95.7954 276.688 95.8202C270.858 96.562 265.029 97.3285 259.175 98.0704C258.83 98.1445 258.83 98.6886 259.175 98.6391Z" fill="#030235"/>
<path d="M287.19 114.467C287.092 116.025 287.092 117.607 287.24 119.165C287.264 119.511 287.83 119.511 287.805 119.165C287.658 117.607 287.633 116.025 287.756 114.467C287.781 114.12 287.215 114.12 287.19 114.467Z" fill="#030235"/>
<path d="M287.436 114.515C290.486 114.589 293.511 114.416 296.537 114.02C296.438 113.921 296.34 113.823 296.266 113.748C296.217 115.183 296.266 116.592 296.364 118.001C296.389 118.348 296.955 118.348 296.93 118.001C296.807 116.592 296.783 115.158 296.832 113.748C296.832 113.6 296.709 113.452 296.561 113.476C293.536 113.872 290.51 114.02 287.46 113.971C287.067 113.946 287.067 114.49 287.436 114.515Z" fill="#030235"/>
<path d="M287.657 119.61C290.682 119.659 293.659 119.338 296.61 118.67C296.955 118.596 296.807 118.052 296.463 118.126C293.56 118.769 290.633 119.09 287.657 119.041C287.313 119.041 287.313 119.585 287.657 119.61Z" fill="#030235"/>
<path d="M288.813 116.248C290.683 116.372 292.528 116.273 294.397 115.976C294.741 115.926 294.594 115.382 294.249 115.432C292.454 115.729 290.634 115.803 288.813 115.679C288.469 115.654 288.469 116.223 288.813 116.248Z" fill="#030235"/>
<path d="M289.994 117.804C291.937 117.755 293.806 117.384 295.651 116.716C295.971 116.593 295.848 116.049 295.504 116.172C293.733 116.84 291.888 117.186 289.994 117.26C289.65 117.236 289.625 117.804 289.994 117.804Z" fill="#030235"/>
<path opacity="0.2" d="M255.779 125.272C256.222 114.837 256.664 104.402 257.082 93.9423C271.447 92.7801 285.837 91.6427 300.201 90.4805C299.882 100.372 299.537 110.263 299.217 120.154C284.73 121.86 270.267 123.566 255.779 125.272Z" fill="#98A0AD"/>
<path opacity="0.2" d="M294.792 83.7295C294.865 86.5979 294.718 90.0103 293.98 93.7936C292.16 103.091 287.781 109.792 284.805 113.576C286.822 116.271 288.839 118.966 290.881 121.662C284.707 122.379 278.533 123.096 272.359 123.813C273.343 112.488 274.327 101.162 275.311 89.8619C274.991 88.3783 274.646 86.8946 274.327 85.411C281.14 84.8175 287.978 84.2735 294.792 83.7295Z" fill="#98A0AD"/>
<path d="M277.672 51.4333C282.812 50.7409 288.937 62.6101 291.372 71.1412C294.176 80.958 292.947 89.4396 291.938 93.9153C289.97 102.694 285.887 108.876 283.329 112.214C283.723 113.524 284.633 117.085 283.132 120.992C280.919 126.704 274.917 129.449 274.449 128.93C274.302 128.757 274.597 128.039 276.934 125.344C276.442 125.863 272.9 129.399 268.915 128.559C268.226 128.41 267.365 128.237 266.874 127.545C265.717 125.863 267.636 122.055 271.719 117.827C267.267 118.94 266.086 118.643 265.865 118.148C265.299 116.961 269.85 113.598 271.498 112.362C273.933 110.557 276.122 109.321 277.622 108.554C281.829 99.7758 281.607 92.9262 281.238 89.7116C280.697 84.9639 278.926 79.7958 278.582 78.8067C277.598 75.9631 277.131 75.3201 275.163 70.2015C271.99 61.992 271.99 60.5825 272.113 59.4945C272.555 56.2304 274.745 51.8289 277.672 51.4333Z" fill="white" stroke="#030235" stroke-width="0.593535" stroke-miterlimit="10"/>
<path d="M266.973 126.854C269.704 125.296 272.09 123.293 274.082 120.87C274.377 120.499 273.861 119.979 273.565 120.35C271.622 122.724 269.285 124.702 266.604 126.235C266.186 126.433 266.555 127.076 266.973 126.854Z" fill="#030235"/>
<path d="M269.382 128.511C272.088 127.102 274.4 125.148 276.27 122.725C276.565 122.354 275.925 121.983 275.63 122.354C273.859 124.678 271.596 126.533 269.014 127.868C268.595 128.091 268.964 128.734 269.382 128.511Z" fill="#030235"/>
<path opacity="0.17" d="M275.606 52.6213C270.711 56.8992 290.684 75.6675 287.265 96.9827C284.928 111.597 275.237 121.142 275.237 121.142C272.531 123.862 267.439 127.2 268.054 128.362C268.497 129.203 271.572 128.436 272.679 128.09C274.769 127.447 276.221 126.359 277.032 125.642C275.802 127.027 274.4 128.733 274.695 129.079C275.114 129.524 278.606 127.694 280.796 125.123C284.584 120.672 284.042 114.49 283.673 111.968C284.559 110.805 285.715 109.173 286.896 107.096C287.978 105.242 291.102 99.4554 292.455 91.5921C294.841 77.6704 289.946 66.6914 287.978 62.3888C286.207 58.556 283.206 52.201 278.656 51.929C278.065 51.8548 276.565 51.7806 275.606 52.6213Z" fill="#98A0AD"/>
<path opacity="0.22" d="M292.183 91.1973C290.855 95.0795 289.281 99.1596 287.411 103.437C286.083 106.479 284.73 109.323 283.353 112.018C282.664 114.243 281.361 117.582 278.778 121.019C276.072 124.629 273.096 126.83 271.104 128.091C271.669 128.116 272.358 128.066 273.12 127.868C275.039 127.423 276.318 126.36 276.958 125.717C276.22 126.657 275.457 127.572 274.719 128.511C275.31 128.412 276.244 128.239 277.277 127.769C282.689 125.321 283.82 118.67 283.894 118.225C284.091 117.013 284.214 114.936 283.476 112.364C285.247 110.262 287.485 107.122 289.281 102.893C291.273 98.2446 291.937 94.0657 292.183 91.1973Z" fill="#98A0AD"/>
<path d="M233.127 35.1633C229.167 39.7132 231.897 46.0682 232.266 46.9337C233.644 50.1482 237.21 54.7229 241.736 54.3519C245.032 54.0552 247.123 51.261 247.64 50.5192C251.28 45.2522 250.075 35.188 243.925 32.5916C240.531 31.1574 235.857 31.9982 233.127 35.1633Z" fill="#030235"/>
<path d="M243.112 39.2176C243.284 41.1711 245.326 41.5915 246.703 44.8061C247.687 47.1304 247.687 49.4054 247.515 51.0374C249.113 51.1858 252.065 51.26 255.41 49.9741C258.042 48.9603 259.887 47.5014 260.994 46.4875C260.477 45.3253 259.715 43.6191 258.805 41.5915C254.869 32.9615 254.23 32.2197 253.27 31.8488C249.433 30.3898 242.792 35.5826 243.112 39.2176Z" fill="white" stroke="#030235" stroke-width="0.593535" stroke-miterlimit="10"/>
<path d="M228.946 13.674C228.109 14.8609 227.593 16.3199 227.519 22.5759C227.47 27.9171 227.765 32.7885 228.257 37.1158C229.364 36.4729 230.471 35.83 231.578 35.187C232.069 36.3987 232.906 38.0554 234.332 39.6627C237.161 42.8526 240.605 43.9406 242.13 44.3363C243.729 43.9406 247.713 42.7042 250.739 38.9209C252.731 36.3987 253.371 33.9012 253.518 33.3325C254.428 29.5986 253.543 26.5076 253.075 25.2218C253.666 24.9498 254.576 24.4305 255.265 23.4909C256.716 21.5127 257.109 17.9766 255.314 16.7897C253.986 15.8995 251.624 16.4188 249.853 18.2486C249.46 17.3337 248.845 16.0726 247.861 14.762C247.615 14.4406 245.77 12.0173 243.507 10.7561C239.153 8.23393 231.946 9.42086 228.946 13.674Z" fill="white" stroke="#030235" stroke-width="0.593535" stroke-miterlimit="10"/>
<path d="M227.149 21.4388C226.165 21.2657 224.345 20.7464 223.484 19.238C222.008 16.6911 224.172 12.8088 224.714 11.8445C225.156 11.0284 226.337 9.07496 231.355 5.53891C235.167 2.8436 237.086 1.50831 239.152 0.865393C246.482 -1.33536 253.197 2.47269 254.452 3.18979C257.083 4.69817 258.756 6.33019 260.084 7.61603C262.126 9.59424 264.413 11.8692 266.972 14.4903C273.539 23.0461 275.851 30.86 276.786 35.5335C277.843 40.8252 278.926 46.2158 275.777 49.381C272.629 52.5461 266.873 51.9032 263.356 50.3948C258.461 48.293 256.37 43.842 254.747 40.4048C251.992 34.5197 251.82 28.8818 252.09 25.2221C254.55 24.505 255.804 22.1806 255.239 20.4249C254.796 19.0402 253.148 17.6554 251.451 18.15C250.147 18.5209 249.212 19.8809 249.286 21.4635C248.105 21.4388 244.957 21.1668 241.956 18.8918C239.767 17.2351 238.66 15.2569 238.144 14.1688C236.791 14.3419 234.085 14.8365 231.355 16.8147C229.067 18.3973 227.788 20.3013 227.149 21.4388Z" fill="#030235"/>
<path opacity="0.24" d="M243.433 26.1607C246.385 29.7462 247.32 33.5295 247.32 33.5295C248.279 37.7826 246.901 41.3929 246.287 42.8518C247.836 41.6649 249.41 40.4779 250.96 39.291C252.042 42.9012 253.1 46.4867 254.182 50.097C254.994 50.0228 256.667 49.7261 258.339 48.5391C259.618 47.6242 260.381 46.5609 260.799 45.8933C258.807 44.0387 254.994 39.9339 253.248 33.48C252.411 30.3643 252.288 27.5949 252.387 25.5177C254.625 24.6028 255.781 22.4021 255.314 20.5722C254.969 19.2369 253.617 17.6296 251.87 17.8769C250.419 18.0995 249.214 19.5337 249.238 21.2893C248.131 21.2893 245.524 21.1657 242.794 19.5089C239.965 17.8027 238.612 15.4289 238.096 14.415C238.219 19.1627 239.67 21.9075 240.974 23.5395C241.834 24.6523 242.228 24.7017 243.433 26.1607Z" fill="#98A0AD"/>
<path d="M231.995 25.1216C231.724 26.1107 231.749 27.1245 232.118 28.0889C232.241 28.4351 232.708 28.4598 232.831 28.0889C233.126 27.1987 233.126 26.2591 232.855 25.3689C232.708 24.9238 231.995 25.0969 232.142 25.5667C232.388 26.358 232.363 27.1245 232.118 27.9158C232.363 27.9158 232.585 27.9158 232.831 27.9158C232.511 27.0751 232.462 26.2096 232.708 25.3441C232.831 24.8496 232.142 24.6518 231.995 25.1216Z" fill="#030235"/>
<path d="M231.109 23.5899C231.748 23.1943 232.535 23.2685 233.077 23.7878C233.421 24.1092 233.937 23.5899 233.593 23.2685C232.831 22.5267 231.65 22.3783 230.74 22.947C230.346 23.1943 230.715 23.8372 231.109 23.5899Z" fill="#030235"/>
<path d="M233.764 29.8698C234.232 29.8698 234.232 29.1279 233.764 29.1279C233.272 29.1279 233.272 29.8698 233.764 29.8698Z" fill="#030235"/>
<path d="M235.388 27.7195C235.388 27.7443 235.388 27.769 235.388 27.7937C235.388 27.9916 235.56 28.1646 235.757 28.1646C235.953 28.1646 236.126 27.9916 236.126 27.7937C236.126 27.769 236.126 27.7443 236.126 27.7195C236.126 27.5217 235.953 27.3486 235.757 27.3486C235.56 27.3486 235.388 27.497 235.388 27.7195Z" fill="#030235"/>
<path d="M235.461 29.5729C235.928 29.5729 235.928 28.8311 235.461 28.8311C234.994 28.8311 234.994 29.5729 235.461 29.5729Z" fill="#030235"/>
<path d="M225.328 26.2589C225.033 27.248 225.058 28.2618 225.402 29.2262C225.525 29.5724 225.992 29.5724 226.115 29.2262C226.41 28.336 226.435 27.3963 226.189 26.5062C226.066 26.0363 225.353 26.2341 225.476 26.704C225.697 27.4953 225.672 28.2618 225.402 29.0284C225.648 29.0284 225.869 29.0284 226.115 29.0284C225.82 28.1876 225.771 27.3222 226.041 26.4567C226.164 25.9869 225.451 25.7891 225.328 26.2589Z" fill="#030235"/>
<path d="M224.909 24.407C225.426 24.135 226.139 24.2586 226.484 24.7532C226.754 25.1241 227.394 24.7532 227.123 24.3823C226.508 23.5662 225.45 23.2942 224.54 23.7641C224.122 23.9866 224.491 24.6295 224.909 24.407Z" fill="#030235"/>
<path d="M233.2 37.8565C235.094 37.5103 236.742 36.4964 237.972 34.988C238.193 34.716 237.8 34.3204 237.578 34.5924C236.422 36.0266 234.873 36.9663 233.052 37.3124C232.708 37.3866 232.856 37.9306 233.2 37.8565Z" fill="#030235"/>
<path d="M237.036 34.6429C237.479 34.7912 237.848 35.0138 238.168 35.3353C238.414 35.5825 238.807 35.1869 238.561 34.9396C238.168 34.544 237.7 34.272 237.184 34.0989C236.84 34 236.692 34.544 237.036 34.6429Z" fill="#030235"/>
<path opacity="0.45" d="M252.36 2.29883C255.483 6.65089 259.493 12.8081 263.305 20.6714C267.339 28.9799 270.291 35.236 268.003 37.7088C264.978 40.9975 254.524 35.78 252.852 34.9146C253.196 37.1648 254.057 40.7503 256.59 44.3358C257.869 46.1409 260.108 49.3307 264.24 50.8144C266.724 51.7046 268.938 51.6551 269.799 51.581C270.955 51.5068 272.283 51.4079 273.735 50.6166C273.735 50.6166 275.629 49.6028 276.908 47.5256C278.851 44.3605 277.818 40.0826 276.44 34.7167C274.792 28.2876 272.579 24.0097 270.414 19.7812C269.873 18.7427 269.233 17.531 268.2 16.1216C267.167 14.6874 266.405 13.9208 263.207 10.8299C258.46 6.20579 257.722 5.53815 256.295 4.57377C254.721 3.48575 253.319 2.76865 252.36 2.29883Z" fill="#030235"/>
<path opacity="0.43" d="M246.433 44.3613C246.63 44.9301 247.073 46.5374 246.433 48.3177C245.474 50.9636 242.818 51.8538 242.4 51.9774C239.374 52.9665 235.562 51.4087 233.003 48.021C233.348 48.9112 234.11 50.4938 235.685 51.8785C236.472 52.5709 238.612 54.4255 241.637 54.2029C242.154 54.1535 245.474 53.9062 246.999 51.0131C248.106 48.9607 247.86 46.389 246.433 44.3613Z" fill="#030235"/>
</svg>
