<svg width="446" height="329" viewBox="0 0 446 329" fill="none" xmlns="http://www.w3.org/2000/svg">
<path d="M296.683 50.2516C298.795 46.4454 303.83 48.857 306.318 50.8037C308.864 52.7794 311.266 54.8714 314.622 55.1038C320.496 55.5397 325.704 51.1814 330.739 48.857C333.864 47.4042 337.191 46.5035 340.605 47.3461C344.078 48.1887 347.087 50.1645 350.443 51.3267C353.337 52.3145 356.288 52.3727 359.008 50.8618C362.682 48.8279 365.316 45.5447 369.945 46.2711C374.372 46.9684 377.96 50.0192 382.3 51.0071C385.425 51.7044 388.926 51.501 391.125 48.9151C391.472 48.4793 390.865 47.8691 390.518 48.3049C388.029 51.2395 383.863 50.7746 380.593 49.6124C376.86 48.3049 373.591 45.8062 369.569 45.3413C365.663 44.9055 363.03 47.0846 360.02 49.1766C358.458 50.2516 356.78 51.1233 354.841 51.2104C352.989 51.2976 351.195 50.7456 349.488 50.0482C346.219 48.7408 343.123 46.7941 339.593 46.2711C336.728 45.8352 333.95 46.5326 331.317 47.6657C325.878 49.9901 320.004 55.3072 313.696 54.145C309.588 53.3896 307.244 49.5543 303.511 48.0434C300.907 46.9974 297.435 47.1137 295.93 49.8158C295.67 50.2807 296.422 50.7456 296.683 50.2516Z" fill="#FAFAFB"/>
<path d="M339.534 40.4306C342.225 34.7649 349.719 37.3508 353.973 39.1231C356.548 40.1982 359.239 41.2441 362.075 41.1279C364.418 41.0408 366.646 40.2853 368.758 39.3846C373.648 37.2636 378.654 33.806 384.238 35.3169C389.157 36.6825 393.44 40.7793 398.85 39.6171C401.975 38.9488 404.579 36.8859 407.618 36.0142C411.639 34.8811 415.517 36.6825 419.076 38.4258C419.568 38.6582 420.03 37.9319 419.51 37.6704C416.645 36.2757 413.636 34.823 410.366 34.7649C407.415 34.7358 404.869 36.1595 402.294 37.3798C399.227 38.8616 396.391 39.4137 393.121 38.2224C390.43 37.2636 388 35.6365 385.28 34.7068C379.956 32.9053 375.153 35.346 370.408 37.6413C367.832 38.8616 365.142 40.0819 362.248 40.2272C358.979 40.4015 355.998 39.0069 353.047 37.7866C348.591 35.9561 341.386 34.4453 338.753 39.9657C338.551 40.4887 339.303 40.9536 339.534 40.4306Z" fill="#FAFAFB"/>
<path d="M84.9976 244.98C85.3159 243.353 86.8784 242.539 88.4408 242.51C90.2348 242.481 91.7972 243.643 93.0993 244.747C95.1826 246.549 97.3237 248.931 100.304 249.018C102.763 249.106 104.5 247.362 106.12 245.764C108.087 243.789 110.142 242.452 113.006 242.917C117.665 243.643 121.426 247.13 126.085 247.798C128.399 248.118 130.396 247.479 132.248 246.084C133.434 245.183 134.476 244.108 135.836 243.498C137.601 242.684 139.597 242.684 141.478 243.004C147.438 244.021 154.585 249.106 160.314 244.718C160.748 244.37 160.314 243.614 159.88 243.963C154.238 248.263 147.004 242.888 141.102 242.074C138.035 241.668 135.459 242.365 133.058 244.312C131.843 245.299 130.656 246.374 129.123 246.839C127.85 247.188 126.519 247.101 125.217 246.81C120.703 245.735 116.884 242.278 112.138 242.016C109.852 241.9 107.943 242.888 106.293 244.399C103.776 246.723 101.519 249.454 97.8156 247.479C94.8932 245.91 92.9835 242.568 89.5982 241.813C87.3702 241.319 84.6215 242.365 84.1296 244.805C84.0717 245.299 84.9108 245.532 84.9976 244.98Z" fill="#FAFAFB"/>
<path d="M132.798 236.407C133.463 234.344 135.807 233.879 137.717 234.082C139.945 234.315 141.883 235.651 143.995 236.32C145.934 236.93 147.728 236.901 149.609 236.116C151.518 235.332 153.544 233.734 155.714 234.111C157.653 234.46 158.868 236.291 160.72 236.901C162.369 237.424 163.989 236.872 165.494 236.087C167.751 234.925 169.66 233.676 172.294 233.734C175.1 233.792 177.791 234.954 180.308 236.087C180.829 236.32 181.263 235.564 180.742 235.332C178.428 234.315 176.084 233.298 173.567 232.978C171.107 232.659 168.995 233.211 166.825 234.373C164.336 235.709 162.109 237.075 159.475 235.245C157.884 234.14 156.553 232.978 154.499 233.211C152.329 233.443 150.564 234.925 148.538 235.593C145.674 236.523 143.099 235.041 140.494 233.966C137.659 232.833 133.087 232.542 131.93 236.174C131.785 236.697 132.624 236.93 132.798 236.407Z" fill="#FAFAFB"/>
<path d="M128.545 40.5756C128.893 42.6385 130.86 44.1493 132.943 44.1203C135.142 44.0912 136.618 42.2317 136.676 40.1397C136.734 38.0768 135.403 36.1882 133.291 35.9848C131.178 35.7815 129.066 37.147 128.574 39.2681C128.459 39.8201 129.298 40.0526 129.413 39.5005C129.79 37.9315 131.265 36.8565 132.857 36.8565C134.679 36.8565 135.866 38.4255 135.808 40.1688C135.663 44.2074 130.021 44.1203 129.384 40.4012C129.298 39.7911 128.459 40.0235 128.545 40.5756Z" fill="#FAFAFB"/>
<path d="M128.139 177.134C129.577 177.134 130.743 175.963 130.743 174.519C130.743 173.075 129.577 171.904 128.139 171.904C126.7 171.904 125.534 173.075 125.534 174.519C125.534 175.963 126.7 177.134 128.139 177.134Z" stroke="#FAFAFB" stroke-width="0.238125" stroke-miterlimit="10"/>
<path d="M206.03 313.026C210.92 313.026 214.884 309.045 214.884 304.135C214.884 299.225 210.92 295.244 206.03 295.244C201.14 295.244 197.176 299.225 197.176 304.135C197.176 309.045 201.14 313.026 206.03 313.026Z" stroke="#FAFAFB" stroke-width="0.238125" stroke-miterlimit="10"/>
<path d="M177.559 16.9543C180.684 13.0028 186.268 16.3442 190.087 16.9543C194.138 17.5935 196.916 15.182 200.128 13.119C202.124 11.8406 204.034 11.2014 206.435 11.492C208.49 11.7244 210.544 12.3636 212.627 11.9278C213.698 11.6953 214.682 11.1723 215.694 10.7656C217.112 10.2135 218.501 10.0392 220.006 10.3297C222.581 10.8237 224.896 12.3055 227.037 13.7583C227.5 14.0779 227.934 13.3224 227.471 13.0028C225.33 11.5791 223.044 10.0973 220.469 9.54526C218.27 9.05132 216.418 9.51621 214.392 10.3879C211.644 11.5791 209.329 10.9399 206.493 10.6203C204.41 10.3879 202.558 10.7365 200.735 11.7534C198.912 12.7704 197.321 14.136 195.469 15.1529C192.981 16.4894 190.521 16.3151 187.859 15.5306C184.387 14.5137 179.7 12.9157 176.951 16.3442C176.604 16.78 177.211 17.3901 177.559 16.9543Z" fill="#FAFAFB"/>
<path d="M199.839 26.164C202.298 21.6895 207.912 21.2246 212.425 22.0381C214.914 22.474 217.344 23.2875 219.833 23.7524C221.713 24.101 223.218 23.8977 224.751 22.7354C226.632 21.2827 228.166 20.0914 230.654 20.0914C232.94 20.0914 235.168 20.8469 237.251 21.6895C241.302 23.3456 245.7 25.6119 250.069 23.8105C250.59 23.6071 250.359 22.7645 249.838 22.9679C244.803 25.0308 239.942 21.5442 235.284 20.0333C233.345 19.4232 231.262 18.9873 229.236 19.3069C227.008 19.6556 225.735 20.9631 223.999 22.2125C221.598 23.9267 218.444 22.5321 215.869 21.8928C213.409 21.2827 210.892 20.7306 208.346 20.7888C204.7 20.8759 200.938 22.3868 199.086 25.7281C198.826 26.2221 199.578 26.6579 199.839 26.164Z" fill="#FAFAFB"/>
<path d="M105.512 291.496C108.612 291.496 111.125 288.972 111.125 285.859C111.125 282.746 108.612 280.223 105.512 280.223C102.412 280.223 99.8987 282.746 99.8987 285.859C99.8987 288.972 102.412 291.496 105.512 291.496Z" stroke="#FAFAFB" stroke-width="0.238125" stroke-miterlimit="10"/>
<path d="M315.78 278.19C316.648 276.388 318.789 275.429 320.728 276.011C322.406 276.505 323.101 278.335 324.634 279.061C327.354 280.369 329.003 276.969 330.942 275.778C333.922 273.948 336.237 278.422 339.304 277.725C341.098 277.318 342.024 275.4 343.847 274.877C344.83 274.587 345.901 274.616 346.885 274.906C347.984 275.255 348.852 276.069 349.894 276.505C350.588 276.824 351.312 276.969 352.035 276.708C353.048 276.359 353.627 275.371 354.668 275.023C357.099 274.238 359.819 275.894 361.786 277.173C362.249 277.492 362.683 276.737 362.22 276.417C360.571 275.342 358.777 274.325 356.809 274.035C356.028 273.919 355.189 273.919 354.437 274.18C353.453 274.471 352.932 275.313 352.064 275.691C350.531 276.359 349.402 275.139 348.158 274.5C347.406 274.122 346.624 273.86 345.756 273.802C344.02 273.657 342.4 274.267 341.069 275.429C340.143 276.243 339.391 277.115 338.031 276.824C337.134 276.65 336.324 276.04 335.542 275.575C334.356 274.877 332.996 274.151 331.578 274.529C330.19 274.906 329.235 276.069 328.251 277.028C327.672 277.609 327.007 278.277 326.168 278.422C324.923 278.655 324.113 277.609 323.361 276.795C320.988 274.267 316.706 274.383 315.057 277.754C314.796 278.248 315.549 278.684 315.78 278.19Z" fill="#FAFAFB"/>
<path d="M343.614 272.117C344.193 270.665 345.466 269.619 346.999 269.299C348.678 268.921 350.038 269.735 351.513 270.461C352.468 270.955 353.539 271.449 354.638 271.333C355.882 271.188 356.577 270.229 357.532 269.531C358.863 268.514 360.743 268.369 362.219 269.212C363.029 269.677 363.666 270.665 364.736 270.403C365.199 270.287 365.547 269.938 365.952 269.735C366.906 269.27 367.948 269.299 368.961 269.56C370.581 269.967 372.057 270.955 373.388 271.914C373.851 272.234 374.285 271.478 373.822 271.158C371.565 269.531 368.324 267.527 365.518 268.979C364.997 269.241 364.679 269.706 363.955 269.444C363.637 269.328 363.29 268.863 363 268.689C362.479 268.34 361.901 268.079 361.293 267.962C360.107 267.701 358.805 267.817 357.734 268.398C356.056 269.299 355.275 271.042 353.076 270.258C351.542 269.706 350.24 268.573 348.562 268.398C346.074 268.108 343.73 269.648 342.804 271.914C342.572 272.408 343.412 272.64 343.614 272.117Z" fill="#FAFAFB"/>
<path d="M349.112 211.973C350.211 210.229 352.815 209.939 354.204 211.45C354.928 212.234 355.449 213.483 356.722 213.396C357.561 213.338 358.168 212.699 358.805 212.234C359.789 211.508 360.888 210.723 362.161 210.898C363.55 211.101 364.679 212.641 366.183 212.06C366.964 211.769 367.485 211.014 368.18 210.578C368.932 210.084 369.8 209.764 370.668 209.59C372.751 209.154 374.69 209.619 376.484 210.694C377.989 211.624 378.48 210.52 379.811 209.823C381.808 208.777 384.325 209.183 385.946 210.665C386.351 211.043 386.987 210.433 386.553 210.055C385.251 208.893 383.602 208.283 381.866 208.399C381.113 208.457 380.39 208.602 379.725 208.922C378.538 209.445 378.046 210.346 376.571 209.735C374.777 209.009 373.33 208.399 371.334 208.602C369.742 208.777 368.238 209.358 366.993 210.375C366.241 210.956 365.633 211.479 364.505 211.014C364.042 210.839 363.666 210.491 363.232 210.316C362.595 210.026 361.959 209.939 361.235 210.026C360.223 210.171 359.326 210.752 358.516 211.333C358.11 211.624 357.676 212.118 357.214 212.292C355.969 212.786 355.709 211.973 355.072 211.217C353.278 209.038 349.864 209.038 348.302 211.537C348.07 212.002 348.822 212.437 349.112 211.973Z" fill="#FAFAFB"/>
<path d="M376.629 205.261C377.295 204.128 378.51 203.489 379.812 203.518C381.317 203.576 381.751 204.68 382.966 205.203C383.573 205.464 384.094 205.348 384.586 204.941C385.83 203.983 386.669 203.169 388.348 203.198C389.071 203.198 389.765 203.401 390.402 203.75C390.836 203.983 391.183 204.36 391.646 204.476C392.485 204.68 393.035 204.157 393.643 203.663C396.044 201.803 399.459 201.92 401.658 204.041C402.063 204.418 402.67 203.808 402.265 203.43C400.442 201.716 397.838 201.048 395.437 201.745C394.829 201.92 394.25 202.181 393.729 202.501C393.006 202.966 392.427 203.808 391.444 203.43C390.865 203.198 390.402 202.762 389.794 202.559C389.187 202.355 388.55 202.297 387.914 202.326C386.814 202.384 385.715 202.762 384.847 203.46C384.615 203.634 384.413 203.953 384.152 204.099C383.139 204.738 383.024 204.215 382.387 203.692C382.069 203.43 381.751 203.198 381.345 203.024C379.349 202.123 376.89 202.966 375.819 204.854C375.587 205.29 376.34 205.755 376.629 205.261Z" fill="#FAFAFB"/>
<path d="M165.003 209.301C158.174 216.042 151.23 223.596 144.315 231.993C123.887 256.835 110.23 281.706 100.942 302.8C101.492 304.224 103.777 309.686 109.825 312.853C117.203 316.718 124.379 314.074 125.478 313.638C133.262 298.238 143.939 280.399 158.522 262.065C167.057 251.314 175.651 242.046 183.811 234.114C177.561 225.862 171.282 217.581 165.003 209.301Z" fill="white"/>
<path fill-rule="evenodd" clip-rule="evenodd" d="M165.066 208.424L165.475 208.963C171.75 217.239 178.025 225.515 184.271 233.762L184.582 234.172L184.213 234.531C176.07 242.448 167.493 251.698 158.975 262.427L158.974 262.427C144.419 280.725 133.763 298.531 125.995 313.9L125.895 314.097L125.691 314.178C124.556 314.628 117.17 317.355 109.558 313.368C103.32 310.102 100.968 304.474 100.403 303.01L100.316 302.785L100.413 302.565C109.718 281.433 123.401 256.514 143.869 231.623L143.869 231.622C150.797 223.21 157.755 215.641 164.598 208.886L165.066 208.424ZM144.761 232.363C124.445 257.069 110.839 281.804 101.569 302.813C102.235 304.471 104.513 309.416 110.093 312.338C116.88 315.893 123.507 313.758 125.064 313.175C132.853 297.792 143.521 279.992 158.07 261.702C166.494 251.092 174.974 241.923 183.04 234.055C177.025 226.114 170.983 218.146 164.941 210.178C158.278 216.787 151.506 224.173 144.761 232.363Z" fill="#030235"/>
<path opacity="0.14" d="M176.549 226.414C172.209 230.627 167.84 235.043 163.5 239.721C140.583 264.418 123.744 289.958 111.273 313.521C112.777 314.131 115.324 314.916 118.564 314.916C121.602 314.916 124.033 314.19 125.509 313.638C130.514 302.742 137.14 290.364 145.994 277.435C158.754 258.781 172.325 244.544 183.841 234.114C181.381 231.586 178.98 229 176.549 226.414Z" fill="#6B6E85"/>
<path d="M250.622 260.99C304.139 260.99 347.524 217.425 347.524 163.684C347.524 109.944 304.139 66.3789 250.622 66.3789C197.104 66.3789 153.72 109.944 153.72 163.684C153.72 217.425 197.104 260.99 250.622 260.99Z" fill="white"/>
<path fill-rule="evenodd" clip-rule="evenodd" d="M250.621 66.9591C197.423 66.9591 154.298 110.264 154.298 163.684C154.298 217.103 197.423 260.408 250.621 260.408C303.819 260.408 346.944 217.103 346.944 163.684C346.944 110.264 303.819 66.9591 250.621 66.9591ZM153.14 163.684C153.14 109.622 196.784 65.7969 250.621 65.7969C304.458 65.7969 348.102 109.622 348.102 163.684C348.102 217.745 304.458 261.57 250.621 261.57C196.784 261.57 153.14 217.745 153.14 163.684Z" fill="#030235"/>
<path d="M249.551 254.945C299.393 254.945 339.798 214.372 339.798 164.322C339.798 114.272 299.393 73.6992 249.551 73.6992C199.709 73.6992 159.304 114.272 159.304 164.322C159.304 214.372 199.709 254.945 249.551 254.945Z" fill="white"/>
<path fill-rule="evenodd" clip-rule="evenodd" d="M249.549 74.2813C200.027 74.2813 159.881 114.594 159.881 164.323C159.881 214.052 200.027 254.365 249.549 254.365C299.071 254.365 339.217 214.052 339.217 164.323C339.217 114.594 299.071 74.2813 249.549 74.2813ZM158.723 164.323C158.723 113.953 199.387 73.1191 249.549 73.1191C299.711 73.1191 340.375 113.953 340.375 164.323C340.375 214.694 299.711 255.527 249.549 255.527C199.387 255.527 158.723 214.694 158.723 164.323Z" fill="#030235"/>
<path d="M146.747 126.436C145.59 126.901 142.957 128.092 140.815 130.881C138.906 133.351 138.327 135.85 138.125 137.099C142.378 140.44 146.11 142.997 148.946 144.828C157.337 150.29 161.822 152.033 163.037 152.498C168.477 154.561 171.718 154.823 172.643 154.881C174.698 154.997 177.996 155.2 181.729 153.922C184.593 152.934 186.561 151.481 191.682 146.745C197.759 141.138 200.97 137.796 200.97 137.796C213.528 124.722 213.441 126.145 217.724 120.828C222.498 114.872 229.471 106.213 226.838 101.826C225.507 99.6179 221.977 98.9206 216.161 97.7875C212.255 97.032 210.721 97.3516 210.229 97.4678C206.873 98.2814 204.848 100.838 203.025 103.25C196.92 111.24 193.881 115.221 191.827 118.388C190.236 120.828 187.516 125.041 183.407 130.358C180.658 133.932 179.183 135.53 176.752 136.344C174.119 137.215 171.833 136.692 167.464 135.646C165.873 135.269 162.835 134.455 157.655 132.131C154.82 130.852 151.058 128.993 146.747 126.436Z" fill="white"/>
<path opacity="0.14" d="M216.42 105.574C215.089 107.434 213.151 110.165 210.778 113.448C205.338 120.944 202.416 124.983 198.539 129.719C192.607 136.983 189.656 140.644 185.46 143.462C182.249 145.641 177.88 148.605 171.774 149.244C166.335 149.796 161.908 148.053 153.285 144.508C149.495 142.968 144.229 140.586 138.152 137.07C140.438 138.9 143.795 141.399 147.99 144.159C156.294 149.593 161.445 152.905 168.939 154.3C172.382 154.939 177.764 155.869 183.261 153.312C184.94 152.527 186.328 151.394 189.048 149.128C196.108 143.259 200.94 137.883 202.676 135.937C207.132 130.881 209.36 128.353 210.952 125.622C213.093 122.019 216.102 115.453 216.42 105.574Z" fill="#6B6E85"/>
<path d="M210.111 97.0608C205.54 98.3682 202.444 102.407 199.695 106.039C196.512 110.223 193.763 114.697 190.899 119.114C188.034 123.53 185.083 127.946 181.553 131.869C179.498 134.135 177.56 136.518 174.232 136.227C171.31 135.995 168.301 135.588 165.465 134.774C162.311 133.874 159.418 132.334 156.495 130.852C153.313 129.254 150.13 127.627 146.947 126.029C146.455 125.767 146.021 126.523 146.513 126.784C151.866 129.486 157.19 132.595 162.803 134.774C165.378 135.791 168.069 136.314 170.818 136.663C173.422 137.012 176.229 137.68 178.515 136.024C180.511 134.6 182.189 132.508 183.752 130.619C185.372 128.673 186.877 126.639 188.295 124.547C191.333 120.16 194.081 115.569 197.062 111.153C198.856 108.508 200.708 105.923 202.791 103.482C204.874 101.041 207.189 98.746 210.343 97.8452C210.892 97.729 210.661 96.8864 210.111 97.0608Z" fill="#030235"/>
<path d="M137.921 137.446C143.968 141.776 149.929 146.628 156.555 150.085C162.226 153.078 168.881 155.432 175.362 155.49C178.574 155.519 181.612 154.763 184.332 153.049C187.052 151.335 189.511 149.185 191.942 147.093C196.89 142.822 201.461 138.144 205.657 133.146C210.402 127.481 214.627 121.379 218.272 114.958C218.562 114.464 217.809 114.028 217.52 114.522C211.27 125.505 203.342 135.5 194.054 144.042C191.768 146.134 189.396 148.139 186.965 150.056C184.072 152.323 181.091 154.182 177.359 154.531C170.791 155.141 163.673 152.7 157.886 149.795C150.884 146.308 144.663 141.224 138.355 136.662C137.921 136.371 137.487 137.127 137.921 137.446Z" fill="#030235"/>
<path d="M49.5818 74.1665C50.5945 77.3045 52.0412 81.6046 53.893 86.6312C60.2297 103.745 67.2897 118.272 73.7422 129.923C82.7119 146.165 92.2603 159.995 101.288 171.53C102.879 170.92 105.223 169.874 107.769 168.16C110.721 166.155 112.514 164.208 114.8 161.768C117.781 158.601 120.934 155.579 123.915 152.383C137.022 138.291 136.096 139.511 138.15 137.1C141.044 133.7 145.037 128.732 149.406 122.282C147.728 120.945 145.413 118.97 142.867 116.413C139.105 112.635 135.951 108.713 131.987 102.757C130.367 100.316 126.924 95.0571 120.616 83.3189C110.576 64.5783 108.666 58.1571 107.885 55.3097C106.641 50.7481 106.004 46.8838 105.628 44.1816C98.6838 47.1453 91.508 50.4866 84.1007 54.2347C71.3116 60.714 59.7957 67.4838 49.5818 74.1665Z" fill="white"/>
<path d="M49.148 74.2822C58.0599 101.885 70.7622 128.208 86.8498 152.324C91.3057 159.007 96.022 165.515 100.97 171.849C101.317 172.285 101.925 171.675 101.577 171.239C83.8116 148.518 69.1707 123.327 58.2335 96.6255C55.1953 89.2165 52.4466 81.6912 49.9871 74.0788C49.8135 73.4977 48.9744 73.7301 49.148 74.2822Z" fill="#030235"/>
<path d="M49.7271 73.9623C67.5508 62.8632 86.2136 53.1007 105.484 44.7909C106.005 44.5585 105.542 43.8321 105.05 44.0355C85.7795 52.3453 67.1167 62.1078 49.293 73.2068C48.8012 73.4974 49.2352 74.2528 49.7271 73.9623Z" fill="#030235"/>
<path d="M105.193 44.1816C106.437 56.3848 111.848 67.4838 117.433 78.2052C122.785 88.4616 128.225 98.7762 135.198 108.045C138.989 113.1 143.271 117.807 148.103 121.904C148.537 122.253 149.145 121.643 148.711 121.294C140.059 113.972 133.375 104.732 127.646 95.0281C124.811 90.263 122.207 85.3818 119.632 80.4714C116.883 75.2125 114.105 69.9826 111.761 64.5202C108.984 58.0409 106.814 51.242 106.09 44.1816C106.003 43.6296 105.135 43.6296 105.193 44.1816Z" fill="#030235"/>
<path d="M101.783 171.617C105.631 170.571 108.785 168.13 111.65 165.428C114.977 162.29 118.189 159.007 121.343 155.695C127.882 148.896 134.161 141.836 140.179 134.572C143.478 130.591 146.69 126.553 149.814 122.456C149.93 122.311 149.872 122.049 149.757 121.933C149.438 121.613 149.12 121.294 148.831 120.974C148.426 120.567 147.818 121.177 148.223 121.584C148.541 121.904 148.86 122.223 149.149 122.543C149.12 122.369 149.091 122.194 149.091 122.02C142.031 131.26 134.537 140.208 126.667 148.78C122.79 153.022 118.797 157.177 114.717 161.215C110.897 165.022 106.962 169.264 101.581 170.745C101.002 170.92 101.233 171.762 101.783 171.617Z" fill="#030235"/>
<path d="M74.0088 98.6188C78.7597 96.5521 80.5101 90.0067 77.9185 83.9991C75.3268 77.9916 69.3745 74.7968 64.6236 76.8635C59.8726 78.9301 58.1222 85.4756 60.7138 91.4831C63.3055 97.4907 69.2578 100.685 74.0088 98.6188Z" stroke="#030235" stroke-width="0.47625" stroke-miterlimit="10"/>
<path d="M78.6896 74.9219C81.9882 73.2367 85.2867 71.5515 88.5853 69.8663C89.0771 69.6048 88.6431 68.8494 88.1512 69.1109C84.8527 70.7961 81.5542 72.4812 78.2556 74.1664C77.7348 74.4279 78.1688 75.1834 78.6896 74.9219Z" fill="#030235"/>
<path d="M79.4426 79.4544C87.1682 75.5319 94.778 71.4061 102.272 67.1059C102.764 66.8154 102.33 66.06 101.838 66.3505C94.3439 70.6797 86.7341 74.7765 79.0086 78.6989C78.5167 78.9314 78.9507 79.6868 79.4426 79.4544Z" fill="#030235"/>
<path d="M82.3938 84.1606C86.2132 82.3592 90.0036 80.5578 93.5626 78.2915C94.0255 78.0009 93.5915 77.2455 93.1285 77.5361C89.5696 79.8024 85.7792 81.6328 81.9598 83.4052C81.4679 83.6376 81.9019 84.3931 82.3938 84.1606Z" fill="#030235"/>
<path d="M84.2752 89.3327C91.0748 85.817 97.8165 82.127 104.443 78.3208C104.934 78.0302 104.5 77.2748 104.009 77.5653C97.3536 81.4006 90.6408 85.0616 83.8411 88.5772C83.3492 88.8387 83.7833 89.5942 84.2752 89.3327Z" fill="#030235"/>
<path d="M73.5104 115.685C85.2868 108.915 97.0921 102.204 108.955 95.5792C109.447 95.3177 109.013 94.5623 108.521 94.8237C96.6581 101.448 84.8528 108.16 73.0764 114.93C72.5845 115.22 73.0475 115.976 73.5104 115.685Z" fill="#030235"/>
<path d="M76.2884 121.7C81.4388 118.213 86.7628 114.959 92.2314 111.995C92.7233 111.734 92.2893 110.978 91.7974 111.24C86.3287 114.232 81.0048 117.458 75.8544 120.944C75.3915 121.264 75.8255 122.019 76.2884 121.7Z" fill="#030235"/>
<path d="M82.451 127.743C90.9867 121.758 99.725 116.063 108.666 110.688C109.158 110.397 108.695 109.642 108.232 109.933C99.3199 115.308 90.5816 121.003 82.017 126.988C81.5541 127.307 81.9881 128.063 82.451 127.743Z" fill="#030235"/>
<path d="M86.6749 135.937C95.037 129.835 103.573 123.995 112.282 118.416C112.745 118.126 112.311 117.371 111.848 117.661C103.139 123.24 94.603 129.08 86.2409 135.181C85.7779 135.501 86.212 136.256 86.6749 135.937Z" fill="#030235"/>
<path d="M92.2591 147.705C102.878 139.657 113.468 131.637 124.087 123.589C124.521 123.269 124.087 122.485 123.653 122.834C113.034 130.882 102.444 138.901 91.8251 146.949C91.3622 147.298 91.7962 148.053 92.2591 147.705Z" fill="#030235"/>
<path d="M100.217 153.05C107.48 146.891 114.945 140.993 122.613 135.327C123.047 135.007 122.613 134.252 122.179 134.571C114.453 140.266 106.93 146.222 99.6095 152.411C99.1755 152.818 99.7831 153.428 100.217 153.05Z" fill="#030235"/>
<path d="M128.226 95.7246C128.486 95.2887 128.833 94.6495 129.152 93.836C129.412 93.1387 129.701 92.0055 129.644 88.3736C129.586 84.887 129.21 83.6086 128.776 82.6498C128.139 81.1389 127.589 80.9064 127.358 80.8193C126.374 80.4706 125.303 81.2551 123.625 82.5335C120.327 85.0613 119.314 87.2695 118.967 88.1993C118.619 89.1 118.359 89.7683 118.677 90.175C119.343 91.0467 122.063 90.0298 124.291 89.0128C125.622 91.2791 126.924 93.4873 128.226 95.7246Z" fill="white"/>
<path d="M129.298 95.1142C130.281 91.1627 130.484 86.7173 129.269 82.7658C128.922 81.6327 128.198 80.3833 126.896 80.2671C125.42 80.1218 123.974 81.7198 122.932 82.5915C121.601 83.6956 120.328 84.945 119.402 86.4268C118.823 87.3565 117.753 89.1579 118.274 90.3201C119.431 92.9641 124.755 89.1579 125.97 88.3153C126.433 87.9957 125.999 87.2403 125.536 87.5599C124.523 88.2863 123.453 88.9255 122.324 89.4485C121.746 89.739 121.109 90.0296 120.473 90.2039C118.91 90.5816 119.142 88.9255 119.547 88.0248C120.444 86.02 122.064 84.422 123.742 83.0564C124.842 82.1557 126.983 80.0928 128.111 82.1847C128.777 83.376 128.95 85.1774 129.095 86.543C129.384 89.3613 129.153 92.1797 128.459 94.9108C128.314 95.4338 129.153 95.6663 129.298 95.1142Z" fill="#030235"/>
<path d="M238.814 197.069C238.727 197.476 238.843 197.04 238.438 203.781C237.715 216.333 236.905 226.008 236.21 234.521C235.921 237.95 235.516 242.686 234.995 248.322C244.775 250.908 256.696 252.419 269.832 250.531C271.481 250.298 273.073 250.008 274.635 249.688C274.577 243.587 274.491 237.485 274.433 231.383C277.326 236.7 280.249 242.018 283.142 247.335C287.453 246.027 293.356 243.732 299.635 239.548C306.434 235.015 311.064 229.96 313.957 226.27C308.604 216.158 305.364 207.587 303.367 201.428C300.676 193.147 298.622 184.227 291.186 174.842C289.131 172.256 288.119 170.978 286.73 170.077C273.478 161.535 242.518 177.544 238.814 197.069Z" fill="#030235"/>
<path opacity="0.14" d="M282.882 176.004C283.837 178.939 284.821 181.903 285.776 184.866C291.736 203.345 297.205 221.65 302.211 239.693C304.381 238.008 306.956 235.713 309.473 232.691C311.354 230.425 312.801 228.216 313.929 226.27C311.99 222.231 309.328 216.449 306.377 209.36C302.413 199.859 298.507 189.98 298.507 189.98C294.225 179.694 292.778 176.673 290.145 172.866C288.38 170.339 286.76 168.421 285.602 167.143C284.705 170.106 283.808 173.041 282.882 176.004Z" fill="#6B6E85"/>
<path d="M238.381 197.07C237.484 213.893 236.211 230.687 234.562 247.452C234.504 248.004 235.372 248.004 235.43 247.452C237.079 230.687 238.352 213.893 239.249 197.07C239.278 196.518 238.41 196.518 238.381 197.07Z" fill="#030235"/>
<path d="M289.249 172.111C297.35 190.242 305.452 208.343 313.554 226.473C313.785 226.996 314.537 226.532 314.306 226.038C306.204 207.907 298.103 189.806 290.001 171.675C289.769 171.152 289.017 171.617 289.249 172.111Z" fill="#030235"/>
<path d="M257.679 211.742C261.585 211.655 264.45 214.531 266.388 217.64C268.269 220.662 269.86 223.916 271.567 227.054C275.184 233.736 278.83 240.419 282.447 247.131C282.707 247.625 283.46 247.189 283.199 246.695C279.206 239.315 275.213 231.964 271.22 224.584C268.298 219.209 265.028 210.725 257.679 210.899C257.1 210.87 257.1 211.742 257.679 211.742Z" fill="#030235"/>
<path d="M274.001 231.297C274.059 237.428 274.146 243.558 274.204 249.689C274.204 250.241 275.072 250.241 275.072 249.689C275.014 243.558 274.927 237.428 274.869 231.297C274.84 230.716 273.972 230.716 274.001 231.297Z" fill="#030235"/>
<path d="M222.93 88.2576C217.722 91.7151 210.459 96.5383 207.334 105.603C205.164 111.879 205.945 117.371 207.045 125.187C207.45 127.976 208.752 136.111 213.729 147.298C217.693 156.217 220.644 159.53 225.158 167.171C229.151 173.912 234.243 183.82 238.526 197.127C243.965 197.883 248.219 197.389 251.054 196.837C254.642 196.139 261.471 194.251 283.114 177.253C286.065 174.929 288.467 172.982 290.087 171.646C285.458 151.946 279.757 128.673 272.813 101.972C270.469 92.9936 268.068 84.1899 260.458 80.0059C246.743 72.4516 226.778 85.7007 222.93 88.2576Z" fill="#2466C5"/>
<path d="M263.554 88.7215C263.12 89.0701 262.194 89.9418 260.892 95.0845C258.288 105.225 259.85 109.786 260.458 111.326C262.02 121.118 262.02 131.113 263.062 140.963C264.133 151.335 263.785 161.388 263.033 181.523C262.686 191.141 262.339 193.988 261.268 217.436C261.008 223.101 260.805 227.779 260.689 230.859C257.854 232.631 255.452 233.736 253.716 234.433C251.893 235.188 250.649 235.508 249.376 236.67C247.727 238.152 247.003 240.07 246.656 241.493C245.817 241.958 244.544 242.626 242.952 243.382C238.728 245.445 238.352 245.299 237.194 246.2C234.88 247.973 234.041 250.413 233.028 253.086C232.247 255.178 231.147 259.072 232.102 259.595C232.883 260.03 234.735 258.055 235.892 256.834C237.86 254.742 238.468 253.377 239.567 251.953C240.724 250.471 242.692 248.583 246.164 247.13C244.949 247.769 241.564 249.803 240.348 253.725C239.596 256.108 239.943 258.287 240.233 260.147C240.667 262.849 241.564 264.941 242.287 266.277C242.837 266.219 243.647 266.074 244.486 265.609C246.135 264.679 246.656 263.197 247.813 260.902C248.884 258.781 250.07 256.399 251.806 254.51C253.166 253.028 254.729 252.011 256.32 251.285C255.944 253.144 255.713 254.742 255.539 255.934C255.481 256.369 254.96 259.972 255.308 264.272C255.394 265.231 255.51 266.306 256.118 266.539C256.812 266.8 257.709 265.929 257.854 265.783C259.243 264.476 259.04 262.762 259.416 260.524C260.082 256.544 262.078 253.725 262.802 252.709C263.756 251.372 263.756 251.75 266.361 248.757C268.357 246.433 269.37 245.241 269.977 244.166C270.759 242.772 271.916 239.953 271.135 235.217C272.263 230.162 273.71 223.508 275.186 215.634C276.43 208.922 278.426 198.085 280.104 183.674C281.291 173.33 281.812 165.485 282.101 160.923C282.766 150.522 283.172 144.188 282.969 135.239C282.709 124.517 281.985 127.423 281.378 113.651C281.378 113.651 281.059 106.59 278.831 98.0772C278.571 97.0893 277.905 94.6487 276.083 92.0628C274.925 90.4067 273.681 88.6343 271.337 87.7336C268.907 86.8329 265.695 86.9491 263.554 88.7215Z" fill="white"/>
<path opacity="0.14" d="M271.25 87.7344C271.829 91.4534 272.61 96.6252 273.362 102.843C274.635 113.361 276.661 133.467 276.314 159.849C276.053 179.2 275.88 194.454 271.858 214.88C269.861 225.136 267.518 233.533 265.695 239.431C263.669 242.162 261.21 246.056 259.271 251.082C256.899 257.242 256.204 262.733 256.031 266.54C256.436 266.394 257.014 266.133 257.593 265.639C259.416 264.041 259.242 261.542 259.705 259.334C260.052 257.562 261.297 255.789 263.727 252.273C268.241 245.794 270.816 245.242 271.713 241.407C272.292 238.937 271.829 236.642 271.25 234.957C271.626 233.155 272.147 230.511 272.784 227.344C274.578 218.192 277.847 201.369 280.017 183.674C282.216 165.573 282.39 153.515 282.679 130.271C282.708 128.702 281.782 120.073 279.902 102.872C279.728 101.361 279.381 98.4267 277.702 95.1434C275.793 91.4244 273.073 89.0709 271.25 87.7344Z" fill="#6B6E85"/>
<path d="M263.177 88.7798C259.068 95.753 259.415 104.121 260.052 111.908C260.862 121.409 262.048 130.852 262.569 140.382C263.64 159.587 262.772 178.851 261.788 198.056C261.238 208.806 260.688 219.528 260.139 230.278C260.11 230.83 260.978 230.83 261.007 230.278C261.99 211.276 263.177 192.274 263.726 173.272C263.987 163.858 264.045 154.415 263.669 145.001C263.292 135.646 262.309 126.348 261.383 117.021C260.486 107.869 259.01 97.5544 263.9 89.2156C264.189 88.7217 263.437 88.2858 263.177 88.7798Z" fill="#030235"/>
<path d="M263.842 89.0413C267.835 85.4094 273.217 88.5764 275.648 92.3536C278.252 96.3341 279.293 101.186 279.959 105.835C281.435 116.15 281.955 126.668 282.1 137.098C282.418 158.163 280.567 179.228 277.326 200.032C275.532 211.625 273.275 223.16 270.758 234.636C270.642 235.188 271.481 235.421 271.597 234.869C276.4 213.194 280.104 191.257 281.869 169.117C282.766 158.018 283.142 146.861 282.939 135.704C282.823 130.183 282.592 124.663 282.158 119.142C281.753 113.854 281.348 108.508 280.393 103.278C279.525 98.4261 277.991 92.9928 274.374 89.4481C271.394 86.5135 266.504 85.4094 263.206 88.4311C262.83 88.7798 263.437 89.419 263.842 89.0413Z" fill="#030235"/>
<path d="M260.43 230.482C258.78 231.644 257.044 232.661 255.164 233.416C253.891 233.939 252.531 234.201 251.286 234.782C248.596 236.002 247.062 238.675 246.194 241.406C246.02 241.929 246.859 242.162 247.033 241.639C248.046 238.588 249.753 236.118 252.936 235.13C255.8 234.259 258.404 232.951 260.864 231.237C261.327 230.917 260.893 230.162 260.43 230.482Z" fill="#030235"/>
<path d="M254.612 237.339C249.375 239.721 244.109 242.075 238.987 244.69C236.933 245.736 235.168 246.985 234.068 249.048C232.969 251.082 232.419 253.464 231.927 255.702C231.667 256.864 230.77 259.363 232.072 260.263C233.519 261.28 234.936 258.81 235.602 257.939C238.814 253.755 241.678 248.757 247.002 247.072C247.523 246.898 247.32 246.055 246.771 246.23C243.154 247.363 240.463 250.007 238.206 252.97C236.759 254.83 235.486 256.806 233.953 258.607C233.75 258.84 233.577 259.072 233.345 259.304C232.998 259.246 232.651 259.217 232.332 259.159C232.043 258.81 232.39 257.677 232.477 257.3C232.709 256.108 232.969 254.946 233.287 253.784C233.837 251.663 234.502 249.368 236.065 247.74C237.598 246.113 239.826 245.271 241.794 244.312C246.192 242.191 250.619 240.128 255.075 238.123C255.567 237.862 255.133 237.106 254.612 237.339Z" fill="#030235"/>
<path d="M247.409 245.765C244.11 247.973 240.349 250.646 239.596 254.859C239.191 257.183 239.654 259.682 240.03 261.978C240.32 263.808 240.58 265.726 242.114 266.917C242.374 267.12 242.663 266.888 242.75 266.655C243.908 263.808 243.994 260.728 244.891 257.823C245.933 254.51 248.421 252.389 251.083 250.355C251.517 250.036 251.083 249.251 250.649 249.6C248.219 251.43 245.759 253.377 244.544 256.254C243.155 259.508 243.242 263.169 241.911 266.423C242.114 266.336 242.345 266.249 242.548 266.161C241.072 265.028 240.985 262.646 240.725 260.961C240.407 258.781 239.972 256.37 240.609 254.191C241.622 250.675 244.949 248.438 247.814 246.52C248.306 246.201 247.872 245.445 247.409 245.765Z" fill="#030235"/>
<path d="M242.141 266.714C243.559 267.15 244.629 266.191 245.497 265.145C246.713 263.663 247.667 262.007 248.593 260.351C250.59 256.835 252.615 253.087 256.435 251.286C256.926 251.053 256.492 250.298 256.001 250.53C253.165 251.896 251.169 254.336 249.577 256.98C248.68 258.433 247.899 259.944 247.031 261.426C246.221 262.762 244.369 266.511 242.401 265.9C241.823 265.697 241.591 266.54 242.141 266.714Z" fill="#030235"/>
<path d="M270.614 234.695C270.759 236.874 270.904 239.112 270.47 241.262C270.065 243.325 269.052 245.068 267.692 246.666C265.319 249.426 262.542 251.663 260.921 255.005C260.14 256.632 259.561 258.375 259.041 260.119C258.78 261.048 258.52 262.007 258.259 262.966C257.97 263.983 257.854 265.93 256.408 265.726C255.048 265.552 255.626 259.712 255.684 258.782C255.829 256.283 256.176 253.843 256.726 251.402C256.842 250.85 256.002 250.617 255.887 251.17C255.308 253.843 254.932 256.574 254.787 259.334C254.729 260.583 254.729 261.862 254.758 263.111C254.787 264.012 254.787 265.058 255.308 265.842C255.974 266.801 257.305 267.121 258.086 266.162C258.722 265.407 258.838 264.128 259.098 263.198C259.417 262.007 259.735 260.816 260.082 259.654C260.863 257.039 261.905 254.482 263.612 252.332C265.001 250.588 266.708 249.107 268.155 247.45C269.515 245.911 270.614 244.225 271.135 242.221C271.801 239.78 271.627 237.194 271.482 234.695C271.453 234.143 270.585 234.143 270.614 234.695Z" fill="#030235"/>
<path d="M212.167 29.3326C206.554 33.0807 205.049 39.4438 203.227 47.3177C202.185 51.7341 198.568 67.3077 207.133 79.5108C208.927 82.0677 213.498 88.576 219.43 87.9368C223.105 87.5591 225.622 84.5955 226.692 83.1718C229.007 85.6705 231.322 88.1983 233.637 90.697C235.749 90.2903 238.816 89.3896 241.97 87.3848C250.072 82.1839 252.473 73.4674 253.717 68.8476C254.904 64.4893 257.595 54.6396 252.589 44.8771C250.158 40.1411 246.947 37.41 245.124 35.8991C237.283 29.3036 222.063 22.7662 212.167 29.3326Z" fill="white"/>
<path opacity="0.14" d="M231.352 40.7524C232.712 43.2221 234.593 47.377 234.882 52.7231C235.345 60.8295 231.988 66.9892 228.921 72.5678C227.098 75.9091 224.06 80.6451 219.228 85.5264C221.254 85.1486 223.829 84.4513 226.664 83.1438C230.6 81.2843 233.406 78.9018 235.171 77.1585C235.547 78.2916 237.92 85.1486 241.219 85.1196C242.405 85.0905 243.302 84.1898 243.823 83.6087C255.657 70.7373 255.425 59.4639 255.425 59.4639C255.368 56.4712 254.789 50.9798 251.461 45.6046C250.304 43.716 249.002 41.6531 246.6 40.1713C240.437 36.3942 232.509 40.2004 231.352 40.7524Z" fill="#6B6E85"/>
<path d="M215.175 29.7693C216.333 29.2463 218.011 28.7524 219.429 29.4206C222.062 30.67 222.004 35.0573 222.669 37.8176C223.595 41.7691 227.675 46.5632 241.245 50.4565C241.766 48.4227 243.271 46.8828 245.065 46.5632C247.785 46.1273 250.128 48.7423 250.562 51.0667C250.823 52.5485 250.273 53.7398 249.723 54.9891C249.231 56.0932 248.016 58.7372 245.672 59.0859C244.718 59.2312 243.907 58.9406 243.444 58.7082C243.444 60.3643 243.358 62.805 242.895 65.7395C241.824 72.3641 239.596 76.2575 238.381 79.5698C237.166 82.882 234.041 92.5574 238.207 99.2401C242.634 106.359 255.047 109.497 262.744 104.383C268.82 100.344 269.775 92.6446 270.238 88.8093C270.672 85.2065 270.498 81.4584 265.637 66.4078C261.992 55.0763 260.169 49.4396 256.436 41.7691C249.434 27.3577 244.457 23.6677 242.982 22.6217C241.014 21.2271 236.703 18.2635 230.54 17.479C220.297 16.1715 209.823 21.4886 204.296 29.2754C201.287 33.5465 200.477 40.1129 198.856 53.2168C198.335 57.4879 198.046 63.9962 197.496 76.9839C197.091 86.3687 197.091 89.4485 198.017 93.7487C199.117 98.8914 200.361 104.79 205.511 108.799C206.379 109.467 212.398 114.174 219.139 112.053C225.91 109.932 228.196 102.581 228.861 100.431C231.437 92.0635 227.675 84.7997 226.749 83.1435C224.261 83.928 221.801 84.7416 219.313 85.5261C217.722 84.974 215.407 83.9571 213.005 82.0976C208.781 78.8143 206.929 74.8338 206.177 73.2067C205.396 71.4924 204.527 69.0518 203.949 64.3158C203.11 57.4007 202.328 50.689 205.309 43.1056C207.768 36.8297 211.877 32.4714 215.175 29.7693Z" fill="#030235"/>
<path d="M204.326 42.9602C202.966 51.7639 202.04 61.0906 204.847 69.749C207.046 76.5479 211.589 82.7948 218.243 85.7293C218.764 85.9618 219.198 85.2063 218.677 84.9739C212.08 82.0684 207.653 75.8796 205.541 69.1098C202.937 60.7419 203.834 51.7348 205.136 43.1926C205.252 42.6406 204.413 42.4081 204.326 42.9602Z" fill="#030235"/>
<path d="M218.793 85.8452C225.506 84.7701 231.756 81.2545 236.559 76.4604C241.102 71.9568 244.545 65.8552 243.879 59.2597C243.821 58.7077 242.953 58.7077 243.011 59.2597C243.677 65.7971 240.176 71.7825 235.604 76.1698C230.917 80.6734 224.985 83.9856 218.533 85.0026C218.012 85.0897 218.243 85.9323 218.793 85.8452Z" fill="#030235"/>
<path d="M243.184 59.0558C245.296 60.4214 247.582 58.7943 248.913 57.08C250.476 55.0752 251.286 52.3731 250.852 49.8453C250.447 47.5209 248.768 45.8066 246.338 45.8938C243.734 45.981 241.911 48.0439 240.84 50.223C240.609 50.717 241.361 51.1818 241.593 50.6588C242.432 48.9446 243.676 47.2885 245.644 46.8526C248.016 46.3296 249.723 47.9858 250.013 50.2521C250.244 52.0825 249.81 53.9711 248.884 55.5692C247.9 57.2544 245.701 59.695 243.589 58.3294C243.155 58.0098 242.721 58.7652 243.184 59.0558Z" fill="#030235"/>
<path d="M226.373 83.4624C228.109 85.6997 229.989 87.7917 232.015 89.7674C232.565 90.2904 233.317 91.3364 234.156 91.3654C235.024 91.3945 236.152 90.5228 236.905 90.1451C237.397 89.8836 236.963 89.1573 236.471 89.3897C235.313 89.9708 234.358 90.581 233.172 89.6802C232.362 89.0701 231.697 88.2275 231.002 87.5011C229.584 86.0193 228.253 84.4503 226.98 82.8232C226.662 82.4165 226.054 83.0266 226.373 83.4624Z" fill="#030235"/>
<path d="M214.106 69.9804C219.315 70.0966 222.44 65.593 224.899 61.6415C225.188 61.1767 224.436 60.7118 224.147 61.2057C221.861 64.8957 218.967 69.2249 214.077 69.1087C213.557 69.1087 213.557 69.9804 214.106 69.9804Z" fill="#030235"/>
<path d="M223.366 53.5946C224.205 53.5946 224.205 52.2871 223.366 52.2871C222.527 52.2871 222.527 53.5946 223.366 53.5946Z" fill="#030235"/>
<path d="M227.531 51.6766C228.371 51.6766 228.371 50.3691 227.531 50.3691C226.692 50.3691 226.692 51.6766 227.531 51.6766Z" fill="#030235"/>
<path d="M227.184 55.8602C228.023 55.8602 228.023 54.5527 227.184 54.5527C226.345 54.5527 226.345 55.8602 227.184 55.8602Z" fill="#030235"/>
<path d="M206.206 57.2259C206.206 57.1968 206.206 57.1387 206.206 57.1097C206.206 56.761 205.917 56.4414 205.54 56.4414C205.193 56.4705 204.875 56.732 204.875 57.1097C204.875 57.1387 204.875 57.1968 204.875 57.2259C204.875 57.5746 205.164 57.8942 205.54 57.8942C205.917 57.8651 206.206 57.6036 206.206 57.2259Z" fill="#030235"/>
<path d="M208.173 56.9364C209.012 56.9364 209.012 55.6289 208.173 55.6289C207.334 55.6289 207.334 56.9364 208.173 56.9364Z" fill="#030235"/>
<path d="M208.058 62.1942C208.897 62.1942 208.897 60.8867 208.058 60.8867C207.219 60.8867 207.219 62.1942 208.058 62.1942Z" fill="#030235"/>
<path d="M211.963 41.7113C211.413 49.5852 211.182 57.4591 211.269 65.3331C211.269 65.798 211.847 65.8851 212.079 65.5655C213.15 64.1128 214.191 62.66 215.262 61.2072C215.58 60.7424 214.828 60.3065 214.509 60.7714C213.439 62.2242 212.397 63.6769 211.327 65.1297C211.587 65.2168 211.876 65.275 212.137 65.3621C212.05 57.4882 212.281 49.6142 212.831 41.7403C212.889 41.1592 212.021 41.1592 211.963 41.7113Z" fill="#030235"/>
<path d="M208.174 52.7236C208.701 52.7236 209.129 51.4358 209.129 49.8472C209.129 48.2585 208.701 46.9707 208.174 46.9707C207.647 46.9707 207.219 48.2585 207.219 49.8472C207.219 51.4358 207.647 52.7236 208.174 52.7236Z" fill="#030235"/>
<path d="M222.208 49.2353C222.735 49.2353 223.163 47.9475 223.163 46.3589C223.163 44.7703 222.735 43.4824 222.208 43.4824C221.68 43.4824 221.253 44.7703 221.253 46.3589C221.253 47.9475 221.68 49.2353 222.208 49.2353Z" fill="#030235"/>
<path d="M206.352 44.093C206.902 42.9889 208.06 41.1584 209.506 42.1172C209.969 42.4368 210.403 41.6814 209.94 41.3618C208.031 40.1124 206.352 42.0882 205.6 43.6571C205.34 44.1511 206.092 44.5869 206.352 44.093Z" fill="#030235"/>
<path d="M219.257 39.0082C220.241 36.1317 223.684 35.5216 225.681 37.7588C226.057 38.1656 226.664 37.5554 226.288 37.1487C223.829 34.3884 219.604 35.3182 218.418 38.7758C218.215 39.2988 219.055 39.5312 219.257 39.0082Z" fill="#030235"/>
</svg>
