<svg width="396" height="338" viewBox="0 0 396 338" fill="none" xmlns="http://www.w3.org/2000/svg">
<g clip-path="url(#clip0_540_46471)">
<path d="M100.187 273.792C126.751 273.792 153.315 273.792 179.879 273.792C206.356 273.792 232.833 273.792 259.281 273.792C274.245 273.792 289.238 273.792 304.202 273.792C304.753 273.792 304.753 272.922 304.202 272.922C277.638 272.922 251.074 272.922 224.51 272.922C198.033 272.922 171.556 272.922 145.108 272.922C130.144 272.922 115.151 272.922 100.187 272.922C99.6357 272.922 99.6357 273.792 100.187 273.792Z" fill="#98A0AD"/>
<path d="M309.567 255.757C309.335 264.109 310.176 272.461 312.09 280.61C312.206 281.161 313.047 280.929 312.931 280.378C311.046 272.316 310.205 264.051 310.466 255.757C310.437 255.206 309.567 255.206 309.567 255.757Z" fill="#98A0AD"/>
<path d="M344.106 256.422C344.918 264.136 344.425 271.937 342.656 279.477C342.54 280.028 343.352 280.26 343.497 279.709C345.295 272.082 345.817 264.223 344.976 256.422C344.918 255.871 344.048 255.871 344.106 256.422Z" fill="#98A0AD"/>
<path d="M312.438 281.42C322.472 283.972 333.086 283.624 342.917 280.376C343.439 280.202 343.207 279.361 342.685 279.535C332.97 282.725 322.559 283.102 312.67 280.579C312.119 280.463 311.887 281.304 312.438 281.42Z" fill="#98A0AD"/>
<path d="M309.973 256.161C321.254 258.568 332.941 258.51 344.193 256.016C344.744 255.9 344.512 255.059 343.961 255.175C332.854 257.64 321.312 257.669 310.205 255.32C309.654 255.204 309.422 256.045 309.973 256.161Z" fill="#98A0AD"/>
<path d="M316.846 256.482C315.338 253.089 316.701 248.942 317.832 245.607C318.992 242.156 320.645 238.879 322.675 235.863C322.443 235.892 322.211 235.921 321.979 235.95C322.646 236.704 323.371 237.226 324.27 237.661C324.618 237.806 324.995 237.574 324.908 237.168C324.56 235.602 323.951 234.065 324.647 232.499C325.14 231.397 325.836 230.295 326.416 229.251C326.213 229.309 326.01 229.367 325.807 229.396C326.416 229.773 327.025 230.121 327.634 230.498C328.04 230.759 328.388 230.266 328.243 229.889C327.634 228.555 327.228 227.221 328.069 225.887C328.562 225.075 329.2 224.35 329.751 223.596C330.969 221.972 332.245 220.348 333.521 218.753C335.957 215.708 338.48 212.75 341.09 209.85C340.858 209.821 340.626 209.792 340.394 209.763C344.106 214.635 346.455 220.464 347.093 226.554C347.412 229.483 347.325 232.499 346.803 235.399C346.542 236.878 346.165 238.328 345.701 239.749C345.614 240.039 345.498 240.329 345.411 240.59C345.092 241.402 344.57 241.75 343.729 241.924C343.149 242.04 342.83 241.953 342.337 242.33C342.105 242.504 342.047 242.794 342.25 243.026C342.888 243.693 343.149 243.809 342.917 244.708C342.772 245.288 342.424 245.897 342.163 246.477C341.641 247.637 341.061 248.768 340.452 249.87C339.205 252.132 337.784 254.278 336.189 256.308C335.841 256.743 336.45 257.352 336.798 256.917C339.872 252.973 342.308 248.652 344.135 244.012C344.193 243.867 344.135 243.693 344.019 243.577C343.642 243.2 343.265 242.794 342.859 242.417C342.83 242.649 342.801 242.881 342.772 243.113C343.439 242.649 344.193 242.968 344.889 242.678C345.44 242.475 345.73 242.069 345.962 241.547C346.6 240.184 347.006 238.618 347.354 237.168C348.079 233.978 348.311 230.701 348.079 227.453C347.586 220.899 345.179 214.548 341.177 209.328C341.032 209.125 340.713 209.009 340.481 209.241C337.262 212.808 334.159 216.491 331.201 220.261C329.867 221.943 328.446 223.625 327.286 225.452C326.242 227.105 326.735 228.671 327.46 230.353C327.663 230.15 327.866 229.947 328.069 229.744C327.46 229.367 326.851 229.019 326.242 228.642C326.039 228.526 325.749 228.584 325.633 228.787C324.908 230.121 323.777 231.6 323.371 233.079C323.023 234.384 323.748 236.095 324.038 237.371C324.241 237.197 324.473 237.052 324.676 236.878C323.835 236.501 323.168 236.008 322.559 235.312C322.356 235.08 322.008 235.167 321.863 235.399C319.601 238.763 317.832 242.446 316.614 246.332C315.57 249.696 314.555 253.524 316.034 256.888C316.324 257.41 317.078 256.975 316.846 256.482Z" fill="#98A0AD"/>
<path d="M340.452 216.431C339.292 229.568 330.302 240.095 326.561 252.449C326.387 253 327.228 253.203 327.402 252.681C331.143 240.24 340.162 229.684 341.322 216.431C341.38 215.851 340.481 215.88 340.452 216.431Z" fill="#98A0AD"/>
<path d="M329.491 223.422C330.419 228.207 331.492 232.934 332.71 237.632C332.855 238.183 333.696 237.951 333.551 237.4C332.333 232.702 331.26 227.946 330.332 223.19C330.245 222.639 329.404 222.871 329.491 223.422Z" fill="#98A0AD"/>
<path d="M339.292 226.496C341.815 224.669 343.99 222.494 345.875 219.971C346.223 219.536 345.469 219.101 345.121 219.536C343.352 221.914 341.264 224.002 338.857 225.742C338.422 226.09 338.857 226.844 339.292 226.496Z" fill="#98A0AD"/>
<path d="M336.596 214.081C337.379 216.575 337.843 219.62 339.757 221.505C340.163 221.911 340.772 221.273 340.366 220.896C338.597 219.127 338.133 216.14 337.408 213.849C337.263 213.327 336.422 213.559 336.596 214.081Z" fill="#98A0AD"/>
<path d="M315.105 256.251C313.336 254.859 312.263 252.916 311.364 250.886C310.349 248.508 309.479 246.072 308.696 243.607C307.217 238.88 306.144 234.008 305.506 229.107C304.201 218.841 305.245 208.459 303.998 198.164C303.737 198.251 303.447 198.309 303.186 198.396C306.434 205.704 314.032 210.083 320.354 214.433C320.296 214.23 320.238 214.027 320.209 213.824C319.339 215.071 318.469 216.318 317.599 217.565C317.396 217.855 317.657 218.232 317.976 218.232C319.107 218.232 320.093 218.087 321.166 217.71C320.992 217.652 320.847 217.565 320.673 217.507C321.746 219.16 322.819 220.813 323.892 222.466C323.921 222.292 323.95 222.118 323.95 221.944C323.428 222.437 322.993 222.988 322.558 223.597C322.413 223.8 322.558 224.206 322.819 224.235C325.197 224.583 326.038 226.845 326.647 228.875C326.821 229.397 327.662 229.194 327.488 228.643C326.763 226.352 325.719 223.771 323.051 223.394C323.138 223.597 323.225 223.829 323.312 224.032C323.689 223.452 324.066 223.046 324.559 222.582C324.704 222.466 324.733 222.205 324.617 222.06C323.544 220.407 322.471 218.754 321.398 217.101C321.311 216.956 321.108 216.84 320.905 216.898C319.919 217.217 318.962 217.391 317.947 217.362C318.063 217.594 318.208 217.797 318.324 218.029C319.194 216.782 320.064 215.535 320.934 214.288C321.079 214.085 320.963 213.824 320.789 213.679C314.583 209.416 307.13 205.153 303.94 197.961C303.766 197.584 303.07 197.758 303.128 198.193C304.404 208.865 303.273 219.653 304.781 230.296C305.506 235.429 306.695 240.475 308.348 245.376C309.682 249.349 311.074 254.192 314.467 256.889C314.931 257.208 315.54 256.599 315.105 256.251Z" fill="#98A0AD"/>
<path d="M303.361 199.032C305.71 205.528 307.682 212.372 310.843 218.549C312.409 221.594 314.12 224.581 315.599 227.684C317.194 231.048 318.615 234.47 320.065 237.863C320.268 238.385 321.022 237.921 320.819 237.428C319.456 234.18 318.064 230.932 316.585 227.742C315.135 224.61 313.453 221.623 311.829 218.578C308.581 212.372 306.58 205.412 304.173 198.829C303.999 198.278 303.158 198.51 303.361 199.032Z" fill="#98A0AD"/>
<path d="M304.464 221.074C307.596 221.451 311.018 221.625 313.396 223.974C313.802 224.38 314.411 223.742 314.005 223.365C311.453 220.871 307.828 220.639 304.464 220.233C303.913 220.146 303.913 221.016 304.464 221.074Z" fill="#98A0AD"/>
<path d="M312.843 209.329C312.321 211.214 311.973 213.157 311.828 215.129C311.712 216.811 311.509 218.783 312.089 220.407C312.263 220.929 313.104 220.697 312.93 220.175C312.379 218.638 312.582 216.724 312.698 215.1C312.843 213.215 313.191 211.359 313.684 209.532C313.829 209.01 312.988 208.778 312.843 209.329Z" fill="#98A0AD"/>
<path d="M306.435 236.879C308.697 236.937 310.872 236.966 313.076 237.575C315.251 238.184 317.397 238.822 319.572 239.46C320.123 239.605 320.355 238.764 319.804 238.619C317.484 237.952 315.193 237.227 312.844 236.618C310.727 236.067 308.61 236.096 306.435 236.038C305.884 235.98 305.884 236.85 306.435 236.879Z" fill="#98A0AD"/>
<path d="M338.161 255.437C340.104 255.176 342.018 255.176 343.961 255.437C343.874 255.234 343.787 255.002 343.7 254.799C343.526 255.06 341.786 255.089 341.438 255.118C340.655 255.234 339.843 255.35 339.06 255.524C338.944 255.553 338.161 255.64 338.132 255.727C338.19 255.582 339.35 255.611 339.524 255.611C340.365 255.611 341.206 255.698 342.047 255.756C342.047 255.466 342.047 255.176 342.047 254.886C341.322 254.857 340.684 254.944 339.959 255.147C339.495 255.263 339.582 255.988 340.075 255.988C341.206 255.988 342.221 255.756 343.323 255.466C343.874 255.321 343.642 254.48 343.091 254.625C342.105 254.886 341.119 255.118 340.075 255.118C340.104 255.408 340.162 255.698 340.191 255.959C340.8 255.785 341.409 255.727 342.047 255.727C342.598 255.727 342.598 254.886 342.047 254.857C340.771 254.799 338.915 254.335 337.755 255.06C337.291 255.35 336.624 256.104 337.233 256.568C337.494 256.771 337.784 256.655 338.103 256.626C338.973 256.452 339.814 256.249 340.684 256.104C341.699 255.93 343.729 256.191 344.425 255.234C344.57 255.031 344.425 254.625 344.164 254.596C342.134 254.306 340.162 254.306 338.132 254.567C337.61 254.625 337.61 255.495 338.161 255.437Z" fill="#98A0AD"/>
<path d="M310.35 255.987C310.756 255.871 311.162 255.784 311.568 255.755C311.771 255.755 311.945 255.726 312.148 255.755C312.235 255.755 312.641 255.726 312.67 255.755C312.641 255.61 312.583 255.465 312.554 255.32C312.554 255.349 312.525 255.378 312.525 255.378C312.699 255.291 312.873 255.175 313.047 255.088C313.018 255.088 312.989 255.088 312.989 255.088C313.076 255.175 313.192 255.291 313.279 255.378C313.279 255.349 313.279 255.32 313.25 255.32C313.105 254.769 312.293 255.001 312.409 255.552C312.409 255.581 312.409 255.61 312.438 255.61C312.467 255.755 312.612 255.871 312.728 255.9C312.757 255.9 312.786 255.9 312.786 255.9C313.018 255.958 313.221 255.842 313.308 255.61C313.308 255.581 313.337 255.552 313.337 255.552C313.395 255.407 313.337 255.233 313.221 255.117C312.902 254.798 312.206 254.856 311.8 254.856C311.22 254.856 310.611 254.972 310.06 255.117C309.596 255.291 309.828 256.132 310.35 255.987Z" fill="#98A0AD"/>
<path d="M311.017 261.818C321.602 263.645 332.593 264.515 343.033 261.383C343.555 261.209 343.352 260.397 342.801 260.542C332.535 263.616 321.689 262.775 311.249 260.977C310.698 260.89 310.466 261.731 311.017 261.818Z" fill="#98A0AD"/>
<path d="M347.47 273.737C366.059 273.737 384.677 273.737 403.266 273.737C403.817 273.737 403.817 272.867 403.266 272.867C384.677 272.867 366.059 272.867 347.47 272.867C346.89 272.867 346.89 273.737 347.47 273.737Z" fill="#98A0AD"/>
<path d="M333.405 292.386C350.921 292.386 368.466 292.386 385.982 292.386C386.533 292.386 386.533 291.516 385.982 291.516C368.466 291.516 350.921 291.516 333.405 291.516C332.854 291.516 332.854 292.386 333.405 292.386Z" fill="#98A0AD"/>
<path d="M341.381 292.295C339.293 294.035 337.205 295.746 335.146 297.486C334.711 297.834 335.319 298.443 335.754 298.095C337.842 296.355 339.93 294.644 341.989 292.904C342.424 292.556 341.787 291.918 341.381 292.295Z" fill="#98A0AD"/>
<path d="M335.405 298.417C335.956 298.417 335.956 297.547 335.405 297.547C334.854 297.547 334.854 298.417 335.405 298.417Z" fill="#98A0AD"/>
<path d="M344.252 297.547C326.591 297.547 308.93 297.547 291.269 297.547C290.718 297.547 290.718 298.417 291.269 298.417C308.93 298.417 326.591 298.417 344.252 298.417C344.803 298.417 344.803 297.547 344.252 297.547Z" fill="#98A0AD"/>
<path d="M291.181 306.534C294.313 303.924 297.532 301.429 300.838 299.022C301.273 298.703 300.867 297.949 300.403 298.268C297.039 300.704 293.762 303.257 290.572 305.896C290.137 306.273 290.746 306.882 291.181 306.534Z" fill="#98A0AD"/>
<path d="M27.1652 290.702C47.6392 290.702 68.1132 290.702 88.5872 290.702C94.3872 290.702 100.187 290.702 105.987 290.702C106.538 290.702 106.538 289.832 105.987 289.832C85.5132 289.832 65.0392 289.832 44.5652 289.832C38.7652 289.832 32.9652 289.832 27.1652 289.832C26.6142 289.832 26.6142 290.702 27.1652 290.702Z" fill="#98A0AD"/>
<path d="M37.8659 298.271C40.6209 295.922 43.4049 293.573 46.1599 291.224C46.5949 290.847 45.9569 290.238 45.5509 290.615C42.7959 292.964 40.0119 295.313 37.2569 297.662C36.8219 298.01 37.4599 298.648 37.8659 298.271Z" fill="#98A0AD"/>
<path d="M27.8898 299.112C46.9138 299.112 65.9378 299.112 84.9618 299.112C85.5128 299.112 85.5128 298.242 84.9618 298.242C65.9378 298.242 46.9138 298.242 27.8898 298.242C27.3388 298.242 27.3388 299.112 27.8898 299.112Z" fill="#98A0AD"/>
<path d="M78.3218 298.939C76.1468 301.375 73.9138 303.753 71.6518 306.131C71.2748 306.537 71.8838 307.146 72.2608 306.74C74.5228 304.362 76.7268 301.984 78.9308 299.548C79.3368 299.142 78.6988 298.533 78.3218 298.939Z" fill="#98A0AD"/>
<path d="M63.4738 307.518C80.2068 307.518 96.9108 307.518 113.644 307.518C114.195 307.518 114.195 306.648 113.644 306.648C96.9108 306.648 80.2068 306.648 63.4738 306.648C62.9228 306.648 62.9228 307.518 63.4738 307.518Z" fill="#98A0AD"/>
<path d="M51.6125 276.112C58.6885 276.112 65.7645 276.112 72.8695 276.112C73.4205 276.112 73.4205 275.242 72.8695 275.242C65.7935 275.242 58.7175 275.242 51.6125 275.242C51.0615 275.242 51.0615 276.112 51.6125 276.112Z" fill="#98A0AD"/>
<path d="M78.2341 278.956C80.4091 278.956 82.6131 278.956 84.788 278.956C85.339 278.956 85.339 278.086 84.788 278.086C82.6131 278.086 80.4091 278.086 78.2341 278.086C77.6541 278.086 77.6541 278.956 78.2341 278.956Z" fill="#98A0AD"/>
<path d="M62.4883 123.894C62.4883 128.621 62.4883 133.377 62.4883 138.104C62.4883 138.655 63.3583 138.655 63.3583 138.104C63.3583 133.377 63.3583 128.621 63.3583 123.894C63.3583 123.343 62.4883 123.343 62.4883 123.894Z" fill="#98A0AD"/>
<path d="M47.8996 138.8C59.5576 138.8 71.2156 138.8 82.8736 138.8C83.4246 138.8 83.4246 137.93 82.8736 137.93C71.2156 137.93 59.5576 137.93 47.8996 137.93C47.3486 137.93 47.3486 138.8 47.8996 138.8Z" fill="#98A0AD"/>
<path d="M72.3184 139.206C72.3184 142.86 72.3184 146.485 72.3184 150.139C72.3184 150.69 73.1884 150.69 73.1884 150.139C73.1884 146.485 73.1884 142.86 73.1884 139.206C73.1884 138.626 72.3184 138.626 72.3184 139.206Z" fill="#98A0AD"/>
<path d="M62.6616 151.643C71.9416 151.643 81.2506 151.643 90.5306 151.643C91.0816 151.643 91.0816 150.773 90.5306 150.773C81.2506 150.773 71.9416 150.773 62.6616 150.773C62.0816 150.773 62.0816 151.643 62.6616 151.643Z" fill="#98A0AD"/>
<path d="M296.692 113.714C296.692 114.874 296.692 116.005 296.692 117.165C296.692 117.716 297.562 117.716 297.562 117.165C297.562 116.005 297.562 114.874 297.562 113.714C297.562 113.163 296.692 113.163 296.692 113.714Z" fill="#98A0AD"/>
<path d="M297.386 114.409C317.338 114.409 337.29 114.409 357.242 114.409C357.793 114.409 357.793 113.539 357.242 113.539C337.29 113.539 317.338 113.539 297.386 113.539C296.835 113.539 296.835 114.409 297.386 114.409Z" fill="#98A0AD"/>
<path d="M297.91 117.6C317.688 117.6 337.466 117.6 357.215 117.6C357.766 117.6 357.766 116.73 357.215 116.73C337.437 116.73 317.659 116.73 297.91 116.73C297.359 116.73 297.359 117.6 297.91 117.6Z" fill="#98A0AD"/>
<path d="M357.098 113.714C356.982 114.903 357.04 116.092 357.243 117.281C357.33 117.832 358.171 117.6 358.084 117.049C357.881 115.947 357.852 114.816 357.968 113.714C358.026 113.163 357.156 113.163 357.098 113.714Z" fill="#98A0AD"/>
<path d="M301.477 113.745C301.477 105.654 301.477 97.5628 301.477 89.4718C301.477 88.9208 300.607 88.9208 300.607 89.4718C300.607 97.5628 300.607 105.654 300.607 113.745C300.607 114.325 301.477 114.325 301.477 113.745Z" fill="#98A0AD"/>
<path d="M301.475 89.6143C303.94 88.6283 306.55 88.7733 308.841 90.1363C309.334 90.4263 309.769 89.6723 309.276 89.3823C306.811 87.9323 303.882 87.7003 301.243 88.7733C300.721 88.9763 300.953 89.8173 301.475 89.6143Z" fill="#98A0AD"/>
<path d="M308.697 89.9328C308.697 97.7048 308.697 105.506 308.697 113.278C308.697 113.829 309.567 113.829 309.567 113.278C309.567 105.506 309.567 97.7048 309.567 89.9328C309.567 89.3818 308.697 89.3818 308.697 89.9328Z" fill="#98A0AD"/>
<path d="M309.683 96.4296C311.452 95.7046 313.308 95.8206 314.961 96.8356C315.454 97.1256 315.889 96.3716 315.396 96.0816C313.569 94.9796 311.423 94.7766 309.451 95.5886C308.929 95.7916 309.161 96.6326 309.683 96.4296Z" fill="#98A0AD"/>
<path d="M314.788 96.8078C314.788 102.26 314.788 107.683 314.788 113.135C314.788 113.686 315.658 113.686 315.658 113.135C315.658 107.683 315.658 102.26 315.658 96.8078C315.658 96.2568 314.788 96.2568 314.788 96.8078Z" fill="#98A0AD"/>
<path d="M301.592 96.285C304.057 95.734 306.493 95.908 308.871 96.749C309.393 96.923 309.625 96.082 309.103 95.908C306.58 95.009 303.97 94.893 301.36 95.444C300.838 95.56 301.07 96.401 301.592 96.285Z" fill="#98A0AD"/>
<path d="M309.075 106.348C310.931 105.855 312.787 105.797 314.672 106.203C315.223 106.319 315.455 105.478 314.904 105.362C312.874 104.927 310.873 104.956 308.843 105.507C308.321 105.652 308.524 106.493 309.075 106.348Z" fill="#98A0AD"/>
<path d="M325.749 113.452C325.749 111.828 325.749 110.204 325.749 108.58C325.749 108.029 324.879 108.029 324.879 108.58C324.879 110.204 324.879 111.828 324.879 113.452C324.879 114.003 325.749 114.003 325.749 113.452Z" fill="#98A0AD"/>
<path d="M325.314 108.842C334.739 108.842 344.135 108.842 353.56 108.842C354.111 108.842 354.111 107.972 353.56 107.972C344.135 107.972 334.739 107.972 325.314 107.972C324.734 107.972 324.734 108.842 325.314 108.842Z" fill="#98A0AD"/>
<path d="M353.849 109.304C354.4 109.304 354.4 108.434 353.849 108.434C353.269 108.434 353.269 109.304 353.849 109.304Z" fill="#98A0AD"/>
<path d="M353.415 108.87C353.415 110.349 353.415 111.828 353.415 113.307C353.415 113.858 354.285 113.858 354.285 113.307C354.285 111.828 354.285 110.349 354.285 108.87C354.285 108.319 353.415 108.319 353.415 108.87Z" fill="#98A0AD"/>
<path d="M331.229 108.261C331.229 106.724 331.229 105.216 331.229 103.679C331.229 103.128 330.359 103.128 330.359 103.679C330.359 105.216 330.359 106.724 330.359 108.261C330.359 108.812 331.229 108.812 331.229 108.261Z" fill="#98A0AD"/>
<path d="M330.795 103.971C340.046 103.971 349.297 103.971 358.577 103.971C359.128 103.971 359.128 103.101 358.577 103.101C349.326 103.101 340.075 103.101 330.795 103.101C330.244 103.101 330.244 103.971 330.795 103.971Z" fill="#98A0AD"/>
<path d="M358.288 103.536C358.288 104.812 358.288 106.088 358.288 107.364C358.288 107.915 359.158 107.915 359.158 107.364C359.158 106.088 359.158 104.812 359.158 103.536C359.158 102.956 358.288 102.956 358.288 103.536Z" fill="#98A0AD"/>
<path d="M353.242 108.987C354.924 108.987 356.606 108.987 358.288 108.987C358.839 108.987 358.839 108.117 358.288 108.117C356.606 108.117 354.924 108.117 353.242 108.117C352.662 108.117 352.662 108.987 353.242 108.987Z" fill="#98A0AD"/>
<path d="M358.23 107.391C358.172 107.71 358.172 108 358.259 108.29C358.317 108.522 358.578 108.667 358.781 108.58C359.013 108.522 359.158 108.261 359.071 108.058C359.042 107.913 359.013 107.739 359.042 107.623C359.071 107.391 358.984 107.13 358.752 107.101C358.549 107.043 358.259 107.159 358.23 107.391Z" fill="#98A0AD"/>
<path d="M337.407 103.737C337.784 105.216 337.871 106.724 337.668 108.261C337.61 108.812 338.48 108.812 338.538 108.261C338.741 106.666 338.625 105.071 338.248 103.505C338.103 102.983 337.262 103.215 337.407 103.737Z" fill="#98A0AD"/>
<path d="M343.961 108.785C344.164 110.235 344.048 111.656 343.7 113.048C343.555 113.599 344.396 113.831 344.541 113.28C344.947 111.714 345.034 110.148 344.802 108.553C344.744 108.002 343.903 108.234 343.961 108.785Z" fill="#98A0AD"/>
<path d="M338.277 144.076C338.277 146.367 338.277 148.629 338.277 150.92C338.277 151.471 339.147 151.471 339.147 150.92C339.147 148.629 339.147 146.367 339.147 144.076C339.147 143.496 338.277 143.496 338.277 144.076Z" fill="#98A0AD"/>
<path d="M331.55 151.038C337.35 151.038 343.15 151.038 348.95 151.038C349.501 151.038 349.501 150.168 348.95 150.168C343.15 150.168 337.35 150.168 331.55 150.168C330.999 150.168 330.999 151.038 331.55 151.038Z" fill="#98A0AD"/>
<path d="M321.66 53.4797C321.66 58.6997 321.66 63.9486 321.66 69.1686C321.66 69.7196 322.53 69.7196 322.53 69.1686C322.53 63.9486 322.53 58.6997 322.53 53.4797C322.53 52.9287 321.66 52.9287 321.66 53.4797Z" fill="#98A0AD"/>
<path d="M322.762 53.452C329.374 53.452 335.957 53.452 342.569 53.452C343.12 53.452 343.12 52.582 342.569 52.582C335.957 52.582 329.374 52.582 322.762 52.582C322.211 52.582 322.211 53.452 322.762 53.452Z" fill="#98A0AD"/>
<path d="M342.598 53.3361C342.598 58.3821 342.598 63.4281 342.598 68.4451C342.598 68.9961 343.468 68.9961 343.468 68.4451C343.468 63.3991 343.468 58.3531 343.468 53.3361C343.468 52.7851 342.598 52.7851 342.598 53.3361Z" fill="#98A0AD"/>
<path d="M321.979 69.663C328.997 69.663 336.015 69.663 343.033 69.663C343.584 69.663 343.584 68.793 343.033 68.793C336.015 68.793 328.997 68.793 321.979 68.793C321.428 68.793 321.428 69.663 321.979 69.663Z" fill="#98A0AD"/>
<path d="M323.604 55.2804C323.604 59.2534 323.604 63.1974 323.604 67.1704C323.604 67.7214 324.474 67.7214 324.474 67.1704C324.474 63.1974 324.474 59.2534 324.474 55.2804C324.474 54.7294 323.604 54.7294 323.604 55.2804Z" fill="#98A0AD"/>
<path d="M324.241 55.6268C329.664 55.6268 335.116 55.6268 340.539 55.6268C341.09 55.6268 341.09 54.7568 340.539 54.7568C335.116 54.7568 329.664 54.7568 324.241 54.7568C323.69 54.7568 323.69 55.6268 324.241 55.6268Z" fill="#98A0AD"/>
<path d="M340.221 55.2804C340.221 58.9634 340.221 62.6174 340.221 66.3004C340.221 66.8514 341.091 66.8514 341.091 66.3004C341.091 62.6174 341.091 58.9634 341.091 55.2804C341.091 54.7294 340.221 54.7294 340.221 55.2804Z" fill="#98A0AD"/>
<path d="M324.241 67.6034C329.635 67.6034 335.029 67.6034 340.452 67.6034C341.003 67.6034 341.003 66.7334 340.452 66.7334C335.058 66.7334 329.664 66.7334 324.241 66.7334C323.69 66.7334 323.69 67.6034 324.241 67.6034Z" fill="#98A0AD"/>
<path d="M334.507 62.3857C332.216 60.6457 335.638 57.0207 337.233 59.1957C338.712 61.1677 336.305 63.5457 334.246 62.4437C333.753 62.1827 333.318 62.9367 333.811 63.1977C335.145 63.9227 336.914 63.7197 337.871 62.4727C338.857 61.2257 338.741 59.2537 337.494 58.2097C336.189 57.1367 334.333 57.8617 333.434 59.0797C332.477 60.4137 332.767 62.1537 334.072 63.1397C334.536 63.4587 334.942 62.7047 334.507 62.3857Z" fill="#98A0AD"/>
<path d="M331.752 66.6759C331.636 64.3849 334.449 63.5149 336.218 63.5149C338.393 63.5149 339.089 65.4579 339.988 67.1109C340.249 67.6039 341.003 67.1689 340.742 66.6759C340.133 65.5739 339.553 64.1239 338.538 63.3119C337.61 62.5869 336.45 62.6159 335.348 62.7319C333.318 62.9639 330.737 64.2109 330.882 66.6759C330.911 67.2269 331.781 67.2269 331.752 66.6759Z" fill="#98A0AD"/>
<path d="M324.618 64.5887C325.256 63.3997 327.605 63.8637 328.475 64.3277C329.374 64.8207 329.896 65.6327 330.128 66.6187C330.244 67.1697 331.085 66.9377 330.969 66.3867C330.621 64.8787 329.577 63.6897 328.069 63.1967C326.793 62.7907 324.618 62.7617 323.893 64.1247C323.603 64.6467 324.357 65.0817 324.618 64.5887Z" fill="#98A0AD"/>
<path d="M326.301 62.4418C325.344 62.4128 325.576 60.9919 325.982 60.4989C326.504 59.8609 327.548 59.7738 328.157 60.3828C328.65 60.8468 328.795 61.7168 328.389 62.2678C328.099 62.6738 327.664 62.7608 327.2 62.7608C327.026 62.7608 326.301 62.7898 326.185 62.6448C325.866 62.1808 325.112 62.6158 325.431 63.0798C325.779 63.6018 326.504 63.6308 327.084 63.6308C327.78 63.6598 328.447 63.4859 328.94 62.9639C329.868 61.9489 329.549 60.2379 328.447 59.4839C327.258 58.7009 325.605 59.1358 324.996 60.4118C324.474 61.5428 324.851 63.2538 326.301 63.2828C326.881 63.3408 326.881 62.4708 326.301 62.4418Z" fill="#98A0AD"/>
<path d="M148.822 130.563C150.185 131.665 151.867 131.201 153.143 130.128C154.941 128.649 155.84 126.126 156.188 123.893C157.087 118.209 154.796 112.815 153.897 107.305C152.273 97.0675 156.739 86.1055 165.033 79.9575C169.064 76.9415 175.705 73.7225 174.139 67.5455C173.994 66.9945 173.153 67.2265 173.298 67.7775C174.777 73.6645 167.933 76.6515 164.192 79.4935C160.828 82.0745 158.102 85.4095 156.159 89.1505C154.245 92.7755 153.085 96.8065 152.766 100.896C152.389 105.855 153.694 110.466 154.767 115.251C155.405 118.151 155.811 121.196 155.26 124.154C154.999 125.517 154.535 126.851 153.81 128.04C152.998 129.316 151.055 131.288 149.431 129.983C149.025 129.606 148.387 130.215 148.822 130.563Z" fill="#98A0AD"/>
<path d="M173.819 67.1984C170.542 67.3434 167.671 64.7914 167.845 61.4274C168.019 57.9184 172.166 54.6704 175.675 55.5984C178.807 56.4394 181.214 59.8904 180.431 63.1094C179.648 66.3284 176.023 67.0244 173.239 67.4884C172.688 67.5754 172.92 68.4164 173.471 68.3294C177.067 67.7494 181.243 66.4734 181.475 62.1234C181.649 58.5854 178.488 54.7574 174.863 54.6124C171.035 54.4384 167.178 57.5704 166.975 61.4564C166.801 65.2844 170.078 68.2424 173.819 68.0974C174.37 68.0394 174.37 67.1694 173.819 67.1984Z" fill="#98A0AD"/>
<path d="M169.527 64.936C170.919 61.427 178.343 60.847 179.213 65.023C179.329 65.574 180.17 65.342 180.054 64.791C178.981 59.687 170.368 60.441 168.686 64.704C168.483 65.226 169.324 65.429 169.527 64.936Z" fill="#98A0AD"/>
<path d="M173.877 61.0195C173.268 60.5845 173.036 59.7435 173.442 59.1055C173.906 58.3225 174.892 58.2355 175.646 58.6415C176.226 58.9605 176.342 59.6855 175.994 60.2365C175.559 60.9035 174.631 60.9905 173.906 60.8165C173.355 60.7005 173.123 61.5415 173.674 61.6575C174.834 61.9185 176.226 61.6575 176.806 60.5265C177.328 59.5115 176.951 58.2935 175.907 57.8005C174.747 57.2785 173.355 57.5105 172.688 58.6415C172.021 59.7145 172.456 61.0485 173.442 61.7445C173.906 62.1215 174.341 61.3675 173.877 61.0195Z" fill="#98A0AD"/>
<path d="M186.173 52.0876C189.218 44.0256 197.976 39.9076 206.125 39.3566C211.519 38.9796 216.913 39.8206 222.191 40.8356C227.179 41.8216 232.37 43.3876 237.474 43.2136C241.679 43.0686 246 41.3286 247.972 37.4136C248.233 36.9206 247.479 36.4856 247.218 36.9786C244.927 41.5026 239.649 42.6626 234.98 42.2856C229.528 41.8506 224.163 40.2266 218.798 39.3276C210.098 37.8776 200.818 37.6746 193.075 42.5756C189.566 44.8086 186.782 47.9406 185.303 51.8556C185.129 52.3776 185.97 52.6096 186.173 52.0876Z" fill="#98A0AD"/>
<path d="M251.48 36.9208C259.136 36.9208 266.821 36.9208 274.477 36.9208C275.028 36.9208 275.028 36.0508 274.477 36.0508C266.821 36.0508 259.136 36.0508 251.48 36.0508C250.9 36.0508 250.9 36.9208 251.48 36.9208Z" fill="#98A0AD"/>
<path d="M251.161 35.9928C249.798 34.6588 251.277 32.3968 252.35 31.3818C253.655 30.1058 255.453 29.6128 257.193 30.3088C257.338 30.3668 257.628 30.2798 257.686 30.1058C258.73 27.6698 261.195 25.9008 263.892 26.0168C266.705 26.1328 269.083 28.2498 269.779 30.9178C269.837 31.1788 270.185 31.3238 270.417 31.1788C271.693 30.3958 272.998 31.3238 273.52 32.5128C273.984 33.6148 273.868 34.8618 273.752 36.0508C273.694 36.6018 274.564 36.6018 274.622 36.0508C274.796 34.3108 274.912 32.2518 273.52 30.9178C272.534 29.9898 271.171 29.6998 270.011 30.4248C270.214 30.5118 270.446 30.5988 270.649 30.6858C269.866 27.7858 267.372 25.4658 264.327 25.1758C261.195 24.8568 258.179 26.7998 256.961 29.6708C257.135 29.6128 257.28 29.5258 257.454 29.4678C255.134 28.5398 252.698 29.5258 251.19 31.4398C250.059 32.8608 249.073 35.1518 250.61 36.6308C250.958 37.0078 251.567 36.3988 251.161 35.9928Z" fill="#98A0AD"/>
<path d="M267.663 40.2561C271.23 39.8501 273.318 43.5911 273.869 46.6071C274.449 49.7101 273.898 52.8131 273.579 55.9161C273.086 60.5851 273.405 66.2111 277.842 68.9371C278.306 69.2271 278.77 68.4731 278.277 68.1831C272.216 64.4711 274.739 56.2061 274.971 50.5221C275.145 46.2011 273.434 38.7481 267.663 39.3861C267.112 39.4441 267.112 40.3141 267.663 40.2561Z" fill="#98A0AD"/>
<path d="M282.655 64.0356C280.045 70.6186 277.464 77.2016 274.854 83.7556C274.651 84.2776 275.492 84.5096 275.695 83.9876C278.305 77.4046 280.886 70.8216 283.496 64.2676C283.699 63.7456 282.858 63.5426 282.655 64.0356Z" fill="#98A0AD"/>
<path d="M283.062 64.5865C287.586 64.3545 292.081 64.4705 296.576 64.9925C296.431 64.8185 296.286 64.6155 296.17 64.4415C294.024 71.3145 292.284 78.2745 290.892 85.3215C290.776 85.8725 291.617 86.1045 291.733 85.5535C293.125 78.5065 294.894 71.5465 297.011 64.6735C297.098 64.3835 296.866 64.1515 296.605 64.1225C292.11 63.6005 287.615 63.4845 283.091 63.7165C282.511 63.7455 282.511 64.6155 283.062 64.5865Z" fill="#98A0AD"/>
<path d="M275.058 84.5938C277.726 84.7098 280.365 84.8548 283.033 85.0288C285.614 85.1738 288.369 85.1158 290.805 86.1018C291.327 86.3048 291.559 85.4638 291.037 85.2608C288.717 84.3038 286.078 84.3618 283.613 84.2168C280.771 84.0428 277.929 83.8978 275.058 83.7528C274.507 83.6948 274.507 84.5648 275.058 84.5938Z" fill="#98A0AD"/>
<path d="M283.468 67.4849C286.252 67.5429 289.036 67.7459 291.791 68.1229C292.342 68.2099 292.574 67.3689 292.023 67.2819C289.181 66.8759 286.339 66.6439 283.468 66.5859C282.888 66.5859 282.888 67.4559 283.468 67.4849Z" fill="#98A0AD"/>
<path d="M282.627 69.4578C284.193 69.3998 285.759 69.4287 287.325 69.5737C287.876 69.6317 287.876 68.7617 287.325 68.7038C285.759 68.5588 284.193 68.5008 282.627 68.5878C282.076 68.6168 282.076 69.4868 282.627 69.4578Z" fill="#98A0AD"/>
<path d="M280.712 73.3742C284.047 73.1712 287.208 72.8812 290.485 73.6932C291.036 73.8382 291.268 72.9972 290.717 72.8522C287.353 72.0402 284.134 72.3012 280.712 72.5042C280.132 72.5332 280.132 73.4032 280.712 73.3742Z" fill="#98A0AD"/>
<path d="M280.858 75.9246C282.772 75.7796 284.686 75.7796 286.6 75.9536C287.151 76.0116 287.151 75.1416 286.6 75.0836C284.686 74.9096 282.772 74.9096 280.858 75.0546C280.307 75.1126 280.278 75.9826 280.858 75.9246Z" fill="#98A0AD"/>
<path d="M279.349 79.289C281.959 79.115 284.511 79.202 287.092 79.55C287.643 79.637 287.643 78.767 287.092 78.68C284.511 78.332 281.93 78.245 279.349 78.419C278.798 78.448 278.798 79.318 279.349 79.289Z" fill="#98A0AD"/>
<path d="M135.046 40.373C136.206 41.939 137.888 42.577 139.599 43.36C141.629 44.288 143.485 45.535 144.993 47.188C148.415 50.871 149.546 55.83 149.633 60.731C149.836 69.924 146.733 79.552 150.909 88.252C151.141 88.745 151.895 88.31 151.663 87.817C147.284 78.653 151.17 68.387 150.416 58.759C150.097 54.583 148.908 50.494 146.211 47.246C144.935 45.709 143.369 44.375 141.629 43.389C139.686 42.287 137.163 41.794 135.8 39.938C135.481 39.503 134.727 39.938 135.046 40.373Z" fill="#98A0AD"/>
<path d="M125.128 28.1036C124.374 27.1466 124.432 26.4796 125.302 26.1026C125.679 25.8996 126.056 25.7546 126.491 25.6676C127.042 25.5516 127.651 25.5226 128.231 25.5516C129.971 25.6386 131.74 26.1026 131.653 28.2196C131.566 30.7136 131.102 33.1786 130.493 35.5856C129.855 38.0506 129.072 40.4576 128.231 42.8646C128.057 43.3866 127.912 43.9956 127.651 44.4886C127.129 45.3876 126.317 45.3586 125.447 45.3586C124.374 45.3586 123.011 45.5036 121.967 45.2136C120.807 44.8946 120.546 43.7346 121.677 42.9806C122.199 42.6326 122.924 42.5746 123.533 42.5746C124.316 42.5746 125.012 42.7486 125.679 42.2266C126.955 41.2406 127.158 38.5726 127.448 37.1516C127.883 35.0926 128.608 32.5696 128.463 30.4816C128.347 28.8866 126.781 28.8286 125.65 28.1616C125.157 27.8716 124.722 28.6256 125.215 28.9156C126.114 29.4376 127.419 29.4956 127.593 30.6846C127.796 32.0766 127.216 33.9616 126.955 35.3536C126.694 36.6876 126.404 38.0216 126.056 39.3266C125.795 40.3126 125.679 41.5016 124.374 41.7626C123.852 41.8786 123.214 41.7046 122.663 41.7916C121.271 41.9946 119.908 42.9806 120.111 44.5466C120.372 46.5186 122.721 46.1706 124.171 46.2286C125.969 46.2866 127.767 46.5476 128.579 44.6336C129.594 42.2556 130.319 39.6456 131.015 37.1806C131.74 34.6286 132.291 31.9896 132.494 29.3506C132.668 27.2916 132.755 25.6386 130.464 25.0876C128.463 24.5946 125.708 24.3626 124.142 25.9866C123.098 27.0596 123.359 29.1766 125.157 29.0316C125.679 28.9156 125.679 28.0456 125.128 28.1036Z" fill="#98A0AD"/>
<path d="M121.62 31.2096C121.591 31.1806 121.562 31.1516 121.533 31.1226C121.417 31.0066 121.243 30.9776 121.098 31.0066C120.257 31.2966 119.938 32.6596 119.706 33.4136C119.3 34.8055 119.213 36.2265 119.416 37.6765C119.474 38.2275 120.344 38.2275 120.286 37.6765C120.17 36.6615 120.141 35.6755 120.315 34.6606C120.402 34.1386 121.301 32.1086 120.982 31.8186C121.388 32.2246 121.997 31.6156 121.62 31.2096Z" fill="#98A0AD"/>
<path d="M118.689 28.0168C116.021 31.4098 114.31 35.4988 115.441 39.8488C115.586 40.3998 116.427 40.1678 116.282 39.6168C115.238 35.6148 116.862 31.7578 119.298 28.6258C119.646 28.1908 119.037 27.5818 118.689 28.0168Z" fill="#98A0AD"/>
<path d="M115.036 24.1021C110.599 29.9311 108.511 37.2971 109.265 44.6051C109.323 45.1561 110.193 45.1561 110.135 44.6051C109.41 37.4421 111.411 30.2791 115.79 24.5371C116.109 24.1021 115.355 23.6671 115.036 24.1021Z" fill="#98A0AD"/>
<path d="M108.86 53.7392C106.627 54.8122 104.539 56.2912 102.886 58.1472C101.204 60.0612 100.682 62.1202 100.421 64.6142C99.8408 70.3272 97.7238 76.5912 91.9817 78.9982C91.4597 79.2012 91.6917 80.0422 92.2137 79.8392C96.7958 77.9252 99.4638 73.5752 100.595 68.8772C101.262 66.0642 100.943 62.7292 102.422 60.2062C103.93 57.6252 106.656 55.7402 109.295 54.4642C109.817 54.2612 109.382 53.5072 108.86 53.7392Z" fill="#98A0AD"/>
<path d="M79.7137 94.3994C77.7997 94.4574 75.6247 93.6454 74.9287 91.6734C74.1167 89.3534 75.8567 87.0914 77.7127 85.9024C81.3087 83.5824 86.1517 82.6834 90.3277 82.6254C92.4447 82.5964 94.8517 82.6254 96.7077 83.7564C99.0857 85.2064 99.4917 87.9324 97.6357 89.9914C94.8227 93.1234 89.9797 93.4424 86.0937 93.7324C85.5427 93.7614 85.5427 94.6314 86.0937 94.6024C89.9797 94.3124 94.3297 93.9644 97.4617 91.3544C100.333 88.9764 100.536 85.0324 97.1717 82.9734C93.6917 80.8564 88.3847 81.5524 84.6147 82.3644C80.9897 83.1474 76.0307 84.5684 74.4067 88.3094C72.7247 92.1374 75.9437 95.3274 79.7717 95.2114C80.2937 95.2404 80.2937 94.3704 79.7137 94.3994Z" fill="#98A0AD"/>
<path d="M79.5676 94.7474C78.8426 95.9074 78.1466 97.0674 77.4216 98.1984C77.1896 98.5754 77.6536 98.9814 78.0306 98.8074C79.7996 97.8504 81.7136 97.2414 83.5116 96.4004C84.4976 95.9654 85.4546 95.4434 86.3826 94.8634C86.7016 94.6604 87.0786 94.5444 87.1656 94.1384C87.2236 93.9354 87.1076 93.6454 86.8756 93.6164C86.8466 93.6164 86.8176 93.6164 86.7886 93.5874C86.5856 93.5584 86.2956 93.6454 86.2666 93.8774C86.2666 93.9064 86.2666 93.9064 86.2666 93.9354C86.1506 94.4864 86.9916 94.7184 87.1076 94.1674C87.1076 94.1384 87.1076 94.1384 87.1076 94.1094C86.9336 94.1964 86.7596 94.3124 86.5856 94.3994C86.6146 94.3994 86.6436 94.3994 86.6726 94.4284C86.5856 94.2544 86.4696 94.0804 86.3826 93.9064C86.2956 94.1964 84.6716 94.8634 84.3236 95.0664C83.4536 95.5304 82.5546 95.9074 81.6266 96.2844C80.2636 96.8354 78.9296 97.3574 77.6536 98.0534C77.8566 98.2564 78.0596 98.4594 78.2626 98.6624C78.9876 97.5024 79.6836 96.3424 80.4086 95.2114C80.6116 94.7184 79.8576 94.2834 79.5676 94.7474Z" fill="#98A0AD"/>
<path d="M80.5258 89.7291C80.4968 89.6711 80.4968 89.5551 80.5838 89.5551C80.8158 89.5551 80.5548 89.8451 80.5258 89.8741C80.3808 89.9611 79.8878 90.0771 79.9168 89.7871C79.9458 89.4391 80.6128 89.0621 80.7288 89.5841C80.7578 89.7291 80.6418 89.9031 80.4968 89.9321C80.4098 89.9611 80.3518 89.9611 80.2938 89.9031C80.2648 89.8741 80.2068 89.8451 80.2648 89.8451C80.8158 89.8741 80.8158 89.0041 80.2648 88.9751C79.6848 88.9171 79.2498 89.5261 79.3948 90.0771C79.5398 90.6281 80.1778 90.9181 80.6998 90.7731C81.2218 90.6281 81.6278 90.1641 81.6278 89.6131C81.6278 89.0621 81.1928 88.5981 80.6998 88.4821C79.6268 88.2211 78.4958 89.7871 79.4238 90.5701C80.1778 91.2081 81.6858 90.6281 81.5988 89.5551C81.5408 88.9751 80.9028 88.5111 80.3228 88.7141C79.7428 88.9171 79.5108 89.6421 79.8008 90.1641C80.0328 90.6571 80.7868 90.2221 80.5258 89.7291Z" fill="#98A0AD"/>
<path d="M86.9345 88.9458C86.9055 88.7718 86.8186 88.5398 86.9926 88.3948C87.0796 88.3078 87.2245 88.3078 87.3405 88.3078C87.6305 88.3658 87.5725 88.6848 87.3695 88.8298C87.2535 88.9168 87.1375 88.9168 87.0505 88.8008C86.9635 88.6848 86.9925 88.6558 87.0795 88.5978C87.1375 88.5688 86.9635 88.5978 87.1085 88.5688C87.4565 88.5108 86.8765 88.9168 86.9635 88.6268C86.7895 89.1778 87.6305 89.3808 87.8045 88.8588C87.9495 88.3368 87.4565 87.8148 86.9345 87.9018C86.3255 88.0178 86.1806 88.7428 86.5576 89.1778C86.9056 89.5838 87.5435 89.4968 87.8045 89.0328C88.0655 88.5688 87.8915 87.9598 87.3695 87.7858C86.8475 87.6118 86.2675 87.9308 86.1515 88.4528C86.0065 89.0328 86.4126 89.6128 86.9926 89.7578C88.0366 89.9898 88.9066 88.5688 88.1526 87.7858C87.7756 87.4088 87.1666 87.3798 86.7026 87.5828C86.0646 87.9018 86.0355 88.5688 86.1515 89.1778C86.1805 89.7288 87.0215 89.4968 86.9345 88.9458Z" fill="#98A0AD"/>
<path d="M93.3721 87.0033C93.4881 87.0033 93.6041 87.0323 93.7491 87.0323V87.0033C93.7781 86.9743 93.7781 86.9163 93.8071 86.8873C93.8361 86.8293 93.9231 86.7713 93.9811 86.7423C94.1261 86.6843 94.2711 86.6843 94.3581 86.8293C94.4741 87.0613 94.2711 87.4963 93.9811 87.3223C93.8071 87.2063 93.7781 86.9163 94.0391 86.9743C94.0971 86.9743 94.1261 87.0033 94.1551 87.0323C94.1551 87.0323 94.1551 87.0903 94.1551 87.0323C94.1551 86.9743 94.1551 87.0613 94.1261 87.0613C94.0391 87.1193 94.0101 87.1773 93.9231 87.1193C93.7201 86.9743 93.4301 87.0903 93.3141 87.2643C93.1981 87.4963 93.2851 87.7283 93.4591 87.8733C94.3001 88.4823 95.4311 87.2643 94.7641 86.4523C94.1551 85.7273 92.8501 86.1913 92.9081 87.1483C92.9371 87.6413 93.3141 88.0763 93.7781 88.1923C94.2421 88.3083 94.7351 88.0763 94.9961 87.6703C95.5761 86.7713 94.7641 85.5243 93.6911 85.8723C93.1981 86.0463 92.7631 86.5393 92.8211 87.0903C92.8791 87.6993 93.7491 88.0183 94.0681 87.4093C94.3581 86.9453 93.6331 86.5103 93.3721 87.0033Z" fill="#98A0AD"/>
<path d="M110.89 61.7126C114.457 59.7406 117.56 57.1306 120.141 53.9696C120.489 53.5346 119.88 52.9256 119.532 53.3606C117.009 56.4636 113.964 59.0156 110.455 60.9586C109.962 61.2196 110.397 61.9736 110.89 61.7126Z" fill="#98A0AD"/>
<path d="M154.272 62.4713C153.634 66.1253 153.373 69.8083 153.547 73.5203C153.576 74.0713 154.446 74.0713 154.417 73.5203C154.243 69.8953 154.475 66.2703 155.113 62.7033C155.2 62.1523 154.359 61.9203 154.272 62.4713Z" fill="#98A0AD"/>
<path d="M149.836 147.235C149.836 142.798 151.924 138.593 155.491 135.925C155.926 135.606 155.491 134.852 155.056 135.171C151.228 138.013 148.995 142.45 148.995 147.235C148.966 147.786 149.836 147.786 149.836 147.235Z" fill="#98A0AD"/>
<path d="M198.41 264.336C198.874 268.512 199.599 273.094 200.759 278.053C202.325 284.752 204.326 290.61 206.327 295.54C205.776 296.033 204.123 297.338 201.687 297.512C200.15 297.628 198.932 297.251 198.236 296.99C197.192 293.365 196.177 289.595 195.249 285.68C193.335 277.618 191.943 269.933 190.928 262.77C193.451 263.292 195.945 263.814 198.41 264.336Z" fill="#030235"/>
<path d="M263.514 261.611C263.137 265.758 262.499 270.369 261.426 275.328C259.918 282.346 257.917 288.436 255.887 293.569C256.177 293.83 257.83 295.396 260.382 295.28C262.586 295.193 264.007 293.888 264.355 293.569C265.022 290.06 265.66 286.522 266.298 282.984C267.69 275.241 268.937 267.614 270.126 260.074C267.922 260.567 265.718 261.089 263.514 261.611Z" fill="#030235"/>
<path d="M211.663 250.042C212.33 254.479 213.113 259.061 214.012 263.759C215.317 270.574 216.796 277.07 218.362 283.218C217.695 283.624 216.361 284.291 214.534 284.407C212.997 284.494 211.779 284.146 211.083 283.885C210.213 279.767 209.372 275.591 208.531 271.415C206.994 263.672 205.573 256.045 204.21 248.505C206.704 248.998 209.169 249.52 211.663 250.042Z" fill="#030235"/>
<path d="M252.582 249.174C251.799 253.553 251.103 258.135 250.494 262.891C249.653 269.445 249.073 275.709 248.725 281.683C249.218 282.002 250.378 282.669 252.031 282.756C253.8 282.814 255.105 282.118 255.598 281.828C255.308 278.406 255.192 274.607 255.366 270.547C255.714 261.528 257.367 253.756 259.194 247.637C256.99 248.13 254.786 248.652 252.582 249.174Z" fill="#030235"/>
<path d="M304.115 152.137C309.19 161.185 305.275 171.19 295.763 196.043C291.181 207.991 282.8 229.944 270.968 261.235C259.339 265.469 240.083 270.689 216.274 269.036C202.441 268.079 190.841 265.092 182.054 262.018C180.749 259.669 176.225 250.882 179.618 242.356C181.503 237.629 185.302 234.236 193.364 230.234C201.31 226.29 215.317 220.751 235.675 219.736C227.7 180.035 241.359 147.497 262.616 139.986C276.565 135.085 297.126 139.696 304.115 152.137Z" fill="white" stroke="#030235" stroke-miterlimit="10"/>
<path d="M302.257 155.415C293.847 166.058 291.934 180.355 288.715 193.144C285.264 206.832 281.29 220.491 275.345 233.338C272.069 240.385 268.212 247.171 263.601 253.435C263.282 253.899 264.036 254.334 264.355 253.87C272.446 242.85 278.159 230.351 282.566 217.475C287.032 204.367 289.99 190.853 293.47 177.484C295.442 169.886 297.965 162.288 302.895 156.053C303.214 155.589 302.605 154.98 302.257 155.415Z" fill="#030235"/>
<path d="M182.228 255.725C201.571 262.83 222.654 264.918 243.012 261.757C248.841 260.858 254.612 259.524 260.267 257.784C260.789 257.61 260.586 256.769 260.035 256.943C240.315 263.033 219.145 263.961 198.961 259.669C193.364 258.48 187.825 256.856 182.46 254.884C181.938 254.681 181.706 255.522 182.228 255.725Z" fill="#030235"/>
<path d="M250.32 232.931C255.192 234.526 259.339 237.745 262.123 242.095C262.413 242.559 263.167 242.124 262.877 241.66C259.977 237.136 255.656 233.772 250.552 232.09C250.001 231.916 249.769 232.757 250.32 232.931Z" fill="#030235"/>
<path d="M170.438 280.686C168.241 277.349 166.018 273.985 163.793 270.646C167.472 268.375 171.173 266.106 174.875 263.887C177.414 266.852 180.073 270.461 182.491 274.712L182.491 274.712C184.309 277.908 185.652 280.945 186.673 283.674C183.732 285.735 179.421 288.552 173.766 291.449L173.764 291.45C172.954 291.869 168.61 294.103 164.197 296.002C161.988 296.953 159.778 297.813 157.993 298.322C157.098 298.576 156.33 298.737 155.733 298.782C155.102 298.83 154.794 298.737 154.681 298.644C154.646 298.614 154.498 298.475 154.724 297.863C154.951 297.246 155.51 296.318 156.599 294.962C158.769 292.262 162.934 288 170.355 281.333L170.675 281.046L170.438 280.686Z" stroke="#030235"/>
<path d="M249.858 202.137C250.902 204.399 252.004 207.618 252.178 211.504C252.439 217.362 250.525 222.031 249.075 224.728C248.292 225.743 246.9 227.425 244.841 229.252C244.841 229.252 240.172 233.37 232.748 236.531C225.179 239.779 203.168 243.694 173.269 244.448C174.139 248.16 175.705 252.713 178.489 257.614C180.026 260.311 181.708 262.689 183.361 264.748C182.259 266.198 179.127 269.881 172.892 272.201C166.889 274.434 161.379 274.173 159.204 273.999C156.072 271.128 152.853 267.706 149.866 263.617C141.079 251.524 139.02 239.837 138.643 232.326C140.818 230.76 144.008 228.614 148.184 226.323C156.884 221.538 164.859 218.928 171.413 216.985C182.694 213.679 193.482 211.388 218.306 207.183C226.078 205.878 236.837 204.08 249.858 202.137Z" fill="#030235" stroke="#030235" stroke-miterlimit="10"/>
<path opacity="0.19" d="M222.308 207.126C221.467 212.665 219.089 219.857 211.723 224.323C204.56 228.673 198.557 226.904 184.202 230.384C173.878 232.878 160.219 236.184 156.42 243.521C152.447 251.235 159.958 262.11 173.095 271.042C174.197 270.897 175.589 270.607 177.068 270.027C180.867 268.519 182.723 266.054 183.419 264.981C181.737 262.951 179.997 260.602 178.402 257.905C175.386 252.859 173.762 248.161 172.834 244.362C188.204 243.724 201.109 242.39 210.911 241.114C222.714 239.577 230.892 238.04 238.693 233.632C245.218 229.949 247.828 226.324 248.756 224.932C251.569 220.669 251.801 216.783 251.917 214.608C252.207 209.301 250.467 204.98 249.017 202.254C240.114 203.878 231.211 205.502 222.308 207.126Z" fill="#6B6E85"/>
<path opacity="0.19" d="M249.307 202.863C248.727 208.257 246.668 216.783 238.461 223.511C233.415 227.658 227.992 229.514 206.706 235.256C197.31 237.779 185.942 240.766 173.008 244.014C189.451 243.84 202.82 242.477 212.419 241.172C222.366 239.809 227.238 238.62 232.284 236.445C237.069 234.386 246.726 230.21 250.67 221.423C254.469 212.897 250.641 205.241 249.307 202.863Z" fill="#6B6E85"/>
<path opacity="0.22" d="M173.095 244.449C172.979 248.277 173.153 252.656 173.878 257.47C174.574 262.226 175.705 266.489 176.923 270.201C177.909 269.621 179.04 268.838 180.142 267.881C181.476 266.721 182.462 265.619 183.187 264.662C181.505 262.458 179.794 259.906 178.199 257.035C175.618 252.395 174.081 248.103 173.095 244.449Z" fill="#6B6E85"/>
<path d="M178.81 300.627L179.026 300.373L178.875 300.077C178.137 298.619 177.401 297.164 176.667 295.711C175.242 292.893 173.821 290.082 172.39 287.272C173.97 286.006 175.556 284.739 177.146 283.469C179.127 281.887 181.112 280.301 183.096 278.709C185.519 282.457 188.084 286.977 190.382 292.294L190.383 292.295C192.177 296.416 193.481 300.293 194.48 303.768C191.652 306.352 187.458 309.923 181.979 313.604C181.944 313.628 181.901 313.656 181.853 313.689C180.817 314.38 176.828 317.045 172.779 319.326C170.655 320.522 168.536 321.602 166.827 322.237C165.969 322.556 165.243 322.753 164.685 322.807C164.1 322.863 163.845 322.75 163.748 322.644L163.745 322.641C163.662 322.551 163.519 322.267 163.752 321.441C163.979 320.637 164.528 319.456 165.576 317.755C167.669 314.359 171.68 309.004 178.81 300.627Z" stroke="#030235"/>
<path d="M255.164 201.238C256.179 204.109 257.223 208.111 257.397 213.012C257.658 220.378 255.802 226.236 254.41 229.629C253.656 230.905 252.322 233.022 250.35 235.342C250.35 235.342 245.884 240.533 238.75 244.506C231.471 248.566 210.301 253.525 181.591 254.453C182.432 259.122 183.911 264.835 186.608 270.983C188.087 274.376 189.711 277.363 191.306 279.944C190.262 281.771 187.246 286.382 181.243 289.311C175.472 292.124 170.194 291.805 168.077 291.544C165.061 287.948 161.958 283.627 159.116 278.494C150.648 263.298 148.676 248.595 148.328 239.17C150.416 237.227 153.49 234.501 157.492 231.63C165.873 225.627 173.5 222.321 179.822 219.885C190.639 215.738 201.05 212.867 224.917 207.56C232.283 205.907 242.665 203.674 255.164 201.238Z" fill="#030235" stroke="#030235" stroke-miterlimit="10"/>
<path opacity="0.1" d="M228.686 207.5C227.874 214.46 225.583 223.479 218.507 229.105C211.634 234.586 205.834 232.353 192.059 236.732C182.141 239.864 169.004 244.04 165.35 253.262C161.522 262.948 168.743 276.636 181.358 287.83C182.431 287.656 183.765 287.279 185.186 286.554C188.84 284.669 190.609 281.566 191.276 280.203C189.652 277.651 187.97 274.693 186.433 271.3C183.533 264.949 181.967 259.062 181.097 254.277C195.887 253.465 208.27 251.812 217.724 250.217C229.092 248.303 236.922 246.36 244.433 240.821C250.697 236.181 253.22 231.628 254.09 229.888C256.787 224.523 257.019 219.651 257.135 216.925C257.396 210.255 255.743 204.832 254.351 201.41C245.796 203.411 237.241 205.441 228.686 207.5Z" fill="#6B6E85"/>
<path opacity="0.1" d="M254.614 202.137C254.063 208.894 252.091 219.624 244.203 228.092C239.331 233.312 234.14 235.632 213.695 242.853C204.647 246.043 193.743 249.784 181.302 253.873C197.107 253.641 209.983 251.959 219.205 250.306C228.775 248.595 233.473 247.116 238.287 244.39C242.898 241.78 252.149 236.56 255.977 225.482C259.602 214.752 255.919 205.153 254.614 202.137Z" fill="#6B6E85"/>
<path opacity="0.22" d="M181.388 254.426C181.272 259.24 181.446 264.75 182.142 270.782C182.838 276.785 183.882 282.121 185.071 286.761C186.028 286.007 187.101 285.05 188.174 283.832C189.45 282.382 190.407 280.99 191.103 279.801C189.479 277.017 187.826 273.827 186.318 270.202C183.824 264.402 182.316 258.979 181.388 254.426Z" fill="#6B6E85"/>
<path d="M170.107 156.172C169.556 155.911 168.454 155.418 168.483 154.867C168.541 153.968 171.528 153.359 173.761 153.388C175.269 153.388 178.053 153.707 181.301 155.969C178.256 156.926 173.761 157.796 170.107 156.172Z" fill="white" stroke="#030235" stroke-miterlimit="10"/>
<path d="M239.852 118.557C234.342 117.832 229.383 126.097 228.919 126.851C227.237 129.722 227.034 131.636 225.874 136.885C223.061 149.674 221.553 156.17 217.377 160.085C213.607 163.594 209.199 164.435 208.039 164.609C203.08 165.392 198.585 163.536 189.827 159.795C182.432 156.634 181.533 155.474 177.502 155.01C175.443 154.778 169.44 154.111 165.467 157.968C162.915 160.433 161.784 164.377 162.712 165.189C163.901 166.233 168.773 162.55 168.831 162.637C168.86 162.695 167.381 163.391 166.163 164.899C165.554 165.624 164.51 167.19 164.887 167.596C165.554 168.408 169.643 163.478 174.138 164.348C177.212 164.928 177.792 167.712 181.359 168.234C183.447 168.553 185.274 167.915 186.434 167.364C188.464 169.568 191.77 172.7 196.555 175.252C199.397 176.76 209.431 181.951 221.698 178.935C234.719 175.745 241.273 165.566 243.332 162.376C244.492 160.549 253.018 146.919 248.9 131.636C248.175 129.171 245.536 119.311 239.852 118.557Z" fill="white" stroke="#030235" stroke-miterlimit="10"/>
<path opacity="0.25" d="M239.271 118.646C237.386 119.632 241.04 126.476 240.576 136.278C240.141 145.703 236.11 152.663 234.312 155.853C231.876 160.116 228.657 165.684 222.248 169.309C213.635 174.181 202.963 173.456 195.365 170.15C193.103 169.164 190.812 165.974 185.824 164.031C183.649 163.19 181.938 162.842 179.937 162.436C175.036 161.479 170.686 160.609 166.655 162.639C164.741 163.625 163.146 165.133 163.262 165.336C163.378 165.539 165.611 164.408 167.583 163.335C165.205 166.496 164.828 167.395 165.002 167.569C165.205 167.743 165.93 167.076 167.786 166.032C169.787 164.93 171.237 164.147 173.006 164.292C173.905 164.379 174.601 164.669 175.007 164.843C176.602 165.539 176.979 166.351 178.574 167.163C179.56 167.656 180.372 167.859 180.807 167.946C181.735 168.149 183.649 168.41 186.172 167.511C188.376 169.831 198.497 180.097 213.316 179.894C220.943 179.778 226.54 176.936 228.744 175.805C240.837 169.512 245.651 158.347 246.869 155.273C250.639 145.761 251.973 131.667 245.071 122.822C243.418 120.676 240.576 117.979 239.271 118.646Z" fill="#6B6E85"/>
<path d="M163.235 165.188C164.366 163.506 165.845 162.172 167.614 161.215C167.991 161.012 167.643 160.461 167.295 160.664C165.439 161.679 163.873 163.1 162.684 164.869C162.423 165.217 163.003 165.536 163.235 165.188Z" fill="#030235"/>
<path d="M163.582 161.447C164.713 159.678 166.54 158.75 168.367 157.851C168.744 157.677 168.425 157.097 168.048 157.3C166.105 158.228 164.191 159.243 163.002 161.128C162.799 161.476 163.35 161.795 163.582 161.447Z" fill="#030235"/>
<path opacity="0.29" d="M247.596 129.082C247.161 132.011 246.378 136.245 244.986 141.233C242.26 151.093 239.795 159.967 233.357 167.014C225.382 175.714 214.565 178.092 208.359 178.817C212.97 179.89 216.595 179.687 218.886 179.368C236.286 176.932 245.682 158.227 248.234 150.049C248.669 148.599 249.597 145.612 249.713 141.523C249.916 136.071 248.582 131.692 247.596 129.082Z" fill="#6B6E85"/>
<path opacity="0.26" d="M174.718 163.999C176.371 164.811 178.633 165.71 181.417 166.232C183.621 166.638 185.593 166.725 187.159 166.667C183.186 168.784 181.127 168.523 179.967 167.827C179.242 167.392 178.43 166.522 176.197 164.985C175.588 164.55 175.066 164.202 174.718 163.999Z" fill="#6B6E85"/>
<path d="M116.08 211.673C116.08 225.593 116.08 239.542 116.08 253.462C116.08 255.144 118.69 255.144 118.69 253.462C118.69 239.542 118.69 225.593 118.69 211.673C118.69 210.02 116.08 209.991 116.08 211.673Z" fill="#030235"/>
<path d="M163.525 211.125C163.525 213.358 163.525 215.591 163.525 217.824C163.525 219.506 166.135 219.506 166.135 217.824C166.135 215.591 166.135 213.358 166.135 211.125C166.135 209.443 163.525 209.443 163.525 211.125Z" fill="#030235"/>
<path d="M80.0625 209.964C94.1275 196.711 108.193 183.429 122.287 170.176C145.052 170.582 167.787 170.988 190.552 171.394C186.84 184.27 183.129 197.117 179.417 209.993C146.299 209.964 113.181 209.964 80.0625 209.964Z" fill="white" stroke="#030235" stroke-width="2" stroke-miterlimit="10"/>
<path d="M80.9038 211.473C106.337 211.473 131.741 211.473 157.174 211.473C164.308 211.473 171.413 211.473 178.547 211.473C180.229 211.473 180.229 208.863 178.547 208.863C153.114 208.863 127.71 208.863 102.277 208.863C95.1428 208.863 88.0378 208.863 80.9038 208.863C79.2218 208.863 79.2218 211.473 80.9038 211.473Z" fill="#030235"/>
<path d="M88.3574 211.035C88.3574 239.89 88.3574 268.745 88.3574 297.571C88.3574 305.662 88.3574 313.724 88.3574 321.815C88.3574 323.497 90.9674 323.497 90.9674 321.815C90.9674 292.96 90.9674 264.105 90.9674 235.279C90.9674 227.188 90.9674 219.126 90.9674 211.035C90.9674 209.353 88.3574 209.353 88.3574 211.035Z" fill="#030235"/>
<path d="M167.904 211.035C167.904 239.89 167.904 268.745 167.904 297.571C167.904 305.662 167.904 313.724 167.904 321.815C167.904 323.497 170.514 323.497 170.514 321.815C170.514 292.96 170.514 264.105 170.514 235.279C170.514 227.188 170.514 219.126 170.514 211.035C170.514 209.353 167.904 209.353 167.904 211.035Z" fill="#030235"/>
<path d="M89.6619 264.887C110.136 264.887 130.61 264.887 151.084 264.887C156.884 264.887 162.684 264.887 168.484 264.887C170.166 264.887 170.166 262.277 168.484 262.277C148.01 262.277 127.536 262.277 107.062 262.277C101.262 262.277 95.4619 262.277 89.6619 262.277C87.9799 262.277 87.9799 264.887 89.6619 264.887Z" fill="#030235"/>
<path d="M190.204 171.394C186.898 184.299 183.099 197.088 178.749 209.674C178.372 210.747 180.054 211.182 180.431 210.138C184.781 197.523 188.58 184.763 191.886 171.858C192.147 170.785 190.494 170.321 190.204 171.394Z" fill="#030235"/>
<path d="M51.2695 324C66.7662 324 82.2338 324 97.7305 324C99.4232 324 99.4232 323 97.7305 323C82.2338 323 66.7662 323 51.2695 323C49.5768 323 49.5768 324 51.2695 324Z" fill="#030235"/>
<path d="M104.246 324C107.739 324 111.261 324 114.754 324C116.415 324 116.415 323 114.754 323C111.261 323 107.739 323 104.246 323C102.585 323 102.585 324 104.246 324Z" fill="#030235"/>
<path d="M150.258 324C164.076 324 177.895 324 191.742 324C193.419 324 193.419 323 191.742 323C177.924 323 164.105 323 150.258 323C148.581 323 148.581 324 150.258 324Z" fill="#030235"/>
<path d="M201.268 323C203.746 323 206.224 323 208.732 323C210.423 323 210.423 322 208.732 322C206.254 322 203.776 322 201.268 322C199.577 322 199.577 323 201.268 323Z" fill="#030235"/>
<path d="M37.2921 320C43.4406 320 49.5891 320 55.7079 320C57.4307 320 57.4307 319 55.7079 319C49.5594 319 43.4109 319 37.2921 319C35.5693 319 35.5693 320 37.2921 320Z" fill="#030235"/>
<path d="M164.22 204.487C146.327 204.023 128.405 203.588 110.512 203.124C121.126 192.974 131.711 182.795 142.325 172.645C154.563 173.283 166.83 173.921 179.068 174.559C174.109 184.564 169.179 194.511 164.22 204.487Z" fill="white" stroke="#030235" stroke-width="2" stroke-miterlimit="10"/>
<path d="M141.717 172.439C131.306 182.502 120.895 192.594 110.484 202.657C110.02 186.533 109.526 170.38 109.062 154.256C119.618 147.586 130.174 140.916 140.73 134.246C141.021 146.977 141.369 159.708 141.717 172.439Z" fill="white" stroke="#030235" stroke-width="2" stroke-miterlimit="10"/>
<path d="M110.02 155.793C110.861 170.148 111.412 184.532 111.702 198.916C111.702 199.206 112.137 199.206 112.137 198.916C111.847 184.532 111.296 170.148 110.455 155.793C110.426 155.532 109.991 155.532 110.02 155.793Z" fill="#030235"/>
<path d="M110.252 155.852C119.967 149.53 129.682 143.208 139.397 136.886C139.629 136.741 139.426 136.364 139.165 136.509C129.45 142.831 119.735 149.153 110.02 155.475C109.788 155.649 109.991 156.026 110.252 155.852Z" fill="#030235"/>
<path d="M139.281 136.857C139.252 148.428 139.6 160.028 140.354 171.57C140.383 171.86 140.818 171.86 140.789 171.57C140.064 159.999 139.687 148.428 139.716 136.857C139.716 136.596 139.281 136.596 139.281 136.857Z" fill="#030235"/>
<path d="M111.991 199.525C121.503 190.332 131.044 181.139 140.556 171.975C140.759 171.772 140.44 171.482 140.237 171.656C130.725 180.849 121.184 190.042 111.672 199.206C111.498 199.409 111.788 199.728 111.991 199.525Z" fill="#030235"/>
<path d="M156.043 194.596C157.812 191.783 159.581 188.941 161.292 186.07C161.437 185.838 161.06 185.606 160.915 185.838C159.204 188.709 157.435 191.551 155.666 194.364C155.492 194.596 155.869 194.828 156.043 194.596Z" fill="#030235"/>
<path d="M161.176 185.98C163.467 186.067 165.758 186.067 168.049 185.951C168.339 185.951 168.339 185.516 168.049 185.516C165.758 185.603 163.467 185.603 161.176 185.545C160.886 185.545 160.886 185.98 161.176 185.98Z" fill="#030235"/>
<path d="M167.759 185.839C166.454 188.681 165.12 191.523 163.786 194.365C163.67 194.626 164.047 194.829 164.163 194.597C165.497 191.755 166.831 188.913 168.136 186.071C168.252 185.781 167.875 185.578 167.759 185.839Z" fill="#030235"/>
<path d="M155.898 194.829C158.45 195.206 161.147 195.032 163.728 194.916C164.018 194.916 164.018 194.481 163.728 194.481C161.205 194.597 158.537 194.771 156.014 194.423C155.724 194.365 155.608 194.8 155.898 194.829Z" fill="#030235"/>
<path d="M165.41 185.866C164.25 188.766 162.916 191.579 161.408 194.305C161.263 194.537 161.64 194.769 161.785 194.537C163.293 191.753 164.656 188.911 165.845 185.982C165.932 185.721 165.526 185.605 165.41 185.866Z" fill="#030235"/>
<path d="M123.388 199.004C129.768 191.116 136.38 183.402 143.195 175.862C143.369 175.659 143.079 175.34 142.876 175.543C136.061 183.054 129.449 190.768 123.069 198.685C122.895 198.917 123.214 199.207 123.388 199.004Z" fill="#030235"/>
<path d="M131.103 199.495C136.816 191.52 142.848 183.806 149.17 176.324C149.344 176.121 149.054 175.802 148.851 176.005C142.5 183.516 136.468 191.259 130.726 199.263C130.552 199.495 130.929 199.727 131.103 199.495Z" fill="#030235"/>
<path d="M139.396 200.685C144.355 192.391 149.778 184.387 155.636 176.702C155.81 176.47 155.433 176.267 155.259 176.47C149.401 184.155 143.978 192.159 139.019 200.453C138.874 200.685 139.251 200.917 139.396 200.685Z" fill="#030235"/>
<path d="M146.356 201.408C151.228 192.331 156.999 183.776 163.611 175.888C163.785 175.685 163.495 175.366 163.292 175.569C156.651 183.486 150.851 192.07 145.95 201.176C145.834 201.437 146.211 201.669 146.356 201.408Z" fill="#030235"/>
<path d="M127.1 194.307C134.524 193.524 141.948 194.452 149.343 195.438C149.633 195.467 149.604 195.032 149.343 195.003C141.977 194.017 134.553 193.06 127.1 193.872C126.839 193.901 126.839 194.336 127.1 194.307Z" fill="#030235"/>
<path d="M130.84 190.073C137.858 189.812 144.876 190.334 151.778 191.668C152.039 191.726 152.155 191.291 151.894 191.262C144.963 189.928 137.887 189.406 130.84 189.667C130.579 189.638 130.579 190.073 130.84 190.073Z" fill="#030235"/>
<path d="M134.206 185.981C140.963 185.546 147.72 186.155 154.303 187.779C154.564 187.837 154.68 187.431 154.419 187.373C147.807 185.72 141.021 185.111 134.206 185.546C133.916 185.575 133.916 186.01 134.206 185.981Z" fill="#030235"/>
<path d="M137.686 181.892C144.182 181.921 150.62 182.588 156.971 183.893C157.232 183.951 157.348 183.516 157.087 183.487C150.707 182.182 144.211 181.515 137.686 181.486C137.425 181.457 137.425 181.892 137.686 181.892Z" fill="#030235"/>
<path d="M141.137 178.095C147.314 178.211 153.462 178.936 159.465 180.299C159.726 180.357 159.842 179.951 159.581 179.893C153.52 178.53 147.343 177.776 141.137 177.689C140.847 177.66 140.847 178.095 141.137 178.095Z" fill="#030235"/>
<path d="M161.032 182.5C158.19 186.676 155.377 190.852 152.535 195.028C152.39 195.26 152.767 195.492 152.912 195.26C155.754 191.084 158.567 186.908 161.409 182.732C161.583 182.471 161.206 182.268 161.032 182.5Z" fill="#030235"/>
<path d="M113.007 176.179C116.632 174.642 120.547 175.512 124.375 175.454C127.594 175.425 130.668 174.526 133.423 172.902C133.655 172.757 133.452 172.38 133.191 172.525C129.798 174.526 126.202 175.164 122.316 174.99C119.068 174.845 115.849 174.526 112.775 175.831C112.543 175.918 112.746 176.295 113.007 176.179Z" fill="#030235"/>
<path d="M122.779 174.383C128.985 170.874 131.856 163.479 138.323 160.376C138.584 160.26 138.352 159.883 138.091 159.999C131.595 163.131 128.753 170.497 122.547 174.006C122.315 174.151 122.518 174.528 122.779 174.383Z" fill="#030235"/>
<path d="M130.667 153.704C129.594 152.863 129.768 151.5 130.377 150.427C130.667 149.905 131.102 149.354 131.595 149.035C132.494 148.455 133.335 148.919 134.031 149.528C134.234 149.702 134.553 149.412 134.35 149.209C132.9 147.991 131.537 148.107 130.348 149.673C129.391 150.949 128.898 152.863 130.348 154.023C130.58 154.197 130.899 153.878 130.667 153.704Z" fill="#030235"/>
<path d="M219.987 132.507C212.041 141.323 209.895 151.009 208.735 156.49C206.618 166.64 208.851 170.7 208.996 189.985C209.054 198.192 208.706 204.833 208.445 209.009C210.243 210.401 221.379 218.695 236.256 215.969C247.276 213.968 253.917 207.066 256.005 204.717C256.498 201.962 257.194 197.902 258.006 192.972C262.298 166.379 264.415 152.894 261.747 143.237C260.152 137.379 256.208 128.099 245.014 118.5C240.316 119.486 229.035 122.502 219.987 132.507Z" fill="#D9BC22"/>
<path opacity="0.19" d="M228.079 127.169C230.834 135.405 232.313 142.452 233.183 147.614C235.474 161.273 238.925 181.747 229.21 201.583C226.107 207.905 222.482 212.545 219.93 215.416C223.294 216.199 229.964 217.272 237.91 215.213C247.364 212.777 253.28 207.296 255.716 204.802C257.601 194.014 259.109 184.763 260.269 177.542C262.27 164.84 262.734 160.983 262.531 155.56C262.299 148.6 261.98 141.292 257.804 133.404C253.802 125.864 248.176 121.34 244.725 119.02C241.912 119.513 237.939 120.557 233.734 122.993C231.414 124.385 229.529 125.864 228.079 127.169Z" fill="#6B6E85"/>
<path opacity="0.18" d="M261.023 141.004C260.501 141.033 261.603 149.066 259.892 160.144C256.731 180.647 246.581 194.857 242.666 199.903C239.389 204.108 234.256 209.908 226.745 215.621C229.442 216.027 233.038 216.201 237.156 215.418C246.929 213.591 253.135 207.588 255.513 205.007C256.122 201.469 257.108 195.93 258.355 189.086C261.284 173.078 261.864 171.164 262.328 166.176C263.604 152.575 261.632 141.004 261.023 141.004Z" fill="#6B6E85"/>
<path d="M168.889 162.55C168.338 162.173 167.236 161.477 167.352 160.897C167.584 159.969 170.919 159.824 173.326 160.23C174.95 160.491 177.908 161.332 181.011 164.261C177.531 164.754 172.514 164.899 168.889 162.55Z" fill="white" stroke="#030235" stroke-width="2" stroke-miterlimit="10"/>
<path d="M250.756 134.766C244.927 133.055 238.112 140.914 237.503 141.668C235.183 144.423 234.632 146.395 232.457 151.731C227.179 164.781 224.424 171.364 219.204 174.786C214.535 177.86 209.634 177.976 208.329 177.976C202.848 177.947 198.324 175.221 189.508 169.769C182.084 165.158 181.33 163.766 177.038 162.606C174.863 162.026 168.483 160.286 163.524 163.679C160.363 165.825 158.42 169.827 159.29 170.842C160.392 172.147 166.308 169.073 166.337 169.189C166.366 169.247 164.626 169.74 163.06 171.132C162.277 171.799 160.885 173.249 161.204 173.771C161.784 174.757 167.062 170.233 171.76 171.915C174.95 173.046 175.124 176.091 178.865 177.28C181.069 177.976 183.157 177.599 184.491 177.222C186.289 179.919 189.334 183.776 194.032 187.285C196.845 189.373 206.763 196.565 220.538 195.492C235.154 194.361 244.028 184.704 246.783 181.717C248.378 180.006 259.949 167.043 258.18 150.165C257.919 147.41 256.788 136.564 250.756 134.766Z" fill="white" stroke="#030235" stroke-miterlimit="10"/>
<path opacity="0.1" d="M250.118 134.767C247.914 135.492 250.669 143.351 248.436 153.646C246.319 163.535 240.751 170.205 238.228 173.25C234.835 177.339 230.398 182.675 222.829 185.401C212.679 189.055 201.282 186.474 193.655 181.689C191.393 180.239 189.479 176.498 184.404 173.569C182.2 172.293 180.431 171.655 178.314 170.872C173.21 169.016 168.628 167.334 163.959 168.813C161.726 169.509 159.725 170.843 159.841 171.075C159.957 171.336 162.538 170.495 164.858 169.712C161.755 172.641 161.175 173.54 161.32 173.772C161.494 174.004 162.422 173.395 164.597 172.641C166.975 171.8 168.628 171.249 170.542 171.713C171.499 171.945 172.195 172.38 172.63 172.641C174.225 173.627 174.486 174.584 176.052 175.715C177.009 176.411 177.879 176.759 178.343 176.933C179.3 177.31 181.33 177.919 184.201 177.397C186.173 180.239 195.308 192.825 211.345 195.145C219.61 196.334 226.135 194.304 228.716 193.463C242.868 188.881 250.031 177.919 251.887 174.874C257.629 165.478 261.544 150.804 255.628 140.248C254.236 137.609 251.626 134.274 250.118 134.767Z" fill="#6B6E85"/>
<path d="M159.812 170.928C161.349 169.333 163.147 168.173 165.235 167.477C165.641 167.332 165.467 166.723 165.061 166.839C162.886 167.593 160.943 168.811 159.348 170.464C159.058 170.783 159.522 171.247 159.812 170.928Z" fill="#030235"/>
<path d="M160.857 167.045C162.394 165.334 164.54 164.667 166.686 164.058C167.092 163.942 166.918 163.304 166.512 163.42C164.279 164.087 162.017 164.812 160.422 166.581C160.103 166.9 160.567 167.335 160.857 167.045Z" fill="#030235"/>
<path opacity="0.1" d="M257.281 147.235C256.295 150.251 254.7 154.601 252.351 159.647C247.682 169.594 243.477 178.555 235.27 184.906C225.149 192.736 213.027 193.403 206.212 193.084C210.997 195.027 214.97 195.433 217.493 195.491C236.691 195.897 250.147 177.714 254.323 169.536C255.048 168.086 256.556 165.07 257.426 160.778C258.557 155.007 257.89 150.164 257.281 147.235Z" fill="#6B6E85"/>
<path opacity="0.26" d="M172.456 171.626C174.08 172.757 176.371 174.091 179.3 175.135C181.62 175.947 183.737 176.353 185.419 176.556C180.75 178.093 178.575 177.484 177.444 176.556C176.748 175.976 176.023 174.903 173.848 172.902C173.297 172.351 172.804 171.916 172.456 171.626Z" fill="#6B6E85"/>
<path d="M205.806 76.2744C205.487 78.1304 205.168 79.9864 204.907 81.9294C203.776 89.8174 203.312 97.2704 203.283 104.201C204.878 104.027 206.444 103.853 208.039 103.708C207.865 105.245 207.372 110.871 210.968 116.439C214.361 121.688 219.233 123.602 220.741 124.124C220.567 126.966 220.422 129.779 220.248 132.621C223.38 129.837 227.643 126.56 233.066 123.631C237.213 121.398 241.128 119.861 244.463 118.817C240.722 114.177 239.301 109.798 238.692 107.275C237.648 102.925 237.851 99.1844 238.054 95.8784C238.257 92.4854 238.75 89.6724 239.185 87.7004C240.548 81.4944 236.981 71.6634 229.876 68.1254C222.858 64.6164 212.389 67.5744 205.806 76.2744Z" fill="white" stroke="#030235" stroke-miterlimit="10"/>
<path d="M207.371 103.914C208.183 103.798 209.023 103.711 209.835 103.624C210.125 103.595 210.125 103.16 209.835 103.189C208.965 103.276 208.125 103.392 207.255 103.508C206.994 103.508 207.11 103.943 207.371 103.914Z" fill="#030235"/>
<path d="M233.53 80.7683C230.021 81.6673 229.383 84.7123 224.946 91.0633C220.451 97.5013 217.609 101.532 212.534 103.881C209.257 105.389 207.633 104.983 206.183 106.926C203.689 110.29 205.371 115.829 206.85 118.671C208.561 121.948 211.171 123.92 213.317 125.544C215.376 127.081 217.261 128.096 218.595 128.705C217.174 126.53 217.087 125.863 217.261 125.66C217.725 125.196 219.697 127.69 222.017 127.371C222.684 127.284 223.873 126.907 226.512 122.76C228.31 119.947 229.528 118.004 230.34 115.22C232.109 109.246 229.615 107.622 230.34 99.7633C230.456 98.5743 231.268 89.2653 234.574 88.6563C235.763 88.4243 236.981 89.4103 237.561 90.1643C238.779 91.7593 238.634 94.3113 237.126 96.5153C237.619 96.1673 242.346 92.9773 242.288 87.7863C242.288 86.9743 242.259 83.9873 239.997 82.0443C237.416 79.8403 233.82 80.7103 233.53 80.7683Z" fill="#030235" stroke="#030235" stroke-width="2" stroke-miterlimit="10"/>
<path d="M210.155 93.9633C210.828 93.9633 211.373 92.9895 211.373 91.7883C211.373 90.5871 210.828 89.6133 210.155 89.6133C209.483 89.6133 208.938 90.5871 208.938 91.7883C208.938 92.9895 209.483 93.9633 210.155 93.9633Z" fill="#030235"/>
<path d="M200.876 94.9789C201.549 94.9789 202.094 94.0051 202.094 92.8039C202.094 91.6027 201.549 90.6289 200.876 90.6289C200.204 90.6289 199.658 91.6027 199.658 92.8039C199.658 94.0051 200.204 94.9789 200.876 94.9789Z" fill="#030235"/>
<path d="M199.048 89.2384C199.831 88.3394 201.049 88.2524 201.919 89.1224C202.325 89.5284 202.934 88.8904 202.528 88.5134C201.339 87.3534 199.512 87.3824 198.41 88.6294C198.091 89.0644 198.7 89.6734 199.048 89.2384Z" fill="#030235"/>
<path d="M208.56 87.7291C209.575 86.8881 210.909 87.0041 211.779 87.9611C212.156 88.3671 212.765 87.7581 212.388 87.3521C211.17 86.0471 209.285 85.9891 207.922 87.1201C207.516 87.4681 208.125 88.0771 208.56 87.7291Z" fill="#030235"/>
<path d="M204.82 79.7257C205.139 77.6377 205.951 74.2157 208.184 70.6777C208.967 69.4307 210.649 66.7917 213.317 64.9937C218.421 61.6007 226.28 61.8617 231.993 66.0377C237.59 70.1267 240.374 77.4347 239.156 84.6847C227.701 83.0607 216.275 81.4077 204.82 79.7257Z" fill="#2466C5"/>
<path d="M186.085 79.9879C203.688 82.2499 221.32 84.5119 238.923 86.7449C240.576 86.9479 240.576 84.3379 238.923 84.1349C221.32 81.8729 203.688 79.6109 186.085 77.3779C184.432 77.1459 184.432 79.7559 186.085 79.9879Z" fill="#030235"/>
<path opacity="0.21" d="M219.725 62.8745C224.249 63.8605 227.671 67.5145 228.251 71.8935C228.773 75.7215 227.091 79.6075 223.901 81.9855C228.918 82.6525 233.964 83.3485 238.981 84.0155C239.242 82.6815 239.474 80.6515 239.155 78.2735C238.401 72.7055 235.182 69.1385 234.138 68.0655C233.007 66.9055 229.005 63.0195 223.06 62.6715C221.697 62.6135 220.537 62.7295 219.725 62.8745Z" fill="#030235"/>
</g>
<defs>
<clipPath id="clip0_540_46471">
<rect width="396" height="338" fill="white"/>
</clipPath>
</defs>
</svg>
