<svg width="40" height="40" viewBox="0 0 40 40" fill="none" xmlns="http://www.w3.org/2000/svg">
<rect width="40" height="40" rx="20" fill="#030235"/>
<path d="M27.7697 20.4399L16.8039 27.9115C16.726 27.9644 16.6355 27.9948 16.542 27.9994C16.4486 28.004 16.3556 27.9825 16.2731 27.9374C16.1906 27.8923 16.1217 27.8251 16.0736 27.7431C16.0255 27.661 16 27.5672 16 27.4716V12.5284C16 12.4328 16.0255 12.339 16.0736 12.2569C16.1217 12.1749 16.1906 12.1077 16.2731 12.0626C16.3556 12.0175 16.4486 11.996 16.542 12.0006C16.6355 12.0052 16.726 12.0356 16.8039 12.0885L27.7697 19.5601C27.8405 19.6084 27.8986 19.6738 27.9388 19.7506C27.979 19.8273 28 19.913 28 20C28 20.087 27.979 20.1727 27.9388 20.2494C27.8986 20.3262 27.8405 20.3916 27.7697 20.4399Z" fill="white"/>
</svg>
