<svg width="24" height="24" viewBox="0 0 24 24" fill="none" xmlns="http://www.w3.org/2000/svg">
<path fill-rule="evenodd" clip-rule="evenodd" d="M3.7779 9.20364C3.43083 8.77403 2.80121 8.70713 2.37161 9.0542C1.942 9.40127 1.8751 10.0309 2.22217 10.4605C2.66273 11.0058 3.20303 11.5931 3.84903 12.1632L2.12242 15.1538C1.84628 15.6321 2.01016 16.2436 2.48845 16.5198C2.96674 16.7959 3.57833 16.6321 3.85447 16.1538L5.45823 13.376C6.30985 13.9176 7.28453 14.3911 8.38931 14.7266L7.88255 17.6006C7.78664 18.1445 8.14981 18.6632 8.69371 18.7591C9.2376 18.855 9.75626 18.4918 9.85216 17.9479L10.3463 15.1454C10.8736 15.2134 11.4247 15.25 12.0001 15.25C12.5708 15.25 13.1175 15.214 13.6408 15.1471L14.1349 17.9492C14.2308 18.4931 14.7495 18.8563 15.2934 18.7604C15.8373 18.6645 16.2004 18.1458 16.1045 17.6019L15.5982 14.7305C16.7055 14.3955 17.6824 13.9219 18.5358 13.3799L20.1285 16.1386C20.4047 16.6169 21.0163 16.7808 21.4946 16.5046C21.9729 16.2285 22.1367 15.6169 21.8606 15.1386L20.1456 12.1681C20.794 11.5965 21.3362 11.0074 21.778 10.4605C22.1251 10.0309 22.0582 9.40129 21.6286 9.05422C21.199 8.70715 20.5693 8.77405 20.2223 9.20366C19.7202 9.82513 19.0814 10.4955 18.2927 11.1085C18.2604 11.1305 18.2297 11.1542 18.2007 11.1793C16.6953 12.3236 14.6577 13.25 12.0001 13.25C7.87512 13.25 5.24385 11.0182 3.7779 9.20364Z" fill="#030235"/>
</svg>
