<svg width="24" height="24" viewBox="0 0 24 24" fill="none" xmlns="http://www.w3.org/2000/svg">
<path fill-rule="evenodd" clip-rule="evenodd" d="M3.22995 7.91757C5.05127 6.09605 7.91698 4.24927 11.9996 4.24927C16.0822 4.24927 18.9479 6.09605 20.7692 7.91757C21.677 8.82544 22.3313 9.73157 22.7599 10.4124C22.9747 10.7536 23.1343 11.0405 23.2419 11.246C23.2957 11.3487 23.3367 11.4314 23.3651 11.4904C23.3793 11.5199 23.3904 11.5436 23.3985 11.561L23.4082 11.5823L23.4114 11.5893L23.413 11.593C23.4132 11.5935 23.4134 11.5939 22.4996 12C23.4134 12.4062 23.4132 12.4066 23.413 12.4071L23.4125 12.4081L23.4114 12.4107L23.4082 12.4178L23.3984 12.4391C23.3904 12.4565 23.3793 12.4801 23.3651 12.5097C23.3366 12.5687 23.2957 12.6513 23.2419 12.7541C23.1343 12.9594 22.9747 13.2463 22.7599 13.5874C22.3312 14.2681 21.6769 15.1741 20.7692 16.0818C18.9478 17.9029 16.0821 19.7493 11.9996 19.7493C7.91706 19.7493 5.05136 17.9029 3.23003 16.0818C2.32225 15.1741 1.66797 14.2681 1.23933 13.5874C1.02451 13.2463 0.864937 12.9594 0.757341 12.7541C0.703505 12.6513 0.662569 12.5687 0.634136 12.5097C0.619916 12.4801 0.608812 12.4565 0.600775 12.4391L0.591011 12.4178L0.587839 12.4107L0.586679 12.4081L0.586205 12.4071C0.585997 12.4066 0.585802 12.4062 1.4996 12C0.585769 11.5939 0.585965 11.5935 0.586172 11.593L0.586646 11.5919L0.587806 11.5893L0.590977 11.5823L0.600741 11.561C0.608777 11.5436 0.61988 11.5199 0.634099 11.4904C0.662531 11.4314 0.703465 11.3487 0.757299 11.246C0.864893 11.0405 1.02447 10.7536 1.23928 10.4124C1.66791 9.73157 2.32218 8.82544 3.22995 7.91757ZM1.4996 12L0.586172 11.593C0.471265 11.8516 0.471276 12.1485 0.586205 12.4071L1.4996 12ZM2.62274 11.9999C2.70243 12.144 2.80515 12.3207 2.93174 12.5217C3.29997 13.1065 3.86444 13.8879 4.64417 14.6675C6.19783 16.221 8.58214 17.7493 11.9996 17.7493C15.4171 17.7493 17.8014 16.221 19.355 14.6675C20.1348 13.8879 20.6992 13.1065 21.0675 12.5217C21.194 12.3207 21.2968 12.144 21.3765 11.9999C21.2968 11.8559 21.194 11.6791 21.0674 11.478C20.6992 10.8931 20.1347 10.1115 19.355 9.3317C17.8013 7.77785 15.417 6.24927 11.9996 6.24927C8.58221 6.24927 6.19793 7.77785 4.64424 9.3317C3.86451 10.1115 3.30003 10.8931 2.93179 11.478C2.80518 11.6791 2.70244 11.8559 2.62274 11.9999ZM22.4996 12L23.413 12.4071C23.5279 12.1485 23.5279 11.8516 23.413 11.593L22.4996 12ZM2.41249 12.4082C2.41226 12.4087 2.41235 12.4085 2.41249 12.4082V12.4082ZM2.41259 11.592C2.41245 11.5917 2.41237 11.5915 2.41259 11.592V11.592Z" fill="#030235"/>
<path fill-rule="evenodd" clip-rule="evenodd" d="M12 10C10.8954 10 10 10.8954 10 12C10 13.1046 10.8954 14 12 14C13.1046 14 14 13.1046 14 12C14 10.8954 13.1046 10 12 10ZM8 12C8 9.79086 9.79086 8 12 8C14.2091 8 16 9.79086 16 12C16 14.2091 14.2091 16 12 16C9.79086 16 8 14.2091 8 12Z" fill="#030235"/>
</svg>
