<svg xmlns="http://www.w3.org/2000/svg" xmlns:xlink="http://www.w3.org/1999/xlink">
<symbol viewBox="0 0 20 20" id="icon-2">
<path d="M15.625 8.75V15.6944C15.625 15.8418 15.5665 15.9831 15.4623 16.0873C15.3581 16.1915 15.2168 16.25 15.0694 16.25H3.125C2.95924 16.25 2.80027 16.1842 2.68306 16.0669C2.56585 15.9497 2.5 15.7908 2.5 15.625V6.875C2.5 6.70924 2.56585 6.55027 2.68306 6.43306C2.80027 6.31585 2.95924 6.25 3.125 6.25H6.66667C6.8019 6.25 6.93348 6.29386 7.04167 6.375L9.20833 8C9.31652 8.08114 9.4481 8.125 9.58333 8.125H15C15.1658 8.125 15.3247 8.19085 15.4419 8.30806C15.5592 8.42527 15.625 8.58424 15.625 8.75Z" stroke-width="2" stroke-linecap="round" stroke-linejoin="round" fill="none"/>
<path fill-rule="evenodd" clip-rule="evenodd" d="M5.83341 5.41699V4.58366H9.0973L11.2084 6.16699C11.4608 6.35632 11.7679 6.45866 12.0834 6.45866H17.2917V12.917H16.4584V8.75033C16.4584 8.36355 16.3048 7.99262 16.0313 7.71913C15.7578 7.44564 15.3869 7.29199 15.0001 7.29199H9.65286L7.54175 5.70866C7.28932 5.51933 6.98229 5.41699 6.66675 5.41699H5.83341ZM4.16675 5.41699V4.37533C4.16675 3.98855 4.32039 3.61762 4.59388 3.34413C4.86737 3.07064 5.23831 2.91699 5.62508 2.91699H9.16675C9.48229 2.91699 9.78932 3.01933 10.0417 3.20866L12.1529 4.79199H17.5001C17.8869 4.79199 18.2578 4.94564 18.5313 5.21913C18.8048 5.49262 18.9584 5.86355 18.9584 6.25033V13.1948C18.9584 13.3772 18.9225 13.5578 18.8527 13.7263C18.7829 13.8948 18.6806 14.0479 18.5516 14.1769C18.4226 14.3058 18.2695 14.4081 18.101 14.4779C17.9325 14.5477 17.7519 14.5837 17.5695 14.5837H16.4584V15.6948C16.4584 16.0631 16.3121 16.4164 16.0516 16.6769C15.7912 16.9373 15.4379 17.0837 15.0695 17.0837H3.12508C2.73831 17.0837 2.36738 16.93 2.09388 16.6565C1.82039 16.383 1.66675 16.0121 1.66675 15.6253V6.87533C1.66675 6.48855 1.82039 6.11762 2.09388 5.84413C2.36737 5.57064 2.73831 5.41699 3.12508 5.41699H4.16675ZM14.7917 13.7503V8.95866H9.58342C9.26788 8.95866 8.96085 8.85632 8.70842 8.66699L6.5973 7.08366L5.00008 7.08366L3.33341 7.08366V15.417H14.7917V13.7503Z"/>
</symbol>
</svg>
