<svg xmlns="http://www.w3.org/2000/svg" xmlns:xlink="http://www.w3.org/1999/xlink">
<symbol viewBox="0 0 20 20" id="icon-4">
<path fill-rule="evenodd" clip-rule="evenodd" d="M3.33341 4.37467V14.583H16.6667V6.24967H10.2084C9.89288 6.24967 9.58585 6.14733 9.33342 5.95801L7.2223 4.37467H3.33341ZM2.09388 3.13514C2.36737 2.86165 2.73831 2.70801 3.12508 2.70801H7.29175C7.60729 2.70801 7.91432 2.81035 8.16675 2.99967L10.2779 4.58301H16.8751C17.2619 4.58301 17.6328 4.73665 17.9063 5.01014C18.1798 5.28364 18.3334 5.65457 18.3334 6.04134V14.8608C18.3334 15.2291 18.1871 15.5824 17.9266 15.8429C17.6662 16.1033 17.3129 16.2497 16.9445 16.2497H3.12508C2.73831 16.2497 2.36738 16.096 2.09388 15.8225C1.82039 15.549 1.66675 15.1781 1.66675 14.7913V4.16634C1.66675 3.77957 1.82039 3.40863 2.09388 3.13514Z"/>
</symbol>
</svg>
