<svg xmlns="http://www.w3.org/2000/svg" xmlns:xlink="http://www.w3.org/1999/xlink">
<symbol viewBox="0 0 20 20" id="icon-7">
<path fill-rule="evenodd" clip-rule="evenodd" d="M2.91675 3.75033C2.91675 3.29009 3.28984 2.91699 3.75008 2.91699C7.2863 2.91699 10.6777 4.32175 13.1782 6.82224C15.6787 9.32272 17.0834 12.7141 17.0834 16.2503C17.0834 16.7106 16.7103 17.0837 16.2501 17.0837C15.7898 17.0837 15.4167 16.7106 15.4167 16.2503C15.4167 13.1561 14.1876 10.1887 11.9997 8.00075C9.81174 5.81282 6.84427 4.58366 3.75008 4.58366C3.28984 4.58366 2.91675 4.21056 2.91675 3.75033ZM3.75008 6.66699C3.28984 6.66699 2.91675 7.04009 2.91675 7.50033C2.91675 7.96056 3.28984 8.33366 3.75008 8.33366C5.84971 8.33366 7.86335 9.16773 9.34801 10.6524C10.8327 12.1371 11.6667 14.1507 11.6667 16.2503C11.6667 16.7106 12.0398 17.0837 12.5001 17.0837C12.9603 17.0837 13.3334 16.7106 13.3334 16.2503C13.3334 13.7087 12.3237 11.2711 10.5265 9.47389C8.7293 7.67666 6.29174 6.66699 3.75008 6.66699ZM3.75008 10.417C3.28984 10.417 2.91675 10.7901 2.91675 11.2503C2.91675 11.7106 3.28984 12.0837 3.75008 12.0837C4.85515 12.0837 5.91496 12.5226 6.69636 13.304C7.47776 14.0854 7.91675 15.1453 7.91675 16.2503C7.91675 16.7106 8.28984 17.0837 8.75008 17.0837C9.21032 17.0837 9.58341 16.7106 9.58341 16.2503C9.58341 14.7032 8.96883 13.2195 7.87487 12.1255C6.78091 11.0316 5.29718 10.417 3.75008 10.417ZM5.00008 15.9378C5.00008 16.4556 4.58035 16.8753 4.06258 16.8753C3.54481 16.8753 3.12508 16.4556 3.12508 15.9378C3.12508 15.4201 3.54481 15.0003 4.06258 15.0003C4.58035 15.0003 5.00008 15.4201 5.00008 15.9378Z"/>
</symbol>
</svg>
