<svg xmlns="http://www.w3.org/2000/svg" xmlns:xlink="http://www.w3.org/1999/xlink">
<symbol viewBox="0 0 20 20" id="icon-5">
<path fill-rule="evenodd" clip-rule="evenodd" d="M10.8334 1.87533C10.8334 1.41509 10.4603 1.04199 10.0001 1.04199C9.53984 1.04199 9.16675 1.41509 9.16675 1.87533V2.91699H3.12508C2.31967 2.91699 1.66675 3.56991 1.66675 4.37533V13.7503C1.66675 14.5557 2.31967 15.2087 3.12508 15.2087H5.76628L4.34939 16.9798C4.06188 17.3392 4.12015 17.8636 4.47953 18.1511C4.83892 18.4386 5.36333 18.3803 5.65084 18.0209L7.90066 15.2087H12.0996L14.3494 18.0209C14.6369 18.3803 15.1613 18.4386 15.5207 18.1511C15.8801 17.8636 15.9383 17.3392 15.6508 16.9798L14.2339 15.2087H16.8751C17.6805 15.2087 18.3334 14.5557 18.3334 13.7503V4.37533C18.3334 3.56991 17.6805 2.91699 16.8751 2.91699H10.8334V1.87533ZM10.0001 4.58366H3.33341V13.542H7.49884H7.50244H12.4978H12.5014H16.6667V4.58366H10.0001ZM7.50008 8.54199C7.96032 8.54199 8.33341 8.91509 8.33341 9.37533V11.2503C8.33341 11.7106 7.96032 12.0837 7.50008 12.0837C7.03984 12.0837 6.66675 11.7106 6.66675 11.2503V9.37533C6.66675 8.91509 7.03984 8.54199 7.50008 8.54199ZM10.8334 8.12533C10.8334 7.66509 10.4603 7.29199 10.0001 7.29199C9.53984 7.29199 9.16675 7.66509 9.16675 8.12533V11.2503C9.16675 11.7106 9.53984 12.0837 10.0001 12.0837C10.4603 12.0837 10.8334 11.7106 10.8334 11.2503V8.12533ZM12.5001 6.04199C12.9603 6.04199 13.3334 6.41509 13.3334 6.87533V11.2503C13.3334 11.7106 12.9603 12.0837 12.5001 12.0837C12.0398 12.0837 11.6667 11.7106 11.6667 11.2503V6.87533C11.6667 6.41509 12.0398 6.04199 12.5001 6.04199Z"/>
</symbol>
</svg>
