<svg xmlns="http://www.w3.org/2000/svg" xmlns:xlink="http://www.w3.org/1999/xlink">
<symbol viewBox="0 0 20 20" id="icon-6">
<path fill-rule="evenodd" clip-rule="evenodd" d="M6.87476 13.3337C5.90525 13.3337 4.94997 13.567 4.08959 14.0139C3.22921 14.4608 2.48897 15.1081 1.93139 15.9012C1.66669 16.2777 1.1469 16.3684 0.770395 16.1037C0.39389 15.839 0.303248 15.3192 0.56794 14.9427C1.27931 13.9308 2.2237 13.1049 3.32138 12.5348C4.41905 11.9647 5.63779 11.667 6.8747 11.667C8.1116 11.6669 9.33036 11.9645 10.4281 12.5345C11.5258 13.1046 12.4703 13.9304 13.1817 14.9422C13.4464 15.3187 13.3558 15.8385 12.9793 16.1032C12.6029 16.3679 12.0831 16.2773 11.8183 15.9008C11.2607 15.1077 10.5204 14.4605 9.65998 14.0137C8.79956 13.5669 7.84427 13.3336 6.87476 13.3337Z"/>
<path fill-rule="evenodd" clip-rule="evenodd" d="M6.87508 5.20866C5.09166 5.20866 3.64591 6.65441 3.64591 8.43783C3.64591 10.2212 5.09166 11.667 6.87508 11.667C8.6585 11.667 10.1042 10.2212 10.1042 8.43783C10.1042 6.65441 8.6585 5.20866 6.87508 5.20866ZM1.97925 8.43783C1.97925 5.73393 4.17119 3.54199 6.87508 3.54199C9.57898 3.54199 11.7709 5.73393 11.7709 8.43783C11.7709 11.1417 9.57898 13.3337 6.87508 13.3337C4.17119 13.3337 1.97925 11.1417 1.97925 8.43783Z"/>
<path fill-rule="evenodd" clip-rule="evenodd" d="M13.7337 5.24511C13.2776 5.17506 12.8118 5.20357 12.3676 5.32871C11.9247 5.45352 11.4644 5.19559 11.3395 4.7526C11.2147 4.30961 11.4727 3.84931 11.9157 3.7245C12.589 3.53478 13.2952 3.49156 13.9867 3.59775C14.6782 3.70395 15.3389 3.95709 15.9243 4.34012C16.5097 4.72316 17.0063 5.2272 17.3805 5.8183C17.7547 6.40939 17.9979 7.07381 18.0937 7.76681C18.1895 8.45981 18.1357 9.16529 17.9358 9.83573C17.736 10.5062 17.3949 11.126 16.9353 11.6535C16.4758 12.181 15.9086 12.6039 15.2718 12.8937C14.6351 13.1835 13.9436 13.3335 13.2441 13.3336C12.7838 13.3337 12.4107 12.9606 12.4106 12.5004C12.4106 12.0401 12.7836 11.667 13.2439 11.6669C13.7053 11.6669 14.1614 11.568 14.5814 11.3768C15.0014 11.1856 15.3756 10.9067 15.6787 10.5587C15.9818 10.2108 16.2068 9.80195 16.3386 9.35972C16.4704 8.91749 16.5059 8.45215 16.4427 7.99504C16.3795 7.53794 16.2191 7.09968 15.9723 6.70979C15.7254 6.3199 15.3979 5.98743 15.0118 5.73478C14.6256 5.48213 14.1898 5.31515 13.7337 5.24511Z"/>
<path fill-rule="evenodd" clip-rule="evenodd" d="M16.0279 14.0126C15.1676 13.5659 14.2123 13.333 13.2429 13.3337C12.7826 13.334 12.4093 12.9612 12.4089 12.5009C12.4086 12.0407 12.7814 11.6673 13.2417 11.667C14.4789 11.6661 15.6981 11.9633 16.7961 12.5335C17.894 13.1037 18.8384 13.9301 19.5493 14.9427C19.8138 15.3194 19.7228 15.8391 19.3461 16.1035C18.9694 16.368 18.4497 16.277 18.1853 15.9003C17.6282 15.1069 16.8882 14.4594 16.0279 14.0126Z"/>
</symbol>
</svg>
