<svg xmlns="http://www.w3.org/2000/svg" xmlns:xlink="http://www.w3.org/1999/xlink">
<symbol viewBox="0 0 20 20" id="icon-1">
<path fill-rule="evenodd" clip-rule="evenodd" d="M3.95841 16.042V3.95866H16.0417V16.042H3.95841ZM3.75008 2.29199C2.94467 2.29199 2.29175 2.94491 2.29175 3.75033V16.2503C2.29175 17.0557 2.94467 17.7087 3.75008 17.7087H16.2501C17.0555 17.7087 17.7084 17.0557 17.7084 16.2503V3.75033C17.7084 2.94491 17.0555 2.29199 16.2501 2.29199H3.75008ZM14.013 8.72812C14.3459 8.41034 14.3582 7.88285 14.0404 7.54993C13.7226 7.21702 13.1951 7.20475 12.8622 7.52253L8.85423 11.3483L7.13798 9.71003C6.80507 9.39225 6.27757 9.40451 5.95979 9.73743C5.64201 10.0703 5.65427 10.5978 5.98718 10.9156L8.27882 13.1031C8.60084 13.4105 9.1076 13.4105 9.42962 13.1031L14.013 8.72812Z"/>
</symbol>
</svg>
