<svg xmlns="http://www.w3.org/2000/svg" xmlns:xlink="http://www.w3.org/1999/xlink">
<symbol viewBox="0 0 20 20" id="icon-3">
<path fill-rule="evenodd" clip-rule="evenodd" d="M7.08342 4.16699V3.33366H12.7799L15.4167 5.9705V14.167H14.5834V8.12533C14.5834 7.90431 14.4956 7.69235 14.3393 7.53607L11.2143 4.41107C11.0581 4.25479 10.8461 4.16699 10.6251 4.16699H7.08342ZM6.25072 5.83366L6.25008 5.83366L6.24944 5.83366H4.58341V16.667H12.9167V15.0003V8.4705L10.2799 5.83366H6.25072ZM14.5834 15.8337H15.6251C16.0119 15.8337 16.3828 15.68 16.6563 15.4065C16.9298 15.133 17.0834 14.7621 17.0834 14.3753V5.62533C17.0834 5.40431 16.9956 5.19235 16.8393 5.03607L13.7143 1.91107C13.5581 1.75479 13.3461 1.66699 13.1251 1.66699H6.87508C6.48831 1.66699 6.11737 1.82064 5.84388 2.09413C5.57039 2.36762 5.41675 2.73855 5.41675 3.12533V4.16699H4.37508C3.98831 4.16699 3.61737 4.32064 3.34388 4.59413C3.07039 4.86762 2.91675 5.23855 2.91675 5.62533V16.8753C2.91675 17.2621 3.07039 17.633 3.34388 17.9065C3.61738 18.18 3.98831 18.3337 4.37508 18.3337H13.1251C13.5119 18.3337 13.8828 18.18 14.1563 17.9065C14.4298 17.633 14.5834 17.2621 14.5834 16.8753V15.8337ZM6.04175 11.8753C6.04175 11.4151 6.41484 11.042 6.87508 11.042H10.6251C11.0853 11.042 11.4584 11.4151 11.4584 11.8753C11.4584 12.3356 11.0853 12.7087 10.6251 12.7087H6.87508C6.41484 12.7087 6.04175 12.3356 6.04175 11.8753ZM6.87508 13.542C6.41484 13.542 6.04175 13.9151 6.04175 14.3753C6.04175 14.8356 6.41484 15.2087 6.87508 15.2087H10.6251C11.0853 15.2087 11.4584 14.8356 11.4584 14.3753C11.4584 13.9151 11.0853 13.542 10.6251 13.542H6.87508Z"/>
</symbol>
</svg>
