<svg width="20" height="20" viewBox="0 0 20 20" fill="none" xmlns="http://www.w3.org/2000/svg">
<path d="M11.8233 6.4547L7.6473 10.9184C7.57678 10.9912 7.52053 11.0783 7.48184 11.1745C7.44314 11.2708 7.42278 11.3744 7.42192 11.4791C7.42107 11.5839 7.43975 11.6878 7.47688 11.7848C7.514 11.8817 7.56882 11.9698 7.63815 12.0439C7.70747 12.118 7.78991 12.1766 7.88064 12.2163C7.97138 12.256 8.0686 12.2759 8.16664 12.275C8.26467 12.2741 8.36156 12.2523 8.45164 12.211C8.54171 12.1696 8.62319 12.1095 8.69129 12.0342L12.868 7.57122C13.2834 7.12725 13.5168 6.52509 13.5168 5.89722C13.5168 5.26935 13.2834 4.6672 12.868 4.22323C12.4526 3.77926 11.8892 3.52984 11.3017 3.52984C10.7142 3.52984 10.1507 3.77926 9.73529 4.22323L5.55857 8.68695C5.20866 9.0516 4.92998 9.48687 4.7387 9.96752C4.54742 10.4482 4.44735 10.9646 4.44428 11.4869C4.44122 12.0092 4.53523 12.527 4.72086 13.0101C4.90649 13.4933 5.18004 13.9323 5.52565 14.3016C5.87126 14.6709 6.28204 14.9632 6.73417 15.1615C7.18631 15.3598 7.67078 15.4602 8.1595 15.4569C8.64822 15.4535 9.13145 15.3465 9.58117 15.142C10.0309 14.9375 10.4381 14.6396 10.7793 14.2656L14.956 9.80268L16 10.9184L11.8233 15.3821C11.3433 15.8951 10.7736 16.3019 10.1465 16.5795C9.5194 16.8571 8.8473 17 8.16856 17C7.48981 17 6.81771 16.8571 6.19064 16.5795C5.56356 16.3019 4.99378 15.8951 4.51384 15.3821C4.03389 14.8692 3.65318 14.2603 3.39343 13.5901C3.13369 12.92 3 12.2017 3 11.4763C3 10.7509 3.13369 10.0326 3.39343 9.36245C3.65318 8.69228 4.03389 8.08335 4.51384 7.57043L8.69129 3.1075C9.38755 2.38883 10.3201 1.99116 11.288 2.00015C12.2559 2.00914 13.1818 2.42406 13.8663 3.15555C14.5508 3.88705 14.939 4.87658 14.9474 5.91103C14.9558 6.94547 14.5837 7.94207 13.9113 8.68616L9.73529 13.1515C9.52954 13.3713 9.2853 13.5457 9.01649 13.6646C8.74769 13.7836 8.4596 13.8448 8.16867 13.8447C7.87773 13.8447 7.58965 13.7834 7.32088 13.6644C7.0521 13.5454 6.80789 13.371 6.6022 13.1511C6.3965 12.9312 6.23334 12.6702 6.12203 12.3829C6.01073 12.0956 5.95346 11.7877 5.9535 11.4768C5.95353 11.1659 6.01087 10.858 6.12223 10.5708C6.2336 10.2835 6.39682 10.0225 6.60256 9.80268L10.7793 5.33896L11.8233 6.4547Z" fill="#98A0AD"/>
</svg>
