<svg width="20" height="20" viewBox="0 0 20 20" fill="none" xmlns="http://www.w3.org/2000/svg">
<path d="M10 1C8.9 1 8 1.93333 8 3.07407C8 4.21481 8.9 5.14815 10 5.14815C11.1 5.14815 12 4.21481 12 3.07407C12 1.93333 11.1 1 10 1ZM10 15.5185C8.9 15.5185 8 16.4519 8 17.5926C8 18.7333 8.9 19.6667 10 19.6667C11.1 19.6667 12 18.7333 12 17.5926C12 16.4519 11.1 15.5185 10 15.5185ZM10 8.25926C8.9 8.25926 8 9.19259 8 10.3333C8 11.4741 8.9 12.4074 10 12.4074C11.1 12.4074 12 11.4741 12 10.3333C12 9.19259 11.1 8.25926 10 8.25926Z" fill="#98A0AD"/>
</svg>
