<svg width="24" height="24" viewBox="0 0 24 24" fill="none" xmlns="http://www.w3.org/2000/svg">
<path d="M8.07715 19.3527L3.66798 20.3327L4.64798 15.9235C4.00259 14.7163 3.66592 13.3682 3.66798 11.9993C3.66798 7.39685 7.39881 3.66602 12.0013 3.66602C16.6038 3.66602 20.3346 7.39685 20.3346 11.9993C20.3346 16.6018 16.6038 20.3327 12.0013 20.3327C10.6324 20.3347 9.28433 19.9981 8.07715 19.3527ZM8.31881 17.5919L8.86298 17.8835C9.82844 18.3995 10.9066 18.6683 12.0013 18.666C13.3199 18.666 14.6088 18.275 15.7051 17.5425C16.8014 16.8099 17.6559 15.7687 18.1605 14.5506C18.6651 13.3324 18.7971 11.992 18.5399 10.6987C18.2826 9.40554 17.6477 8.21765 16.7154 7.2853C15.783 6.35295 14.5951 5.71802 13.3019 5.46078C12.0087 5.20355 10.6683 5.33557 9.45009 5.84015C8.23191 6.34474 7.19072 7.19922 6.45818 8.29555C5.72564 9.39188 5.33464 10.6808 5.33464 11.9993C5.33464 13.111 5.60548 14.181 6.11798 15.1377L6.40881 15.6819L5.86298 18.1377L8.31881 17.5919Z" fill="#98A0AD"/>
<circle cx="20" cy="9" r="3.5" fill="#D44333" stroke="white"/>
</svg>
