<svg width="16" height="16" viewBox="0 0 16 16" fill="none" xmlns="http://www.w3.org/2000/svg">
<path fill-rule="evenodd" clip-rule="evenodd" d="M0.523438 1.71484V9.04818C0.523438 11.1521 2.22902 12.8577 4.33296 12.8577H10.3793C10.8128 13.7057 11.695 14.2863 12.7128 14.2863C14.1593 14.2863 15.3318 13.1137 15.3318 11.6672C15.3318 10.2208 14.1593 9.04818 12.7128 9.04818C11.3143 9.04818 10.1718 10.1443 10.0976 11.5244H4.33296C2.9654 11.5244 1.85677 10.4157 1.85677 9.04818V6.1901L10.2212 6.1901C10.5621 7.24046 11.5488 7.99981 12.7128 7.99981C14.1593 7.99981 15.3318 6.82723 15.3318 5.38077C15.3318 3.93431 14.1593 2.76172 12.7128 2.76172C11.4458 2.76172 10.3889 3.6614 10.1462 4.85677L1.85677 4.85677V1.71484H0.523438ZM12.7128 6.66648C13.4229 6.66648 13.9985 6.09085 13.9985 5.38077C13.9985 4.67069 13.4229 4.09505 12.7128 4.09505C12.0027 4.09505 11.4271 4.67069 11.4271 5.38077C11.4271 6.09085 12.0027 6.66648 12.7128 6.66648ZM13.9985 11.6672C13.9985 12.3773 13.4229 12.9529 12.7128 12.9529C12.0027 12.9529 11.4271 12.3773 11.4271 11.6672C11.4271 10.9571 12.0027 10.3815 12.7128 10.3815C13.4229 10.3815 13.9985 10.9571 13.9985 11.6672Z" fill="#6B6E85"/>
</svg>
