<svg width="16" height="16" viewBox="0 0 16 16" fill="none" xmlns="http://www.w3.org/2000/svg">
<path fill-rule="evenodd" clip-rule="evenodd" d="M2.49959 1.33203C2.19017 1.33203 1.89343 1.45495 1.67464 1.67374C1.45584 1.89253 1.33293 2.18928 1.33293 2.4987V12.832H0.999919C0.631729 12.832 0.333252 13.1305 0.333252 13.4987C0.333252 13.8669 0.631729 14.1654 0.999919 14.1654H1.99959H8.99959H14.9999C15.3681 14.1654 15.6666 13.8669 15.6666 13.4987C15.6666 13.1305 15.3681 12.832 14.9999 12.832H14.6663V6.4987C14.6663 6.18928 14.5433 5.89253 14.3246 5.67374C14.1058 5.45495 13.809 5.33203 13.4996 5.33203H9.66626V2.4987C9.66626 2.18928 9.54334 1.89253 9.32455 1.67374C9.10576 1.45495 8.80901 1.33203 8.49959 1.33203H2.49959ZM13.3329 6.66536V12.832H9.66626V6.66536H13.3329ZM8.33293 2.66536L8.33293 5.9987L8.33293 12.832H2.66626V2.66536H8.33293ZM3.99959 3.83203C3.6314 3.83203 3.33293 4.13051 3.33293 4.4987C3.33293 4.86689 3.6314 5.16536 3.99959 5.16536H5.99959C6.36778 5.16536 6.66626 4.86689 6.66626 4.4987C6.66626 4.13051 6.36778 3.83203 5.99959 3.83203H3.99959ZM4.33293 8.4987C4.33293 8.13051 4.6314 7.83203 4.99959 7.83203H6.99959C7.36778 7.83203 7.66626 8.13051 7.66626 8.4987C7.66626 8.86689 7.36778 9.16536 6.99959 9.16536H4.99959C4.6314 9.16536 4.33293 8.86689 4.33293 8.4987ZM3.99959 10.332C3.6314 10.332 3.33293 10.6305 3.33293 10.9987C3.33293 11.3669 3.6314 11.6654 3.99959 11.6654H5.99959C6.36778 11.6654 6.66626 11.3669 6.66626 10.9987C6.66626 10.6305 6.36778 10.332 5.99959 10.332H3.99959ZM10.3329 10.9987C10.3329 10.6305 10.6314 10.332 10.9996 10.332H11.9996C12.3678 10.332 12.6663 10.6305 12.6663 10.9987C12.6663 11.3669 12.3678 11.6654 11.9996 11.6654H10.9996C10.6314 11.6654 10.3329 11.3669 10.3329 10.9987ZM10.9996 7.83203C10.6314 7.83203 10.3329 8.13051 10.3329 8.4987C10.3329 8.86689 10.6314 9.16536 10.9996 9.16536H11.9996C12.3678 9.16536 12.6663 8.86689 12.6663 8.4987C12.6663 8.13051 12.3678 7.83203 11.9996 7.83203H10.9996Z" fill="black"/>
</svg>
