<svg width="16" height="16" viewBox="0 0 16 16" fill="none" xmlns="http://www.w3.org/2000/svg">
<path d="M11.3333 1.99935H13.9999C14.1767 1.99935 14.3463 2.06959 14.4713 2.19461C14.5963 2.31964 14.6666 2.4892 14.6666 2.66602V13.3327C14.6666 13.5095 14.5963 13.6791 14.4713 13.8041C14.3463 13.9291 14.1767 13.9993 13.9999 13.9993H1.99992C1.82311 13.9993 1.65354 13.9291 1.52851 13.8041C1.40349 13.6791 1.33325 13.5095 1.33325 13.3327V2.66602C1.33325 2.4892 1.40349 2.31964 1.52851 2.19461C1.65354 2.06959 1.82311 1.99935 1.99992 1.99935H4.66659V0.666016H5.99992V1.99935H9.99992V0.666016H11.3333V1.99935ZM9.99992 3.33268H5.99992V4.66602H4.66659V3.33268H2.66659V5.99935H13.3333V3.33268H11.3333V4.66602H9.99992V3.33268ZM13.3333 7.33268H2.66659V12.666H13.3333V7.33268Z" fill="#030235"/>
</svg>
