<svg width="16" height="16" viewBox="0 0 16 16" fill="none" xmlns="http://www.w3.org/2000/svg">
<rect width="16" height="16" fill="white"/>
<path fill-rule="evenodd" clip-rule="evenodd" d="M7.33316 2.00053L7.33325 2.01155V7.61641L2.47138 10.4234C2.15308 10.6072 2.04365 11.0138 2.22641 11.3324C2.23398 11.348 2.24221 11.3633 2.25111 11.3784C2.8429 12.3854 3.68888 13.2193 4.70431 13.7965C5.71974 14.3736 6.869 14.6739 8.03699 14.6672C9.20499 14.6605 10.3507 14.3471 11.3595 13.7582C12.3682 13.1694 13.2045 12.3259 13.7847 11.3122C14.3649 10.2985 14.6686 9.15014 14.6654 7.98213C14.6622 6.83593 14.3635 5.71029 13.7988 4.71372C13.7913 4.69811 13.7832 4.68267 13.7744 4.66743C13.7656 4.65227 13.7564 4.63758 13.7466 4.62338C13.1617 3.6279 12.3282 2.80119 11.3274 2.22447C10.3154 1.64128 9.16797 1.3342 7.99995 1.33398C7.63177 1.33392 7.33323 1.63234 7.33316 2.00053ZM5.36319 12.6373C4.73356 12.2794 4.18538 11.7982 3.75019 11.2247L12.9151 5.93334C13.1875 6.58117 13.3301 7.27861 13.332 7.98584C13.3346 8.92024 13.0917 9.83893 12.6275 10.6499C12.1634 11.4609 11.4943 12.1357 10.6873 12.6067C9.88032 13.0778 8.96373 13.3285 8.02934 13.3339C7.09494 13.3393 6.17554 13.099 5.36319 12.6373ZM8.66659 6.84661L12.2487 4.77849C11.8197 4.2127 11.2807 3.73643 10.6617 3.37971C10.0459 3.02483 9.36735 2.79775 8.66659 2.7093V6.84661ZM6.16619 2.54473C5.99992 1.66732 5.22163 1.93876 5.22163 1.93876C4.06119 2.4709 3.07791 3.32499 2.38863 4.39955C1.69939 5.47406 1.33309 6.72406 1.33325 8.00062C1.33322 8.23611 1.34554 8.47145 1.37015 8.70565C1.39375 8.93016 1.52937 9.12747 1.73051 9.22996C1.93165 9.33245 2.171 9.32618 2.3665 9.21331L5.83288 7.21202C6.03915 7.09293 6.16622 6.87284 6.16622 6.63466L6.16619 2.54473ZM3.51092 5.11945C3.99992 4.33396 4.31233 4.09212 4.83286 3.70787L4.83288 6.24976L2.69134 7.48617C2.77259 6.64584 3.05245 5.83418 3.51092 5.11945Z" fill="#6B6E85"/>
</svg>
