<svg width="16" height="16" viewBox="0 0 16 16" fill="none" xmlns="http://www.w3.org/2000/svg">
<path fill-rule="evenodd" clip-rule="evenodd" d="M7.99992 2.66732C6.15897 2.66732 4.66659 4.1597 4.66659 6.00065C4.66659 7.8416 6.15897 9.33398 7.99992 9.33398C9.84087 9.33398 11.3333 7.8416 11.3333 6.00065C11.3333 4.1597 9.84087 2.66732 7.99992 2.66732ZM3.33325 6.00065C3.33325 3.42332 5.42259 1.33398 7.99992 1.33398C10.5772 1.33398 12.6666 3.42332 12.6666 6.00065C12.6666 8.57798 10.5772 10.6673 7.99992 10.6673C5.42259 10.6673 3.33325 8.57798 3.33325 6.00065Z" fill="#030235"/>
<path fill-rule="evenodd" clip-rule="evenodd" d="M8.00078 10.6673C6.88894 10.6673 5.79667 10.9599 4.8337 11.5157C3.87074 12.0714 3.07098 12.8708 2.51478 13.8336C2.3306 14.1524 1.92284 14.2615 1.60403 14.0773C1.28522 13.8931 1.17609 13.4854 1.36028 13.1666C2.03353 12.0012 3.00159 11.0336 4.16721 10.3609C5.33283 9.68812 6.65497 9.33397 8.00079 9.33398C9.34662 9.334 10.6688 9.68818 11.8344 10.3609C13 11.0337 13.968 12.0014 14.6412 13.1667C14.8254 13.4855 14.7163 13.8933 14.3975 14.0775C14.0786 14.2616 13.6709 14.1525 13.4867 13.8337C12.9305 12.8709 12.1308 12.0715 11.1678 11.5157C10.2049 10.9599 9.11262 10.6673 8.00078 10.6673Z" fill="#030235"/>
</svg>
