<svg width="20" height="20" viewBox="0 0 20 20" fill="none" xmlns="http://www.w3.org/2000/svg">
<path fill-rule="evenodd" clip-rule="evenodd" d="M3.91827 1.66602C3.57703 1.66602 3.26508 1.85881 3.11248 2.16402L1.76113 4.86672C1.69858 4.99182 1.66602 5.12976 1.66602 5.26962V16.7561C1.66602 17.1742 1.83212 17.5752 2.12778 17.8709C2.42345 18.1666 2.82446 18.3327 3.24259 18.3327H16.7561C17.1742 18.3327 17.5752 18.1666 17.8709 17.8709C18.1666 17.5752 18.3327 17.1742 18.3327 16.7561V5.26962C18.3327 5.12976 18.3001 4.99182 18.2376 4.86672L16.8862 2.16402C16.7336 1.85881 16.4217 1.66602 16.0804 1.66602H3.91827ZM4.0246 4.36872L4.47506 3.46782H15.5236L15.9741 4.36872H4.0246ZM3.46782 6.17052H16.5309V16.5309H3.46782V6.17052ZM10.6457 8.86138C10.6457 8.49476 10.3564 8.19756 9.99947 8.19755C9.64254 8.19754 9.35318 8.49473 9.35318 8.86135L9.35311 12.2375L8.39991 11.2584C8.14752 10.9992 7.73832 10.9992 7.48594 11.2584C7.23355 11.5176 7.23355 11.9379 7.48594 12.1972L9.54236 14.3094C9.79475 14.5687 10.2039 14.5687 10.4563 14.3094L12.5128 12.1972C12.7651 11.9379 12.7651 11.5176 12.5128 11.2584C12.2604 10.9992 11.8512 10.9992 11.5988 11.2584L10.6457 12.2374L10.6457 8.86138Z" fill="#6B6E85"/>
</svg>
