<svg width="20" height="20" viewBox="0 0 20 20" fill="none" xmlns="http://www.w3.org/2000/svg">
<path fill-rule="evenodd" clip-rule="evenodd" d="M6.87452 13.3327C5.905 13.3327 4.94973 13.566 4.08935 14.0129C3.22896 14.4598 2.48873 15.1071 1.93114 15.9002C1.66645 16.2767 1.14666 16.3674 0.770151 16.1027C0.393646 15.838 0.303003 15.3182 0.567696 14.9417C1.27907 13.9298 2.22346 13.104 3.32113 12.5338C4.41881 11.9637 5.63755 11.6661 6.87445 11.666C8.11136 11.666 9.33012 11.9635 10.4278 12.5336C11.5256 13.1036 12.47 13.9294 13.1815 14.9412C13.4462 15.3177 13.3556 15.8375 12.9791 16.1022C12.6026 16.3669 12.0828 16.2763 11.8181 15.8999C11.2604 15.1068 10.5202 14.4595 9.65974 14.0127C8.79932 13.5659 7.84403 13.3326 6.87452 13.3327Z" fill="#6B6E85"/>
<path fill-rule="evenodd" clip-rule="evenodd" d="M6.87435 5.20768C5.09093 5.20768 3.64518 6.65343 3.64518 8.43685C3.64518 10.2203 5.09093 11.666 6.87435 11.666C8.65777 11.666 10.1035 10.2203 10.1035 8.43685C10.1035 6.65343 8.65777 5.20768 6.87435 5.20768ZM1.97852 8.43685C1.97852 5.73296 4.17045 3.54102 6.87435 3.54102C9.57824 3.54102 11.7702 5.73295 11.7702 8.43685C11.7702 11.1407 9.57824 13.3327 6.87435 13.3327C4.17045 13.3327 1.97852 11.1407 1.97852 8.43685Z" fill="#6B6E85"/>
<path fill-rule="evenodd" clip-rule="evenodd" d="M13.7342 5.24511C13.2781 5.17506 12.8123 5.20357 12.3681 5.32871C11.9251 5.45352 11.4648 5.19559 11.34 4.7526C11.2152 4.30961 11.4732 3.84931 11.9161 3.7245C12.5895 3.53478 13.2957 3.49156 13.9872 3.59775C14.6787 3.70395 15.3394 3.95709 15.9248 4.34012C16.5102 4.72316 17.0067 5.2272 17.381 5.8183C17.7552 6.40939 17.9984 7.07381 18.0942 7.76681C18.19 8.45981 18.1361 9.16529 17.9363 9.83573C17.7365 10.5062 17.3954 11.126 16.9358 11.6535C16.4763 12.181 15.9091 12.6039 15.2723 12.8937C14.6356 13.1835 13.9441 13.3335 13.2445 13.3336C12.7843 13.3337 12.4112 12.9606 12.4111 12.5004C12.4111 12.0401 12.7841 11.667 13.2444 11.6669C13.7058 11.6669 14.1619 11.568 14.5819 11.3768C15.0019 11.1856 15.376 10.9067 15.6792 10.5587C15.9823 10.2108 16.2073 9.80195 16.3391 9.35972C16.4709 8.91749 16.5064 8.45215 16.4432 7.99504C16.38 7.53794 16.2196 7.09968 15.9728 6.70979C15.7259 6.3199 15.3984 5.98743 15.0123 5.73478C14.6261 5.48213 14.1903 5.31515 13.7342 5.24511Z" fill="#6B6E85"/>
<path fill-rule="evenodd" clip-rule="evenodd" d="M16.0272 14.0117C15.1669 13.5649 14.2116 13.332 13.2421 13.3327C12.7819 13.333 12.4085 12.9602 12.4082 12.5C12.4079 12.0397 12.7807 11.6664 13.2409 11.666C14.4781 11.6651 15.6973 11.9624 16.7953 12.5326C17.8933 13.1028 18.8377 13.9291 19.5486 14.9417C19.813 15.3184 19.7221 15.8381 19.3454 16.1026C18.9687 16.367 18.449 16.276 18.1845 15.8994C17.6275 15.106 16.8875 14.4584 16.0272 14.0117Z" fill="#6B6E85"/>
</svg>
