<svg width="20" height="20" viewBox="0 0 20 20" fill="none" xmlns="http://www.w3.org/2000/svg">
<path fill-rule="evenodd" clip-rule="evenodd" d="M4.58268 1.66602C3.66221 1.66602 2.91602 2.41221 2.91602 3.33268V16.666C2.91602 17.5865 3.66221 18.3327 4.58268 18.3327H15.416C16.3365 18.3327 17.0827 17.5865 17.0827 16.666V7.01119C17.0827 6.98627 17.0821 6.9614 17.081 6.93661C17.0825 6.91605 17.0833 6.89529 17.0833 6.87435C17.0833 6.75867 17.0597 6.6485 17.0171 6.54837C16.9396 6.28032 16.7954 6.03351 16.5945 5.83268L12.916 2.15417C12.714 1.95218 12.4655 1.80739 12.1957 1.73023C12.0968 1.68887 11.9882 1.66602 11.8743 1.66602C11.8552 1.66602 11.8362 1.66666 11.8174 1.66793C11.7909 1.66666 11.7642 1.66602 11.7375 1.66602H4.58268ZM11.041 3.33268L4.58268 3.33268V16.666H15.416V7.70768H11.8743C11.4141 7.70768 11.041 7.33459 11.041 6.87435V3.33268ZM14.4458 6.04102L12.7077 4.30286V6.04102H14.4458Z" fill="#6B6E85"/>
</svg>
