<svg width="20" height="20" viewBox="0 0 20 20" fill="none" xmlns="http://www.w3.org/2000/svg">
<path fill-rule="evenodd" clip-rule="evenodd" d="M2.66732 15.0938V3.86458H6.9451L9.26732 5.60625C9.54499 5.81451 9.88273 5.92708 10.2298 5.92708H17.334V15.0938H2.66732ZM2.43815 2.03125C2.0127 2.03125 1.60467 2.20026 1.30383 2.5011C1.00299 2.80194 0.833984 3.20996 0.833984 3.63542V15.3229C0.833984 15.7484 1.00299 16.1564 1.30383 16.4572C1.60467 16.7581 2.0127 16.9271 2.43815 16.9271H17.6395C18.0447 16.9271 18.4333 16.7661 18.7198 16.4796C19.0064 16.1931 19.1673 15.8045 19.1673 15.3993V5.69792C19.1673 5.27247 18.9983 4.86444 18.6975 4.5636C18.3966 4.26276 17.9886 4.09375 17.5632 4.09375H10.3062L7.98398 2.35208C7.70631 2.14383 7.36858 2.03125 7.02148 2.03125H2.43815ZM7.46777 9.85273C7.09474 9.85272 6.79233 10.1471 6.79232 10.5103C6.79231 10.8735 7.09471 11.1679 7.46774 11.1679L10.9029 11.168L9.90673 12.1378C9.64296 12.3947 9.64296 12.811 9.90673 13.0678C10.1705 13.3246 10.5982 13.3246 10.8619 13.0678L13.0112 10.9754C13.2749 10.7186 13.2749 10.3022 13.0112 10.0454L10.8619 7.95302C10.5982 7.69622 10.1705 7.69622 9.90673 7.95302C9.64296 8.20982 9.64296 8.62618 9.90673 8.88299L10.9029 9.8528L7.46777 9.85273Z" fill="#6B6E85"/>
</svg>
