<svg width="20" height="20" viewBox="0 0 20 20" fill="none" xmlns="http://www.w3.org/2000/svg">
<path fill-rule="evenodd" clip-rule="evenodd" d="M4.11081 12.5876L10.6397 6.05872L13.9411 9.36007L7.41216 15.889L4.11081 12.5876ZM2.14428 12.287C2.13319 12.3127 2.1234 12.3389 2.11493 12.3653C2.06089 12.5226 2.0332 12.688 2.0332 12.8547V16.4604C2.0332 16.8599 2.19189 17.243 2.47435 17.5254C2.75682 17.8079 3.13992 17.9666 3.53938 17.9666H7.39933C7.40356 17.9666 7.40779 17.9667 7.41202 17.9667H17.0946C17.5699 17.9667 17.9552 17.5813 17.9552 17.106C17.9552 16.6307 17.5699 16.2453 17.0946 16.2453H9.49015L15.7605 9.97495L15.7668 9.96869L15.7731 9.96236L17.8926 7.84286C18.1751 7.5604 18.3338 7.1773 18.3338 6.77784C18.3338 6.37837 18.1751 5.99527 17.8926 5.71281L14.287 2.10716L13.839 2.55508L14.287 2.10716C14.0045 1.8247 13.6214 1.66602 13.2219 1.66602C12.8225 1.66602 12.4394 1.8247 12.1569 2.10716L12.7531 2.70333L12.1569 2.10716L2.47435 11.7897C2.33449 11.9296 2.22355 12.0956 2.14785 12.2784C2.14666 12.2813 2.14547 12.2841 2.14428 12.287ZM5.33408 16.2452H3.75455V14.6657L5.33408 16.2452ZM11.8569 4.84154L15.1582 8.14289L16.5233 6.77784L13.2219 3.47648L11.8569 4.84154Z" fill="#6B6E85"/>
</svg>
