<svg xmlns="http://www.w3.org/2000/svg" xmlns:xlink="http://www.w3.org/1999/xlink">
	<symbol viewBox="0 0 20 20" id="apps">
		<path d="M5.62492 2.08301C6.09002 2.08301 6.55056 2.17462 6.98026 2.3526C7.40995 2.53059 7.80038 2.79146 8.12926 3.12034C8.45813 3.44921 8.71901 3.83964 8.89699 4.26934C9.07498 4.69903 9.16659 5.15958 9.16659 5.62467V9.16634H5.62492C4.68561 9.16634 3.78477 8.7932 3.12058 8.12901C2.45639 7.46482 2.08325 6.56398 2.08325 5.62467C2.08325 4.68537 2.45639 3.78453 3.12058 3.12034C3.78477 2.45615 4.68561 2.08301 5.62492 2.08301V2.08301ZM5.62492 10.833H9.16659V14.3747C9.16659 15.0751 8.95887 15.7599 8.56971 16.3423C8.18054 16.9247 7.62741 17.3787 6.98026 17.6467C6.3331 17.9148 5.62099 17.9849 4.93398 17.8483C4.24696 17.7116 3.61589 17.3743 3.12058 16.879C2.62527 16.3837 2.28796 15.7526 2.15131 15.0656C2.01465 14.3786 2.08479 13.6665 2.35285 13.0193C2.62091 12.3722 3.07485 11.819 3.65728 11.4299C4.2397 11.0407 4.92444 10.833 5.62492 10.833V10.833ZM14.3749 2.08301C15.3142 2.08301 16.2151 2.45615 16.8793 3.12034C17.5434 3.78453 17.9166 4.68537 17.9166 5.62467C17.9166 6.56398 17.5434 7.46482 16.8793 8.12901C16.2151 8.7932 15.3142 9.16634 14.3749 9.16634H10.8333V5.62467C10.8333 4.68537 11.2064 3.78453 11.8706 3.12034C12.5348 2.45615 13.4356 2.08301 14.3749 2.08301V2.08301ZM10.8333 10.833H14.3749C15.0754 10.833 15.7601 11.0407 16.3426 11.4299C16.925 11.819 17.3789 12.3722 17.647 13.0193C17.9151 13.6665 17.9852 14.3786 17.8485 15.0656C17.7119 15.7526 17.3746 16.3837 16.8793 16.879C16.3839 17.3743 15.7529 17.7116 15.0659 17.8483C14.3788 17.9849 13.6667 17.9148 13.0196 17.6467C12.3724 17.3787 11.8193 16.9247 11.4301 16.3423C11.041 15.7599 10.8333 15.0751 10.8333 14.3747V10.833Z"/>
	</symbol>
</svg>
