<svg xmlns="http://www.w3.org/2000/svg" xmlns:xlink="http://www.w3.org/1999/xlink">
	<symbol viewBox="0 0 20 20" id="cloud">
		<path d="M14.1674 6.67139C12.8104 6.67127 11.4857 7.0851 10.3701 7.85761C9.25458 8.63011 8.40133 9.72451 7.92435 10.9946L9.48575 11.5802C9.89817 10.4852 10.6817 9.56944 11.6999 8.99246C12.7181 8.41548 13.9065 8.21383 15.0581 8.42262C16.2097 8.6314 17.2516 9.23739 18.0023 10.1351C18.753 11.0328 19.165 12.1652 19.1666 13.3354C19.1666 14.6609 18.6399 15.9322 17.7024 16.8695C16.7648 17.8068 15.4933 18.3333 14.1674 18.3333H5.83554C4.6551 18.3341 3.51248 17.9172 2.61 17.1564C1.70752 16.3957 1.10342 15.3403 0.904645 14.1769C0.705875 13.0136 0.925268 11.8175 1.52398 10.8004C2.12269 9.78332 3.06208 9.01084 4.17583 8.61976C4.10446 7.18086 4.56843 5.76648 5.47829 4.6493C6.38814 3.53213 7.67946 2.79125 9.1033 2.5695C10.5271 2.34775 11.9827 2.66084 13.1893 3.4484C14.3959 4.23596 15.2682 5.44223 15.638 6.83465C15.1554 6.72602 14.6622 6.67126 14.1674 6.67139V6.67139Z"/>
	</symbol>
</svg>
