<svg xmlns="http://www.w3.org/2000/svg" xmlns:xlink="http://www.w3.org/1999/xlink">
	<symbol viewBox="0 0 20 20" id="cup">
<path fill-rule="evenodd" clip-rule="evenodd" d="M7.70841 2.70833C7.70841 2.2481 7.33532 1.875 6.87508 1.875C6.41484 1.875 6.04175 2.2481 6.04175 2.70833V5.20833C6.04175 5.66857 6.41484 6.04167 6.87508 6.04167C7.33532 6.04167 7.70841 5.66857 7.70841 5.20833V2.70833ZM10.2084 2.70833C10.2084 2.2481 9.83532 1.875 9.37508 1.875C8.91484 1.875 8.54175 2.2481 8.54175 2.70833V5.20833C8.54175 5.66857 8.91484 6.04167 9.37508 6.04167C9.83532 6.04167 10.2084 5.66857 10.2084 5.20833V2.70833ZM15.4166 7.70833C15.4166 7.2481 15.7897 6.875 16.2499 6.875C17.134 6.875 17.9818 7.22619 18.607 7.85131C19.2321 8.47643 19.5833 9.32428 19.5833 10.2083V10.8333C19.5833 11.7174 19.2321 12.5652 18.607 13.1904C17.9818 13.8155 17.134 14.1667 16.2499 14.1667H15.986C15.5258 14.1667 15.1527 13.7936 15.1527 13.3333C15.1527 12.8731 15.5258 12.5 15.986 12.5H16.2499C16.692 12.5 17.1159 12.3244 17.4285 12.0118C17.741 11.6993 17.9166 11.2754 17.9166 10.8333V10.2083C17.9166 9.76631 17.741 9.34238 17.4285 9.02982C17.1159 8.71726 16.692 8.54167 16.2499 8.54167C15.7897 8.54167 15.4166 8.16857 15.4166 7.70833ZM12.7084 2.70833C12.7084 2.2481 12.3353 1.875 11.8751 1.875C11.4148 1.875 11.0417 2.2481 11.0417 2.70833V5.20833C11.0417 5.66857 11.4148 6.04167 11.8751 6.04167C12.3353 6.04167 12.7084 5.66857 12.7084 5.20833V2.70833Z"/>
<path fill-rule="evenodd" clip-rule="evenodd" d="M5.13912 16.0417C4.53278 15.5673 4.00738 14.992 3.58774 14.3375C2.87736 13.2296 2.49987 11.9411 2.50008 10.625V6.875H16.2501V10.625C16.2503 11.9411 15.8728 13.2296 15.1624 14.3376C14.7428 14.992 14.2174 15.5673 13.611 16.0417H16.2501C16.7103 16.0417 17.0834 16.4148 17.0834 16.875C17.0834 17.3352 16.7103 17.7083 16.2501 17.7083H2.50008C2.03984 17.7083 1.66675 17.3352 1.66675 16.875C1.66675 16.4148 2.03984 16.0417 2.50008 16.0417H5.13912Z"/>
	</symbol>
</svg>

