<svg xmlns="http://www.w3.org/2000/svg" xmlns:xlink="http://www.w3.org/1999/xlink">
	<symbol viewBox="0 0 20 20" id="folder">
<path d="M18.3334 7.63158V16.9152C18.3334 17.0703 18.2684 17.219 18.1526 17.3287C18.0369 17.4384 17.8798 17.5 17.7161 17.5H2.36119C2.17701 17.5 2.00038 17.4307 1.87015 17.3073C1.73991 17.1839 1.66675 17.0166 1.66675 16.8421V5.65789C1.66675 5.48341 1.73991 5.31607 1.87015 5.19269C2.00038 5.06931 2.17701 5 2.36119 5H6.99082C7.14108 5 7.28728 5.04617 7.40749 5.13158L9.8149 6.84211C9.9351 6.92751 10.0813 6.97368 10.2316 6.97368H17.639C17.8231 6.97368 17.9998 7.043 18.13 7.16638C18.2603 7.28976 18.3334 7.45709 18.3334 7.63158Z"/>
	</symbol>
</svg>
