<svg xmlns="http://www.w3.org/2000/svg" xmlns:xlink="http://www.w3.org/1999/xlink">
	<symbol viewBox="0 0 20 20" id="home">
<path d="M12.045 17.6337V13.4393C12.045 13.2539 11.9731 13.076 11.8453 12.9449C11.7174 12.8138 11.544 12.7402 11.3631 12.7402H8.63586C8.45503 12.7402 8.28161 12.8138 8.15375 12.9449C8.02588 13.076 7.95405 13.2539 7.95405 13.4393V17.6337C7.95405 17.8191 7.88222 17.9969 7.75438 18.128C7.62653 18.2591 7.45313 18.3328 7.27231 18.3328L3.1819 18.3333C3.09236 18.3333 3.00369 18.3153 2.92096 18.2801C2.83822 18.245 2.76305 18.1935 2.69973 18.1286C2.63641 18.0637 2.58618 17.9866 2.55191 17.9018C2.51764 17.817 2.5 17.7261 2.5 17.6343V9.55483C2.5 9.45743 2.51985 9.36111 2.55827 9.27205C2.5967 9.18298 2.65285 9.10312 2.72313 9.0376L9.54085 2.68184C9.66635 2.56484 9.82988 2.50001 9.99951 2.5C10.1691 2.49999 10.3327 2.56482 10.4582 2.68181L17.2768 9.0376C17.3471 9.10312 17.4033 9.18298 17.4417 9.27205C17.4801 9.36113 17.5 9.45745 17.5 9.55485V17.6343C17.5 17.7261 17.4824 17.817 17.4481 17.9018C17.4138 17.9866 17.3636 18.0637 17.3003 18.1286C17.2369 18.1935 17.1618 18.245 17.079 18.2801C16.9963 18.3153 16.9076 18.3333 16.8181 18.3333L12.7267 18.3328C12.5459 18.3328 12.3725 18.2591 12.2446 18.128C12.1168 17.9969 12.045 17.8191 12.045 17.6337V17.6337Z"/>
	</symbol>
</svg>
