<svg xmlns="http://www.w3.org/2000/svg" xmlns:xlink="http://www.w3.org/1999/xlink">
	<symbol viewBox="0 0 20 20" id="image">
<path d="M16.6667 4.16667H3.33341V15.8333L11.0767 8.08833C11.233 7.93211 11.4449 7.84434 11.6659 7.84434C11.8869 7.84434 12.0988 7.93211 12.2551 8.08833L16.6667 12.5083V4.16667ZM1.66675 3.3275C1.66827 3.10865 1.75583 2.89918 1.91051 2.74435C2.06519 2.58951 2.27456 2.50175 2.49341 2.5H17.5067C17.9634 2.5 18.3334 2.87083 18.3334 3.3275V16.6725C18.3319 16.8914 18.2443 17.1008 18.0897 17.2557C17.935 17.4105 17.7256 17.4983 17.5067 17.5H2.49341C2.27409 17.4998 2.06383 17.4125 1.90882 17.2573C1.75382 17.1022 1.66675 16.8918 1.66675 16.6725V3.3275ZM6.66675 9.16667C6.22472 9.16667 5.8008 8.99107 5.48824 8.67851C5.17568 8.36595 5.00008 7.94203 5.00008 7.5C5.00008 7.05797 5.17568 6.63405 5.48824 6.32149C5.8008 6.00893 6.22472 5.83333 6.66675 5.83333C7.10878 5.83333 7.5327 6.00893 7.84526 6.32149C8.15782 6.63405 8.33342 7.05797 8.33342 7.5C8.33342 7.94203 8.15782 8.36595 7.84526 8.67851C7.5327 8.99107 7.10878 9.16667 6.66675 9.16667Z"/>
	</symbol>
</svg>
