<svg xmlns="http://www.w3.org/2000/svg" xmlns:xlink="http://www.w3.org/1999/xlink">
	<symbol viewBox="0 0 20 20" id="lock">
<path d="M15 6.66634H16.6667C16.8877 6.66634 17.0996 6.75414 17.2559 6.91042C17.4122 7.0667 17.5 7.27866 17.5 7.49967V17.4997C17.5 17.7207 17.4122 17.9327 17.2559 18.0889C17.0996 18.2452 16.8877 18.333 16.6667 18.333H3.33333C3.11232 18.333 2.90036 18.2452 2.74408 18.0889C2.5878 17.9327 2.5 17.7207 2.5 17.4997V7.49967C2.5 7.27866 2.5878 7.0667 2.74408 6.91042C2.90036 6.75414 3.11232 6.66634 3.33333 6.66634H5V5.83301C5 4.50693 5.52678 3.23516 6.46447 2.29747C7.40215 1.35979 8.67392 0.833008 10 0.833008C11.3261 0.833008 12.5979 1.35979 13.5355 2.29747C14.4732 3.23516 15 4.50693 15 5.83301V6.66634ZM13.3333 6.66634V5.83301C13.3333 4.94895 12.9821 4.10111 12.357 3.47598C11.7319 2.85086 10.8841 2.49967 10 2.49967C9.11594 2.49967 8.2681 2.85086 7.64298 3.47598C7.01786 4.10111 6.66667 4.94895 6.66667 5.83301V6.66634H13.3333ZM5.83333 9.16634V10.833H7.5V9.16634H5.83333ZM5.83333 11.6663V13.333H7.5V11.6663H5.83333ZM5.83333 14.1663V15.833H7.5V14.1663H5.83333Z"/>
	</symbol>
</svg>
