<svg xmlns="http://www.w3.org/2000/svg" xmlns:xlink="http://www.w3.org/1999/xlink">
	<symbol viewBox="0 0 20 20" id="lightbulb">
<path d="M9.16676 15.0005H6.61759C6.37009 13.9396 5.25342 13.0721 4.79509 12.5005C4.01025 11.5199 3.51838 10.3375 3.37614 9.08961C3.23391 7.84169 3.44709 6.57897 3.99113 5.44692C4.53518 4.31487 5.38795 3.35953 6.45122 2.69095C7.51449 2.02238 8.74499 1.66777 10.001 1.66797C11.257 1.66817 12.4874 2.02318 13.5504 2.69209C14.6135 3.36101 15.466 4.31662 16.0096 5.44885C16.5533 6.58107 16.7661 7.84386 16.6235 9.09173C16.4808 10.3396 15.9886 11.5218 15.2034 12.5021C14.7451 13.073 13.6301 13.9405 13.3826 15.0005H10.8334V10.8338H9.16676V15.0005ZM13.3334 16.6671V17.5005C13.3334 17.9425 13.1578 18.3664 12.8453 18.679C12.5327 18.9915 12.1088 19.1671 11.6668 19.1671H8.33342C7.89139 19.1671 7.46747 18.9915 7.15491 18.679C6.84235 18.3664 6.66676 17.9425 6.66676 17.5005V16.6671H13.3334Z"/>
	</symbol>
</svg>
