<svg xmlns="http://www.w3.org/2000/svg" xmlns:xlink="http://www.w3.org/1999/xlink">
	<symbol viewBox="0 0 20 20" id="location">
<path d="M16.6666 8.91026C16.6666 14.6795 9.99992 19.1667 9.99992 19.1667C9.99992 19.1667 3.33325 14.6795 3.33325 8.91026C3.33325 7.21015 4.03563 5.57968 5.28587 4.37752C6.53612 3.17536 8.23181 2.5 9.99992 2.5C11.768 2.5 13.4637 3.17536 14.714 4.37752C15.9642 5.57968 16.6666 7.21015 16.6666 8.91026V8.91026Z" fill="#98A0AD"/>
<path d="M10 11.458C11.3807 11.458 12.5 10.3387 12.5 8.95801C12.5 7.5773 11.3807 6.45801 10 6.45801C8.61929 6.45801 7.5 7.5773 7.5 8.95801C7.5 10.3387 8.61929 11.458 10 11.458Z" fill="white"/>
	</symbol>
</svg>
