<svg xmlns="http://www.w3.org/2000/svg" xmlns:xlink="http://www.w3.org/1999/xlink">
	<symbol viewBox="0 0 20 20" id="new">
<path d="M7.5 17.8125H12.5" stroke-width="2" stroke-linecap="round" stroke-linejoin="round"/>
<path d="M4.39095 8.12495C4.38991 7.38371 4.5356 6.64959 4.81961 5.96491C5.10361 5.28024 5.52033 4.65854 6.04573 4.13567C6.57113 3.61279 7.19482 3.19907 7.88085 2.91837C8.56689 2.63766 9.3017 2.49551 10.0429 2.50011C13.1359 2.5231 15.6098 5.09396 15.6098 8.19557V8.43745C15.6098 11.2355 16.1953 12.8592 16.7109 13.7467C16.7664 13.8415 16.796 13.9493 16.7965 14.0592C16.7971 14.1691 16.7687 14.2772 16.7142 14.3726C16.6597 14.468 16.581 14.5474 16.486 14.6026C16.391 14.6579 16.2831 14.6872 16.1732 14.6875H3.82693C3.71703 14.6872 3.60914 14.6579 3.51415 14.6026C3.41917 14.5473 3.34045 14.468 3.28592 14.3725C3.2314 14.2771 3.20302 14.169 3.20362 14.0591C3.20423 13.9492 3.23381 13.8414 3.28938 13.7465C3.80526 12.8591 4.39095 11.2354 4.39095 8.43745L4.39095 8.12495Z"/>
	</symbol>
</svg>
