<svg xmlns="http://www.w3.org/2000/svg" xmlns:xlink="http://www.w3.org/1999/xlink">
	<symbol viewBox="0 0 20 20" id="plant">
<path d="M17.5001 2.50033V4.16699C17.5001 7.38866 14.8884 10.0003 11.6667 10.0003H10.8334V10.8337H15.0001V16.667C15.0001 17.5878 14.2542 18.3337 13.3334 18.3337H6.66675C5.74591 18.3337 5.00008 17.5878 5.00008 16.667V10.8337H9.16675V8.33366C9.16675 5.11199 11.7784 2.50033 15.0001 2.50033H17.5001ZM4.58341 1.66699C6.69091 1.66699 8.55425 2.70949 9.68675 4.30783C8.83675 5.42533 8.33341 6.82116 8.33341 8.33366V9.16699H7.91675C4.46508 9.16699 1.66675 6.36866 1.66675 2.91699V1.66699H4.58341Z"/>
	</symbol>
</svg>
