<svg xmlns="http://www.w3.org/2000/svg" xmlns:xlink="http://www.w3.org/1999/xlink">
	<symbol viewBox="0 0 20 20" id="paint">
<path d="M3.33333 2.5H16.6667C16.8877 2.5 17.0996 2.5878 17.2559 2.74408C17.4122 2.90036 17.5 3.11232 17.5 3.33333V7.5C17.5 7.72101 17.4122 7.93298 17.2559 8.08926C17.0996 8.24554 16.8877 8.33333 16.6667 8.33333H3.33333C3.11232 8.33333 2.90036 8.24554 2.74408 8.08926C2.5878 7.93298 2.5 7.72101 2.5 7.5V3.33333C2.5 3.11232 2.5878 2.90036 2.74408 2.74408C2.90036 2.5878 3.11232 2.5 3.33333 2.5V2.5ZM5 10H10C10.221 10 10.433 10.0878 10.5893 10.2441C10.7455 10.4004 10.8333 10.6123 10.8333 10.8333V13.3333H11.6667V18.3333H8.33333V13.3333H9.16667V11.6667H4.16667C3.94565 11.6667 3.73369 11.5789 3.57741 11.4226C3.42113 11.2663 3.33333 11.0543 3.33333 10.8333V9.16667H5V10ZM14.7767 11.4433L16.25 9.97L17.7233 11.4433C18.0146 11.7347 18.213 12.1059 18.2933 12.51C18.3737 12.9142 18.3324 13.333 18.1747 13.7137C18.017 14.0943 17.75 14.4196 17.4074 14.6485C17.0648 14.8774 16.662 14.9996 16.25 14.9996C15.838 14.9996 15.4352 14.8774 15.0926 14.6485C14.75 14.4196 14.483 14.0943 14.3253 13.7137C14.1676 13.333 14.1263 12.9142 14.2067 12.51C14.287 12.1059 14.4854 11.7347 14.7767 11.4433V11.4433Z"/>
	</symbol>
</svg>
