<svg xmlns="http://www.w3.org/2000/svg" xmlns:xlink="http://www.w3.org/1999/xlink">
	<symbol viewBox="0 0 20 20" id="pencil">
<path d="M4.16667 15.0003V16.667H7.5V15.0003H4.16667ZM2.5 5.83366L5.83333 1.66699L9.16667 5.83366V18.3337H2.5V5.83366ZM17.5 6.66699H15.8333V8.33366H17.5V10.0003H15V11.667H17.5V13.3337H15.8333V15.0003H17.5V17.5003C17.5 17.7213 17.4122 17.9333 17.2559 18.0896C17.0996 18.2459 16.8877 18.3337 16.6667 18.3337H11.6667C11.4457 18.3337 11.2337 18.2459 11.0774 18.0896C10.9211 17.9333 10.8333 17.7213 10.8333 17.5003V4.16699C10.8333 3.94598 10.9211 3.73402 11.0774 3.57774C11.2337 3.42146 11.4457 3.33366 11.6667 3.33366H16.6667C16.8877 3.33366 17.0996 3.42146 17.2559 3.57774C17.4122 3.73402 17.5 3.94598 17.5 4.16699V6.66699Z"/>
	</symbol>
</svg>
