<svg xmlns="http://www.w3.org/2000/svg" xmlns:xlink="http://www.w3.org/1999/xlink">
	<symbol viewBox="0 0 20 20" id="rocket">
<path d="M4.44062 13.2738C4.25717 12.4732 4.16492 11.6544 4.16562 10.833C4.16562 6.59298 6.58479 2.96965 9.99896 1.51465C13.4131 2.96965 15.8323 6.59298 15.8323 10.833C15.8323 11.6746 15.7373 12.4921 15.5573 13.2738L17.2406 14.7705C17.3131 14.8349 17.3608 14.9226 17.3755 15.0184C17.3903 15.1143 17.3712 15.2122 17.3215 15.2955L15.2731 18.7088C15.2405 18.763 15.196 18.8091 15.1429 18.8436C15.0898 18.8781 15.0296 18.9 14.9668 18.9077C14.904 18.9154 14.8402 18.9087 14.7804 18.8881C14.7206 18.8675 14.6662 18.8336 14.6215 18.7888L12.7431 16.9105C12.5869 16.7542 12.375 16.6664 12.154 16.6663H7.84396C7.62296 16.6664 7.41103 16.7542 7.25479 16.9105L5.37646 18.7888C5.3317 18.8336 5.27734 18.8675 5.21751 18.8881C5.15767 18.9087 5.09393 18.9154 5.03112 18.9077C4.96831 18.9 4.90808 18.8781 4.855 18.8436C4.80193 18.8091 4.75739 18.763 4.72479 18.7088L2.67646 15.2963C2.62652 15.213 2.60727 15.1148 2.62203 15.0188C2.63679 14.9228 2.68463 14.835 2.75729 14.7705L4.44062 13.2738V13.2738ZM9.99896 10.833C10.441 10.833 10.8649 10.6574 11.1775 10.3448C11.49 10.0323 11.6656 9.60834 11.6656 9.16632C11.6656 8.72429 11.49 8.30036 11.1775 7.9878C10.8649 7.67524 10.441 7.49965 9.99896 7.49965C9.55693 7.49965 9.13301 7.67524 8.82044 7.9878C8.50788 8.30036 8.33229 8.72429 8.33229 9.16632C8.33229 9.60834 8.50788 10.0323 8.82044 10.3448C9.13301 10.6574 9.55693 10.833 9.99896 10.833Z"/>
	</symbol>
</svg>
