<svg xmlns="http://www.w3.org/2000/svg" xmlns:xlink="http://www.w3.org/1999/xlink">
	<symbol viewBox="0 0 20 20" id="setting">
<path d="M8.29341 1.84225C9.41752 1.60653 10.5782 1.60596 11.7026 1.84059C11.7775 2.33499 11.9628 2.80616 12.2449 3.21907C12.5269 3.63198 12.8984 3.97601 13.3317 4.22559C13.7647 4.47603 14.2486 4.62564 14.7473 4.6633C15.2461 4.70095 15.7469 4.62568 16.2126 4.44309C16.9778 5.2998 17.5575 6.30562 17.9151 7.39725C17.5245 7.7094 17.2093 8.10554 16.9929 8.55625C16.7765 9.00695 16.6645 9.50062 16.6651 10.0006C16.6651 11.0539 17.1534 11.9931 17.9167 12.6039C17.557 13.6946 16.9766 14.6997 16.2117 15.5564C15.7462 15.374 15.2455 15.2988 14.7469 15.3364C14.2483 15.3741 13.7646 15.5236 13.3317 15.7739C12.8988 16.0234 12.5276 16.3672 12.2457 16.7798C11.9638 17.1924 11.7785 17.6632 11.7034 18.1573C10.5794 18.3935 9.4187 18.3947 8.29424 18.1606C8.2197 17.6657 8.0345 17.1941 7.75243 16.7807C7.47036 16.3673 7.09869 16.0229 6.66508 15.7731C6.23205 15.5228 5.74816 15.3733 5.2494 15.3358C4.75064 15.2983 4.24984 15.3737 3.78425 15.5564C3.01891 14.6995 2.43925 13.6933 2.08174 12.6014C2.47207 12.2894 2.78713 11.8936 3.00352 11.4432C3.21992 10.9928 3.3321 10.4994 3.33174 9.99975C3.33215 9.49965 3.21983 9.00589 3.00313 8.55518C2.78644 8.10447 2.47093 7.7084 2.08008 7.39642C2.4398 6.30569 3.02018 5.30067 3.78508 4.44392C4.25062 4.62638 4.7513 4.70158 5.24991 4.66393C5.74851 4.62627 6.23222 4.47673 6.66508 4.22642C7.09803 3.97692 7.46923 3.63311 7.75113 3.22051C8.03302 2.80791 8.21837 2.33712 8.29341 1.84309V1.84225ZM9.99841 12.5006C10.6615 12.5006 11.2973 12.2372 11.7662 11.7684C12.235 11.2995 12.4984 10.6636 12.4984 10.0006C12.4984 9.33754 12.235 8.70166 11.7662 8.23282C11.2973 7.76398 10.6615 7.50059 9.99841 7.50059C9.33537 7.50059 8.69948 7.76398 8.23064 8.23282C7.7618 8.70166 7.49841 9.33754 7.49841 10.0006C7.49841 10.6636 7.7618 11.2995 8.23064 11.7684C8.69948 12.2372 9.33537 12.5006 9.99841 12.5006V12.5006Z"/>
	</symbol>
</svg>
