<svg xmlns="http://www.w3.org/2000/svg" xmlns:xlink="http://www.w3.org/1999/xlink">
	<symbol viewBox="0 0 20 20" id="slideshow">
<path d="M10.8334 15V16.6667H14.1667V18.3333H5.83341V16.6667H9.16675V15H2.50008C2.27907 15 2.06711 14.9122 1.91083 14.7559C1.75455 14.5996 1.66675 14.3877 1.66675 14.1667V3.33333C1.66675 3.11232 1.75455 2.90036 1.91083 2.74408C2.06711 2.5878 2.27907 2.5 2.50008 2.5H17.5001C17.7211 2.5 17.9331 2.5878 18.0893 2.74408C18.2456 2.90036 18.3334 3.11232 18.3334 3.33333V14.1667C18.3334 14.3877 18.2456 14.5996 18.0893 14.7559C17.9331 14.9122 17.7211 15 17.5001 15H10.8334ZM8.33342 6.25V11.25L12.5001 8.75L8.33342 6.25Z"/>
	</symbol>
</svg>
