<svg xmlns="http://www.w3.org/2000/svg" xmlns:xlink="http://www.w3.org/1999/xlink">
	<symbol viewBox="0 0 20 20" id="tools">
<path d="M4.44176 2.72621C4.9618 2.54069 5.52382 2.50659 6.06248 2.62788C6.60113 2.74917 7.0943 3.02086 7.48463 3.41137C7.87497 3.80188 8.14644 4.29517 8.26749 4.83388C8.38853 5.37259 8.35419 5.93459 8.16843 6.45455L17.2059 15.492L15.4376 17.2595L6.4001 8.22288C5.88006 8.4084 5.31804 8.4425 4.77938 8.32121C4.24073 8.19993 3.74757 7.92823 3.35723 7.53772C2.96689 7.14721 2.69542 6.65393 2.57437 6.11522C2.45333 5.57651 2.48768 5.01451 2.67343 4.49455L4.53676 6.35871C4.65207 6.4781 4.79 6.57333 4.94251 6.63884C5.09501 6.70435 5.25904 6.73884 5.42501 6.74028C5.59099 6.74172 5.75559 6.71009 5.90921 6.64724C6.06283 6.58439 6.20239 6.49157 6.31976 6.37421C6.43712 6.25684 6.52994 6.11728 6.59279 5.96366C6.65564 5.81004 6.68727 5.64544 6.68583 5.47946C6.68438 5.31349 6.6499 5.14946 6.58439 4.99696C6.51888 4.84445 6.42365 4.70652 6.30426 4.59121L4.44093 2.72538L4.44176 2.72621ZM13.0809 4.29621L15.7326 2.82288L16.9109 4.00121L15.4376 6.65288L13.9643 6.94788L12.1976 8.71538L11.0184 7.53705L12.7859 5.76955L13.0809 4.29621V4.29621ZM7.18843 10.7779L8.95593 12.5462L4.83093 16.6712C4.60346 16.8966 4.29819 17.026 3.97808 17.0329C3.65797 17.0398 3.34742 16.9236 3.11047 16.7082C2.87353 16.4929 2.72826 16.1948 2.70462 15.8755C2.68098 15.5562 2.78078 15.2399 2.98343 14.992L3.06426 14.9029L7.18926 10.7779H7.18843Z"/>
	</symbol>
</svg>
