<svg width="40" height="40" viewBox="0 0 40 40" fill="none" xmlns="http://www.w3.org/2000/svg">
<path fill-rule="evenodd" clip-rule="evenodd" d="M21.6667 8.57078C21.6667 7.51881 20.9206 6.66602 20.0001 6.66602C19.0796 6.66602 18.3334 7.51881 18.3334 8.57078V18.3327H8.57151C7.51954 18.3327 6.66675 19.0789 6.66675 19.9993C6.66675 20.9198 7.51954 21.666 8.57151 21.666H18.3334V31.4279C18.3334 32.4799 19.0796 33.3327 20.0001 33.3327C20.9206 33.3327 21.6667 32.4799 21.6667 31.4279V21.666H31.4286C32.4806 21.666 33.3334 20.9198 33.3334 19.9993C33.3334 19.0789 32.4806 18.3327 31.4286 18.3327H21.6667V8.57078Z" fill="#030235"/>
</svg>
