<svg width="32" height="32" viewBox="0 0 32 32" fill="none" xmlns="http://www.w3.org/2000/svg">
<path fill-rule="evenodd" clip-rule="evenodd" d="M17.333 6.85779C17.333 6.01622 16.7361 5.33398 15.9997 5.33398C15.2633 5.33398 14.6663 6.01622 14.6663 6.85779V14.6673H6.85682C6.01524 14.6673 5.33301 15.2643 5.33301 16.0007C5.33301 16.737 6.01524 17.334 6.85682 17.334H14.6663V25.1435C14.6663 25.9851 15.2633 26.6673 15.9997 26.6673C16.7361 26.6673 17.333 25.9851 17.333 25.1435V17.334H25.1425C25.9841 17.334 26.6663 16.737 26.6663 16.0007C26.6663 15.2643 25.9841 14.6673 25.1425 14.6673H17.333V6.85779Z" fill="#030235"/>
</svg>
