<svg width="16" height="16" viewBox="0 0 16 16" fill="none" xmlns="http://www.w3.org/2000/svg">
<path fill-rule="evenodd" clip-rule="evenodd" d="M8.66699 3.42792C8.66699 3.00713 8.36852 2.66602 8.00033 2.66602C7.63214 2.66602 7.33366 3.00713 7.33366 3.42792V7.33268H3.4289C3.00811 7.33268 2.66699 7.63116 2.66699 7.99935C2.66699 8.36754 3.00811 8.66602 3.4289 8.66602H7.33366V12.5708C7.33366 12.9916 7.63214 13.3327 8.00033 13.3327C8.36852 13.3327 8.66699 12.9916 8.66699 12.5708V8.66602H12.5718C12.9925 8.66602 13.3337 8.36754 13.3337 7.99935C13.3337 7.63116 12.9925 7.33268 12.5718 7.33268H8.66699V3.42792Z" fill="#030235"/>
</svg>
