<svg width="20" height="20" viewBox="0 0 20 20" fill="none" xmlns="http://www.w3.org/2000/svg">
<path d="M0 10C0 4.47715 4.47715 0 10 0V0C15.5228 0 20 4.47715 20 10V10C20 15.5228 15.5228 20 10 20V20C4.47715 20 0 15.5228 0 10V10Z" fill="#030235"/>
<path fill-rule="evenodd" clip-rule="evenodd" d="M10.667 5.42792C10.667 5.00713 10.3685 4.66602 10.0003 4.66602C9.63214 4.66602 9.33366 5.00713 9.33366 5.42792V9.33268H5.4289C5.00811 9.33268 4.66699 9.63116 4.66699 9.99935C4.66699 10.3675 5.00811 10.666 5.4289 10.666H9.33366V14.5708C9.33366 14.9916 9.63214 15.3327 10.0003 15.3327C10.3685 15.3327 10.667 14.9916 10.667 14.5708V10.666H14.5718C14.9925 10.666 15.3337 10.3675 15.3337 9.99935C15.3337 9.63116 14.9925 9.33268 14.5718 9.33268H10.667V5.42792Z" fill="white"/>
</svg>
