<svg width="12" height="12" viewBox="0 0 12 12" fill="none" xmlns="http://www.w3.org/2000/svg">
<path fill-rule="evenodd" clip-rule="evenodd" d="M9.84883 2.88109C10.0504 2.67953 10.0504 2.35273 9.84883 2.15117C9.64727 1.94961 9.32047 1.94961 9.11891 2.15117L6 5.27008L2.88109 2.15117C2.67953 1.94961 2.35273 1.94961 2.15117 2.15117C1.94961 2.35273 1.94961 2.67953 2.15117 2.88109L5.27008 6L2.15117 9.11891C1.94961 9.32047 1.94961 9.64727 2.15117 9.84883C2.35273 10.0504 2.67953 10.0504 2.88109 9.84883L6 6.72992L9.11891 9.84883C9.32047 10.0504 9.64727 10.0504 9.84883 9.84883C10.0504 9.64727 10.0504 9.32047 9.84883 9.11891L6.72992 6L9.84883 2.88109Z" fill="#030235"/>
</svg>
