<svg width="24" height="24" viewBox="0 0 24 24" fill="none" xmlns="http://www.w3.org/2000/svg">
<path fill-rule="evenodd" clip-rule="evenodd" d="M19.6977 5.76217C20.1008 5.35905 20.1008 4.70546 19.6977 4.30234C19.2945 3.89922 18.6409 3.89922 18.2378 4.30234L12 10.5402L5.76217 4.30234C5.35905 3.89922 4.70546 3.89922 4.30234 4.30234C3.89922 4.70546 3.89922 5.35905 4.30234 5.76217L10.5402 12L4.30234 18.2378C3.89922 18.6409 3.89922 19.2945 4.30234 19.6977C4.70546 20.1008 5.35905 20.1008 5.76217 19.6977L12 13.4598L18.2378 19.6977C18.6409 20.1008 19.2945 20.1008 19.6977 19.6977C20.1008 19.2945 20.1008 18.6409 19.6977 18.2378L13.4598 12L19.6977 5.76217Z" fill="#030235"/>
</svg>
