<svg width="20" height="20" viewBox="0 0 20 20" fill="none" xmlns="http://www.w3.org/2000/svg">
<path fill-rule="evenodd" clip-rule="evenodd" d="M3.12492 1.66602C2.73814 1.66602 2.36721 1.81966 2.09372 2.09315C1.82023 2.36664 1.66659 2.73758 1.66659 3.12435V16.041H1.25033C0.790088 16.041 0.416992 16.4141 0.416992 16.8743C0.416992 17.3346 0.790088 17.7077 1.25033 17.7077H2.49992H11.2499H18.7503C19.2106 17.7077 19.5837 17.3346 19.5837 16.8743C19.5837 16.4141 19.2106 16.041 18.7503 16.041H18.3333V8.12435C18.3333 7.73758 18.1796 7.36664 17.9061 7.09315C17.6326 6.81966 17.2617 6.66602 16.8749 6.66602H12.0833V3.12435C12.0833 2.73758 11.9296 2.36664 11.6561 2.09315C11.3826 1.81966 11.0117 1.66602 10.6249 1.66602H3.12492ZM16.6666 8.33268V16.041H12.0833V8.33268H16.6666ZM10.4166 3.33268L10.4166 7.49935L10.4166 16.041H3.33325V3.33268H10.4166ZM4.99992 4.79102C4.53968 4.79102 4.16659 5.16411 4.16659 5.62435C4.16659 6.08459 4.53968 6.45768 4.99992 6.45768H7.49992C7.96016 6.45768 8.33325 6.08459 8.33325 5.62435C8.33325 5.16411 7.96016 4.79102 7.49992 4.79102H4.99992ZM5.41659 10.6243C5.41659 10.1641 5.78968 9.79102 6.24992 9.79102H8.74992C9.21016 9.79102 9.58325 10.1641 9.58325 10.6243C9.58325 11.0846 9.21016 11.4577 8.74992 11.4577H6.24992C5.78968 11.4577 5.41659 11.0846 5.41659 10.6243ZM4.99992 12.916C4.53968 12.916 4.16659 13.2891 4.16659 13.7493C4.16659 14.2096 4.53968 14.5827 4.99992 14.5827H7.49992C7.96016 14.5827 8.33325 14.2096 8.33325 13.7493C8.33325 13.2891 7.96016 12.916 7.49992 12.916H4.99992ZM12.9166 13.7493C12.9166 13.2891 13.2897 12.916 13.7499 12.916H14.9999C15.4602 12.916 15.8333 13.2891 15.8333 13.7493C15.8333 14.2096 15.4602 14.5827 14.9999 14.5827H13.7499C13.2897 14.5827 12.9166 14.2096 12.9166 13.7493ZM13.7499 9.79102C13.2897 9.79102 12.9166 10.1641 12.9166 10.6243C12.9166 11.0846 13.2897 11.4577 13.7499 11.4577H14.9999C15.4602 11.4577 15.8333 11.0846 15.8333 10.6243C15.8333 10.1641 15.4602 9.79102 14.9999 9.79102H13.7499Z" fill="#98A0AD"/>
</svg>
