<svg width="16" height="16" viewBox="0 0 16 16" fill="none" xmlns="http://www.w3.org/2000/svg">
<path d="M5.16634 1.99935V1.16602H5.49967V1.99935V2.49935H5.99967H9.99967H10.4997V1.99935V1.16602H10.833V1.99935V2.49935H11.333H13.9997C14.0439 2.49935 14.0863 2.51691 14.1175 2.54816C14.1488 2.57942 14.1663 2.62181 14.1663 2.66602V13.3327C14.1663 13.3769 14.1488 13.4193 14.1175 13.4505C14.0863 13.4818 14.0439 13.4993 13.9997 13.4993H1.99967C1.95547 13.4993 1.91308 13.4818 1.88182 13.4505C1.85057 13.4193 1.83301 13.3769 1.83301 13.3327V2.66602C1.83301 2.62181 1.85057 2.57942 1.88182 2.54816C1.91308 2.51691 1.95547 2.49935 1.99967 2.49935H4.66634H5.16634V1.99935ZM13.833 5.33268V4.83268H13.333H2.66634H2.16634V5.33268V12.666V13.166H2.66634H13.333H13.833V12.666V5.33268ZM8.02056 9.46757L10.024 7.46412L10.2592 7.69935L7.66634 10.2922L6.01637 8.64227L6.25268 8.40629L7.31337 9.46749L7.66692 9.82121L8.02056 9.46757Z" fill="#98A0AD" stroke="#98A0AD"/>
</svg>
