<svg width="20" height="20" viewBox="0 0 20 20" fill="none" xmlns="http://www.w3.org/2000/svg">
<path d="M13.667 2.50065V3.00065H14.167H17.5003C17.5887 3.00065 17.6735 3.03577 17.736 3.09828C17.7985 3.16079 17.8337 3.24558 17.8337 3.33398V16.6673C17.8337 16.7557 17.7985 16.8405 17.736 16.903C17.6735 16.9655 17.5887 17.0007 17.5003 17.0007H2.50033C2.41192 17.0007 2.32713 16.9655 2.26462 16.903C2.20211 16.8405 2.16699 16.7557 2.16699 16.6673V3.33398C2.16699 3.24558 2.20211 3.16079 2.26462 3.09828C2.32714 3.03577 2.41192 3.00065 2.50033 3.00065H5.83366H6.33366V2.50065V1.33398H7.00033V2.50065V3.00065H7.50033H12.5003H13.0003V2.50065V1.33398H13.667V2.50065ZM13.0003 4.16732V3.66732H12.5003H7.50033H7.00033V4.16732V5.33398H6.33366V4.16732V3.66732H5.83366H3.33366H2.83366V4.16732V7.50065V8.00065H3.33366H16.667H17.167V7.50065V4.16732V3.66732H16.667H14.167H13.667V4.16732V5.33398H13.0003V4.16732ZM17.167 9.16732V8.66732H16.667H3.33366H2.83366V9.16732V15.834V16.334H3.33366H16.667H17.167V15.834V9.16732Z" fill="#030235" stroke="#6B6E85"/>
</svg>
