<svg width="24" height="24" viewBox="0 0 24 24" fill="none" xmlns="http://www.w3.org/2000/svg">
<path d="M12 3C10.9 3 10 3.93333 10 5.07407C10 6.21481 10.9 7.14815 12 7.14815C13.1 7.14815 14 6.21481 14 5.07407C14 3.93333 13.1 3 12 3ZM12 17.5185C10.9 17.5185 10 18.4519 10 19.5926C10 20.7333 10.9 21.6667 12 21.6667C13.1 21.6667 14 20.7333 14 19.5926C14 18.4519 13.1 17.5185 12 17.5185ZM12 10.2593C10.9 10.2593 10 11.1926 10 12.3333C10 13.4741 10.9 14.4074 12 14.4074C13.1 14.4074 14 13.4741 14 12.3333C14 11.1926 13.1 10.2593 12 10.2593Z" fill="#030235"/>
</svg>
