<svg width="20" height="20" viewBox="0 0 20 20" fill="none" xmlns="http://www.w3.org/2000/svg">
<path d="M18.3337 16.666H1.66699V14.9993H2.50033V9.19185C2.50033 5.03518 5.85866 1.66602 10.0003 1.66602C14.142 1.66602 17.5003 5.03518 17.5003 9.19185V14.9993H18.3337V16.666ZM4.16699 14.9993H15.8337V9.19185C15.8337 5.95602 13.222 3.33268 10.0003 3.33268C6.77866 3.33268 4.16699 5.95602 4.16699 9.19185V14.9993ZM7.91699 17.4993H12.0837C12.0837 18.0519 11.8642 18.5818 11.4735 18.9725C11.0828 19.3632 10.5529 19.5827 10.0003 19.5827C9.44779 19.5827 8.91789 19.3632 8.52719 18.9725C8.13649 18.5818 7.91699 18.0519 7.91699 17.4993V17.4993Z" fill="#98A0AD"/>
</svg>
