<svg width="16" height="16" viewBox="0 0 16 16" fill="none" xmlns="http://www.w3.org/2000/svg">
<path d="M13.9997 12.5007H14.1663V12.834H1.83301V12.5007H1.99967H2.49967V12.0007V7.35465C2.49967 4.30387 4.96407 1.83398 7.99967 1.83398C11.0353 1.83398 13.4997 4.30387 13.4997 7.35465V12.0007V12.5007H13.9997ZM2.83301 12.0007V12.5007H3.33301H12.6663H13.1663V12.0007V7.35465C13.1663 4.49193 10.8552 2.16732 7.99967 2.16732C5.14411 2.16732 2.83301 4.49193 2.83301 7.35465V12.0007ZM9.05377 14.5007C8.99708 14.6202 8.91995 14.7303 8.82463 14.8256C8.60584 15.0444 8.30909 15.1673 7.99967 15.1673C7.69026 15.1673 7.39351 15.0444 7.17472 14.8256C7.07939 14.7303 7.00227 14.6202 6.94558 14.5007H9.05377Z" fill="#98A0AD" stroke="#98A0AD"/>
</svg>
