<svg width="20" height="20" viewBox="0 0 20 20" fill="none" xmlns="http://www.w3.org/2000/svg">
<path fill-rule="evenodd" clip-rule="evenodd" d="M0.654297 2.14453V11.3112C0.654297 13.9411 2.78627 16.0731 5.4162 16.0731H12.9742C13.516 17.1331 14.6188 17.8588 15.891 17.8588C17.6991 17.8588 19.1648 16.3931 19.1648 14.585C19.1648 12.7769 17.6991 11.3112 15.891 11.3112C14.1428 11.3112 12.7147 12.6814 12.622 14.4064H5.4162C3.70675 14.4064 2.32096 13.0207 2.32096 11.3112V7.73861L12.7765 7.73861C13.2027 9.05155 14.436 10.0007 15.891 10.0007C17.6991 10.0007 19.1648 8.53501 19.1648 6.72693C19.1648 4.91886 17.6991 3.45312 15.891 3.45312C14.3072 3.45312 12.9861 4.57773 12.6827 6.07194L2.32096 6.07194V2.14453H0.654297ZM15.891 8.33408C16.7786 8.33408 17.4981 7.61453 17.4981 6.72693C17.4981 5.83933 16.7786 5.11979 15.891 5.11979C15.0034 5.11979 14.2839 5.83933 14.2839 6.72693C14.2839 7.61453 15.0034 8.33408 15.891 8.33408ZM17.4981 14.585C17.4981 15.4726 16.7786 16.1921 15.891 16.1921C15.0034 16.1921 14.2839 15.4726 14.2839 14.585C14.2839 13.6974 15.0034 12.9779 15.891 12.9779C16.7786 12.9779 17.4981 13.6974 17.4981 14.585Z" fill="#98A0AD"/>
</svg>
