<svg width="24" height="24" viewBox="0 0 24 24" fill="none" xmlns="http://www.w3.org/2000/svg">
<path d="M5 11.9408C5 11.3849 4.55228 10.9342 4 10.9342C3.44772 10.9342 3 11.3849 3 11.9408V17.9803C3 19.648 4.34315 21 6 21H18C19.6569 21 21 19.648 21 17.9803V11.9408C21 11.3849 20.5523 10.9342 20 10.9342C19.4477 10.9342 19 11.3849 19 11.9408V17.9803C19 18.5362 18.5523 18.9868 18 18.9868H6C5.44772 18.9868 5 18.5362 5 17.9803V11.9408Z" fill="#030235"/>
<path d="M12.705 3.29269C12.5242 3.11179 12.2751 3 12 3C11.8644 3 11.7351 3.02716 11.6172 3.07638C11.4993 3.1255 11.3888 3.19831 11.2929 3.29482L7.29289 7.32114C6.90237 7.71423 6.90237 8.35156 7.29289 8.74465C7.68342 9.13775 8.31658 9.13775 8.70711 8.74465L11 6.43668V15.0789C11 15.6349 11.4477 16.0855 12 16.0855C12.5523 16.0855 13 15.6349 13 15.0789V6.43667L15.2929 8.74465C15.6834 9.13775 16.3166 9.13775 16.7071 8.74465C17.0976 8.35156 17.0976 7.71423 16.7071 7.32114L12.705 3.29269Z" fill="#030235"/>
</svg>
