<svg width="20" height="20" viewBox="0 0 20 20" fill="none" xmlns="http://www.w3.org/2000/svg">
<path d="M9.08353 1.75L17.3327 2.92917L18.511 11.1792L10.851 18.8392C10.6948 18.9954 10.4828 19.0832 10.2619 19.0832C10.0409 19.0832 9.82897 18.9954 9.6727 18.8392L1.4227 10.5892C1.26647 10.4329 1.17871 10.221 1.17871 10C1.17871 9.77903 1.26647 9.56711 1.4227 9.41083L9.08353 1.75ZM9.6727 3.51833L3.1902 10L10.2619 17.0708L16.7435 10.5892L15.8602 4.40167L9.6727 3.51833V3.51833ZM11.4394 8.82167C11.1267 8.50893 10.9512 8.08482 10.9512 7.64262C10.9513 7.42367 10.9944 7.20687 11.0783 7.0046C11.1621 6.80233 11.2849 6.61855 11.4398 6.46375C11.5946 6.30895 11.7785 6.18617 11.9808 6.10242C12.1831 6.01867 12.3999 5.97558 12.6188 5.97562C13.061 5.9757 13.4851 6.15143 13.7977 6.46417C14.1103 6.7769 14.2859 7.20102 14.2858 7.64321C14.2858 8.08541 14.11 8.50946 13.7973 8.82208C13.4845 9.13471 13.0604 9.31029 12.6182 9.31022C12.176 9.31014 11.752 9.1344 11.4394 8.82167V8.82167Z" fill="#98A0AD"/>
</svg>
