<svg width="20" height="20" viewBox="0 0 20 20" fill="none" xmlns="http://www.w3.org/2000/svg">
<path fill-rule="evenodd" clip-rule="evenodd" d="M10.0003 3.33268C7.69914 3.33268 5.83366 5.19816 5.83366 7.49935C5.83366 9.80054 7.69914 11.666 10.0003 11.666C12.3015 11.666 14.167 9.80054 14.167 7.49935C14.167 5.19816 12.3015 3.33268 10.0003 3.33268ZM4.16699 7.49935C4.16699 4.27769 6.77866 1.66602 10.0003 1.66602C13.222 1.66602 15.8337 4.27769 15.8337 7.49935C15.8337 10.721 13.222 13.3327 10.0003 13.3327C6.77866 13.3327 4.16699 10.721 4.16699 7.49935Z" fill="#6B6E85"/>
<path fill-rule="evenodd" clip-rule="evenodd" d="M10.0004 13.3327C8.61062 13.3327 7.24529 13.6984 6.04158 14.3931C4.83787 15.0878 3.83818 16.0871 3.14293 17.2905C2.9127 17.689 2.403 17.8254 2.00449 17.5952C1.60598 17.365 1.46956 16.8553 1.6998 16.4567C2.54136 15.0001 3.75144 13.7905 5.20846 12.9496C6.66549 12.1087 8.31816 11.666 10.0004 11.666C11.6827 11.666 13.3354 12.1088 14.7924 12.9497C16.2494 13.7907 17.4595 15.0002 18.301 16.4569C18.5312 16.8554 18.3948 17.3651 17.9963 17.5954C17.5978 17.8256 17.0881 17.6892 16.8578 17.2906C16.1626 16.0872 15.1629 15.0879 13.9593 14.3932C12.7556 13.6984 11.3902 13.3327 10.0004 13.3327Z" fill="#6B6E85"/>
</svg>
